<?xml version="1.0" encoding="UTF-8" standalone="no"?>
<svg
   xmlns:dc="http://purl.org/dc/elements/1.1/"
   xmlns:cc="http://creativecommons.org/ns#"
   xmlns:rdf="http://www.w3.org/1999/02/22-rdf-syntax-ns#"
   xmlns:svg="http://www.w3.org/2000/svg"
   xmlns="http://www.w3.org/2000/svg"
   id="svg18334"
   version="1.1"
   viewBox="0 0 45.861164 49.831852"
   height="49.831852mm"
   width="45.861164mm">
  <defs
     id="defs18328">
    <clipPath
       id="clipPath6402-1"
       clipPathUnits="userSpaceOnUse">
      <path
         id="path6400-2"
         d="m 454.645,272.82 h 12.778 v -25.409 h -12.778 z" />
    </clipPath>
    <clipPath
       id="clipPath6422-9"
       clipPathUnits="userSpaceOnUse">
      <path
         id="path6420-3"
         d="m 464.613,259.722 h 50.973 v -55.303 h -50.973 z" />
    </clipPath>
    <clipPath
       id="clipPath6486-1"
       clipPathUnits="userSpaceOnUse">
      <path
         id="path6484-9"
         d="m 546.095,271.764 h 22.823 v -22.252 h -22.823 z" />
    </clipPath>
    <clipPath
       id="clipPath6522-4"
       clipPathUnits="userSpaceOnUse">
      <path
         id="path6520-7"
         d="m 517.656,253.103 h 26.792 v -5.616 h -26.792 z" />
    </clipPath>
    <clipPath
       id="clipPath6546-8"
       clipPathUnits="userSpaceOnUse">
      <path
         id="path6544-4"
         d="m 544.126,265.163 h 4.709 v -15.936 h -4.709 z" />
    </clipPath>
    <clipPath
       id="clipPath6566-5"
       clipPathUnits="userSpaceOnUse">
      <path
         id="path6564-0"
         d="m 470.884,273.561 h 65.347 v -53.847 h -65.347 z" />
    </clipPath>
    <clipPath
       id="clipPath6598-3"
       clipPathUnits="userSpaceOnUse">
      <path
         id="path6596-6"
         d="m 495.604,243.081 h 5.191 v -6.254 h -5.191 z" />
    </clipPath>
    <clipPath
       id="clipPath6614-1"
       clipPathUnits="userSpaceOnUse">
      <path
         id="path6612-0"
         d="m 492.782,256.409 h 4.365 v -5.237 h -4.365 z" />
    </clipPath>
    <clipPath
       id="clipPath6638-6"
       clipPathUnits="userSpaceOnUse">
      <path
         id="path6636-3"
         d="m 497.291,245.025 h 9.652 v -6.002 h -9.652 z" />
    </clipPath>
    <clipPath
       id="clipPath6666-2"
       clipPathUnits="userSpaceOnUse">
      <path
         id="path6664-0"
         d="m 486.687,225.46 h 29.786 v -22.838 h -29.786 z" />
    </clipPath>
    <clipPath
       id="clipPath6690-6"
       clipPathUnits="userSpaceOnUse">
      <path
         id="path6688-1"
         d="m 513.974,206.52 h 25.44 v -27.77 h -25.44 z" />
    </clipPath>
    <clipPath
       id="clipPath6714-5"
       clipPathUnits="userSpaceOnUse">
      <path
         id="path6712-5"
         d="m 525.359,202.124 h 14.493 v -22.54 h -14.493 z" />
    </clipPath>
    <clipPath
       id="clipPath6754-4"
       clipPathUnits="userSpaceOnUse">
      <path
         id="path6752-7"
         d="m 451.857,223.101 h 24.259 v -22.765 h -24.259 z" />
    </clipPath>
    <clipPath
       id="clipPath6790-6"
       clipPathUnits="userSpaceOnUse">
      <path
         id="path6788-5"
         d="m 468.942,259.902 h 15.983 v -34.466 h -15.983 z" />
    </clipPath>
    <clipPath
       id="clipPath6814-6"
       clipPathUnits="userSpaceOnUse">
      <path
         id="path6812-9"
         d="m 458.556,228.414 h 15.284 v -7.368 h -15.284 z" />
    </clipPath>
    <clipPath
       id="clipPath6838-3"
       clipPathUnits="userSpaceOnUse">
      <path
         id="path6836-7"
         d="m 517.03,233.117 h 38.877 V 214.698 H 517.03 Z" />
    </clipPath>
    <clipPath
       id="clipPath6858-4"
       clipPathUnits="userSpaceOnUse">
      <path
         id="path6856-5"
         d="m 554.149,217.661 h 26.607 v -27.294 h -26.607 z" />
    </clipPath>
    <clipPath
       id="clipPath6878-2"
       clipPathUnits="userSpaceOnUse">
      <path
         id="path6876-5"
         d="m 566.695,213.738 h 14.489 v -22.252 h -14.489 z" />
    </clipPath>
    <clipPath
       id="clipPath6898-4"
       clipPathUnits="userSpaceOnUse">
      <path
         id="path6896-7"
         d="m 494.111,258.204 h 8.019 v -4.551 h -8.019 z" />
    </clipPath>
  </defs>
  <metadata
     id="metadata18331">
    <rdf:RDF>
      <cc:Work
         rdf:about="">
        <dc:format>image/svg+xml</dc:format>
        <dc:type
           rdf:resource="http://purl.org/dc/dcmitype/StillImage" />
        <dc:title></dc:title>
      </cc:Work>
    </rdf:RDF>
  </metadata>
  <g
     transform="translate(53.168675,-44.542407)"
     id="layer1">
    <g
       id="g13520"
       transform="matrix(0.35277777,0,0,-0.35277777,-212.34257,157.43125)">
      <g
         id="g6392"
         transform="translate(466.3086,253.0044)">
        <path
           d="m 0,0 c 0,0 -9.283,4.239 -4.663,14.876 l -2.768,4.939 c 0,0 -6.93,-6.907 -3.055,-16.424 3.879,-9.52 11.6,-8.978 11.6,-8.978 z"
           style="fill:#00b8e2;fill-opacity:1;fill-rule:nonzero;stroke:none"
           id="path6394" />
      </g>
      <g
         id="g6396">
        <g
           id="g6398" />
        <g
           id="g6410">
          <g
             clip-path="url(#clipPath6402-1)"
             id="g6408"
             style="opacity:0.10000598">
            <g
               transform="translate(458.8779,272.8198)"
               id="g6406">
              <path
                 d="m 0,0 0.486,-0.867 c -1.794,-2.605 -4.444,-8.021 -1.709,-14.743 2.625,-6.444 7.007,-8.271 9.567,-8.783 l 0.201,-1.01 c 0,0 -7.722,-0.542 -11.601,8.979 C -6.931,-6.907 0,0 0,0"
                 style="fill:#230753;fill-opacity:1;fill-rule:nonzero;stroke:none"
                 id="path6404" />
            </g>
          </g>
        </g>
      </g>
      <g
         id="g6412"
         transform="translate(478.915,212.4326)">
        <path
           d="m 0,0 c 2.576,-6.507 9.938,-9.697 16.445,-7.121 l 13.754,5.439 c 6.51,2.575 9.698,9.936 7.123,16.445 L 23.904,48.669 c -2.565,6.509 -9.93,9.697 -16.436,7.123 L -6.291,50.349 c -6.506,-2.574 -9.698,-9.934 -7.121,-16.444 z"
           style="fill:#dddddd;fill-opacity:1;fill-rule:nonzero;stroke:none"
           id="path6414" />
      </g>
      <g
         id="g6416">
        <g
           id="g6418" />
        <g
           id="g6430">
          <g
             clip-path="url(#clipPath6422-9)"
             id="g6428"
             style="opacity:0.10000598">
            <g
               transform="translate(468.1084,259.7222)"
               id="g6426">
              <path
                 d="m 0,0 c -1.727,-3.183 -2.088,-7.076 -0.65,-10.709 l 13.412,-33.906 c 2.576,-6.508 9.937,-9.696 16.445,-7.121 l 13.754,5.439 c 1.771,0.702 3.286,1.765 4.517,3.061 -1.37,-2.52 -3.594,-4.597 -6.472,-5.735 l -13.754,-5.44 c -6.508,-2.576 -13.869,0.615 -16.445,7.121 L -2.605,-13.384 C -4.48,-8.645 -3.289,-3.467 0,0"
                 style="fill:#230753;fill-opacity:1;fill-rule:nonzero;stroke:none"
                 id="path6424" />
            </g>
          </g>
        </g>
      </g>
      <g
         id="g6432"
         transform="translate(458.0156,302.6064)">
        <path
           d="m 0,0 c -6.473,-15.14 1.822,-33.206 18.521,-40.346 16.694,-7.137 35.49,-0.649 41.958,14.492 C 66.957,-10.712 58.663,7.354 41.963,14.492 25.262,21.631 6.474,15.143 0,0"
           style="fill:#dddddd;fill-opacity:1;fill-rule:nonzero;stroke:none"
           id="path6434" />
      </g>
      <g
         id="g6436"
         transform="translate(462.2168,296.6025)">
        <path
           d="m 0,0 c -6.049,-14.15 0.91,-30.697 15.546,-36.95 14.629,-6.256 31.404,0.144 37.451,14.294 C 59.045,-8.505 52.086,8.042 37.451,14.295 22.819,20.553 6.049,14.152 0,0"
           style="fill:#040028;fill-opacity:1;fill-rule:nonzero;stroke:none"
           id="path6438" />
      </g>
      <g
         id="g6440"
         transform="translate(507.2324,263.4463)">
        <path
           d="m 0,0 c -8.805,-8.376 -22.75,-11.961 -38.504,-2.515 -14.984,8.988 -18.703,23.588 -11.753,39.846 2.105,4.911 5.237,9.052 9.022,12.25 0,0 -16.762,-30.564 6.871,-45.094 C -12.846,-8.748 0,0 0,0"
           style="fill:#ffffff;fill-opacity:1;fill-rule:nonzero;stroke:none"
           id="path6442" />
      </g>
      <g
         id="g6444"
         transform="translate(459.3008,269.2314)">
        <path
           d="m 0,0 2.535,1.77 c 1.512,1.089 1.088,4.265 -0.946,7.093 -2.032,2.828 -4.909,4.235 -6.422,3.146 l -2.359,-1.661 z"
           style="fill:#dddddd;fill-opacity:1;fill-rule:nonzero;stroke:none"
           id="path6446" />
      </g>
      <g
         id="g6448"
         transform="translate(452.1084,279.5796)">
        <path
           d="m 0,0 c -1.512,-1.089 -1.09,-4.266 0.944,-7.093 2.038,-2.828 4.913,-4.238 6.427,-3.147 1.51,1.09 1.092,4.265 -0.948,7.092 C 4.391,-0.317 1.515,1.09 0,0"
           style="fill:#ffffff;fill-opacity:1;fill-rule:nonzero;stroke:none"
           id="path6450" />
      </g>
      <g
         id="g6452"
         transform="translate(509.5176,297.7969)">
        <path
           d="m 0,0 c 0,0 -1.858,4.998 -8.655,8.766 0,0 -5.295,3.075 -6.143,1.131 0,0 -1.287,-2.088 3.488,-3.301 0,0 7.446,-1.775 11.31,-6.596"
           style="fill:#ffffff;fill-opacity:1;fill-rule:nonzero;stroke:none"
           id="path6454" />
      </g>
      <g
         id="g6456"
         transform="translate(551.1885,267.5181)">
        <path
           d="m 0,0 c -3.877,-0.64 -6.488,-4.347 -5.84,-8.285 l 0.599,-3.599 c 0.646,-3.937 4.316,-6.603 8.193,-5.964 3.873,0.636 6.486,4.351 5.836,8.288 L 8.192,-5.963 C 7.544,-2.029 3.872,0.643 0,0"
           style="fill:#ffffff;fill-opacity:1;fill-rule:nonzero;stroke:none"
           id="path6458" />
      </g>
      <g
         id="g6460"
         transform="translate(558.1475,259.5073)">
        <path
           d="m 0,0 c -1.302,-0.077 -2.292,-1.201 -2.21,-2.505 0.081,-1.303 1.203,-2.291 2.504,-2.208 l 7.075,0.444 c 1.308,0.078 2.295,1.202 2.213,2.504 -0.081,1.306 -1.201,2.291 -2.505,2.211 z"
           style="fill:#ffffff;fill-opacity:1;fill-rule:nonzero;stroke:none"
           id="path6462" />
      </g>
      <g
         id="g6464"
         transform="translate(558.2012,264.1001)">
        <path
           d="m 0,0 c -1.388,-0.361 -2.244,-1.681 -1.915,-2.946 0.332,-1.261 1.723,-1.984 3.107,-1.628 l 7.538,1.968 c 1.389,0.359 2.244,1.678 1.916,2.943 -0.333,1.265 -1.722,1.994 -3.109,1.628 z"
           style="fill:#ffffff;fill-opacity:1;fill-rule:nonzero;stroke:none"
           id="path6466" />
      </g>
      <g
         id="g6468"
         transform="translate(554.3125,267.0244)">
        <path
           d="m 0,0 c -1.177,-0.815 -1.533,-2.348 -0.79,-3.42 0.742,-1.072 2.297,-1.285 3.475,-0.471 L 9.097,0.531 C 10.283,1.346 10.635,2.876 9.896,3.952 9.15,5.027 7.597,5.238 6.413,4.422 Z"
           style="fill:#ffffff;fill-opacity:1;fill-rule:nonzero;stroke:none"
           id="path6470" />
      </g>
      <g
         id="g6472"
         transform="translate(548.5713,264.9673)">
        <path
           d="m 0,0 c -0.534,-1.127 -0.009,-2.496 1.174,-3.053 1.178,-0.555 2.566,-0.098 3.1,1.031 L 7.173,4.109 C 7.714,5.235 7.184,6.605 6.006,7.165 4.823,7.725 3.437,7.258 2.902,6.133 Z"
           style="fill:#ffffff;fill-opacity:1;fill-rule:nonzero;stroke:none"
           id="path6474" />
      </g>
      <g
         id="g6476"
         transform="translate(555.8711,256.4976)">
        <path
           d="m 0,0 c -1.165,0.443 -2.489,-0.187 -2.956,-1.406 -0.467,-1.216 0.102,-2.563 1.266,-3.012 l 6.332,-2.421 c 1.168,-0.453 2.491,0.179 2.955,1.393 0.466,1.224 -0.1,2.572 -1.261,3.014 z"
           style="fill:#ffffff;fill-opacity:1;fill-rule:nonzero;stroke:none"
           id="path6478" />
      </g>
      <g
         id="g6480">
        <g
           id="g6482" />
        <g
           id="g6510">
          <g
             clip-path="url(#clipPath6486-1)"
             id="g6508"
             style="opacity:0.10000598">
            <g
               transform="translate(558.5186,264.1841)"
               id="g6490">
              <path
                 d="M 0,0 4.564,4.316 C 5.366,5.157 5.821,5.838 5.728,6.721 6.407,5.649 6.053,4.169 4.891,3.372 Z"
                 style="fill:#230753;fill-opacity:1;fill-rule:nonzero;stroke:none"
                 id="path6488" />
            </g>
            <g
               transform="translate(554.9961,267.4951)"
               id="g6494">
              <path
                 d="M 0,0 0.423,2.526 C 0.55,3.051 0.675,3.912 0.145,4.269 1.943,2.756 0.268,0.668 0,0"
                 style="fill:#230753;fill-opacity:1;fill-rule:nonzero;stroke:none"
                 id="path6492" />
            </g>
            <g
               transform="translate(553.8145,250.6138)"
               id="g6498">
              <path
                 d="M 0,0 C 1.129,0.187 2.146,0.639 3.011,1.276 L 6.375,-0.01 C 7.543,-0.465 8.864,0.169 9.33,1.382 9.479,1.771 9.511,2.172 9.464,2.553 9.836,1.953 9.936,1.173 9.653,0.438 9.189,-0.776 7.866,-1.409 6.698,-0.956 L 3.336,0.332 C 2.47,-0.307 1.455,-0.758 0.326,-0.944 -3.32,-1.546 -6.784,0.78 -7.72,4.338 -6.466,1.326 -3.312,-0.545 0,0"
                 style="fill:#230753;fill-opacity:1;fill-rule:nonzero;stroke:none"
                 id="path6496" />
            </g>
            <g
               transform="translate(559.7041,259.6074)"
               id="g6502">
              <path
                 d="M 0,0 V 0 L 6.901,2.833 C 8.246,3.519 8.979,4.281 8.868,5.434 8.983,5.25 9.083,5.052 9.144,4.83 9.471,3.564 8.616,2.246 7.228,1.886 Z"
                 style="fill:#230753;fill-opacity:1;fill-rule:nonzero;stroke:none"
                 id="path6500" />
            </g>
            <g
               transform="translate(561.8848,255.0073)"
               id="g6506">
              <path
                 d="M 0,0 C -0.001,0.001 -1.828,-0.116 -1.833,-0.115 L 3.308,1.174 C 4.646,1.542 5.602,2.377 5.521,3.681 5.516,3.723 5.503,3.765 5.5,3.807 5.692,3.493 5.821,3.131 5.845,2.735 5.927,1.433 4.939,0.309 3.632,0.231 Z"
                 style="fill:#230753;fill-opacity:1;fill-rule:nonzero;stroke:none"
                 id="path6504" />
            </g>
          </g>
        </g>
      </g>
      <g
         id="g6512"
         transform="translate(544.4473,250.2915)">
        <path
           d="m 0,0 c 0,0 -22.228,-6.786 -26.791,0.753 l 5.893,15.22 c 0,0 7.216,-4.324 18.755,-2.236 0,0 -0.838,-0.652 0.815,-8.565 z"
           style="fill:#ffffff;fill-opacity:1;fill-rule:nonzero;stroke:none"
           id="path6514" />
      </g>
      <g
         id="g6516">
        <g
           id="g6518" />
        <g
           id="g6530">
          <g
             clip-path="url(#clipPath6522-4)"
             id="g6528"
             style="opacity:0.10000598">
            <g
               transform="translate(543.7275,253.103)"
               id="g6526">
              <path
                 d="m 0,0 0.72,-2.812 c 0,0 -22.228,-6.785 -26.791,0.753 l 0.78,2.007 C -20.036,-5.278 -3.552,-1 0,0"
                 style="fill:#230753;fill-opacity:1;fill-rule:nonzero;stroke:none"
                 id="path6524" />
            </g>
          </g>
        </g>
      </g>
      <g
         id="g6532"
         transform="translate(542.1592,264.0073)">
        <path
           d="m 0,0 c 0.053,0.009 0.096,0.011 0.146,0.021 0,0 -0.06,-0.049 -0.118,-0.276 C 0.02,-0.169 0.011,-0.08 0,0"
           style="fill:#ffffff;fill-opacity:1;fill-rule:nonzero;stroke:none"
           id="path6534" />
      </g>
      <g
         id="g6536"
         transform="translate(543.8535,265.1411)">
        <path
           d="m 0,0 c -1.364,-0.258 -2.228,-1.744 -1.93,-3.324 l 1.912,-10.163 c 0.298,-1.577 1.645,-2.644 3.007,-2.393 1.367,0.256 2.231,1.746 1.935,3.324 L 3.008,-2.388 C 2.711,-0.815 1.366,0.251 0,0"
           style="fill:#00b8e2;fill-opacity:1;fill-rule:nonzero;stroke:none"
           id="path6538" />
      </g>
      <g
         id="g6540">
        <g
           id="g6542" />
        <g
           id="g6554">
          <g
             clip-path="url(#clipPath6546-8)"
             id="g6552"
             style="opacity:0.10000598">
            <g
               transform="translate(545.4346,249.6455)"
               id="g6550">
              <path
                 d="M 0,0 C 1.366,0.256 2.229,1.747 1.933,3.325 L 0.019,13.49 c -0.169,0.888 -0.677,1.603 -1.328,2.024 1.268,0.072 2.458,-0.94 2.736,-2.407 L 3.343,2.94 C 3.639,1.361 2.775,-0.128 1.408,-0.384 0.815,-0.493 0.23,-0.341 -0.271,-0.019 -0.181,-0.012 -0.093,-0.016 0,0"
                 style="fill:#230753;fill-opacity:1;fill-rule:nonzero;stroke:none"
                 id="path6548" />
            </g>
          </g>
        </g>
      </g>
      <g
         id="g6556"
         transform="translate(516.3877,271.8135)">
        <path
           d="m 0,0 c 0,0 -1.791,1.846 -5.771,1.744 -3.97,-0.11 -18.592,-0.546 -18.592,-0.546 0,0 -4.492,0.044 -8.414,-3.764 -3.916,-3.808 -11.375,-10.224 -11.375,-10.224 0,0 -2.165,-1.854 -1.016,-4.964 1.149,-3.107 12.031,-28.141 12.031,-28.141 0,0 2.256,-3.654 1.019,-6.38 -1.233,-2.73 1.433,-3.445 1.433,-3.445 0,0 2.084,-0.254 1.419,-2.801 -0.662,-2.545 4.364,-17.768 12.802,-12.929 8.439,4.84 33.509,17.795 33.509,17.795 0,0 4.714,2.337 1.903,7.677 -2.812,5.343 -4.606,2.716 -3.369,7.599 0,0 0.792,2.597 -0.961,3.556 -1.744,0.959 -0.547,1.935 -0.547,1.935 0,0 1.654,1.063 0.926,2.753 -0.728,1.689 2.429,3.528 -2.148,5.48 z"
           style="fill:#ffffff;fill-opacity:1;fill-rule:nonzero;stroke:none"
           id="path6558" />
      </g>
      <g
         id="g6560">
        <g
           id="g6562" />
        <g
           id="g6578">
          <g
             clip-path="url(#clipPath6566-5)"
             id="g6576"
             style="opacity:0.10000598">
            <g
               transform="translate(530.459,238.9258)"
               id="g6570">
              <path
                 d="M 0,0 C 0,0 -0.066,-0.055 -0.145,-0.15 -0.108,1.368 1.847,2.998 -2.18,4.713 L -15.028,29.37 c 0,0 -1.793,1.845 -5.77,1.742 -3.973,-0.105 -18.594,-0.544 -18.594,-0.544 0,0 -4.492,0.043 -8.412,-3.763 -3.918,-3.809 -11.378,-10.224 -11.378,-10.224 0,0 -0.146,-0.127 -0.339,-0.364 -0.371,2.452 1.297,3.881 1.297,3.881 0,0 7.459,6.416 11.375,10.223 3.922,3.808 8.414,3.765 8.414,3.765 0,0 14.623,0.435 18.593,0.546 3.98,0.101 5.771,-1.744 5.771,-1.744 L -1.223,8.232 C 3.354,6.28 0.197,4.441 0.926,2.753 1.653,1.062 0,0 0,0"
                 style="fill:#230753;fill-opacity:1;fill-rule:nonzero;stroke:none"
                 id="path6568" />
            </g>
            <g
               transform="translate(534.3789,222.3174)"
               id="g6574">
              <path
                 d="m 0,0 c -2.813,5.343 -4.605,2.715 -3.369,7.599 0,0 0.792,2.596 -0.96,3.555 -1.746,0.96 -0.548,1.936 -0.548,1.936 0,0 1.058,0.702 1.092,1.855 0.115,-0.089 0.247,-0.18 0.412,-0.272 1.753,-0.959 0.961,-3.556 0.961,-3.556 C -3.649,6.234 -1.855,8.861 0.957,3.519 2.477,0.636 1.798,-1.366 0.854,-2.604 0.765,-1.829 0.509,-0.966 0,0"
                 style="fill:#230753;fill-opacity:1;fill-rule:nonzero;stroke:none"
                 id="path6572" />
            </g>
          </g>
        </g>
      </g>
      <g
         id="g6580"
         transform="translate(503.0732,266.7891)">
        <path
           d="M 0,0 -3.33,-5.957 C -3.727,-6.725 -3.819,-7.68 -3.518,-8.603 L 2.425,-29.02 c 0.573,-1.738 2.101,-2.215 3.923,-2.196 l 17.506,1.341 c 0.949,0.312 1.624,1.085 1.897,2.031 l 1.991,4.132"
           style="fill:#cfcfcf;fill-opacity:1;fill-rule:nonzero;stroke:none"
           id="path6582" />
      </g>
      <g
         id="g6584"
         transform="translate(496.4834,242.8896)">
        <path
           d="m 0,0 c -1.254,-0.617 -1.569,-2.535 -0.71,-4.285 0.858,-1.748 2.576,-2.666 3.832,-2.05 1.249,0.616 1.565,2.537 0.707,4.283 C 2.967,-0.304 1.253,0.615 0,0"
           style="fill:#cfcfcf;fill-opacity:1;fill-rule:nonzero;stroke:none"
           id="path6586" />
      </g>
      <g
         id="g6588"
         transform="translate(493.5557,256.2515)">
        <path
           d="m 0,0 c -1.048,-0.513 -1.307,-2.119 -0.594,-3.572 0.719,-1.461 2.15,-2.227 3.194,-1.712 1.045,0.512 1.306,2.115 0.588,3.57 C 2.471,-0.255 1.045,0.51 0,0"
           style="fill:#cfcfcf;fill-opacity:1;fill-rule:nonzero;stroke:none"
           id="path6590" />
      </g>
      <g
         id="g6592">
        <g
           id="g6594" />
        <g
           id="g6606">
          <g
             clip-path="url(#clipPath6598-3)"
             id="g6604"
             style="opacity:0.10000598">
            <g
               transform="translate(499.8369,240.1924)"
               id="g6602">
              <path
                 d="M 0,0 C -0.861,1.748 -2.575,2.667 -3.829,2.053 -3.978,1.98 -4.109,1.884 -4.232,1.778 c 0.2,0.401 0.488,0.728 0.878,0.919 1.253,0.616 2.967,-0.303 3.83,-2.051 C 1.233,-0.895 1.074,-2.567 0.168,-3.365 0.614,-2.479 0.592,-1.202 0,0"
                 style="fill:#230753;fill-opacity:1;fill-rule:nonzero;stroke:none"
                 id="path6600" />
            </g>
          </g>
        </g>
      </g>
      <g
         id="g6608">
        <g
           id="g6610" />
        <g
           id="g6622">
          <g
             clip-path="url(#clipPath6614-1)"
             id="g6620"
             style="opacity:0.10000598">
            <g
               transform="translate(496.2695,253.8926)"
               id="g6618">
              <path
                 d="M 0,0 C -0.719,1.458 -2.144,2.224 -3.188,1.712 -3.3,1.658 -3.396,1.585 -3.487,1.51 -3.322,1.883 -3.065,2.186 -2.714,2.359 -1.669,2.869 -0.243,2.104 0.475,0.645 1.117,-0.657 0.971,-2.071 0.185,-2.721 0.513,-1.988 0.476,-0.966 0,0"
                 style="fill:#230753;fill-opacity:1;fill-rule:nonzero;stroke:none"
                 id="path6616" />
            </g>
          </g>
        </g>
      </g>
      <g
         id="g6624"
         transform="translate(509.5937,242.8965)">
        <path
           d="m 0,0 c 0.516,-1.56 1.891,-2.034 3.379,-2.023 l 16.359,0.904 c 1.35,0.446 2.026,2.07 1.509,3.633 l -6.948,21.115 c -0.514,1.56 -1.728,2.225 -3.371,2.021 L -5.437,24.745 C -6.79,24.302 -7.466,22.676 -6.954,21.116 Z"
           style="fill:#dddddd;fill-opacity:1;fill-rule:nonzero;stroke:none"
           id="path6626" />
      </g>
      <g
         id="g6628"
         transform="translate(498.1406,241.4814)">
        <path
           d="M 0,0 C -0.8,-0.422 -1.084,-1.441 -0.64,-2.275 -0.199,-3.11 0.798,-3.443 1.592,-3.022 L 7.964,0.337 C 8.757,0.758 9.05,1.776 8.605,2.613 8.164,3.446 7.161,3.784 6.365,3.36 Z"
           style="fill:#dddddd;fill-opacity:1;fill-rule:nonzero;stroke:none"
           id="path6630" />
      </g>
      <g
         id="g6632">
        <g
           id="g6634" />
        <g
           id="g6646">
          <g
             clip-path="url(#clipPath6638-6)"
             id="g6644"
             style="opacity:0.10000598">
            <g
               transform="translate(498.1406,241.4814)"
               id="g6642">
              <path
                 d="M 0,0 6.365,3.36 C 7.161,3.784 8.164,3.446 8.605,2.613 8.716,2.402 8.781,2.18 8.803,1.959 8.32,2.65 7.418,2.909 6.685,2.521 L 0.319,-0.842 C -0.275,-1.154 -0.586,-1.804 -0.519,-2.458 -0.561,-2.399 -0.604,-2.343 -0.64,-2.275 -1.084,-1.441 -0.8,-0.422 0,0"
                 style="fill:#230753;fill-opacity:1;fill-rule:nonzero;stroke:none"
                 id="path6640" />
            </g>
          </g>
        </g>
      </g>
      <g
         id="g6648"
         transform="translate(509.5107,256.8926)">
        <path
           d="m 0,0 c 0.269,-0.845 1.269,-1.287 2.232,-0.976 l 10.052,0.683 c 0.965,0.305 1.525,1.241 1.255,2.092 l -1.86,5.832 C 11.408,8.48 10.731,8.743 9.443,8.611 L -0.605,7.926 C -1.57,7.619 -2.13,6.685 -1.859,5.834 Z"
           style="fill:#040028;fill-opacity:1;fill-rule:nonzero;stroke:none"
           id="path6650" />
      </g>
      <g
         id="g6652"
         transform="translate(515.9375,205.2129)">
        <path
           d="m 0,0 c 0,0 1.59,1.236 -0.709,6.114 -2.302,4.876 -6.456,21.654 -28.542,10.219 l 16.363,-26.456 c 0,0 2.163,-2.05 4.237,-0.677 C -6.574,-9.423 0,0 0,0"
           style="fill:#ffffff;fill-opacity:1;fill-rule:nonzero;stroke:none"
           id="path6654" />
      </g>
      <g
         id="g6656"
         transform="translate(508.3779,211.8418)">
        <path
           d="m 0,0 -4.103,5.768 c -1.208,1.697 -0.681,4.144 1.176,5.466 0.41,0.289 0.849,0.487 1.294,0.622 C 3.229,8.982 5.211,3.311 6.505,0.266 6.239,-0.08 5.932,-0.404 5.553,-0.677 3.693,-1.998 1.208,-1.695 0,0"
           style="fill:#00b8e2;fill-opacity:1;fill-rule:nonzero;stroke:none"
           id="path6658" />
      </g>
      <g
         id="g6660">
        <g
           id="g6662" />
        <g
           id="g6674">
          <g
             clip-path="url(#clipPath6666-2)"
             id="g6672"
             style="opacity:0.10000598">
            <g
               transform="translate(513.7197,202.7969)"
               id="g6670">
              <path
                 d="m 0,0 c 0,0 1.59,1.237 -0.708,6.113 -2.2,4.657 -6.748,21.2 -26.325,12.636 C -4.947,30.184 -0.793,13.406 1.509,8.53 3.808,3.652 2.218,2.416 2.218,2.416 2.218,2.416 2.396,2.089 0,0 -0.704,-0.393 0,0 0,0"
                 style="fill:#230753;fill-opacity:1;fill-rule:nonzero;stroke:none"
                 id="path6668" />
            </g>
          </g>
        </g>
      </g>
      <g
         id="g6676"
         transform="translate(527.1768,178.8193)">
        <path
           d="m 0,0 c 0,0 -4.247,-1.329 -10.155,7.197 0,0 -4.349,6.27 -9.793,7.502 0,0 -2.567,0.05 -1.633,2.731 0.931,2.677 9.854,10.011 9.854,10.011 0,0 0.757,0.95 2.744,-0.785 1.986,-1.73 5.223,-4.232 7.71,-9.757 0,0 1.358,1.096 6.383,6.273 5.03,5.179 7.127,-0.945 7.127,-0.945 z"
           style="fill:#00b8e2;fill-opacity:1;fill-rule:nonzero;stroke:none"
           id="path6678" />
      </g>
      <g
         id="g6680"
         transform="translate(527.1768,178.8193)">
        <path
           d="m 0,0 c 0,0 -4.247,-1.329 -10.155,7.197 0,0 -4.349,6.27 -9.793,7.502 0,0 -2.567,0.05 -1.633,2.731 0.931,2.677 9.854,10.011 9.854,10.011 0,0 0.757,0.95 2.744,-0.785 1.986,-1.73 5.223,-4.232 7.71,-9.757 0,0 1.358,1.096 6.383,6.273 5.03,5.179 7.127,-0.945 7.127,-0.945 z"
           style="fill:#00b8e2;fill-opacity:1;fill-rule:nonzero;stroke:none"
           id="path6682" />
      </g>
      <g
         id="g6684">
        <g
           id="g6686" />
        <g
           id="g6702">
          <g
             clip-path="url(#clipPath6690-6)"
             id="g6700"
             style="opacity:0.10000598">
            <g
               transform="translate(537.2725,199.54)"
               id="g6694">
              <path
                 d="M 0,0 C 0,0 -1.41,4.104 -4.682,2.747 0.126,7.374 2.142,1.506 2.142,1.506 l -12.238,-22.227 c 0,0 -0.478,-0.141 -1.326,-0.02 z"
                 style="fill:#230753;fill-opacity:1;fill-rule:nonzero;stroke:none"
                 id="path6692" />
            </g>
            <g
               transform="translate(523.7607,194.2148)"
               id="g6698">
              <path
                 d="m 0,0 c -2.488,5.522 -5.726,8.026 -7.711,9.759 -0.967,0.844 -1.64,1.049 -2.075,1.038 0.887,0.763 1.475,1.249 1.475,1.249 0,0 0.757,0.949 2.744,-0.785 C -3.625,9.568 -0.483,7.126 1.982,1.847 0.499,0.404 0,0 0,0"
                 style="fill:#230753;fill-opacity:1;fill-rule:nonzero;stroke:none"
                 id="path6696" />
            </g>
          </g>
        </g>
      </g>
      <g
         id="g6704"
         transform="translate(526.3896,185.7051)">
        <path
           d="m 0,0 c -1.482,-2.858 -1.367,-5.861 0.263,-6.711 1.627,-0.843 4.151,0.785 5.636,3.645 l 6.536,12.552 c 1.481,2.86 1.362,5.862 -0.263,6.708 -1.629,0.848 -4.151,-0.783 -5.637,-3.64 z"
           style="fill:#dddddd;fill-opacity:1;fill-rule:nonzero;stroke:none"
           id="path6706" />
      </g>
      <g
         id="g6708">
        <g
           id="g6710" />
        <g
           id="g6722">
          <g
             clip-path="url(#clipPath6714-5)"
             id="g6720"
             style="opacity:0.10000598">
            <g
               transform="translate(539.1924,199.6895)"
               id="g6718">
              <path
                 d="m 0,0 c -1.625,0.849 -4.147,-0.78 -5.635,-3.639 l -6.536,-12.554 c -0.701,-1.357 -1.035,-2.738 -1.026,-3.912 -0.953,1.248 -0.847,3.724 0.394,6.121 l 6.535,12.553 C -4.781,1.427 -2.26,3.058 -0.631,2.21 0.225,1.765 0.65,0.716 0.659,-0.588 0.474,-0.348 0.266,-0.136 0,0"
                 style="fill:#230753;fill-opacity:1;fill-rule:nonzero;stroke:none"
                 id="path6716" />
            </g>
          </g>
        </g>
      </g>
      <g
         id="g6724"
         transform="translate(472.8271,214.0381)">
        <path
           d="m 0,0 c 1.542,3.693 -0.252,7.967 -4.007,9.529 l -3.433,1.434 c -3.758,1.563 -8.052,-0.162 -9.595,-3.86 -1.54,-3.698 0.255,-7.967 4.013,-9.532 l 3.43,-1.427 C -5.836,-5.428 -1.543,-3.697 0,0"
           style="fill:#ffffff;fill-opacity:1;fill-rule:nonzero;stroke:none"
           id="path6726" />
      </g>
      <g
         id="g6728"
         transform="translate(462.1387,212.3525)">
        <path
           d="M 0,0 C 0.632,1.172 0.193,2.634 -0.978,3.268 -2.146,3.901 -3.607,3.466 -4.242,2.294 l -3.44,-6.358 c -0.638,-1.171 -0.2,-2.634 0.969,-3.268 1.173,-0.635 2.633,-0.198 3.27,0.971 z"
           style="fill:#ffffff;fill-opacity:1;fill-rule:nonzero;stroke:none"
           id="path6730" />
      </g>
      <g
         id="g6732"
         transform="translate(466.0762,209.8271)">
        <path
           d="M 0,0 C 0.44,1.391 -0.24,2.846 -1.513,3.241 -2.779,3.639 -4.165,2.831 -4.6,1.437 l -2.372,-7.582 c -0.441,-1.397 0.235,-2.847 1.506,-3.245 1.274,-0.397 2.65,0.41 3.092,1.803 z"
           style="fill:#ffffff;fill-opacity:1;fill-rule:nonzero;stroke:none"
           id="path6734" />
      </g>
      <g
         id="g6736"
         transform="translate(470.7061,211.6006)">
        <path
           d="M 0,0 C -0.069,1.464 -1.201,2.598 -2.53,2.536 -3.861,2.479 -4.882,1.244 -4.814,-0.214 l 0.355,-7.938 c 0.064,-1.463 1.196,-2.593 2.526,-2.537 1.333,0.06 2.356,1.293 2.287,2.752 z"
           style="fill:#ffffff;fill-opacity:1;fill-rule:nonzero;stroke:none"
           id="path6738" />
      </g>
      <g
         id="g6740"
         transform="translate(472.0371,217.6777)">
        <path
           d="M 0,0 C -0.69,1.072 -2.155,1.357 -3.277,0.641 -4.396,-0.078 -4.745,-1.527 -4.064,-2.6 l 3.734,-5.82 c 0.685,-1.077 2.15,-1.358 3.271,-0.643 1.122,0.721 1.472,2.169 0.788,3.24 z"
           style="fill:#ffffff;fill-opacity:1;fill-rule:nonzero;stroke:none"
           id="path6742" />
      </g>
      <g
         id="g6744"
         transform="translate(460.7559,215.9512)">
        <path
           d="m 0,0 c 1.016,0.766 1.193,2.248 0.389,3.313 -0.798,1.059 -2.271,1.301 -3.29,0.535 l -5.521,-4.166 c -1.015,-0.767 -1.186,-2.247 -0.388,-3.312 0.805,-1.063 2.272,-1.302 3.292,-0.533 z"
           style="fill:#ffffff;fill-opacity:1;fill-rule:nonzero;stroke:none"
           id="path6746" />
      </g>
      <g
         id="g6748">
        <g
           id="g6750" />
        <g
           id="g6778">
          <g
             clip-path="url(#clipPath6754-4)"
             id="g6776"
             style="opacity:0.10000598">
            <g
               transform="translate(473.6152,209.6357)"
               id="g6758">
              <path
                 d="m 0,0 c 1.123,0.723 1.472,2.17 0.79,3.241 l -2.479,3.868 c 0.359,2.348 -0.494,4.721 -2.207,6.356 2.612,-1.53 4.013,-4.474 3.572,-7.377 L 2.151,2.219 C 2.835,1.148 2.485,-0.3 1.363,-1.021 0.242,-1.736 -1.223,-1.455 -1.908,-0.378 l -0.048,0.075 C -1.323,-0.474 -0.612,-0.389 0,0"
                 style="fill:#230753;fill-opacity:1;fill-rule:nonzero;stroke:none"
                 id="path6756" />
            </g>
            <g
               transform="translate(467.4111,201.9346)"
               id="g6762">
              <path
                 d="m 0,0 c 1.332,0.06 1.842,0.694 2.287,2.752 l 1.046,6.073 c 0.123,-0.193 -0.166,0.141 0,0 L 3.648,1.729 C 3.718,0.27 2.695,-0.963 1.362,-1.023 0.516,-1.059 -0.249,-0.61 -0.711,0.099 -0.483,0.031 -0.247,-0.012 0,0"
                 style="fill:#230753;fill-opacity:1;fill-rule:nonzero;stroke:none"
                 id="path6760" />
            </g>
            <g
               transform="translate(457.3965,206.4805)"
               id="g6766">
              <path
                 d="M 0,0 3.948,4.36 1.196,-0.66 c -0.981,-1.339 -2.367,-1.234 -3.167,-0.8 -0.372,0.2 -0.659,0.491 -0.872,0.824 C -1.78,-0.937 -0.861,-0.723 0,0"
                 style="fill:#230753;fill-opacity:1;fill-rule:nonzero;stroke:none"
                 id="path6764" />
            </g>
            <g
               transform="translate(454.6094,212.3447)"
               id="g6770">
              <path
                 d="M 0,0 2.507,0.859 0.453,-0.677 C -0.818,-1.433 -2.105,-0.763 -2.663,-0.023 -2.698,0.023 -2.722,0.075 -2.753,0.122 -2.073,-0.077 -1.555,-0.5 0,0"
                 style="fill:#230753;fill-opacity:1;fill-rule:nonzero;stroke:none"
                 id="path6768" />
            </g>
            <g
               transform="translate(462.3389,203.2627)"
               id="g6774">
              <path
                 d="M 0,0 3.637,6.243 1.363,-1.022 C 0.921,-2.416 -0.455,-3.223 -1.729,-2.825 -2.27,-2.656 -2.693,-2.29 -2.979,-1.826 -1.737,-2.144 -1.094,-1.844 0,0"
                 style="fill:#230753;fill-opacity:1;fill-rule:nonzero;stroke:none"
                 id="path6772" />
            </g>
          </g>
        </g>
      </g>
      <g
         id="g6780"
         transform="translate(472.5518,225.4355)">
        <path
           d="m 0,0 -11.281,2.922 c 0,0 -1.676,4.649 3.855,19.022 l 3.266,7.384 c 1.926,4.361 7.029,6.331 11.388,4.404 4.362,-1.929 6.332,-7.027 4.407,-11.39 C 11.635,22.342 8.652,12.345 0,0"
           style="fill:#ffffff;fill-opacity:1;fill-rule:nonzero;stroke:none"
           id="path6782" />
      </g>
      <g
         id="g6784">
        <g
           id="g6786" />
        <g
           id="g6798">
          <g
             clip-path="url(#clipPath6790-6)"
             id="g6796"
             style="opacity:0.10000598">
            <g
               transform="translate(480.293,248.3047)"
               id="g6794">
              <path
                 d="m 0,0 c 1.926,4.362 -0.045,9.462 -4.406,11.391 -0.142,0.063 -0.288,0.11 -0.433,0.165 1.432,0.141 2.918,-0.07 4.325,-0.693 4.363,-1.929 6.332,-7.027 4.408,-11.39 0,0 -2.983,-9.997 -11.635,-22.342 l -3.611,0.933 C -2.919,-9.779 0,0 0,0"
                 style="fill:#230753;fill-opacity:1;fill-rule:nonzero;stroke:none"
                 id="path6792" />
            </g>
          </g>
        </g>
      </g>
      <g
         id="g6800"
         transform="translate(466.7471,251.0498)">
        <path
           d="m 0,0 c 0.836,0.269 1.778,0.297 2.709,-0.012 2.162,-0.714 3.389,-2.896 2.736,-4.876 l -2.222,-6.716 c -0.655,-1.98 -2.94,-3.002 -5.102,-2.284 -1.106,0.363 -1.962,1.113 -2.452,2.018 0.617,2.297 1.474,4.994 2.71,8.2 z"
           style="fill:#00b8e2;fill-opacity:1;fill-rule:nonzero;stroke:none"
           id="path6802" />
      </g>
      <g
         id="g6804"
         transform="translate(458.084,226.5635)">
        <path
           d="m 0,0 c -0.327,-1.348 0.67,-2.748 2.226,-3.131 l 10.049,-2.451 c 1.557,-0.383 3.089,0.403 3.418,1.749 0.33,1.351 -0.667,2.75 -2.225,3.135 L 3.417,1.755 C 1.858,2.136 0.33,1.352 0,0"
           style="fill:#00b8e2;fill-opacity:1;fill-rule:nonzero;stroke:none"
           id="path6806" />
      </g>
      <g
         id="g6808">
        <g
           id="g6810" />
        <g
           id="g6822">
          <g
             clip-path="url(#clipPath6814-6)"
             id="g6820"
             style="opacity:0.10000598">
            <g
               transform="translate(472.5869,221.9561)"
               id="g6818">
              <path
                 d="m 0,0 c 0.33,1.348 -0.666,2.75 -2.224,3.132 l -10.05,2.454 c -0.617,0.149 -1.222,0.113 -1.756,-0.061 0.645,0.757 1.785,1.121 2.944,0.837 L -1.035,3.909 C 0.523,3.524 1.521,2.125 1.19,0.774 0.991,-0.04 0.35,-0.643 -0.47,-0.91 -0.248,-0.653 -0.084,-0.346 0,0"
                 style="fill:#230753;fill-opacity:1;fill-rule:nonzero;stroke:none"
                 id="path6816" />
            </g>
          </g>
        </g>
      </g>
      <g
         id="g6824"
         transform="translate(555.9062,216.9346)">
        <path
           d="m 0,0 c 0,0 -9.418,19.734 -28.913,15.618 -7.028,-1.482 -9.963,-2.933 -9.963,-2.933 l 2.855,-16.324 c 0,0 15.906,-1.207 24.831,-8.135 0,0 2.1,-1.392 3.631,-0.281 z"
           style="fill:#ffffff;fill-opacity:1;fill-rule:nonzero;stroke:none"
           id="path6826" />
      </g>
      <g
         id="g6828"
         transform="translate(548.6514,221.0703)">
        <path
           d="M 0,0 -5.577,4.354 C -7.131,5.569 -7.371,7.862 -6.203,9.626 -1.165,7.112 2.431,3.135 4.632,0.1 3.219,-0.942 1.339,-1.048 0,0"
           style="fill:#00b8e2;fill-opacity:1;fill-rule:nonzero;stroke:none"
           id="path6830" />
      </g>
      <g
         id="g6832">
        <g
           id="g6834" />
        <g
           id="g6846">
          <g
             clip-path="url(#clipPath6838-3)"
             id="g6844"
             style="opacity:0.10000598">
            <g
               transform="translate(527.3398,230.6904)"
               id="g6842">
              <path
                 d="m 0,0 c -5.108,-0.563 -8.794,-0.51 -10.31,-1.071 0,0 2.935,1.451 9.963,2.933 19.495,4.117 28.913,-15.618 28.913,-15.618 l -1.402,-2.236 C 25.366,-12.677 16.524,1.834 0,0"
                 style="fill:#230753;fill-opacity:1;fill-rule:nonzero;stroke:none"
                 id="path6840" />
            </g>
          </g>
        </g>
      </g>
      <g
         id="g6848"
         transform="translate(568.5186,190.4336)">
        <path
           d="m 0,0 c 0,0 -4.248,-1.327 -10.156,7.196 0,0 -3.843,4.15 -9.292,5.385 0,0 -2.312,0.637 -1.374,3.315 0.931,2.681 7.453,11.073 7.453,11.073 0,0 0.76,0.949 2.749,-0.787 1.979,-1.733 6.854,-3.759 9.344,-9.28 0,0 1.36,1.095 6.385,6.272 5.03,5.174 7.128,-0.949 7.128,-0.949 z"
           style="fill:#00b8e2;fill-opacity:1;fill-rule:nonzero;stroke:none"
           id="path6850" />
      </g>
      <g
         id="g6852">
        <g
           id="g6854" />
        <g
           id="g6866">
          <g
             clip-path="url(#clipPath6858-4)"
             id="g6864"
             style="opacity:0.10000598">
            <g
               transform="translate(579.4482,211.1572)"
               id="g6862">
              <path
                 d="m 0,0 c 0,0 -2.101,6.123 -7.128,0.947 -5.026,-5.174 -5.517,-6.03 -5.517,-6.03 -2.486,5.521 -8.23,7.307 -10.214,9.04 -1.294,1.129 -2.059,1.119 -2.44,0.979 0.607,0.8 1,1.309 1,1.309 0,0 0.76,0.949 2.749,-0.787 1.98,-1.732 6.855,-3.759 9.344,-9.279 0,0 1.36,1.094 6.386,6.271 5.029,5.174 7.128,-0.949 7.128,-0.949 L -10.93,-20.724 c 0,0 -0.187,-0.053 -0.519,-0.067 z"
                 style="fill:#230753;fill-opacity:1;fill-rule:nonzero;stroke:none"
                 id="path6860" />
            </g>
          </g>
        </g>
      </g>
      <g
         id="g6868"
         transform="translate(567.7266,197.3203)">
        <path
           d="m 0,0 c -1.481,-2.859 -1.364,-5.86 0.257,-6.709 1.635,-0.849 4.16,0.782 5.644,3.645 l 6.531,12.549 c 1.488,2.863 1.368,5.864 -0.257,6.707 -1.63,0.85 -4.152,-0.781 -5.639,-3.636 z"
           style="fill:#dddddd;fill-opacity:1;fill-rule:nonzero;stroke:none"
           id="path6870" />
      </g>
      <g
         id="g6872">
        <g
           id="g6874" />
        <g
           id="g6886">
          <g
             clip-path="url(#clipPath6878-2)"
             id="g6884"
             style="opacity:0.10000598">
            <g
               transform="translate(580.3232,211.2031)"
               id="g6882">
              <path
                 d="m 0,0 c -1.629,0.85 -4.149,-0.781 -5.639,-3.638 l -6.535,-12.552 c -0.627,-1.212 -0.95,-2.44 -1.012,-3.527 -0.735,1.315 -0.562,3.611 0.589,5.834 l 6.536,12.556 C -4.573,1.528 -2.052,3.159 -0.422,2.31 0.514,1.824 0.935,0.608 0.85,-0.873 0.639,-0.497 0.364,-0.188 0,0"
                 style="fill:#230753;fill-opacity:1;fill-rule:nonzero;stroke:none"
                 id="path6880" />
            </g>
          </g>
        </g>
      </g>
      <g
         id="g6888"
         transform="translate(494.7939,255.25)">
        <path
           d="m 0,0 c -0.662,-0.356 -0.902,-1.203 -0.536,-1.899 0.371,-0.694 1.205,-0.97 1.868,-0.622 L 6.638,0.286 C 7.304,0.633 7.541,1.48 7.172,2.179 6.804,2.874 5.972,3.152 5.308,2.803 Z"
           style="fill:#dddddd;fill-opacity:1;fill-rule:nonzero;stroke:none"
           id="path6890" />
      </g>
      <g
         id="g6892">
        <g
           id="g6894" />
        <g
           id="g6906">
          <g
             clip-path="url(#clipPath6898-4)"
             id="g6904"
             style="opacity:0.10000598">
            <g
               transform="translate(501.9346,256.5352)"
               id="g6902">
              <path
                 d="m 0,0 c -0.367,0.697 -1.2,0.976 -1.865,0.626 l -5.306,-2.803 c -0.292,-0.156 -0.483,-0.416 -0.596,-0.705 -0.174,0.622 0.057,1.29 0.626,1.597 l 5.308,2.803 C -1.169,1.867 -0.337,1.588 0.031,0.894 0.238,0.501 0.237,0.069 0.094,-0.302 0.064,-0.199 0.052,-0.096 0,0"
                 style="fill:#230753;fill-opacity:1;fill-rule:nonzero;stroke:none"
                 id="path6900" />
            </g>
          </g>
        </g>
      </g>
      <g
         id="g6908"
         transform="translate(509.835,252.0415)">
        <path
           d="M 0,0 C -0.511,-1.12 -0.019,-2.44 1.102,-2.953 2.221,-3.46 3.542,-2.97 4.053,-1.847 L 4.35,-1.039 0.194,0.523 Z"
           style="fill:#05add4;fill-opacity:1;fill-rule:nonzero;stroke:none"
           id="path6910" />
      </g>
      <g
         id="g6912"
         transform="translate(510.0293,252.5645)">
        <path
           d="M 0,0 C -0.448,-0.985 0.091,-2.199 1.212,-2.712 2.332,-3.22 3.604,-2.836 4.053,-1.848 4.505,-0.861 3.962,0.351 2.841,0.861 1.722,1.373 0.451,0.986 0,0"
           style="fill:#00b8e2;fill-opacity:1;fill-rule:nonzero;stroke:none"
           id="path6914" />
      </g>
      <g
         id="g6916"
         transform="translate(514.2451,244.6582)">
        <path
           d="M 0,0 C -0.396,-0.874 -0.014,-1.905 0.863,-2.308 1.735,-2.705 2.768,-2.32 3.165,-1.446 L 3.398,-0.813 0.154,0.408 Z"
           style="fill:#b5052f;fill-opacity:1;fill-rule:nonzero;stroke:none"
           id="path6918" />
      </g>
      <g
         id="g6920"
         transform="translate(514.3994,245.0664)">
        <path
           d="M 0,0 C -0.351,-0.771 0.07,-1.72 0.945,-2.119 1.82,-2.517 2.813,-2.215 3.166,-1.445 3.516,-0.675 3.094,0.274 2.216,0.673 1.344,1.071 0.352,0.77 0,0"
           style="fill:#ce0636;fill-opacity:1;fill-rule:nonzero;stroke:none"
           id="path6922" />
      </g>
      <g
         id="g6924"
         transform="translate(521.7012,245.2041)">
        <path
           d="m 0,0 c -0.397,-0.874 -0.014,-1.906 0.861,-2.306 0.875,-0.4 1.907,-0.014 2.304,0.86 l 0.231,0.633 -3.244,1.221 z"
           style="fill:#b5052f;fill-opacity:1;fill-rule:nonzero;stroke:none"
           id="path6926" />
      </g>
      <g
         id="g6928"
         transform="translate(521.8535,245.6123)">
        <path
           d="M 0,0 C -0.349,-0.771 0.071,-1.72 0.948,-2.119 1.82,-2.516 2.816,-2.217 3.167,-1.445 3.519,-0.674 3.096,0.273 2.218,0.672 1.346,1.071 0.354,0.77 0,0"
           style="fill:#ce0636;fill-opacity:1;fill-rule:nonzero;stroke:none"
           id="path6930" />
      </g>
      <g
         id="g6932"
         transform="translate(521.2305,252.748)">
        <path
           d="m 0,0 c -0.507,-1.118 -0.016,-2.439 1.104,-2.953 1.12,-0.506 2.442,-0.015 2.952,1.105 l 0.295,0.809 -4.155,1.563 z"
           style="fill:#05add4;fill-opacity:1;fill-rule:nonzero;stroke:none"
           id="path6934" />
      </g>
      <g
         id="g6936"
         transform="translate(521.4268,253.272)">
        <path
           d="M 0,0 C -0.448,-0.986 0.093,-2.199 1.213,-2.712 2.331,-3.221 3.604,-2.838 4.055,-1.849 4.505,-0.863 3.961,0.35 2.839,0.86 1.722,1.372 0.452,0.986 0,0"
           style="fill:#00b8e2;fill-opacity:1;fill-rule:nonzero;stroke:none"
           id="path6938" />
      </g>
      <g
         id="g6940"
         transform="translate(515.7559,252.4121)">
        <path
           d="m 0,0 c -0.51,-1.119 -0.018,-2.439 1.103,-2.954 1.118,-0.506 2.44,-0.017 2.95,1.106 L 4.351,-1.04 0.195,0.523 Z"
           style="fill:#05add4;fill-opacity:1;fill-rule:nonzero;stroke:none"
           id="path6942" />
      </g>
      <g
         id="g6944"
         transform="translate(515.9512,252.9351)">
        <path
           d="M 0,0 C -0.448,-0.986 0.093,-2.2 1.214,-2.712 2.332,-3.221 3.603,-2.837 4.054,-1.85 4.504,-0.863 3.961,0.35 2.841,0.86 1.722,1.372 0.452,0.985 0,0"
           style="fill:#00b8e2;fill-opacity:1;fill-rule:nonzero;stroke:none"
           id="path6946" />
      </g>
      <g
         id="g6948"
         transform="translate(491.8486,307.3066)">
        <path
           d="m 0,0 c -0.291,-0.871 -1.232,-1.342 -2.104,-1.052 -0.871,0.291 -1.341,1.232 -1.051,2.103 0.291,0.871 1.232,1.343 2.103,1.052 C -0.181,1.813 0.29,0.871 0,0"
           style="fill:#ffffff;fill-opacity:1;fill-rule:nonzero;stroke:none"
           id="path6950" />
      </g>
    </g>
  </g>
</svg>
