<?xml version="1.0" encoding="UTF-8" standalone="no"?>
<!-- Created with Inkscape (http://www.inkscape.org/) -->

<svg
   xmlns:dc="http://purl.org/dc/elements/1.1/"
   xmlns:cc="http://creativecommons.org/ns#"
   xmlns:rdf="http://www.w3.org/1999/02/22-rdf-syntax-ns#"
   xmlns:svg="http://www.w3.org/2000/svg"
   xmlns="http://www.w3.org/2000/svg"
   xmlns:sodipodi="http://sodipodi.sourceforge.net/DTD/sodipodi-0.dtd"
   xmlns:inkscape="http://www.inkscape.org/namespaces/inkscape"
   width="104.98562mm"
   height="107.15625mm"
   viewBox="0 0 104.98562 107.15625"
   version="1.1"
   id="svg1313"
   inkscape:version="0.92.4 (5da689c313, 2019-01-14)"
   sodipodi:docname="locked_computer.svg">
  <defs
     id="defs1307" />
  <sodipodi:namedview
     id="base"
     pagecolor="#ffffff"
     bordercolor="#666666"
     borderopacity="1.0"
     inkscape:pageopacity="0.0"
     inkscape:pageshadow="2"
     inkscape:zoom="2.8"
     inkscape:cx="466.0955"
     inkscape:cy="-98.246919"
     inkscape:document-units="mm"
     inkscape:current-layer="layer1"
     showgrid="false"
     fit-margin-top="0"
     fit-margin-left="0"
     fit-margin-right="0"
     fit-margin-bottom="0"
     inkscape:window-width="3440"
     inkscape:window-height="1376"
     inkscape:window-x="0"
     inkscape:window-y="27"
     inkscape:window-maximized="1" />
  <metadata
     id="metadata1310">
    <rdf:RDF>
      <cc:Work
         rdf:about="">
        <dc:format>image/svg+xml</dc:format>
        <dc:type
           rdf:resource="http://purl.org/dc/dcmitype/StillImage" />
        <dc:title></dc:title>
      </cc:Work>
    </rdf:RDF>
  </metadata>
  <g
     inkscape:label="Calque 1"
     inkscape:groupmode="layer"
     id="layer1"
     transform="translate(436.51662,117.55011)">
    <g
       transform="matrix(0.35277777,0,0,0.35277777,-527.17035,-127.91296)"
       id="g1895">
      <path
         id="path18"
         d="m 408.42187,333.125 c -2.50781,0 -4.90234,-0.50781 -6.6914,-1.53906 L 262.15234,251 c -3.94922,-2.28125 -3.45312,-6.26172 1.10547,-8.89453 L 358.30078,187.25 c 2.49609,-1.4375 5.6875,-2.17578 8.71484,-2.17578 2.50782,0 4.90235,0.5039 6.69141,1.53906 l 139.57813,80.58594 c 3.94531,2.27734 3.45312,6.26172 -1.10547,8.89453 l -95.04297,54.85156 c -2.4961,1.44141 -5.6875,2.17969 -8.71485,2.17969"
         style="fill:#e3eef5;fill-opacity:1;fill-rule:nonzero;stroke:none"
         inkscape:connector-curvature="0" />
      <path
         id="path20"
         d="M 549.08203,119.41406 406.76562,37.246094 c -1.65625,-0.957032 -3.33203,-1.101563 -4.82421,-0.589844 l 0.008,-0.01563 -0.25781,0.09766 -0.0625,0.02344 -5.14454,1.96875 4.61719,2.257812 -0.0664,0.253907 -23.17969,105.519531 c -1.16016,5.27734 1.16406,11.44531 5.1875,13.76953 l 138.89453,80.19141 -0.49609,5.88281 5.62109,-2.17578 c 1.89062,-0.88282 3.40234,-2.88282 4.02734,-5.72657 l 23.17969,-105.51953 c 1.16016,-5.28125 -1.16406,-11.44531 -5.1875,-13.76953"
         style="fill:#233a78;fill-opacity:1;fill-rule:nonzero;stroke:none"
         inkscape:connector-curvature="0" />
      <path
         id="path22"
         d="M 549.08203,119.41406 406.76562,37.246094 c -1.65625,-0.957032 -3.33203,-1.101563 -4.82421,-0.589844 l 0.008,-0.01563 -0.25781,0.09766 -0.0625,0.02344 -5.14454,1.96875 4.61719,2.257812 -0.0664,0.253907 -15.27735,69.542971 69.63281,54.25 98.1836,-39.94922 c -0.94141,-2.44531 -2.50781,-4.52735 -4.49219,-5.67188"
         style="fill:#3f66b0;fill-opacity:1;fill-rule:nonzero;stroke:none"
         inkscape:connector-curvature="0" />
      <path
         id="path24"
         d="m 543.71484,135.63281 10.83594,-4.61328 c 0.19531,-4.19531 -1.53906,-8.53125 -4.39062,-10.84765 l -17.14844,7.21484 10.70312,8.24609"
         style="fill:#2e4a8c;fill-opacity:1;fill-rule:nonzero;stroke:none"
         inkscape:connector-curvature="0" />
      <path
         id="path26"
         d="m 516.49609,246.04687 -142.3164,-82.16796 c -4.02344,-2.32422 -6.34766,-8.48829 -5.1875,-13.76954 L 392.17187,44.589844 c 1.16016,-5.28125 5.36329,-7.675782 9.39063,-5.351563 l 142.31641,82.167969 c 4.02734,2.32422 6.35156,8.48828 5.1914,13.76953 l -23.17969,105.51953 c -1.16406,5.28125 -5.36718,7.67578 -9.39453,5.35156"
         style="fill:#d9eefa;fill-opacity:1;fill-rule:nonzero;stroke:none"
         inkscape:connector-curvature="0" />
      <path
         id="path28"
         d="M 513.41406,238.19922 379.56641,160.96094 c -3.6836,-2.12891 -5.8086,-7.76953 -4.75,-12.60157 l 21.21484,-96.558589 c 1.0625,-4.832031 4.90625,-7.027343 8.58984,-4.898437 l 133.84766,77.238286 c 3.68359,2.125 5.8125,7.76953 4.75,12.60156 l -21.21094,96.55859 c -1.0625,4.83203 -4.91015,7.02344 -8.59375,4.89844"
         style="fill:#ffffff;fill-opacity:1;fill-rule:nonzero;stroke:none"
         inkscape:connector-curvature="0" />
      <path
         id="path30"
         d="M 513.41406,238.19922 379.56641,160.96094 c -3.6836,-2.12891 -5.8086,-7.76953 -4.75,-12.60157 l 21.21484,-96.558589 c 1.0625,-4.832031 4.90625,-7.027343 8.58984,-4.898437 l 133.84766,77.238286 c 3.68359,2.125 5.8125,7.76953 4.75,12.60156 l -21.21094,96.55859 c -1.0625,4.83203 -4.91015,7.02344 -8.59375,4.89844"
         style="fill:#ffffff;fill-opacity:1;fill-rule:nonzero;stroke:none"
         inkscape:connector-curvature="0" />
      <path
         id="path32"
         d="m 518.46484,249.625 -19.45703,-2.56641 -125.57812,-72.5039 c -4.02344,-2.32422 -11.0586,-2.03516 -15.70703,0.65234 l -88.98438,51.35547 -11.76172,-1.55469 v 6.67578 h 0.0117 c -0.0781,1.54297 0.80078,3.02735 2.69922,4.125 l 142.32031,82.16407 c 4.02344,2.32421 11.05469,2.03515 15.70703,-0.64844 l 96.90625,-55.92969 c 2.61328,-1.51172 3.91797,-3.45703 3.84375,-5.28516 V 249.625"
         style="fill:#233a78;fill-opacity:1;fill-rule:nonzero;stroke:none"
         inkscape:connector-curvature="0" />
      <path
         id="path34"
         d="m 424.10547,203.8125 -8.91797,-5.15234 h -98.08984 l -48.35938,27.90234 -11.76172,-1.55469 v 6.67578 h 0.0117 c -0.0781,1.54297 0.80078,3.02735 2.69922,4.125 l 142.32031,82.16407 c 2.125,1.23046 5.09375,1.71875 8.10547,1.51953 L 424.10547,203.8125"
         style="fill:#3f66b0;fill-opacity:1;fill-rule:nonzero;stroke:none"
         inkscape:connector-curvature="0" />
      <path
         inkscape:connector-curvature="0"
         id="path36"
         d="m 262.19531,225.69922 -5.21875,-0.69141 v 6.67578 h 0.0117 c -0.0781,1.54297 0.80078,3.02735 2.69922,4.125 l 2.50781,1.44532 v -11.55469"
         style="fill:#5e91d1;fill-opacity:1;fill-rule:nonzero;stroke:none" />
      <path
         id="path38"
         d="m 403.4375,318.64062 c 3.81641,1.44532 9.27344,1.13282 13.34766,-0.82812 V 302.92187 H 403.4375 v 15.71875"
         style="fill:#2e4a8c;fill-opacity:1;fill-rule:nonzero;stroke:none"
         inkscape:connector-curvature="0" />
      <path
         inkscape:connector-curvature="0"
         id="path40"
         d="M 402.00781,311.30859 259.6875,229.14062 c -4.02344,-2.32421 -3.51953,-6.38281 1.12891,-9.07031 l 96.90625,-55.92969 c 4.64843,-2.68359 11.68359,-2.97656 15.70703,-0.65234 l 142.3164,82.16797 c 4.02735,2.32422 3.52344,6.38672 -1.125,9.07031 l -96.90625,55.92969 c -4.65234,2.68359 -11.68359,2.97656 -15.70703,0.65234"
         style="fill:#d9eefa;fill-opacity:1;fill-rule:nonzero;stroke:none" />
      <path
         id="path42"
         d="m 320.21875,201.9375 -6.44141,-3.71484 c -0.51562,-0.30079 -0.44922,-0.82032 0.14844,-1.16797 l 7.59766,-4.38672 c 0.59765,-0.34375 1.5,-0.38281 2.01953,-0.082 l 6.4375,3.71484 c 0.51562,0.30078 0.45312,0.82031 -0.14453,1.16797 l -7.60157,4.38672 c -0.59375,0.34375 -1.5,0.38281 -2.01562,0.082"
         style="fill:#233a78;fill-opacity:1;fill-rule:nonzero;stroke:none"
         inkscape:connector-curvature="0" />
      <path
         id="path44"
         d="m 330.16016,207.67969 -6.4375,-3.71875 c -0.51563,-0.29688 -0.45313,-0.81641 0.14453,-1.16407 l 7.60156,-4.38671 c 0.59766,-0.34375 1.5,-0.38282 2.01562,-0.0859 l 6.44141,3.71875 c 0.51563,0.30078 0.45313,0.82031 -0.14453,1.16406 l -7.60156,4.39063 c -0.59766,0.34375 -1.5,0.38281 -2.01953,0.082"
         style="fill:#233a78;fill-opacity:1;fill-rule:nonzero;stroke:none"
         inkscape:connector-curvature="0" />
      <path
         id="path46"
         d="m 340.10547,213.42187 -6.4375,-3.71875 c -0.51953,-0.29687 -0.45313,-0.82031 0.14453,-1.16406 l 7.60156,-4.39062 c 0.59766,-0.34375 1.5,-0.37891 2.01563,-0.082 l 6.4375,3.71875 c 0.51953,0.29687 0.45312,0.82031 -0.14063,1.16406 l -7.60156,4.39062 c -0.59766,0.34375 -1.5,0.37891 -2.01953,0.082"
         style="fill:#233a78;fill-opacity:1;fill-rule:nonzero;stroke:none"
         inkscape:connector-curvature="0" />
      <path
         id="path48"
         d="m 353.85937,208.67969 -6.4375,-3.71875 c -0.51953,-0.29688 -0.45312,-0.81641 0.14454,-1.16407 l 6.3789,-3.68359 c 0.59766,-0.34375 1.5,-0.38281 2.01953,-0.082 l 6.4375,3.71484 c 0.51563,0.30078 0.45313,0.82032 -0.14453,1.16407 l -6.3789,3.6875 c -0.59766,0.34375 -1.5,0.38281 -2.01954,0.082"
         style="fill:#233a78;fill-opacity:1;fill-rule:nonzero;stroke:none"
         inkscape:connector-curvature="0" />
      <path
         id="path50"
         d="m 363.80469,214.42187 -6.44141,-3.71875 c -0.51562,-0.29687 -0.44922,-0.82031 0.14844,-1.16406 l 6.3789,-3.68359 c 0.59766,-0.34375 1.5,-0.38281 2.01563,-0.0859 l 6.44141,3.71875 c 0.51562,0.30078 0.45312,0.82031 -0.14844,1.16406 l -6.37891,3.6875 c -0.59375,0.34375 -1.5,0.37891 -2.01562,0.082"
         style="fill:#233a78;fill-opacity:1;fill-rule:nonzero;stroke:none"
         inkscape:connector-curvature="0" />
      <path
         id="path52"
         d="m 373.74609,220.16016 -6.4375,-3.71485 c -0.51562,-0.30078 -0.45312,-0.82031 0.14453,-1.16406 l 6.38282,-3.68359 c 0.59765,-0.34375 1.5,-0.38282 2.01562,-0.0859 l 6.4375,3.71875 c 0.51953,0.29687 0.45313,0.82031 -0.14453,1.16406 l -6.37891,3.68359 c -0.59765,0.34766 -1.5,0.38282 -2.01953,0.082"
         style="fill:#233a78;fill-opacity:1;fill-rule:nonzero;stroke:none"
         inkscape:connector-curvature="0" />
      <path
         id="path54"
         d="m 383.69141,225.90234 -6.4375,-3.71484 c -0.51954,-0.30078 -0.45313,-0.82031 0.14453,-1.16797 l 6.3789,-3.67969 c 0.59766,-0.34765 1.5,-0.38281 2.01953,-0.0859 l 6.4375,3.71875 c 0.51954,0.29687 0.45313,0.82031 -0.14453,1.16406 l -6.3789,3.68359 c -0.59766,0.34375 -1.5,0.38281 -2.01953,0.082"
         style="fill:#233a78;fill-opacity:1;fill-rule:nonzero;stroke:none"
         inkscape:connector-curvature="0" />
      <path
         id="path56"
         d="m 393.63672,231.64453 -6.44141,-3.71875 c -0.51562,-0.29687 -0.44922,-0.82031 0.14844,-1.16406 l 6.37891,-3.6836 c 0.59765,-0.34375 1.5,-0.38281 2.01562,-0.082 l 6.44141,3.71875 c 0.51562,0.29688 0.45312,0.81641 -0.14453,1.16407 l -6.38282,3.68359 c -0.59375,0.34375 -1.5,0.37891 -2.01562,0.082"
         style="fill:#233a78;fill-opacity:1;fill-rule:nonzero;stroke:none"
         inkscape:connector-curvature="0" />
      <path
         id="path58"
         d="m 403.58203,237.38672 -6.44141,-3.71875 c -0.51562,-0.29688 -0.45312,-0.82031 0.14454,-1.16406 l 6.38281,-3.6836 c 0.59765,-0.34375 1.5,-0.38281 2.01562,-0.0859 l 6.4375,3.71875 c 0.51953,0.30079 0.45313,0.82032 -0.14062,1.16407 l -6.38281,3.6875 c -0.59766,0.34375 -1.5,0.3789 -2.01563,0.082"
         style="fill:#233a78;fill-opacity:1;fill-rule:nonzero;stroke:none"
         inkscape:connector-curvature="0" />
      <path
         id="path60"
         d="m 413.52344,243.12891 -6.4375,-3.71875 c -0.51563,-0.30079 -0.45313,-0.82032 0.14453,-1.16407 l 6.3789,-3.68359 c 0.59766,-0.34375 1.5,-0.38281 2.01954,-0.0859 l 6.4375,3.71875 c 0.51953,0.29688 0.45312,0.82031 -0.14454,1.16406 l -6.3789,3.6836 c -0.59766,0.34765 -1.5,0.38281 -2.01953,0.0859"
         style="fill:#233a78;fill-opacity:1;fill-rule:nonzero;stroke:none"
         inkscape:connector-curvature="0" />
      <path
         id="path62"
         d="m 423.46875,248.86719 -6.4375,-3.71485 c -0.51953,-0.30078 -0.45313,-0.82031 0.14453,-1.16797 l 6.37891,-3.67968 c 0.59765,-0.34766 1.5,-0.38282 2.01562,-0.0859 l 6.44141,3.71875 c 0.51562,0.29687 0.45312,0.82031 -0.14453,1.16406 l -6.38282,3.6836 c -0.59375,0.34375 -1.5,0.38281 -2.01562,0.082"
         style="fill:#233a78;fill-opacity:1;fill-rule:nonzero;stroke:none"
         inkscape:connector-curvature="0" />
      <path
         id="path64"
         d="m 433.41406,254.60937 -6.4375,-3.71484 c -0.51953,-0.30078 -0.45312,-0.82422 0.14063,-1.16797 L 433.5,246.04297 c 0.59766,-0.34375 1.5,-0.38281 2.01562,-0.082 l 6.44141,3.71875 c 0.51563,0.29687 0.44922,0.8164 -0.14453,1.16406 l -6.38281,3.68359 c -0.59375,0.34375 -1.5,0.37891 -2.01563,0.082"
         style="fill:#233a78;fill-opacity:1;fill-rule:nonzero;stroke:none"
         inkscape:connector-curvature="0" />
      <path
         id="path66"
         d="m 443.35547,260.35156 -6.4375,-3.71875 c -0.51563,-0.29687 -0.45313,-0.82031 0.14453,-1.16406 l 6.37891,-3.68359 c 0.59765,-0.34375 1.5,-0.38282 2.01953,-0.082 l 6.4375,3.71875 c 0.51953,0.29688 0.45312,0.81641 -0.14453,1.16407 l -6.37891,3.68359 c -0.59766,0.34375 -1.5,0.37891 -2.01953,0.082"
         style="fill:#233a78;fill-opacity:1;fill-rule:nonzero;stroke:none"
         inkscape:connector-curvature="0" />
      <path
         id="path68"
         d="m 368.51172,205.96094 -6.4375,-3.71875 c -0.51953,-0.29688 -0.45313,-0.81641 0.14453,-1.16407 l 6.37891,-3.68359 c 0.59765,-0.34375 1.5,-0.37891 2.01562,-0.082 l 6.44141,3.71875 c 0.51562,0.29687 0.45312,0.82031 -0.14453,1.16406 l -6.38282,3.6836 c -0.59375,0.34375 -1.5,0.38281 -2.01562,0.082"
         style="fill:#3f66b0;fill-opacity:1;fill-rule:nonzero;stroke:none"
         inkscape:connector-curvature="0" />
      <path
         id="path70"
         d="m 358.42187,200.13672 -6.4414,-3.71875 c -0.51563,-0.30078 -0.45313,-0.82031 0.14453,-1.16406 l 6.38281,-3.6836 c 0.59375,-0.34765 1.5,-0.38281 2.01563,-0.0859 l 6.4375,3.71875 c 0.51953,0.29688 0.45312,0.82032 -0.14453,1.16407 l -6.37891,3.68359 c -0.59766,0.34375 -1.5,0.38281 -2.01563,0.0859"
         style="fill:#3f66b0;fill-opacity:1;fill-rule:nonzero;stroke:none"
         inkscape:connector-curvature="0" />
      <path
         id="path72"
         d="m 348.3125,194.29687 -13.87109,-8.00781 c -0.51563,-0.29687 -0.45313,-0.8164 0.14453,-1.16406 l 6.38281,-3.68359 c 0.59375,-0.34375 1.5,-0.37891 2.01562,-0.082 l 13.86719,8.00782 c 0.51953,0.29687 0.45313,0.82031 -0.14453,1.16406 l -6.37891,3.68359 c -0.59765,0.34375 -1.5,0.38282 -2.01562,0.082"
         style="fill:#233a78;fill-opacity:1;fill-rule:nonzero;stroke:none"
         inkscape:connector-curvature="0" />
      <path
         id="path74"
         d="m 355.37891,187.19922 -11.25782,-6.4961 c -0.51562,-0.30078 -0.44922,-0.82031 0.14453,-1.16406 l 6.38282,-3.68359 c 0.59375,-0.34375 1.5,-0.38281 2.01562,-0.0859 l 11.25391,6.5 c 0.51953,0.29688 0.45312,0.82031 -0.14453,1.16406 l -6.37891,3.6836 c -0.59766,0.34375 -1.5,0.38281 -2.01562,0.082"
         style="fill:#233a78;fill-opacity:1;fill-rule:nonzero;stroke:none"
         inkscape:connector-curvature="0" />
      <path
         id="path76"
         d="m 378.45703,211.70312 -6.4375,-3.71875 c -0.51953,-0.29687 -0.45703,-0.82031 0.14063,-1.16406 l 6.38281,-3.68359 c 0.59765,-0.34375 1.5,-0.38281 2.01562,-0.082 L 387,206.76953 c 0.51562,0.30078 0.44922,0.82031 -0.14453,1.16797 l -6.38281,3.67969 c -0.59375,0.34765 -1.5,0.38672 -2.01563,0.0859"
         style="fill:#3f66b0;fill-opacity:1;fill-rule:nonzero;stroke:none"
         inkscape:connector-curvature="0" />
      <path
         id="path78"
         d="m 388.39844,217.44531 -6.4375,-3.71875 c -0.51563,-0.29687 -0.45313,-0.82031 0.14453,-1.16406 l 6.3789,-3.68359 c 0.59766,-0.34766 1.5,-0.38282 2.01954,-0.082 l 6.4375,3.71485 c 0.51953,0.30078 0.45312,0.82031 -0.14454,1.16406 l -6.3789,3.68359 c -0.59766,0.34375 -1.5,0.38282 -2.01953,0.0859"
         style="fill:#233a78;fill-opacity:1;fill-rule:nonzero;stroke:none"
         inkscape:connector-curvature="0" />
      <path
         id="path80"
         d="m 398.34375,223.1875 -6.4375,-3.71875 c -0.51563,-0.30078 -0.45313,-0.82031 0.14453,-1.16406 l 6.37891,-3.6875 c 0.59765,-0.34375 1.5,-0.37891 2.01562,-0.082 l 6.44141,3.71875 c 0.51562,0.29687 0.45312,0.82031 -0.14453,1.16406 l -6.37891,3.68359 c -0.59766,0.34375 -1.50391,0.38281 -2.01953,0.0859"
         style="fill:#233a78;fill-opacity:1;fill-rule:nonzero;stroke:none"
         inkscape:connector-curvature="0" />
      <path
         id="path82"
         d="m 408.28906,228.92578 -6.4375,-3.71484 c -0.51953,-0.30078 -0.45312,-0.82032 0.14063,-1.16407 l 6.38281,-3.6875 c 0.59766,-0.34375 1.5,-0.3789 2.01562,-0.082 l 6.44141,3.71875 c 0.51563,0.29688 0.44922,0.81641 -0.14453,1.16407 l -6.38281,3.68359 c -0.59375,0.34375 -1.5,0.38281 -2.01563,0.082"
         style="fill:#233a78;fill-opacity:1;fill-rule:nonzero;stroke:none"
         inkscape:connector-curvature="0" />
      <path
         id="path84"
         d="m 418.23437,234.66797 -6.4414,-3.71875 c -0.51563,-0.29688 -0.44922,-0.81641 0.14453,-1.16406 l 6.38281,-3.6836 c 0.59375,-0.34375 1.5,-0.38281 2.01563,-0.082 l 6.4375,3.71484 c 0.51953,0.30079 0.45312,0.82422 -0.14063,1.16407 l -6.38281,3.6875 c -0.59766,0.34375 -1.5,0.38281 -2.01563,0.082"
         style="fill:#233a78;fill-opacity:1;fill-rule:nonzero;stroke:none"
         inkscape:connector-curvature="0" />
      <path
         id="path86"
         d="m 428.17969,240.41016 -6.44141,-3.71875 c -0.51562,-0.29688 -0.45312,-0.82032 0.14453,-1.16407 l 6.37891,-3.68359 c 0.59765,-0.34375 1.5,-0.38281 2.01953,-0.082 l 6.4375,3.71484 c 0.51562,0.30078 0.45312,0.82031 -0.14453,1.16797 l -6.37891,3.67969 c -0.59765,0.34765 -1.5,0.38281 -2.01562,0.0859"
         style="fill:#233a78;fill-opacity:1;fill-rule:nonzero;stroke:none"
         inkscape:connector-curvature="0" />
      <path
         id="path88"
         d="m 438.12109,246.14844 -6.4375,-3.71485 c -0.51953,-0.29687 -0.45312,-0.82031 0.14453,-1.16406 l 6.37891,-3.68359 c 0.59766,-0.34766 1.5,-0.38282 2.01953,-0.0859 l 6.4375,3.71875 c 0.51563,0.30078 0.45313,0.82031 -0.14453,1.16406 l -6.37891,3.6836 c -0.59765,0.34375 -1.5,0.38281 -2.01953,0.082"
         style="fill:#233a78;fill-opacity:1;fill-rule:nonzero;stroke:none"
         inkscape:connector-curvature="0" />
      <path
         id="path90"
         d="m 448.06641,251.89062 -6.44141,-3.71484 c -0.51563,-0.30078 -0.44922,-0.82031 0.14453,-1.16406 l 6.38281,-3.6875 c 0.59375,-0.34375 1.5,-0.37891 2.01563,-0.082 l 6.4375,3.71875 c 0.51953,0.29687 0.45312,0.82031 -0.14063,1.16406 l -6.38281,3.68359 c -0.59766,0.34375 -1.5,0.38282 -2.01562,0.082"
         style="fill:#233a78;fill-opacity:1;fill-rule:nonzero;stroke:none"
         inkscape:connector-curvature="0" />
      <path
         id="path92"
         d="m 458.01172,257.63281 -6.44141,-3.71875 c -0.51562,-0.29687 -0.45312,-0.8164 0.14453,-1.16406 l 6.38282,-3.68359 c 0.59375,-0.34375 1.5,-0.37891 2.01562,-0.082 l 6.4375,3.71485 c 0.51953,0.30078 0.45313,0.82031 -0.14453,1.16797 l -6.37891,3.68359 c -0.59765,0.34375 -1.5,0.38281 -2.01562,0.082"
         style="fill:#233a78;fill-opacity:1;fill-rule:nonzero;stroke:none"
         inkscape:connector-curvature="0" />
      <path
         id="path94"
         d="m 475.6875,267.83984 -14.04688,-8.10937 c -0.51953,-0.30078 -0.45312,-0.82422 0.14063,-1.16797 l 6.38281,-3.68359 c 0.59766,-0.34375 1.5,-0.38282 2.01563,-0.082 l 14.05078,8.10938 c 0.51562,0.30078 0.45312,0.82031 -0.14453,1.16406 l -6.38282,3.6875 c -0.59375,0.34375 -1.5,0.38281 -2.01562,0.082"
         style="fill:#233a78;fill-opacity:1;fill-rule:nonzero;stroke:none"
         inkscape:connector-curvature="0" />
      <path
         id="path96"
         d="m 495.05078,256.66016 -11.86328,-6.84375 c -0.51563,-0.29688 -0.44922,-0.82032 0.14844,-1.16407 l 6.3789,-3.68359 c 0.59766,-0.34766 1.5,-0.38281 2.01563,-0.0859 l 11.85937,6.84766 c 0.51563,0.29687 0.45313,0.82031 -0.14453,1.16406 l -6.3789,3.68359 c -0.59766,0.34766 -1.5,0.38282 -2.01563,0.082"
         style="fill:#233a78;fill-opacity:1;fill-rule:nonzero;stroke:none"
         inkscape:connector-curvature="0" />
      <path
         id="path98"
         d="m 395.87109,210.57812 -6.4375,-3.71484 c -0.51953,-0.30078 -0.45312,-0.82031 0.14063,-1.16797 l 6.38281,-3.67969 c 0.59766,-0.34765 1.5,-0.38281 2.01563,-0.0859 l 6.4414,3.71875 c 0.51563,0.29687 0.44922,0.82031 -0.14453,1.16406 l -6.38281,3.68359 c -0.59766,0.34375 -1.5,0.38282 -2.01563,0.082"
         style="fill:#233a78;fill-opacity:1;fill-rule:nonzero;stroke:none"
         inkscape:connector-curvature="0" />
      <path
         id="path100"
         d="m 385.67969,204.69531 -6.44141,-3.71875 c -0.51562,-0.29687 -0.44922,-0.82031 0.14844,-1.16406 l 6.3789,-3.68359 c 0.59766,-0.34375 1.5,-0.38282 2.01563,-0.082 l 6.44141,3.71875 c 0.51562,0.29688 0.45312,0.81641 -0.14844,1.16407 l -6.37891,3.68359 c -0.59375,0.34375 -1.5,0.37891 -2.01562,0.082"
         style="fill:#233a78;fill-opacity:1;fill-rule:nonzero;stroke:none"
         inkscape:connector-curvature="0" />
      <path
         id="path102"
         d="m 375.48828,198.8125 -6.4375,-3.71875 c -0.51953,-0.29688 -0.45312,-0.82031 0.14063,-1.16406 l 6.38281,-3.6836 c 0.59765,-0.34375 1.5,-0.38281 2.01562,-0.0859 l 6.44141,3.71875 c 0.51562,0.30078 0.44922,0.82031 -0.14453,1.16406 l -6.38281,3.68359 c -0.59766,0.34766 -1.5,0.38281 -2.01563,0.0859"
         style="fill:#3f66b0;fill-opacity:1;fill-rule:nonzero;stroke:none"
         inkscape:connector-curvature="0" />
      <path
         id="path104"
         d="m 365.29687,192.92578 -6.4414,-3.71484 c -0.51563,-0.30078 -0.45313,-0.82032 0.14844,-1.16407 l 6.3789,-3.6875 c 0.59766,-0.34375 1.5,-0.3789 2.01563,-0.082 l 6.4414,3.71875 c 0.51563,0.29688 0.44922,0.82032 -0.14843,1.16407 l -6.37891,3.68359 c -0.59766,0.34375 -1.5,0.38281 -2.01563,0.082"
         style="fill:#233a78;fill-opacity:1;fill-rule:nonzero;stroke:none"
         inkscape:connector-curvature="0" />
      <path
         id="path106"
         d="m 405.81641,216.32031 -6.44141,-3.71484 c -0.51563,-0.30078 -0.44922,-0.82422 0.14453,-1.16797 l 6.37891,-3.68359 c 0.59765,-0.34375 1.5,-0.38282 2.01953,-0.082 l 6.4375,3.71875 c 0.51953,0.29688 0.45312,0.82032 -0.14453,1.16407 l -6.37891,3.68359 c -0.59766,0.34375 -1.5,0.37891 -2.01562,0.082"
         style="fill:#233a78;fill-opacity:1;fill-rule:nonzero;stroke:none"
         inkscape:connector-curvature="0" />
      <path
         id="path108"
         d="m 415.75781,222.0625 -6.4375,-3.71875 c -0.51562,-0.29688 -0.45312,-0.82031 0.14453,-1.16406 l 6.37891,-3.6836 c 0.59766,-0.34375 1.5,-0.38281 2.01953,-0.082 l 6.4375,3.71875 c 0.51563,0.29688 0.45313,0.81641 -0.14453,1.16406 l -6.37891,3.6836 c -0.59765,0.34375 -1.5,0.3789 -2.01953,0.082"
         style="fill:#233a78;fill-opacity:1;fill-rule:nonzero;stroke:none"
         inkscape:connector-curvature="0" />
      <path
         id="path110"
         d="m 425.70312,227.80469 -6.4375,-3.71875 c -0.51953,-0.30078 -0.45312,-0.82032 0.14454,-1.16407 l 6.3789,-3.68359 c 0.59766,-0.34375 1.5,-0.38281 2.01953,-0.0859 l 6.4375,3.71875 c 0.51563,0.30078 0.44922,0.82032 -0.14453,1.16407 l -6.3789,3.68359 c -0.60157,0.34375 -1.5,0.38281 -2.01954,0.0859"
         style="fill:#233a78;fill-opacity:1;fill-rule:nonzero;stroke:none"
         inkscape:connector-curvature="0" />
      <path
         id="path112"
         d="m 435.64844,233.54687 -6.44141,-3.71875 c -0.51562,-0.30078 -0.44922,-0.82031 0.14844,-1.16796 l 6.3789,-3.67969 c 0.59375,-0.34766 1.5,-0.38281 2.01563,-0.0859 l 6.4375,3.71875 c 0.51953,0.29688 0.45312,0.82031 -0.14063,1.16406 l -6.38281,3.6836 c -0.59765,0.34375 -1.5,0.38281 -2.01562,0.0859"
         style="fill:#233a78;fill-opacity:1;fill-rule:nonzero;stroke:none"
         inkscape:connector-curvature="0" />
      <path
         id="path114"
         d="m 445.59375,239.28516 -6.44141,-3.71875 c -0.51562,-0.29688 -0.45312,-0.82032 0.14453,-1.16407 l 6.38282,-3.68359 c 0.59375,-0.34375 1.5,-0.37891 2.01562,-0.082 l 6.4375,3.71875 c 0.51953,0.29687 0.45313,0.82031 -0.14453,1.16406 l -6.37891,3.68359 c -0.59765,0.34375 -1.5,0.38282 -2.01562,0.082"
         style="fill:#233a78;fill-opacity:1;fill-rule:nonzero;stroke:none"
         inkscape:connector-curvature="0" />
      <path
         id="path116"
         d="m 455.53516,245.02734 -6.4375,-3.71875 c -0.51954,-0.29687 -0.45313,-0.82031 0.14453,-1.16406 l 6.3789,-3.68359 c 0.59766,-0.34375 1.5,-0.38282 2.01953,-0.082 l 6.4375,3.71875 c 0.51563,0.29687 0.45313,0.8164 -0.14453,1.16406 l -6.3789,3.67969 c -0.59766,0.34765 -1.5,0.38281 -2.01953,0.0859"
         style="fill:#233a78;fill-opacity:1;fill-rule:nonzero;stroke:none"
         inkscape:connector-curvature="0" />
      <path
         id="path118"
         d="m 465.48047,250.76953 -6.44141,-3.71875 c -0.51562,-0.29687 -0.44922,-0.82031 0.14844,-1.16406 l 6.37891,-3.6836 c 0.59765,-0.34375 1.5,-0.38281 2.01562,-0.0859 l 6.44141,3.71875 c 0.51562,0.30078 0.45312,0.82031 -0.14453,1.16406 l -6.38282,3.68359 c -0.59765,0.34375 -1.5,0.38282 -2.01562,0.0859"
         style="fill:#233a78;fill-opacity:1;fill-rule:nonzero;stroke:none"
         inkscape:connector-curvature="0" />
      <path
         id="path120"
         d="m 475.42578,256.51172 -6.44141,-3.71875 c -0.51562,-0.30078 -0.45312,-0.82031 0.14454,-1.16406 l 6.38281,-3.6836 c 0.59375,-0.34375 1.5,-0.38281 2.01562,-0.0859 l 6.44141,3.71875 c 0.51562,0.30079 0.44922,0.82032 -0.14844,1.16407 l -6.3789,3.68359 c -0.59766,0.34375 -1.5,0.38281 -2.01563,0.0859"
         style="fill:#233a78;fill-opacity:1;fill-rule:nonzero;stroke:none"
         inkscape:connector-curvature="0" />
      <path
         id="path122"
         d="m 485.36719,262.25 -6.4375,-3.71875 c -0.51953,-0.29688 -0.45313,-0.81641 0.14453,-1.16406 l 6.3789,-3.67969 c 0.59766,-0.34766 1.5,-0.38281 2.01954,-0.0859 l 6.4375,3.71875 c 0.51953,0.29688 0.45312,0.82031 -0.14454,1.16406 l -6.3789,3.6836 c -0.59766,0.34375 -1.5,0.38281 -2.01953,0.082"
         style="fill:#233a78;fill-opacity:1;fill-rule:nonzero;stroke:none"
         inkscape:connector-curvature="0" />
      <path
         id="path124"
         d="m 390.63672,196.37891 -6.44141,-3.71875 c -0.51562,-0.29688 -0.45312,-0.82032 0.14453,-1.16407 l 6.38282,-3.68359 c 0.59375,-0.34375 1.5,-0.38281 2.01562,-0.082 l 6.4375,3.71484 c 0.51563,0.30078 0.45313,0.82031 -0.14453,1.16797 l -6.37891,3.68359 c -0.59765,0.34375 -1.5,0.37891 -2.01562,0.082"
         style="fill:#233a78;fill-opacity:1;fill-rule:nonzero;stroke:none"
         inkscape:connector-curvature="0" />
      <path
         id="path126"
         d="m 380.73828,190.66406 -6.4375,-3.71484 c -0.51953,-0.30078 -0.45312,-0.82031 0.14453,-1.16406 l 6.37891,-3.6836 c 0.59765,-0.34375 1.5,-0.38281 2.01953,-0.0859 l 6.4375,3.71875 c 0.51953,0.29688 0.45312,0.82032 -0.14453,1.16407 l -6.37891,3.68359 c -0.59765,0.34375 -1.5,0.38281 -2.01953,0.082"
         style="fill:#233a78;fill-opacity:1;fill-rule:nonzero;stroke:none"
         inkscape:connector-curvature="0" />
      <path
         id="path128"
         d="m 370.84375,184.95312 -6.4375,-3.71875 c -0.51563,-0.29687 -0.45313,-0.82031 0.14453,-1.16406 l 6.37891,-3.68359 c 0.59765,-0.34375 1.5,-0.38281 2.01953,-0.082 l 6.4375,3.71484 c 0.51562,0.30078 0.45312,0.82422 -0.14453,1.16797 l -6.37891,3.68359 c -0.59766,0.34375 -1.5,0.38282 -2.01953,0.082"
         style="fill:#233a78;fill-opacity:1;fill-rule:nonzero;stroke:none"
         inkscape:connector-curvature="0" />
      <path
         id="path130"
         d="m 360.94922,179.24219 -6.4375,-3.71875 c -0.51953,-0.29688 -0.45313,-0.82032 0.14453,-1.16407 l 6.37891,-3.68359 c 0.59765,-0.34766 1.5,-0.38281 2.01953,-0.0859 l 6.4375,3.71875 c 0.51953,0.29688 0.45312,0.82032 -0.14453,1.16407 l -6.37891,3.68359 c -0.59766,0.34766 -1.5,0.38281 -2.01953,0.0859"
         style="fill:#233a78;fill-opacity:1;fill-rule:nonzero;stroke:none"
         inkscape:connector-curvature="0" />
      <path
         id="path132"
         d="m 371.125,173.36719 -6.4375,-3.71875 c -0.51953,-0.29688 -0.45313,-0.82032 0.14453,-1.16407 l 2.10547,-1.21875 c 0.59766,-0.34375 1.50391,-0.38281 2.01953,-0.082 l 6.4375,3.71485 c 0.51953,0.30078 0.45313,0.82031 -0.14453,1.16797 l -2.10547,1.21484 c -0.59766,0.34766 -1.5,0.38281 -2.01953,0.0859"
         style="fill:#233a78;fill-opacity:1;fill-rule:nonzero;stroke:none"
         inkscape:connector-curvature="0" />
      <path
         id="path134"
         d="m 384.03906,180.82031 -6.4414,-3.71484 c -0.51563,-0.30078 -0.45313,-0.82031 0.14453,-1.16797 l 2.10937,-1.21484 c 0.59766,-0.34375 1.5,-0.38282 2.01563,-0.0859 l 6.4414,3.71875 c 0.51563,0.29687 0.45313,0.82031 -0.14453,1.16406 l -2.10937,1.21875 c -0.59766,0.34375 -1.5,0.38281 -2.01563,0.082"
         style="fill:#233a78;fill-opacity:1;fill-rule:nonzero;stroke:none"
         inkscape:connector-curvature="0" />
      <path
         id="path136"
         d="m 393.89062,186.51172 -6.4375,-3.71875 c -0.51953,-0.30078 -0.45312,-0.82031 0.14454,-1.16406 l 2.10937,-1.21875 c 0.59766,-0.34375 1.5,-0.38282 2.01563,-0.082 l 6.4375,3.71485 c 0.51953,0.30078 0.45312,0.82031 -0.14063,1.16797 l -2.11328,1.21484 c -0.59375,0.34375 -1.5,0.38281 -2.01563,0.0859"
         style="fill:#233a78;fill-opacity:1;fill-rule:nonzero;stroke:none"
         inkscape:connector-curvature="0" />
      <path
         id="path138"
         d="m 403.74609,192.19922 -6.4414,-3.71875 c -0.51563,-0.29688 -0.44922,-0.82031 0.14453,-1.16406 l 2.10937,-1.21875 c 0.59766,-0.34375 1.5,-0.37891 2.01563,-0.082 l 6.4414,3.71875 c 0.51563,0.29688 0.45313,0.82032 -0.14453,1.16407 l -2.10937,1.21875 c -0.59766,0.34375 -1.5,0.3789 -2.01563,0.082"
         style="fill:#233a78;fill-opacity:1;fill-rule:nonzero;stroke:none"
         inkscape:connector-curvature="0" />
      <path
         id="path140"
         d="m 413.59766,197.88672 -6.4375,-3.71485 c -0.51954,-0.30078 -0.45313,-0.82031 0.14453,-1.16406 l 2.10937,-1.21875 c 0.59766,-0.34765 1.5,-0.38281 2.01563,-0.0859 l 6.4375,3.71875 c 0.51953,0.30079 0.45312,0.82032 -0.14063,1.16407 l -2.11328,1.21875 c -0.59375,0.34375 -1.5,0.38281 -2.01562,0.082"
         style="fill:#233a78;fill-opacity:1;fill-rule:nonzero;stroke:none"
         inkscape:connector-curvature="0" />
      <path
         id="path142"
         d="m 468.60937,229.64844 -6.4414,-3.71875 c -0.51563,-0.29688 -0.44922,-0.82032 0.14453,-1.16407 l 2.11328,-1.21484 c 0.59375,-0.34766 1.5,-0.38672 2.01563,-0.0859 l 6.4375,3.71875 c 0.51562,0.29688 0.45312,0.82032 -0.14454,1.16407 l -2.10937,1.21484 c -0.59766,0.34766 -1.5,0.38281 -2.01563,0.0859"
         style="fill:#233a78;fill-opacity:1;fill-rule:nonzero;stroke:none"
         inkscape:connector-curvature="0" />
      <path
         id="path144"
         d="m 478.46094,235.33984 -6.4375,-3.71875 c -0.51563,-0.30078 -0.45313,-0.82031 0.14453,-1.16797 l 2.10937,-1.21484 c 0.59766,-0.34375 1.5,-0.38281 2.01563,-0.0859 l 6.4414,3.71875 c 0.51563,0.30078 0.45313,0.82032 -0.14453,1.16407 l -2.10937,1.21875 c -0.59766,0.34375 -1.5,0.38281 -2.01953,0.0859"
         style="fill:#233a78;fill-opacity:1;fill-rule:nonzero;stroke:none"
         inkscape:connector-curvature="0" />
      <path
         id="path146"
         d="m 488.31641,241.02734 -6.44141,-3.71875 c -0.51563,-0.29687 -0.44922,-0.82031 0.14453,-1.16406 l 2.10938,-1.21875 c 0.59765,-0.34375 1.5039,-0.38281 2.01953,-0.082 l 6.4375,3.71875 c 0.51953,0.29687 0.45312,0.81641 -0.14453,1.16406 l -2.10938,1.21485 c -0.59766,0.34375 -1.5,0.38281 -2.01562,0.0859"
         style="fill:#233a78;fill-opacity:1;fill-rule:nonzero;stroke:none"
         inkscape:connector-curvature="0" />
      <path
         id="path148"
         d="m 498.16797,246.71484 -6.4375,-3.71875 c -0.51563,-0.29687 -0.45313,-0.8164 0.14453,-1.16406 l 2.10937,-1.21875 c 0.59766,-0.34375 1.5,-0.37891 2.01563,-0.082 l 6.44141,3.71875 c 0.51562,0.29687 0.45312,0.82031 -0.14454,1.16406 l -2.10937,1.21875 c -0.59766,0.34375 -1.5,0.38281 -2.01953,0.082"
         style="fill:#233a78;fill-opacity:1;fill-rule:nonzero;stroke:none"
         inkscape:connector-curvature="0" />
      <path
         id="path150"
         d="m 400.57812,202.12109 -6.4375,-3.71875 c -0.51953,-0.29687 -0.45312,-0.82031 0.14454,-1.16406 l 6.3789,-3.68359 c 0.59766,-0.34375 1.5,-0.38282 2.01953,-0.082 l 6.4375,3.71484 c 0.51563,0.30078 0.45313,0.82031 -0.14453,1.16406 l -6.3789,3.6836 c -0.59766,0.34765 -1.5,0.38281 -2.01954,0.0859"
         style="fill:#233a78;fill-opacity:1;fill-rule:nonzero;stroke:none"
         inkscape:connector-curvature="0" />
      <path
         id="path152"
         d="m 410.52344,207.85937 -6.4375,-3.71484 c -0.51953,-0.29687 -0.45313,-0.82031 0.14453,-1.16406 l 6.3789,-3.6836 c 0.59766,-0.34765 1.5,-0.38281 2.01563,-0.0859 l 6.44141,3.71875 c 0.51562,0.30078 0.45312,0.82031 -0.14454,1.16406 l -6.38281,3.68359 c -0.59765,0.34375 -1.5,0.38282 -2.01562,0.082"
         style="fill:#233a78;fill-opacity:1;fill-rule:nonzero;stroke:none"
         inkscape:connector-curvature="0" />
      <path
         id="path154"
         d="m 420.46875,213.60156 -6.44141,-3.71484 c -0.51562,-0.30078 -0.45312,-0.82031 0.14453,-1.16406 l 6.38282,-3.6875 c 0.59375,-0.34375 1.5,-0.38282 2.01562,-0.082 l 6.4375,3.71875 c 0.51953,0.29688 0.45313,0.82032 -0.14453,1.16407 l -6.37891,3.68359 c -0.59765,0.34375 -1.5,0.38281 -2.01562,0.082"
         style="fill:#233a78;fill-opacity:1;fill-rule:nonzero;stroke:none"
         inkscape:connector-curvature="0" />
      <path
         id="path156"
         d="m 430.41016,219.34375 -6.4375,-3.71875 c -0.51954,-0.29688 -0.45313,-0.81641 0.14453,-1.16406 l 6.3789,-3.6836 c 0.59766,-0.34375 1.5,-0.38281 2.01953,-0.082 l 6.4375,3.71485 c 0.51954,0.30078 0.45313,0.82031 -0.14453,1.16796 l -6.3789,3.6836 c -0.59766,0.34375 -1.5,0.38281 -2.01953,0.082"
         style="fill:#233a78;fill-opacity:1;fill-rule:nonzero;stroke:none"
         inkscape:connector-curvature="0" />
      <path
         id="path158"
         d="m 440.35547,225.08594 -6.44141,-3.71875 c -0.51562,-0.29688 -0.44922,-0.82032 0.14844,-1.16407 l 6.37891,-3.68359 c 0.59765,-0.34375 1.5,-0.38281 2.01562,-0.082 l 6.44141,3.71484 c 0.51562,0.30078 0.45312,0.82032 -0.14453,1.16407 l -6.38282,3.6875 c -0.59765,0.34375 -1.5,0.3789 -2.01562,0.082"
         style="fill:#233a78;fill-opacity:1;fill-rule:nonzero;stroke:none"
         inkscape:connector-curvature="0" />
      <path
         id="path160"
         d="m 450.30078,230.82422 -6.44141,-3.71485 c -0.51562,-0.29687 -0.45312,-0.82031 0.14454,-1.16406 l 6.38281,-3.68359 c 0.59375,-0.34766 1.5,-0.38281 2.01562,-0.0859 l 6.44141,3.71875 c 0.51562,0.29688 0.44922,0.82031 -0.14844,1.16406 l -6.3789,3.6836 c -0.59766,0.34765 -1.5,0.38281 -2.01563,0.082"
         style="fill:#233a78;fill-opacity:1;fill-rule:nonzero;stroke:none"
         inkscape:connector-curvature="0" />
      <path
         id="path162"
         d="m 460.24219,236.56641 -6.4375,-3.71485 c -0.51953,-0.30078 -0.45313,-0.82031 0.14453,-1.16406 l 6.3789,-3.68359 c 0.59766,-0.34766 1.5,-0.38282 2.01954,-0.0859 l 6.4375,3.71875 c 0.51953,0.29687 0.45312,0.82031 -0.14454,1.16406 l -6.3789,3.68359 c -0.59766,0.34375 -1.5,0.38282 -2.01953,0.082"
         style="fill:#233a78;fill-opacity:1;fill-rule:nonzero;stroke:none"
         inkscape:connector-curvature="0" />
      <path
         id="path164"
         d="m 470.1875,242.30859 -6.4375,-3.71484 c -0.51953,-0.30078 -0.45313,-0.82422 0.14453,-1.16797 l 6.37891,-3.68359 c 0.59765,-0.34375 1.5,-0.38282 2.01562,-0.082 l 6.44141,3.71875 c 0.51562,0.29687 0.45312,0.8164 -0.14453,1.16406 l -6.38282,3.68359 c -0.59375,0.34375 -1.5,0.37891 -2.01562,0.082"
         style="fill:#233a78;fill-opacity:1;fill-rule:nonzero;stroke:none"
         inkscape:connector-curvature="0" />
      <path
         id="path166"
         d="m 480.13281,248.05078 -6.4414,-3.71875 c -0.51563,-0.29687 -0.44922,-0.82031 0.14843,-1.16406 l 6.37891,-3.6836 c 0.59766,-0.34375 1.5,-0.38281 2.01562,-0.082 l 6.44141,3.71485 c 0.51563,0.30078 0.45313,0.82031 -0.14844,1.16406 l -6.3789,3.6875 c -0.59375,0.34375 -1.5,0.37891 -2.01563,0.082"
         style="fill:#233a78;fill-opacity:1;fill-rule:nonzero;stroke:none"
         inkscape:connector-curvature="0" />
      <path
         id="path168"
         d="m 343.72656,202.82812 -18.96484,-10.94921 c -0.51563,-0.29688 -0.45313,-0.82032 0.14453,-1.16407 l 6.37891,-3.68359 c 0.59765,-0.34375 1.5,-0.38281 2.01953,-0.082 l 18.96484,10.94922 c 0.51563,0.29687 0.45313,0.82031 -0.14453,1.16406 l -6.38281,3.68359 c -0.59766,0.34375 -1.5,0.38282 -2.01563,0.082"
         style="fill:#233a78;fill-opacity:1;fill-rule:nonzero;stroke:none"
         inkscape:connector-curvature="0" />
      <path
         id="path170"
         d="m 465.89453,273.36328 -18.96484,-10.94922 c -0.51953,-0.30078 -0.45313,-0.82031 0.14453,-1.16797 l 6.3789,-3.68359 c 0.59766,-0.34375 1.5,-0.37891 2.01954,-0.082 l 18.96484,10.94922 c 0.51562,0.30078 0.44922,0.82031 -0.14844,1.16406 l -6.3789,3.68359 c -0.59766,0.34375 -1.5,0.38282 -2.01563,0.0859"
         style="fill:#233a78;fill-opacity:1;fill-rule:nonzero;stroke:none"
         inkscape:connector-curvature="0" />
      <path
         id="path172"
         d="m 426.125,263.08594 -6.4375,-3.71875 c -0.51953,-0.30078 -0.45313,-0.82032 0.14062,-1.16797 l 7.60157,-4.38672 c 0.59765,-0.34375 1.5,-0.38281 2.01953,-0.082 l 6.4375,3.71484 c 0.51562,0.30078 0.45312,0.82422 -0.14453,1.16797 L 428.14062,263 c -0.59375,0.34375 -1.5,0.38281 -2.01562,0.0859"
         style="fill:#233a78;fill-opacity:1;fill-rule:nonzero;stroke:none"
         inkscape:connector-curvature="0" />
      <path
         id="path174"
         d="m 353.91016,221.39062 -10.30079,-5.94531 c -0.51562,-0.30078 -0.44921,-0.82031 0.14844,-1.16406 l 7.59766,-4.39063 c 0.59765,-0.34375 1.5,-0.3789 2.01953,-0.082 l 10.29687,5.94532 c 0.51563,0.30078 0.45313,0.82031 -0.14453,1.16406 l -7.60156,4.39062 c -0.59766,0.34375 -1.5,0.37891 -2.01562,0.082"
         style="fill:#233a78;fill-opacity:1;fill-rule:nonzero;stroke:none"
         inkscape:connector-curvature="0" />
      <path
         id="path176"
         d="m 416.54297,257.55078 -10.29688,-5.94531 c -0.51562,-0.29688 -0.45312,-0.82031 0.14453,-1.16406 l 7.59766,-4.38672 c 0.60156,-0.34375 1.5,-0.38282 2.01953,-0.0859 l 10.29688,5.94531 c 0.51953,0.30078 0.45312,0.82031 -0.14453,1.16406 l -7.59766,4.39063 c -0.59766,0.34375 -1.5,0.38281 -2.01953,0.082"
         style="fill:#233a78;fill-opacity:1;fill-rule:nonzero;stroke:none"
         inkscape:connector-curvature="0" />
      <path
         id="path178"
         d="m 368.25781,229.67578 -10.29687,-5.94531 c -0.51953,-0.30078 -0.45313,-0.82422 0.14453,-1.16797 l 7.59765,-4.38672 c 0.59766,-0.34375 1.5,-0.38281 2.01954,-0.082 l 10.29687,5.94141 c 0.51563,0.30078 0.45313,0.82031 -0.14453,1.16796 l -7.60156,4.38672 c -0.59375,0.34375 -1.5,0.38282 -2.01563,0.0859"
         style="fill:#233a78;fill-opacity:1;fill-rule:nonzero;stroke:none"
         inkscape:connector-curvature="0" />
      <path
         id="path180"
         d="m 367.78906,218.13281 44.77344,25.84766 c 0.55859,0.32422 0.55859,0.84375 0,1.16406 l -7.75,4.47266 c -0.55469,0.32031 -1.45313,0.32031 -2.00781,0 l -44.77735,-25.84766 9.76172,-5.63672"
         style="fill:#233a78;fill-opacity:1;fill-rule:nonzero;stroke:none"
         inkscape:connector-curvature="0" />
      <path
         id="path182"
         d="m 453.91797,273.49219 7.17187,4.14453 c 0.42578,0.24219 0.3711,0.67187 -0.11718,0.95312 l -3.10938,1.79297 c -0.49219,0.28516 -1.23047,0.3125 -1.65234,0.0703 l -7.17578,-4.14062 c -0.42188,-0.24609 -0.3711,-0.67188 0.11718,-0.95703 l 3.11328,-1.79297 c 0.48829,-0.28516 1.22657,-0.3125 1.65235,-0.0703"
         style="fill:#233a78;fill-opacity:1;fill-rule:nonzero;stroke:none"
         inkscape:connector-curvature="0" />
      <path
         id="path184"
         d="m 443.89062,267.70312 7.17188,4.14454 c 0.42578,0.24218 0.37109,0.67187 -0.11719,0.95312 l -3.10937,1.79297 c -0.48828,0.28516 -1.23047,0.3125 -1.65235,0.0703 l -7.17578,-4.14062 c -0.42187,-0.2461 -0.36719,-0.67188 0.1211,-0.95703 l 3.10937,-1.79297 c 0.48828,-0.28516 1.23047,-0.3125 1.65234,-0.0703"
         style="fill:#233a78;fill-opacity:1;fill-rule:nonzero;stroke:none"
         inkscape:connector-curvature="0" />
      <path
         id="path186"
         d="m 433.94531,261.96484 7.17188,4.14063 c 0.42578,0.24219 0.37109,0.67187 -0.11719,0.95312 l -3.10938,1.79688 c -0.48828,0.28125 -1.23046,0.3125 -1.65234,0.0664 l -7.17187,-4.14062 c -0.42579,-0.24609 -0.3711,-0.67188 0.11718,-0.95313 l 3.10938,-1.79687 c 0.48828,-0.28125 1.23047,-0.3125 1.65234,-0.0664"
         style="fill:#233a78;fill-opacity:1;fill-rule:nonzero;stroke:none"
         inkscape:connector-curvature="0" />
      <path
         id="path188"
         d="m 449.38281,264.53516 7.17188,4.14062 c 0.42578,0.24609 0.37109,0.67188 -0.11719,0.95313 l -3.10938,1.79687 c -0.49218,0.28125 -1.23046,0.3125 -1.65625,0.0664 L 444.5,267.35156 c -0.42188,-0.24609 -0.37109,-0.67187 0.11719,-0.95312 l 3.11328,-1.79688 c 0.48828,-0.28125 1.22656,-0.3125 1.65234,-0.0664"
         style="fill:#233a78;fill-opacity:1;fill-rule:nonzero;stroke:none"
         inkscape:connector-curvature="0" />
      <path
         id="path200"
         d="m 417.80859,129.20703 c -0.21484,0 -0.44531,-0.0625 -0.67187,-0.19141 l -8.64844,-4.99218 c -0.80078,-0.46094 -1.27344,-1.60938 -1.05078,-2.5586 0.15625,-0.68359 0.625,-1.07812 1.17187,-1.07812 0.21875,0 0.44922,0.0625 0.67579,0.19531 l 8.64453,4.98828 c 0.80078,0.46485 1.27343,1.60938 1.05468,2.5625 -0.15625,0.67969 -0.625,1.07422 -1.17578,1.07422"
         style="fill:#eef8fd;fill-opacity:1;fill-rule:nonzero;stroke:none"
         inkscape:connector-curvature="0" />
      <path
         id="path206"
         d="m 407.37891,82.308594 c -0.21875,0 -0.44922,-0.0625 -0.67579,-0.195313 l -5.39843,-3.117187 c -0.80469,-0.460938 -1.27735,-1.609375 -1.0586,-2.558594 0.16016,-0.679688 0.62891,-1.078125 1.17578,-1.078125 0.21875,0 0.44922,0.0625 0.67579,0.195313 l 5.39843,3.117187 c 0.80469,0.464844 1.27344,1.609375 1.0586,2.558594 -0.16016,0.679687 -0.62891,1.078125 -1.17578,1.078125"
         style="fill:#eef8fd;fill-opacity:1;fill-rule:nonzero;stroke:none"
         inkscape:connector-curvature="0" />
      <path
         id="path208"
         d="m 424.02344,100.09375 c -0.21875,0 -0.44922,-0.0625 -0.67578,-0.195312 l -16.5,-9.527344 c -0.80079,-0.460938 -1.27735,-1.605469 -1.05469,-2.558594 0.15625,-0.679688 0.625,-1.078125 1.17187,-1.078125 0.21875,0 0.44922,0.06641 0.67578,0.195313 l 16.5,9.527343 c 0.80079,0.464844 1.27344,1.609375 1.05469,2.558594 -0.15625,0.679687 -0.625,1.078125 -1.17187,1.078125"
         style="fill:#eef8fd;fill-opacity:1;fill-rule:nonzero;stroke:none"
         inkscape:connector-curvature="0" />
      <path
         id="path210"
         d="m 409.58984,108.11328 c -0.21484,0 -0.44531,-0.0625 -0.67578,-0.19531 l -5.39844,-3.11719 c -0.80078,-0.46094 -1.27343,-1.60937 -1.05468,-2.55859 0.15625,-0.6836 0.6289,-1.07813 1.17578,-1.07813 0.21484,0 0.44531,0.0625 0.67578,0.19532 l 5.39844,3.11718 c 0.80468,0.46094 1.27343,1.60938 1.05468,2.5586 -0.15625,0.68359 -0.625,1.07812 -1.17578,1.07812"
         style="fill:#eef8fd;fill-opacity:1;fill-rule:nonzero;stroke:none"
         inkscape:connector-curvature="0" />
      <path
         id="path214"
         d="m 404.32812,121.42578 c -0.21875,0 -0.44921,-0.0625 -0.67578,-0.19531 l -3.46484,-2 c -0.80469,-0.46484 -1.27734,-1.60938 -1.05469,-2.5625 0.15625,-0.67969 0.625,-1.07422 1.17188,-1.07422 0.21875,0 0.44922,0.0586 0.67578,0.19141 l 3.46484,2 c 0.80469,0.46484 1.27735,1.60937 1.0586,2.5625 -0.16016,0.67968 -0.62891,1.07812 -1.17579,1.07812"
         style="fill:#eef8fd;fill-opacity:1;fill-rule:nonzero;stroke:none"
         inkscape:connector-curvature="0" />
      <path
         id="path216"
         d="m 401.83594,136.33594 c -0.21875,0 -0.44922,-0.0625 -0.67578,-0.19532 l -4.30469,-2.48437 c -0.80078,-0.46484 -1.27344,-1.60938 -1.05469,-2.55859 0.15625,-0.6836 0.62891,-1.07813 1.17578,-1.07813 0.21485,0 0.44531,0.0625 0.67188,0.19531 l 4.30468,2.48438 c 0.80469,0.46094 1.27735,1.60937 1.0586,2.55859 -0.16016,0.6836 -0.62891,1.07813 -1.17578,1.07813"
         style="fill:#eef8fd;fill-opacity:1;fill-rule:nonzero;stroke:none"
         inkscape:connector-curvature="0" />
      <path
         id="path218"
         d="m 418.58203,146.00391 c -0.21875,0 -0.44531,-0.0625 -0.67578,-0.19141 l -11.34766,-6.55469 c -0.80078,-0.46094 -1.27734,-1.60937 -1.05468,-2.55859 0.15625,-0.6836 0.625,-1.07813 1.17187,-1.07813 0.21875,0 0.44922,0.0625 0.67578,0.19532 l 11.34766,6.55078 c 0.80469,0.46484 1.27734,1.60937 1.05859,2.5625 -0.16015,0.67968 -0.6289,1.07422 -1.17578,1.07422"
         style="fill:#eef8fd;fill-opacity:1;fill-rule:nonzero;stroke:none"
         inkscape:connector-curvature="0" />
      <path
         id="path220"
         d="m 404.02734,145.77344 c -0.21875,0 -0.44922,-0.0586 -0.67578,-0.19141 l -8.16015,-4.71094 c -0.80079,-0.46484 -1.27735,-1.60937 -1.05469,-2.55859 0.15625,-0.68359 0.625,-1.07813 1.17187,-1.07813 0.21875,0 0.44922,0.0625 0.67578,0.19141 l 8.16016,4.71484 c 0.80078,0.46094 1.27734,1.60547 1.05469,2.5586 -0.15625,0.67969 -0.625,1.07422 -1.17188,1.07422"
         style="fill:#eef8fd;fill-opacity:1;fill-rule:nonzero;stroke:none"
         inkscape:connector-curvature="0" />
      <path
         id="path226"
         d="M 430.32031,112.10156 405.18359,97.585938 c -0.80468,-0.460938 -1.27734,-1.609376 -1.05468,-2.558594 0.21875,-0.949219 1.04687,-1.347656 1.84765,-0.882813 l 25.13672,14.511719 c 0.80469,0.46484 1.27734,1.61328 1.05859,2.5625 -0.22265,0.94922 -1.05078,1.34375 -1.85156,0.88281"
         style="fill:#d9eefa;fill-opacity:1;fill-rule:nonzero;stroke:none"
         inkscape:connector-curvature="0" />
      <path
         id="path228"
         d="m 416.27344,120.34375 -14.42188,-8.32812 c -0.80078,-0.46485 -1.27344,-1.60938 -1.05469,-2.5625 0.21875,-0.94922 1.04688,-1.34375 1.84766,-0.88282 l 14.42578,8.32813 c 0.80078,0.46484 1.27344,1.60937 1.05469,2.5625 -0.22266,0.94922 -1.05078,1.34375 -1.85156,0.88281"
         style="fill:#d9eefa;fill-opacity:1;fill-rule:nonzero;stroke:none"
         inkscape:connector-curvature="0" />
      <path
         id="path234"
         d="m 415.85937,136.45312 -17.33984,-10.01171 c -0.80078,-0.46094 -1.27344,-1.60938 -1.05469,-2.5586 0.22266,-0.94922 1.05078,-1.34765 1.85157,-0.88281 l 17.33593,10.01172 c 0.80469,0.46094 1.27735,1.60547 1.05469,2.55859 -0.21875,0.94922 -1.04687,1.34375 -1.84766,0.88281"
         style="fill:#d9eefa;fill-opacity:1;fill-rule:nonzero;stroke:none"
         inkscape:connector-curvature="0" />
      <path
         id="path236"
         d="M 415.71484,79.144531 402.96875,71.78125 c -0.80469,-0.460938 -1.27734,-1.605469 -1.05469,-2.558594 0.21875,-0.949218 1.04688,-1.34375 1.84766,-0.882812 l 12.74609,7.359375 c 0.80469,0.460937 1.27344,1.609375 1.05469,2.5625 -0.21875,0.949219 -1.04688,1.34375 -1.84766,0.882812"
         style="fill:#d9eefa;fill-opacity:1;fill-rule:nonzero;stroke:none"
         inkscape:connector-curvature="0" />
      <path
         id="path238"
         d="m 401.07812,152.44531 -14.76171,-8.52344 c -0.80079,-0.46093 -1.27344,-1.60937 -1.05469,-2.55859 0.21875,-0.95312 1.04687,-1.34766 1.84765,-0.88281 l 14.76563,8.52344 c 0.80078,0.46093 1.27344,1.60937 1.05469,2.55859 -0.21875,0.94922 -1.04688,1.34766 -1.85157,0.88281"
         style="fill:#d9eefa;fill-opacity:1;fill-rule:nonzero;stroke:none"
         inkscape:connector-curvature="0" />
      <g
         id="g1960">
        <path
           style="fill:#233a78;fill-opacity:1;fill-rule:nonzero;stroke:none"
           d="m 518.90234,106.98438 11.85157,6.84375 5.39843,-1.875 -16.20312,-9.35547 -76.92188,-33.531254 -1.39453,5.828125 77.26953,32.089849"
           id="path192"
           inkscape:connector-curvature="0" />
        <path
           style="fill:#d9eefa;fill-opacity:1;fill-rule:nonzero;stroke:none"
           d="M 530.75781,113.82813 484.64062,87.203125 443.02734,69.0625 l -7.94922,33.26563 c 0,0 -11.3125,40.92578 27.94922,88.97656 49.92578,3.4414 58.54297,-39.03907 58.54297,-39.03907 l 9.1875,-38.43749"
           id="path190"
           inkscape:connector-curvature="0" />
        <path
           style="fill:#3f66b0;fill-opacity:1;fill-rule:nonzero;stroke:none"
           d="m 530.75391,113.82813 -11.85157,-6.84375 -1.23047,5.15625 11.85157,6.83984 1.23047,-5.15234"
           id="path194"
           inkscape:connector-curvature="0" />
        <path
           style="fill:#eef8fd;fill-opacity:1;fill-rule:nonzero;stroke:none"
           d="m 432.87891,88.855469 c -0.21875,0 -0.44532,-0.05859 -0.67579,-0.191407 l -8.64453,-4.992187 c -0.80078,-0.460937 -1.27343,-1.609375 -1.05468,-2.558594 0.15625,-0.679687 0.6289,-1.078125 1.17578,-1.078125 0.21875,0 0.44922,0.0625 0.67578,0.195313 L 433,85.21875 c 0.80078,0.464844 1.27344,1.609375 1.05469,2.5625 -0.16016,0.679688 -0.62891,1.074219 -1.17578,1.074219"
           id="path196"
           inkscape:connector-curvature="0" />
        <path
           style="fill:#d9eefa;fill-opacity:1;fill-rule:nonzero;stroke:none"
           d="m 453.47266,100.74609 c -0.21875,0 -0.44922,-0.0625 -0.67579,-0.19531 l -12.74609,-7.359374 c -0.80469,-0.460937 -1.27734,-1.609375 -1.05859,-2.558594 0.16015,-0.679687 0.6289,-1.078124 1.17578,-1.078124 0.21875,0 0.44922,0.0625 0.67578,0.195312 l 12.74609,7.359375 c 0.80469,0.460937 1.27344,1.609375 1.05469,2.558594 -0.15625,0.683591 -0.625,1.078121 -1.17187,1.078121"
           id="path198"
           inkscape:connector-curvature="0" />
        <path
           style="fill:#eef8fd;fill-opacity:1;fill-rule:nonzero;stroke:none"
           d="m 436.16406,139.80469 c -0.21484,0 -0.44531,-0.0625 -0.67187,-0.19141 l -12.75,-7.35937 c -0.80078,-0.46485 -1.27344,-1.60938 -1.05469,-2.5625 0.16016,-0.67969 0.62891,-1.07422 1.17578,-1.07422 0.21875,0 0.44922,0.0625 0.67578,0.1914 l 11.92188,6.88282 c 0.26562,1.33593 0.5664,2.70312 0.90234,4.09765 -0.0625,0.0117 -0.12891,0.0156 -0.19922,0.0156"
           id="path202"
           inkscape:connector-curvature="0" />
        <path
           style="fill:#d9eefa;fill-opacity:1;fill-rule:nonzero;stroke:none"
           d="m 436.36328,139.78906 c -0.33594,-1.39453 -0.63672,-2.76172 -0.90234,-4.09765 l 0.82422,0.47656 c 0.80468,0.46484 1.27343,1.60937 1.05468,2.5625 -0.13672,0.59765 -0.51562,0.97265 -0.97656,1.05859"
           id="path204"
           inkscape:connector-curvature="0" />
        <path
           style="fill:#eef8fd;fill-opacity:1;fill-rule:nonzero;stroke:none"
           d="m 438.94531,157.76172 c -0.21875,0 -0.44922,-0.0625 -0.67578,-0.19531 l -14.42187,-8.32813 c -0.80469,-0.46094 -1.27735,-1.60937 -1.0586,-2.55859 0.16016,-0.67969 0.62891,-1.07813 1.17578,-1.07813 0.21875,0 0.44922,0.0625 0.67578,0.19531 l 14.42188,8.32813 c 0.80469,0.46094 1.27734,1.60937 1.05469,2.55859 -0.15625,0.67969 -0.625,1.07813 -1.17188,1.07813"
           id="path212"
           inkscape:connector-curvature="0" />
        <path
           style="fill:#d9eefa;fill-opacity:1;fill-rule:nonzero;stroke:none"
           d="m 451.32031,164.94141 c -0.21875,0 -0.44922,-0.0625 -0.67578,-0.19532 l -5.24219,-3.02343 c -0.80078,-0.46485 -1.26953,-1.60938 -1.05078,-2.5625 0.15625,-0.67969 0.625,-1.07422 1.17188,-1.07422 0.21875,0 0.44922,0.0625 0.67578,0.1914 l 5.24219,3.02735 c 0.80078,0.46484 1.27343,1.60937 1.05468,2.55859 -0.15625,0.68359 -0.6289,1.07813 -1.17578,1.07813"
           id="path222"
           inkscape:connector-curvature="0" />
        <path
           style="fill:#eef8fd;fill-opacity:1;fill-rule:nonzero;stroke:none"
           d="m 429.67969,119.71094 c -0.21875,0 -0.44922,-0.0625 -0.67578,-0.19531 l -14.42188,-8.32422 c -0.80469,-0.46485 -1.27344,-1.61328 -1.05469,-2.5625 0.15625,-0.67969 0.625,-1.07813 1.17188,-1.07813 0.21875,0 0.44922,0.0625 0.67578,0.19531 l 14.42578,8.32813 c 0.80078,0.46094 1.27344,1.60937 1.05469,2.55859 -0.16016,0.6836 -0.62891,1.07813 -1.17578,1.07813"
           id="path224"
           inkscape:connector-curvature="0" />
        <path
           style="fill:#d9eefa;fill-opacity:1;fill-rule:nonzero;stroke:none"
           d="m 439.94531,125.83203 -5.24219,-3.02344 c -0.80078,-0.46484 -1.27343,-1.60937 -1.05468,-2.5625 0.21875,-0.94921 1.04687,-1.34375 1.84765,-0.88281 l 5.24219,3.02735 c 0.80078,0.46093 1.27734,1.60937 1.05469,2.55859 -0.21875,0.95312 -1.04688,1.34766 -1.84766,0.88281"
           id="path230"
           inkscape:connector-curvature="0" />
        <path
           style="fill:#d9eefa;fill-opacity:1;fill-rule:nonzero;stroke:none"
           d="m 491.67578,123 -31.03516,-17.91797 c -0.80078,-0.46484 -1.27343,-1.60937 -1.05468,-2.5625 0.21875,-0.94922 1.04687,-1.34375 1.85156,-0.88281 l 31.03125,17.91797 c 0.80078,0.46484 1.27344,1.60937 1.05469,2.5625 -0.21875,0.94922 -1.04688,1.34375 -1.84766,0.88281"
           id="path232"
           inkscape:connector-curvature="0" />
        <path
           style="fill:#613d9e;fill-opacity:1;fill-rule:nonzero;stroke:none"
           d="M 501.64453,62.167969 C 489.58984,53.515625 477.07812,46.289062 464.3125,40.617188 L 439.02734,29.375 l -8.10156,3.15625 c 0,0 3.55469,1.902344 6.51563,3.488281 L 425.4375,86.253906 c 0,0 -11.31641,40.921874 27.94531,88.976564 7.53516,0.51562 14.125,-0.0156 19.88672,-1.28516 -0.11719,0.47266 -0.19531,0.79688 -0.19531,0.79688 l 7.28906,-2.85157 c 0.67969,-0.25 1.33984,-0.51171 1.99219,-0.78125 l 0.15625,-0.0586 -0.0117,-0.004 C 506.9258,160.81631 511.9258,136.1874 511.9258,136.1874 l 13.59375,-56.875 -23.875,-17.144531"
           id="path240"
           inkscape:connector-curvature="0" />
        <path
           style="fill:#613d9e;fill-opacity:1;fill-rule:nonzero;stroke:none"
           d="M 464.3125,40.617188 439.02734,29.375 l -8.10156,3.15625 c 0,0 3.55469,1.902344 6.51563,3.488281 l -4.35547,18.226563 45.07031,29.308594 39.25781,-1.089844 8.10547,-3.152344 -23.875,-17.144531 C 489.58984,53.515625 477.07812,46.289062 464.3125,40.617188"
           id="path242"
           inkscape:connector-curvature="0" />
        <path
           style="fill:#8c51ae;fill-opacity:1;fill-rule:nonzero;stroke:none"
           d="m 476.23047,54.0625 8.15234,-3.109375 C 477.78516,47.085938 471.08594,43.628906 464.3125,40.617188 L 439.02734,29.375 l -8.10156,3.15625 c 0,0 3.55469,1.902344 6.51563,3.488281 l -0.25782,1.074219 c 15.76953,6.914062 39.04688,16.96875 39.04688,16.96875"
           id="path244"
           inkscape:connector-curvature="0" />
        <path
           style="fill:#663da1;fill-opacity:1;fill-rule:nonzero;stroke:none"
           d="m 477.95703,47.332031 -15.17578,5.6875 12.71094,7.339844 15.0664,-5.644531 c -4.16015,-2.625 -8.35937,-5.09375 -12.60156,-7.382813"
           id="path246"
           inkscape:connector-curvature="0" />
        <path
           style="fill:#7842a6;fill-opacity:1;fill-rule:nonzero;stroke:none"
           d="m 503.82422,139.34375 13.58984,-56.878906 -23.875,-17.140625 C 481.48828,56.671875 468.97656,49.445312 456.21094,43.773438 L 430.92578,32.53125 417.33203,89.410156 c 0,0 -11.3125,40.921874 27.94922,88.976564 49.92578,3.4375 58.54297,-39.04297 58.54297,-39.04297"
           id="path248"
           inkscape:connector-curvature="0" />
        <path
           style="fill:#613d9e;fill-opacity:1;fill-rule:nonzero;stroke:none"
           d="m 448.44922,172.20312 c -17.73828,-22.52343 -23.66406,-43.02734 -25.48438,-56.43359 -2.03515,-14.98047 0.46094,-24.605468 0.47657,-24.671874 l 11.8789,-49.675781 18.31641,8.140625 c 12.34375,5.492188 24.52734,12.523438 36.20703,20.910156 l 20.41797,14.660156 -12.60547,52.738278 -0.0469,0.21094 c -0.0156,0.0937 -2.03906,9.31641 -9.22656,18.04297 -9.28125,11.26562 -22.71094,16.66797 -39.93359,16.07812"
           id="path250"
           inkscape:connector-curvature="0" />
        <path
           style="fill:#ee1494;fill-opacity:1;fill-rule:nonzero;stroke:none"
           d="m 463.64453,110.51953 c -0.39844,1.21875 0.13281,2.70313 1.19141,3.3125 1.05859,0.60938 2.23828,0.11719 2.63672,-1.10547 0.39453,-1.21875 -0.13672,-2.70312 -1.19532,-3.3125 -1.05468,-0.60937 -2.23828,-0.11718 -2.63281,1.10547"
           id="path252"
           inkscape:connector-curvature="0" />
        <path
           style="fill:#ee1494;fill-opacity:1;fill-rule:nonzero;stroke:none"
           d="m 457.48437,106.96484 c -0.39453,1.21875 0.13672,2.70313 1.19532,3.3125 1.05468,0.60938 2.23437,0.11719 2.63281,-1.10546 0.39844,-1.21875 -0.13281,-2.70313 -1.19141,-3.3125 -1.05859,-0.61329 -2.23828,-0.11719 -2.63672,1.10546"
           id="path254"
           inkscape:connector-curvature="0" />
        <path
           style="fill:#ee1494;fill-opacity:1;fill-rule:nonzero;stroke:none"
           d="m 451.32812,103.40625 c -0.39843,1.22266 0.13672,2.70703 1.19532,3.31641 1.05468,0.60937 2.23437,0.11718 2.63281,-1.10547 0.39844,-1.21875 -0.13672,-2.70313 -1.19141,-3.3125 -1.05859,-0.61328 -2.23828,-0.11719 -2.63672,1.10156"
           id="path256"
           inkscape:connector-curvature="0" />
      </g>
      <path
         id="path258"
         d="m 512.04687,209.82812 c -0.39843,1.22266 0.13672,2.70313 1.19141,3.31641 1.05859,0.60938 2.23828,0.11328 2.63281,-1.10547 0.39844,-1.22265 -0.13672,-2.70312 -1.1914,-3.3164 -1.0586,-0.60938 -2.23828,-0.11719 -2.63282,1.10546"
         style="fill:#d9eefa;fill-opacity:1;fill-rule:nonzero;stroke:none"
         inkscape:connector-curvature="0" />
      <path
         id="path260"
         d="m 505.88672,206.27344 c -0.39844,1.21875 0.13672,2.70312 1.19531,3.3164 1.05469,0.60938 2.23438,0.11328 2.63281,-1.10547 0.39844,-1.22265 -0.13672,-2.70703 -1.1914,-3.3164 -1.0586,-0.60938 -2.23828,-0.11328 -2.63672,1.10547"
         style="fill:#d9eefa;fill-opacity:1;fill-rule:nonzero;stroke:none"
         inkscape:connector-curvature="0" />
      <path
         id="path262"
         d="m 499.73047,202.71875 c -0.39844,1.21875 0.13672,2.70312 1.19531,3.3125 1.05469,0.61328 2.23438,0.11719 2.63281,-1.10156 0.39844,-1.22266 -0.13672,-2.70703 -1.19531,-3.31641 -1.05469,-0.60937 -2.23437,-0.11719 -2.63281,1.10547"
         style="fill:#d9eefa;fill-opacity:1;fill-rule:nonzero;stroke:none"
         inkscape:connector-curvature="0" />
      <path
         id="path536"
         d="m 333.27734,241.78125 c -2.71484,1.57031 -7.12109,1.57031 -9.83593,0 -2.71485,-1.56641 -2.71485,-4.10938 0,-5.67578 2.71484,-1.57031 7.12109,-1.57031 9.83203,0 2.71875,1.5664 2.71875,4.10937 0.004,5.67578 z m 19.77344,-11.24609 c -10.55859,-6.09766 -27.67969,-6.09766 -38.23828,0 -10.5625,6.09765 -10.55859,15.98046 0,22.07421 10.55859,6.10157 27.67969,6.10157 38.23828,0.004 10.55859,-6.09766 10.55859,-15.98047 0,-22.07812"
         style="fill:#b5d7ee;fill-opacity:1;fill-rule:nonzero;stroke:none"
         inkscape:connector-curvature="0" />
      <path
         id="path538"
         d="m 358.75781,247.71484 c -1.41015,1.40235 -3.15234,2.72657 -5.23437,3.92578 -2.08203,1.20313 -4.375,2.20704 -6.80469,3.02344 l 5.17187,2.98438 7.78907,0.39843 3.85156,2.22657 -1.57031,0.91015 2.91797,1.67969 3.14453,-1.8125 5.09765,2.94141 -5.12109,2.95703 3.76172,2.17187 3.65234,2.10938 4.54688,-2.62891 6.74218,3.89453 -2.57421,1.48438 4.33203,2.5 2.57422,-1.48438 2.03125,1.17188 -2.04688,4.07031 6.55078,3.78516 h 24.07422 l -62.88672,-36.3086"
         style="fill:#b5d7ee;fill-opacity:1;fill-rule:nonzero;stroke:none"
         inkscape:connector-curvature="0" />
      <path
         id="path540"
         d="m 333.18359,234.66016 c -2.71484,1.57031 -7.11718,1.57031 -9.83203,0 -2.71875,-1.56641 -2.71875,-4.10938 0,-5.67579 2.71094,-1.57031 7.11719,-1.57031 9.83203,0 2.71485,1.56641 2.71485,4.10938 0,5.67579 z m 27.78907,4.76562 v -7.30859 l -2.15625,1.21484 c -1.31641,-1.79297 -3.23438,-3.47266 -5.76563,-4.93359 -10.55859,-6.09375 -27.67969,-6.09375 -38.23828,0 -2.92969,1.6914 -5.04297,3.67187 -6.34766,5.78515 l -1.57422,-2.0664 v 7.30859 c -0.004,4 2.63672,8 7.92188,11.05078 10.55859,6.09766 27.67969,6.09766 38.23828,0 5.28516,-3.05078 7.92578,-7.05078 7.92188,-11.05078"
         style="fill:#e39c11;fill-opacity:1;fill-rule:nonzero;stroke:none"
         inkscape:connector-curvature="0" />
      <path
         id="path542"
         d="M 331.66797,245.1875 320,239.4375 309.62891,232.58984 c -0.44141,0.51953 -0.82813,1.05469 -1.16407,1.59375 l -1.57422,-2.0664 v 7.30859 c -0.004,4 2.63672,8 7.92188,11.05078 4.70312,2.71485 10.70703,4.21875 16.85547,4.51563 v -9.80469"
         style="fill:#f8d442;fill-opacity:1;fill-rule:nonzero;stroke:none"
         inkscape:connector-curvature="0" />
      <path
         id="path544"
         d="m 333.27734,232.32422 c -2.71484,1.57031 -7.12109,1.57031 -9.83593,0 -2.71485,-1.56641 -2.71485,-4.10938 0,-5.67969 2.71484,-1.56641 7.12109,-1.56641 9.83203,0 2.71875,1.57031 2.71875,4.11328 0.004,5.67969 z m 19.77344,-11.2461 c -10.55859,-6.09765 -27.67969,-6.09765 -38.23828,0 -10.5625,6.09766 -10.55859,15.98047 0,22.07422 10.55859,6.10157 27.67969,6.10157 38.23828,0.004 10.55859,-6.09766 10.55859,-15.98047 0,-22.07813"
         style="fill:#f8d442;fill-opacity:1;fill-rule:nonzero;stroke:none"
         inkscape:connector-curvature="0" />
      <path
         id="path546"
         d="m 333.18359,234.66016 c -2.71484,1.57031 -7.11718,1.57031 -9.83203,0 -2.71875,-1.56641 -2.71875,-4.10938 0,-5.67579 2.71094,-1.57031 7.11719,-1.57031 9.83203,0 2.71485,1.56641 2.71485,4.10938 0,5.67579 z m 5.39844,-9.72266 h -14.67578 c -1.34375,0.30859 -2.64844,0.67969 -3.90625,1.12109 v 12.4336 h 18.58203 V 224.9375"
         style="fill:#e39c11;fill-opacity:1;fill-rule:nonzero;stroke:none"
         inkscape:connector-curvature="0" />
      <path
         id="path548"
         d="m 333.27734,232.32422 c -2.71484,1.57031 -7.12109,1.57031 -9.83593,0 -2.71485,-1.56641 -2.71485,-4.10938 0,-5.67969 2.71484,-1.56641 7.12109,-1.56641 9.83203,0 2.71875,1.57031 2.71875,4.11328 0.004,5.67969 z m 17.50782,-9.9375 c -9.3086,-5.375 -24.39844,-5.375 -33.70704,0 -9.30859,5.375 -9.30859,14.08594 0,19.46094 9.3086,5.37109 24.39844,5.37109 33.70704,0 9.30859,-5.375 9.30859,-14.08594 0,-19.46094"
         style="fill:#eeae14;fill-opacity:1;fill-rule:nonzero;stroke:none"
         inkscape:connector-curvature="0" />
      <path
         id="path550"
         d="m 317.07812,224.40234 c 9.3086,-5.37109 24.39844,-5.37109 33.70704,0 4.20703,2.4336 6.50781,5.54297 6.91015,8.72266 0.48828,-3.85156 -1.8125,-7.79688 -6.91015,-10.73828 -9.3086,-5.375 -24.39844,-5.375 -33.70704,0 -5.09765,2.9414 -7.39843,6.88672 -6.91015,10.73828 0.40234,-3.17969 2.70312,-6.28906 6.91015,-8.72266"
         style="fill:#e39c11;fill-opacity:1;fill-rule:nonzero;stroke:none"
         inkscape:connector-curvature="0" />
      <path
         id="path552"
         d="m 358.75781,245.52344 c -1.41015,1.40625 -3.15234,2.73047 -5.23437,3.92968 -2.08203,1.19922 -4.375,2.20704 -6.80469,3.02344 l 5.17187,2.98438 7.78907,0.39843 3.85156,2.22657 -1.57031,0.90625 2.91797,1.68359 3.14453,-1.81641 5.09765,2.94532 -5.12109,2.95703 3.76172,2.17187 3.65234,2.10547 4.54688,-2.625 6.74218,3.89063 -2.57421,1.48828 4.33203,2.5 2.57422,-1.48438 2.03125,1.17188 -2.04688,4.07031 6.55078,3.78125 h 24.07422 l -62.88672,-36.30859"
         style="fill:#eeae14;fill-opacity:1;fill-rule:nonzero;stroke:none"
         inkscape:connector-curvature="0" />
      <path
         id="path554"
         d="m 358.75781,240.24219 c -1.41015,1.40234 -3.15234,2.72656 -5.23437,3.92968 -2.08203,1.19922 -4.375,2.20704 -6.80469,3.01954 l 5.17187,2.98437 7.78907,0.39844 3.85156,2.22656 -1.57031,0.91016 2.91797,1.68359 3.14453,-1.81641 5.09765,2.94141 -5.12109,2.95703 3.76172,2.17188 3.65234,2.10937 4.54688,-2.625 6.74218,3.89063 -2.57421,1.48437 4.33203,2.5 2.57422,-1.48437 2.03125,1.17187 -2.04688,4.07422 6.55078,3.78125 h 24.07422 l -62.88672,-36.30859"
         style="fill:#f8d442;fill-opacity:1;fill-rule:nonzero;stroke:none"
         inkscape:connector-curvature="0" />
      <path
         id="path556"
         d="m 421.64453,281.83203 v -5.28125 h -24.07422 v 5.28125 h 24.07422"
         style="fill:#e39c11;fill-opacity:1;fill-rule:nonzero;stroke:none"
         inkscape:connector-curvature="0" />
      <path
         id="path558"
         d="m 388.46094,274.29297 v -5.28516 l 2.57422,-1.48437 v 5.28515 l -2.57422,1.48438"
         style="fill:#e39c11;fill-opacity:1;fill-rule:nonzero;stroke:none"
         inkscape:connector-curvature="0" />
      <path
         id="path560"
         d="m 384.12891,266.50781 v 5.28516 l 4.33203,2.5 v -5.28516 l -4.33203,-2.5"
         style="fill:#e8a60f;fill-opacity:1;fill-rule:nonzero;stroke:none"
         inkscape:connector-curvature="0" />
      <path
         id="path562"
         d="m 379.96094,261.13281 v 5.28125 l -4.54688,2.625 v -5.28125 l 4.54688,-2.625"
         style="fill:#e39c11;fill-opacity:1;fill-rule:nonzero;stroke:none"
         inkscape:connector-curvature="0" />
      <path
         id="path564"
         d="m 368,259.47656 v 5.28516 l 7.41406,4.27734 v -5.28125 L 368,259.47656"
         style="fill:#e8a60f;fill-opacity:1;fill-rule:nonzero;stroke:none"
         inkscape:connector-curvature="0" />
      <path
         id="path566"
         d="m 391.03516,272.80859 -0.0156,5.24219 6.55078,3.78125 v -5.28125 l -6.53515,-3.74219"
         style="fill:#e8a60f;fill-opacity:1;fill-rule:nonzero;stroke:none"
         inkscape:connector-curvature="0" />
      <path
         id="path568"
         d="m 364.87891,255.39453 v 5.28125 l -2.91797,-1.68359 v -5.28125 l 2.91797,1.68359"
         style="fill:#e8a60f;fill-opacity:1;fill-rule:nonzero;stroke:none"
         inkscape:connector-curvature="0" />
      <path
         id="path570"
         d="m 351.89062,250.17578 v 5.28516 l 7.78907,0.39843 v -5.28515 l -7.78907,-0.39844"
         style="fill:#e39c11;fill-opacity:1;fill-rule:nonzero;stroke:none"
         inkscape:connector-curvature="0" />
      <path
         id="path572"
         d="m 405.21484,272.80859 -46.03906,-26.60937 2.55469,-1.47656 48.57422,28.0664 -5.08985,0.0195"
         style="fill:#e39c11;fill-opacity:1;fill-rule:nonzero;stroke:none"
         inkscape:connector-curvature="0" />
      <path
         id="path574"
         d="m 361.73047,246.00391 46.37109,26.79296 2.20313,-0.008 -48.57422,-28.0664 -2.55469,1.47656 1.10547,0.64062 1.44922,-0.83593"
         style="fill:#eeae14;fill-opacity:1;fill-rule:nonzero;stroke:none"
         inkscape:connector-curvature="0" />
      <path
         id="path576"
         d="m 351.89062,255.46094 v -5.28516 l -5.17187,-2.98437 v 5.28515 l 5.17187,2.98438"
         style="fill:#e39c11;fill-opacity:1;fill-rule:nonzero;stroke:none"
         inkscape:connector-curvature="0" />
      <path
         id="path578"
         d="m 368.02344,253.57812 v 5.28125 l -3.14453,1.81641 v -5.28125 l 3.14453,-1.81641"
         style="fill:#e39c11;fill-opacity:1;fill-rule:nonzero;stroke:none"
         inkscape:connector-curvature="0" />
      <path
         id="path580"
         d="m 350.78516,222.38672 c -5.23047,-3.01953 -12.28907,-4.34375 -19.11719,-3.96875 v 2.01953 c 6.82812,-0.375 13.88672,0.94922 19.11719,3.96484 4.20703,2.4336 6.50781,5.54297 6.91015,8.72266 0.48828,-3.85156 -1.8125,-7.79688 -6.91015,-10.73828"
         style="fill:#f8d442;fill-opacity:1;fill-rule:nonzero;stroke:none"
         inkscape:connector-curvature="0" />
    </g>
  </g>
</svg>
