<?xml version="1.0" encoding="UTF-8" standalone="no"?>
<!-- Created with Inkscape (http://www.inkscape.org/) -->

<svg
   xmlns:dc="http://purl.org/dc/elements/1.1/"
   xmlns:cc="http://creativecommons.org/ns#"
   xmlns:rdf="http://www.w3.org/1999/02/22-rdf-syntax-ns#"
   xmlns:svg="http://www.w3.org/2000/svg"
   xmlns="http://www.w3.org/2000/svg"
   xmlns:sodipodi="http://sodipodi.sourceforge.net/DTD/sodipodi-0.dtd"
   xmlns:inkscape="http://www.inkscape.org/namespaces/inkscape"
   width="27.6705mm"
   height="46.577633mm"
   viewBox="0 0 27.6705 46.577633"
   version="1.1"
   id="svg3163"
   inkscape:version="0.92.4 (5da689c313, 2019-01-14)"
   sodipodi:docname="man_laptop.svg">
  <defs
     id="defs3157" />
  <sodipodi:namedview
     id="base"
     pagecolor="#ffffff"
     bordercolor="#666666"
     borderopacity="1.0"
     inkscape:pageopacity="0.0"
     inkscape:pageshadow="2"
     inkscape:zoom="1.979899"
     inkscape:cx="280.40473"
     inkscape:cy="-33.853794"
     inkscape:document-units="mm"
     inkscape:current-layer="layer1"
     showgrid="false"
     fit-margin-top="0"
     fit-margin-left="0"
     fit-margin-right="0"
     fit-margin-bottom="0"
     inkscape:window-width="3440"
     inkscape:window-height="1376"
     inkscape:window-x="0"
     inkscape:window-y="27"
     inkscape:window-maximized="1" />
  <metadata
     id="metadata3160">
    <rdf:RDF>
      <cc:Work
         rdf:about="">
        <dc:format>image/svg+xml</dc:format>
        <dc:type
           rdf:resource="http://purl.org/dc/dcmitype/StillImage" />
        <dc:title></dc:title>
      </cc:Work>
    </rdf:RDF>
  </metadata>
  <g
     inkscape:label="Calque 1"
     inkscape:groupmode="layer"
     id="layer1"
     transform="translate(304.87692,91.413819)">
    <g
       transform="matrix(0.35277777,0,0,0.35277777,-469.91318,-169.1683)"
       id="g1747">
      <path
         inkscape:connector-curvature="0"
         id="path448"
         d="m 509.93359,338.57031 c -0.71875,0 -1.41015,-0.14844 -1.92578,-0.44531 l -18.52343,-10.69531 c -1.13672,-0.65625 -0.9961,-1.80078 0.3164,-2.5625 l 17.89063,-10.32813 c 0.71484,-0.41015 1.63672,-0.625 2.50781,-0.625 0.72266,0 1.41016,0.14453 1.92578,0.44141 l 18.52734,10.69922 c 1.13672,0.65625 0.99219,1.80078 -0.32031,2.55859 l -17.88672,10.32813 c -0.71875,0.41406 -1.63672,0.6289 -2.51172,0.6289"
         style="fill:#e3eef5;fill-opacity:1;fill-rule:nonzero;stroke:none" />
      <path
         inkscape:connector-curvature="0"
         id="path450"
         d="m 546.24609,306.02734 v -10.77343 l -24.16406,-0.0156 -8.35156,-4.82031 c -1.91797,-1.10547 -5.26172,-0.96875 -7.47656,0.3125 l -7.79297,4.49609 -24.1836,-0.0117 v 11.08203 c -0.0547,0.7461 0.36329,1.47266 1.28516,2 l 31.23047,18.03125 c 1.91406,1.10938 5.26562,0.96875 7.47656,-0.30859 l 30.15625,-17.41016 c 1.27344,-0.73828 1.89063,-1.6914 1.82031,-2.58203"
         style="fill:#613d9e;fill-opacity:1;fill-rule:nonzero;stroke:none" />
      <path
         inkscape:connector-curvature="0"
         id="path452"
         d="m 510.26172,289.67578 c -1.40234,0.0352 -2.85938,0.38672 -4.00781,1.05469 l -7.79297,4.49609 -24.1836,-0.0117 v 11.08203 c -0.0547,0.7461 0.36329,1.47266 1.28516,2 l 31.23047,18.03125 c 0.92187,0.53125 2.17187,0.77344 3.46875,0.74219 V 289.6758"
         style="fill:#7842a6;fill-opacity:1;fill-rule:nonzero;stroke:none" />
      <path
         inkscape:connector-curvature="0"
         id="path454"
         d="m 477.01563,295.21484 h -2.73829 v 11.08203 c -0.0547,0.7461 0.36329,1.47266 1.28516,2 l 1.45313,0.83985 v -13.92188"
         style="fill:#8c51ae;fill-opacity:1;fill-rule:nonzero;stroke:none" />
      <path
         inkscape:connector-curvature="0"
         id="path456"
         d="m 507.27344,326.56641 c 1.65234,0.70703 4.04297,0.66796 5.97656,-0.0703 v -12.58203 h -5.97656 v 12.65235"
         style="fill:#663da1;fill-opacity:1;fill-rule:nonzero;stroke:none" />
      <path
         inkscape:connector-curvature="0"
         id="path458"
         d="M 506.79297,315.28516 475.5625,297.25781 c -1.91797,-1.10937 -1.67578,-3.03906 0.53516,-4.32031 l 30.15625,-17.41016 c 2.21484,-1.27343 5.55859,-1.41406 7.47656,-0.30859 L 544.96094,293.25 c 1.91797,1.10547 1.67578,3.03906 -0.53516,4.31641 l -30.15625,17.41015 c -2.21094,1.27735 -5.5625,1.41797 -7.47656,0.3086"
         style="fill:#6e3fa3;fill-opacity:1;fill-rule:nonzero;stroke:none" />
      <path
         inkscape:connector-curvature="0"
         id="path460"
         d="m 534.75781,308.87109 c 0,0.80469 -0.5664,1.78516 -1.26172,2.1875 -0.69531,0.40235 -1.26171,0.0742 -1.26171,-0.73047 0,-0.80468 0.5664,-1.78125 1.26171,-2.18359 0.69532,-0.40234 1.26172,-0.0781 1.26172,0.72656"
         style="fill:#ee1494;fill-opacity:1;fill-rule:nonzero;stroke:none" />
      <path
         inkscape:connector-curvature="0"
         id="path462"
         d="m 538.81641,306.52734 c 0,0.8086 -0.5625,1.78516 -1.26172,2.1875 -0.69531,0.40235 -1.26172,0.0742 -1.26172,-0.73047 0,-0.80078 0.56641,-1.78125 1.26172,-2.18359 0.69922,-0.40234 1.26172,-0.0742 1.26172,0.72656"
         style="fill:#ee1494;fill-opacity:1;fill-rule:nonzero;stroke:none" />
      <path
         inkscape:connector-curvature="0"
         id="path464"
         d="m 542.875,304.1875 c 0,0.80469 -0.5625,1.78125 -1.26172,2.18359 -0.69531,0.40235 -1.26172,0.0742 -1.26172,-0.72656 0,-0.80469 0.56641,-1.78516 1.26172,-2.1875 0.69922,-0.40234 1.26172,-0.0742 1.26172,0.73047"
         style="fill:#ee1494;fill-opacity:1;fill-rule:nonzero;stroke:none" />
      <path
         inkscape:connector-curvature="0"
         id="path466"
         d="m 494.48828,308.18359 12.30469,7.10157 c 1.91406,1.10937 5.26562,0.96875 7.47656,-0.3086 l 21.88281,-12.63281 0.14063,-0.16797 -17.65625,-9.78125 -24.14844,15.78906"
         style="fill:#613d9e;fill-opacity:1;fill-rule:nonzero;stroke:none" />
      <path
         inkscape:connector-curvature="0"
         id="path468"
         d="m 499.54688,311.10547 v 11.03906 l -4.57422,-2.60156 -2.09766,-10.71094 3.58203,0.48828 3.08985,1.78516"
         style="fill:#613d9e;fill-opacity:1;fill-rule:nonzero;stroke:none" />
      <path
         inkscape:connector-curvature="0"
         id="path470"
         d="m 484.6875,313.56641 1.10156,0.63671 2.16797,-10.34765 -1.35156,-0.58594 -4.14844,1.41797 2.23047,8.87891"
         style="fill:#613d9e;fill-opacity:1;fill-rule:nonzero;stroke:none" />
      <path
         inkscape:connector-curvature="0"
         id="path472"
         d="m 485.77344,352.4375 c -4.59375,0 -9.1875,-1.01172 -12.69531,-3.03516 -7.01172,-4.04687 -7.01172,-10.60937 0,-14.66015 3.5039,-2.02344 8.10156,-3.03516 12.69531,-3.03516 4.59375,0 9.1875,1.01172 12.69531,3.03516 7.00781,4.05078 7.00781,10.61328 0,14.66015 -3.50781,2.02344 -8.10156,3.03516 -12.69531,3.03516"
         style="fill:#e3eef5;fill-opacity:1;fill-rule:nonzero;stroke:none" />
      <path
         inkscape:connector-curvature="0"
         id="path474"
         d="m 494.27344,337.07422 c 0,0 -2.80078,-1.41406 -4.52344,0.6914 -1.72266,2.10547 -4.18359,7.07813 -4.26172,10.4336 -0.0742,3.36328 2.65625,3.13281 4.28516,2.33984 1.625,-0.79687 6.37109,-7.68359 6.66015,-9.03125 0.28907,-1.35156 -0.33984,-3.17578 -0.79687,-3.53125 -0.45703,-0.35937 -1.36328,-0.90234 -1.36328,-0.90234"
         style="fill:#233a78;fill-opacity:1;fill-rule:nonzero;stroke:none" />
      <path
         inkscape:connector-curvature="0"
         id="path476"
         d="m 494.88672,336.39844 0.12891,2.90625 c 0.0312,0.61718 -0.28125,1.20703 -0.82032,1.51172 -0.48828,0.27734 -1.19922,0.48828 -2.16406,0.33593 -2.10937,-0.33984 -2.30078,-0.94531 -2.44922,-3.84765 -0.15234,-2.90625 5.30469,-0.90625 5.30469,-0.90625"
         style="fill:#e39c11;fill-opacity:1;fill-rule:nonzero;stroke:none" />
      <path
         inkscape:connector-curvature="0"
         id="path478"
         d="m 484.01172,331.48828 c 0,0 -2.80469,-1.41406 -4.52734,0.69141 -1.72266,2.10547 -4.1836,7.07812 -4.25782,10.43359 -0.0781,3.35938 2.65625,3.13281 4.28125,2.33984 1.625,-0.79687 6.375,-7.68359 6.66016,-9.03515 0.28906,-1.34766 -0.33984,-3.17188 -0.79688,-3.52735 -0.45703,-0.35937 -1.35937,-0.90234 -1.35937,-0.90234"
         style="fill:#233a78;fill-opacity:1;fill-rule:nonzero;stroke:none" />
      <path
         inkscape:connector-curvature="0"
         id="path480"
         d="m 484.62109,330.8125 0.13282,2.90625 c 0.0273,0.61719 -0.28516,1.20312 -0.82032,1.51172 -0.49218,0.27734 -1.20312,0.48828 -2.16406,0.33594 -2.11328,-0.33985 -2.30078,-0.94532 -2.45312,-3.84766 -0.15235,-2.90625 5.30468,-0.90625 5.30468,-0.90625"
         style="fill:#e39c11;fill-opacity:1;fill-rule:nonzero;stroke:none" />
      <path
         inkscape:connector-curvature="0"
         id="path482"
         d="m 509.64453,277.47656 c -0.83203,-13.5039 -14.625,1.98438 -14.625,1.98438 l -9.4414,9.2539 -8.50391,9.33985 c -1.66016,1.82422 -2.42969,4.28906 -2.10938,6.73047 l 3.4375,26.1914 c 0.17188,1.29297 1.27735,2.2461 2.58204,2.23828 0.36718,-0.004 0.78906,-0.0391 1.27343,-0.11328 3.06641,-0.48047 2.84375,-3.39453 2.84375,-3.39453 l -0.6289,-24.49609 17.85156,-10.76172 c 0,0 8.14844,-3.46875 7.32031,-16.97266"
         style="fill:#f8d442;fill-opacity:1;fill-rule:nonzero;stroke:none" />
      <path
         inkscape:connector-curvature="0"
         id="path484"
         d="m 519.91016,282.62109 c -0.83203,-13.5039 -14.625,1.98438 -14.625,1.98438 l -9.44141,9.2539 -8.50391,9.33985 c -1.66015,1.82422 -2.43359,4.28906 -2.10937,6.73437 l 3.4375,26.1875 c 0.17187,1.29297 1.27734,2.2461 2.58203,2.23438 0.36719,0 0.78906,-0.0352 1.27344,-0.10938 3.0664,-0.47656 2.83984,-3.39453 2.83984,-3.39453 l -0.6289,-24.49609 17.85546,-10.76172 c 0,0 8.14844,-3.46875 7.32032,-16.97266"
         style="fill:#f8d442;fill-opacity:1;fill-rule:nonzero;stroke:none" />
      <path
         inkscape:connector-curvature="0"
         id="path486"
         d="m 511.74609,239.26953 c 10.46094,4.33594 10.25,10.51953 10.25,10.51953 0,0 -2.04687,22.66406 -1.34765,37.80078 0.28906,6.32813 -33.6211,6.8086 -28.5625,-10.07031 5.96484,-19.90625 3.72656,-36.01953 6.51953,-38.44922 2.78906,-2.42969 10.4375,-0.92187 13.14062,0.19922"
         style="fill:#7842a6;fill-opacity:1;fill-rule:nonzero;stroke:none" />
      <path
         id="path488"
         d="m 515.59766,229.78125 c 1.11328,4.30469 -1.47657,8.69922 -5.78125,9.8125 -4.30469,1.10937 -8.69532,-1.47656 -9.8086,-5.78125 -1.11328,-4.30469 1.47266,-8.69531 5.77735,-9.80859 4.30468,-1.11329 8.69531,1.47656 9.8125,5.77734"
         style="fill:#f8b5a8;fill-opacity:1;fill-rule:nonzero;stroke:none"
         inkscape:connector-curvature="0" />
      <path
         id="path490"
         d="m 515.11328,244.75391 c -0.54687,2.12109 -3.33203,3.24218 -6.21484,2.5 -2.88282,-0.7461 -4.78125,-3.06641 -4.23438,-5.19141 0.54688,-2.125 3.32813,-3.24219 6.21485,-2.5 2.88671,0.74219 4.78125,3.06641 4.23437,5.19141"
         style="fill:#f8b5a8;fill-opacity:1;fill-rule:nonzero;stroke:none"
         inkscape:connector-curvature="0" />
      <path
         inkscape:connector-curvature="0"
         id="path492"
         d="m 507.55469,238.80078 c 0,0 0.0898,0.41797 -0.0899,3.73047 -0.0586,1.04297 3.58985,2.01562 4.53125,1.07422 0.94532,-0.94531 0.56641,-1.92188 0.79297,-5.46875 0.22657,-3.54688 -5.23437,0.66406 -5.23437,0.66406"
         style="fill:#f8b5a8;fill-opacity:1;fill-rule:nonzero;stroke:none" />
      <path
         inkscape:connector-curvature="0"
         id="path494"
         d="m 501.23438,232.59375 c 0,0 3.86328,-1.64063 7.24609,-0.95703 0.79687,0.16015 1.53516,0.58984 2.04687,1.21875 0.16797,0.20312 0.38282,0.39062 0.6211,0.44531 0.60156,0.13672 1.58203,-2.35547 2.75,-2.41016 1.16797,-0.0586 1.94922,0.76954 0.99219,2.30079 -0.95704,1.53515 -0.63282,3.24609 -0.19532,3.49609 0.44141,0.24609 5.11328,-3.33203 0.99219,-11.49609 -4.12109,-8.16407 -14.58594,-3.76563 -16.21484,-2.11329 0,0 -1.71485,1.49219 -3.11328,0.16407 0,0 -1.5625,11.71093 4.875,9.35156"
         style="fill:#ee1494;fill-opacity:1;fill-rule:nonzero;stroke:none" />
      <path
         inkscape:connector-curvature="0"
         id="path496"
         d="m 516.12891,266.34766 v 6.125 c 0,0.70312 -0.29297,1.37109 -0.8125,1.84375 l -12.58203,11.46875 1.42968,2.1875 16.61328,-12.05079 c 0.77735,-0.5625 1.27735,-1.42968 1.375,-2.3789 l 1.125,-10.6836 -7.14843,3.48829"
         style="fill:#f8b5a8;fill-opacity:1;fill-rule:nonzero;stroke:none" />
      <path
         inkscape:connector-curvature="0"
         id="path498"
         d="m 521.10938,246.72656 c 0,0 3.82031,5.74219 5.24218,20.84766 0,0 -6.52343,2.10937 -10.22265,0.91406 -3.69922,-1.19922 4.98047,-21.76172 4.98047,-21.76172"
         style="fill:#7842a6;fill-opacity:1;fill-rule:nonzero;stroke:none" />
      <path
         inkscape:connector-curvature="0"
         id="path500"
         d="m 515.43359,253.98437 c 0,0 -1.49609,7.9961 -1.57812,11.75391 -0.0273,1.03516 0.60547,1.96484 1.57812,2.32031 v -14.07422"
         style="fill:#593a9e;fill-opacity:1;fill-rule:nonzero;stroke:none" />
      <path
         inkscape:connector-curvature="0"
         id="path502"
         d="m 512.16797,293.75 -2.78125,-0.36719 -17.94922,-10.36328 c -0.57422,-0.33203 -1.57812,-0.28906 -2.24609,0.0898 l -12.71485,7.34375 -1.68359,-0.22265 v 1.67187 h 0.004 c -0.0117,0.22266 0.11328,0.4336 0.38281,0.58985 l 20.34375,11.74609 c 0.57422,0.33203 1.58203,0.28906 2.24609,-0.0937 l 13.84766,-7.99609 c 0.375,-0.21485 0.5625,-0.49219 0.55078,-0.75391 V 293.75"
         style="fill:#233a78;fill-opacity:1;fill-rule:nonzero;stroke:none" />
      <path
         inkscape:connector-curvature="0"
         id="path504"
         d="m 498.68359,287.19922 -1.27734,-0.73438 h -14.01953 l -6.91016,3.98828 -1.68359,-0.22265 v 1.67187 h 0.004 c -0.0117,0.22266 0.11328,0.4336 0.38281,0.58985 l 20.34375,11.74609 c 0.30469,0.17578 0.72656,0.24609 1.16015,0.21875 l 2,-17.25781"
         style="fill:#3f66b0;fill-opacity:1;fill-rule:nonzero;stroke:none" />
      <path
         inkscape:connector-curvature="0"
         id="path506"
         d="m 475.53906,290.32812 -0.74609,-0.0976 v 1.67187 h 0.004 c -0.0117,0.22266 0.11328,0.4336 0.38281,0.58985 l 0.35937,0.20703 v -2.3711"
         style="fill:#5e91d1;fill-opacity:1;fill-rule:nonzero;stroke:none" />
      <path
         inkscape:connector-curvature="0"
         id="path508"
         d="m 495.72656,304.33203 c 0.54688,0.20703 1.32813,0.16406 1.91016,-0.11719 v -2.84765 h -1.91016 v 2.96484"
         style="fill:#2e4a8c;fill-opacity:1;fill-rule:nonzero;stroke:none" />
      <path
         inkscape:connector-curvature="0"
         id="path510"
         d="m 495.52344,302.56641 -20.34375,-11.7461 c -0.57422,-0.33203 -0.5,-0.91406 0.16406,-1.29687 l 13.84766,-7.99219 c 0.66797,-0.38672 1.67187,-0.42578 2.24609,-0.0937 l 20.34375,11.74609 c 0.57422,0.33203 0.50391,0.91016 -0.16406,1.29297 l -13.84766,7.9961 c -0.66406,0.38281 -1.67187,0.42578 -2.24609,0.0937"
         style="fill:#ffffff;fill-opacity:1;fill-rule:nonzero;stroke:none" />
      <path
         inkscape:connector-curvature="0"
         id="path512"
         d="m 495.17969,300.78516 -16.91406,-9.76563 c -0.48047,-0.27734 -0.41797,-0.75781 0.13281,-1.07812 l 7.42187,-4.17188 c 0.55469,-0.32031 1.39063,-0.35547 1.86719,-0.0781 l 16.91406,9.76562 c 0.48047,0.27344 0.41797,0.75781 -0.13281,1.07813 l -7.42187,4.17187 c -0.55469,0.32031 -1.39063,0.35547 -1.86719,0.0781"
         style="fill:#d9eefa;fill-opacity:1;fill-rule:nonzero;stroke:none" />
      <path
         inkscape:connector-curvature="0"
         id="path514"
         d="m 489.98047,281.14453 -0.21094,1.40625 c -0.17969,1.19141 -0.14844,2.41016 0.0899,3.59766 l 0.25,1.23437 c 0.14453,0.69922 0.69531,1.23828 1.39843,1.36719 0.54297,0.10156 1.0625,-0.28516 1.125,-0.83594 l 0.33594,-3 c 0,0 0.76563,1.00391 1.13672,1.00391 0.37109,0 -0.41406,-3.00391 -1.25391,-4.70313 -0.83593,-1.70312 -2.87109,-0.0703 -2.87109,-0.0703"
         style="fill:#f8b5a8;fill-opacity:1;fill-rule:nonzero;stroke:none" />
      <path
         inkscape:connector-curvature="0"
         id="path516"
         d="m 496.875,258.83984 -2.18359,4.31641 c -0.51563,1.02344 -0.82032,2.13672 -0.89063,3.28125 l -0.94922,14.77734 -2.87109,-0.0703 -1.30469,-16.59375 c -0.0391,-0.51172 -0.0156,-1.02734 0.0742,-1.53516 l 1.48828,-8.41406 6.63672,4.23828"
         style="fill:#f8b5a8;fill-opacity:1;fill-rule:nonzero;stroke:none" />
      <path
         inkscape:connector-curvature="0"
         id="path518"
         d="M 494.99609,303.60937 493.29297,301.38672 475.35547,291 c -0.57422,-0.33203 -1.03906,-1.22656 -1.03906,-1.99219 l 0.0156,-14.6875 -1.03125,-1.34375 0.96875,-0.5625 c 0.1875,-0.11719 0.4336,-0.11328 0.70703,0.043 l 20.32422,11.76953 c 0.57813,0.33203 1.04297,1.22266 1.04297,1.99219 l -0.0195,15.99219 c 0,0.43359 -0.14844,0.73047 -0.37891,0.85156 l -0.94922,0.54687"
         style="fill:#233a78;fill-opacity:1;fill-rule:nonzero;stroke:none" />
      <path
         inkscape:connector-curvature="0"
         id="path520"
         d="m 482.59375,295.19141 -1.27344,-0.73829 -6.99609,-12.15234 0.008,-7.98047 -1.03125,-1.34375 0.96875,-0.5625 c 0.1875,-0.11719 0.4336,-0.11328 0.70703,0.043 l 20.32422,11.76953 c 0.30469,0.17578 0.57813,0.50781 0.76563,0.89453 l -13.47266,10.07032"
         style="fill:#3f66b0;fill-opacity:1;fill-rule:nonzero;stroke:none" />
      <path
         inkscape:connector-curvature="0"
         id="path522"
         d="m 473.75781,273.57422 -0.45703,-0.59766 0.96875,-0.5625 c 0.1875,-0.11719 0.4336,-0.11328 0.70703,0.043 l 0.35547,0.20703 -1.57422,0.91016"
         style="fill:#5e91d1;fill-opacity:1;fill-rule:nonzero;stroke:none" />
      <path
         inkscape:connector-curvature="0"
         id="path524"
         d="m 495.48438,284.35547 c 0.45312,0.37109 0.80468,1.07031 0.85156,1.71094 l -1.98438,1.14843 -0.95312,-1.65234 2.08594,-1.20703"
         style="fill:#2e4a8c;fill-opacity:1;fill-rule:nonzero;stroke:none" />
      <path
         inkscape:connector-curvature="0"
         id="path526"
         d="m 494.33594,284.78516 -20.32813,-11.76563 c -0.57812,-0.33594 -1.04297,0.0156 -1.04297,0.78516 l -0.0195,15.99218 c 0,0.76563 0.46485,1.66016 1.03907,1.99219 l 20.32812,11.76953 c 0.57813,0.33203 1.04297,-0.0195 1.04297,-0.78906 l 0.0156,-15.99219 c 0.004,-0.76562 -0.46093,-1.66015 -1.03515,-1.99218"
         style="fill:#ffffff;fill-opacity:1;fill-rule:nonzero;stroke:none" />
      <path
         inkscape:connector-curvature="0"
         id="path528"
         d="m 504.16406,287.97266 -0.32422,0.67187 c -0.375,0.78125 -0.96484,1.43359 -1.69921,1.88672 l -2.01954,1.24219 c -0.6289,0.38672 -1.42578,0.41797 -2.0625,0.0469 l -0.0703,-0.0391 c -0.64062,-0.40234 -0.69922,-1.32422 -0.17187,-1.86719 l 2.11328,-2.16797 c 0,0 -1.1875,0.90625 -1.51953,0.54297 -0.24219,-0.26953 1.15234,-1.57812 2.21875,-1.62109 1.07031,-0.043 2.10547,-0.88281 2.10547,-0.88281 l 1.42968,2.1875"
         style="fill:#f8b5a8;fill-opacity:1;fill-rule:nonzero;stroke:none" />
      <path
         inkscape:connector-curvature="0"
         id="path530"
         d="m 498.8125,239.03906 c 0,0 -7.73437,8.41406 -10.85156,16.13672 0,0 2.64453,4.76563 9.11719,6.63672 6.47656,1.87109 1.73437,-22.77344 1.73437,-22.77344"
         style="fill:#7842a6;fill-opacity:1;fill-rule:nonzero;stroke:none" />
      <path
         inkscape:connector-curvature="0"
         id="path532"
         d="m 495.62109,261.3125 1.25391,-12.11328 -2.95312,11.35156 c 0.52734,0.27344 1.09765,0.52734 1.69921,0.76172"
         style="fill:#593a9e;fill-opacity:1;fill-rule:nonzero;stroke:none" />
      <path
         inkscape:connector-curvature="0"
         id="path534"
         d="m 504.60547,237.33984 -2.07813,-0.57031 c 0,0 0.99219,1.55859 2.44141,1.96094 1.44922,0.39844 1.67578,-0.83203 1.67578,-0.83203 l -2.03906,-0.5586"
         style="fill:#ffffff;fill-opacity:1;fill-rule:nonzero;stroke:none" />
    </g>
  </g>
</svg>
