<?xml version="1.0" encoding="UTF-8" standalone="no"?>
<!-- Created with Inkscape (http://www.inkscape.org/) -->

<svg
   xmlns:dc="http://purl.org/dc/elements/1.1/"
   xmlns:cc="http://creativecommons.org/ns#"
   xmlns:rdf="http://www.w3.org/1999/02/22-rdf-syntax-ns#"
   xmlns:svg="http://www.w3.org/2000/svg"
   xmlns="http://www.w3.org/2000/svg"
   xmlns:sodipodi="http://sodipodi.sourceforge.net/DTD/sodipodi-0.dtd"
   xmlns:inkscape="http://www.inkscape.org/namespaces/inkscape"
   width="117.475mm"
   height="59.062054mm"
   viewBox="0 0 117.475 59.062054"
   version="1.1"
   id="svg12173"
   inkscape:version="0.92.4 (5da689c313, 2019-01-14)"
   sodipodi:docname="rightbox.svg">
  <defs
     id="defs12167" />
  <sodipodi:namedview
     id="base"
     pagecolor="#ffffff"
     bordercolor="#666666"
     borderopacity="1.0"
     inkscape:pageopacity="0.0"
     inkscape:pageshadow="2"
     inkscape:zoom="0.35"
     inkscape:cx="693.42858"
     inkscape:cy="-671.24381"
     inkscape:document-units="mm"
     inkscape:current-layer="layer1"
     showgrid="false"
     fit-margin-top="0"
     fit-margin-left="0"
     fit-margin-right="0"
     fit-margin-bottom="0"
     inkscape:window-width="3440"
     inkscape:window-height="1376"
     inkscape:window-x="0"
     inkscape:window-y="27"
     inkscape:window-maximized="1" />
  <metadata
     id="metadata12170">
    <rdf:RDF>
      <cc:Work
         rdf:about="">
        <dc:format>image/svg+xml</dc:format>
        <dc:type
           rdf:resource="http://purl.org/dc/dcmitype/StillImage" />
        <dc:title></dc:title>
      </cc:Work>
    </rdf:RDF>
  </metadata>
  <g
     inkscape:label="Calque 1"
     inkscape:groupmode="layer"
     id="layer1"
     transform="translate(255.28512,81.781027)">
    <g
       id="g6952"
       transform="matrix(0.35277777,0,0,-0.35277777,-255.28512,-81.781027)">
      <path
         d="m 0,0 c 5.058,-25.22 26.421,-47.116 53.245,-54.572 14.456,-4.018 31.194,-4.623 41.858,-14.413 4.972,-4.567 7.927,-10.606 10.776,-16.501 4.635,-9.588 9.268,-19.177 13.903,-28.765 4.201,-8.693 8.617,-17.663 16.356,-24.007 11.62,-9.528 28.54,-11.344 44.116,-10.446 33.533,1.933 66.729,14.225 99.852,9.066 20.465,-3.187 39.571,-13.222 52.894,-27.782 V 0 Z"
         style="fill:#ffffff;fill-opacity:1;fill-rule:nonzero;stroke:none"
         id="path6954"
         inkscape:connector-curvature="0" />
    </g>
  </g>
</svg>
