<?xml version="1.0" encoding="UTF-8" standalone="no"?>
<!-- Created with Inkscape (http://www.inkscape.org/) -->

<svg
   xmlns:dc="http://purl.org/dc/elements/1.1/"
   xmlns:cc="http://creativecommons.org/ns#"
   xmlns:rdf="http://www.w3.org/1999/02/22-rdf-syntax-ns#"
   xmlns:svg="http://www.w3.org/2000/svg"
   xmlns="http://www.w3.org/2000/svg"
   xmlns:sodipodi="http://sodipodi.sourceforge.net/DTD/sodipodi-0.dtd"
   xmlns:inkscape="http://www.inkscape.org/namespaces/inkscape"
   width="39.216305mm"
   height="60.447052mm"
   viewBox="0 0 39.216305 60.447052"
   version="1.1"
   id="svg2377"
   inkscape:version="0.92.4 (5da689c313, 2019-01-14)"
   sodipodi:docname="woman_server.svg">
  <defs
     id="defs2371" />
  <sodipodi:namedview
     id="base"
     pagecolor="#ffffff"
     bordercolor="#666666"
     borderopacity="1.0"
     inkscape:pageopacity="0.0"
     inkscape:pageshadow="2"
     inkscape:zoom="0.35"
     inkscape:cx="1082.681"
     inkscape:cy="-754.3408"
     inkscape:document-units="mm"
     inkscape:current-layer="layer1"
     showgrid="false"
     fit-margin-top="0"
     fit-margin-left="0"
     fit-margin-right="0"
     fit-margin-bottom="0"
     inkscape:window-width="3440"
     inkscape:window-height="1376"
     inkscape:window-x="0"
     inkscape:window-y="27"
     inkscape:window-maximized="1" />
  <metadata
     id="metadata2374">
    <rdf:RDF>
      <cc:Work
         rdf:about="">
        <dc:format>image/svg+xml</dc:format>
        <dc:type
           rdf:resource="http://purl.org/dc/dcmitype/StillImage" />
        <dc:title></dc:title>
      </cc:Work>
    </rdf:RDF>
  </metadata>
  <g
     inkscape:label="Calque 1"
     inkscape:groupmode="layer"
     id="layer1"
     transform="translate(358.27482,105.1521)">
    <g
       id="g1701"
       transform="matrix(0.35277777,0,0,0.35277777,-437.13749,-173.72663)">
      <path
         inkscape:connector-curvature="0"
         id="path312"
         d="m 244.01172,335.41016 c -4.33594,0 -8.67188,-0.95704 -11.98047,-2.86719 -6.61719,-3.82031 -6.61719,-10.01172 0,-13.83203 3.30859,-1.91016 7.64453,-2.86328 11.97656,-2.86328 4.33594,0 8.67188,0.95312 11.98047,2.86328 6.61719,3.82031 6.61719,10.01562 0,13.83203 -3.30859,1.91015 -7.64062,2.86719 -11.97656,2.86719"
         style="fill:#e3eef5;fill-opacity:1;fill-rule:nonzero;stroke:none" />
      <path
         inkscape:connector-curvature="0"
         id="path314"
         d="m 234.29297,205.39453 c 0,0 0.4414,9.10938 1.13672,15.23438 0.6914,6.12109 15.4375,-4.70313 15.4375,-4.70313 v -6.97266 l -16.57422,-3.55859"
         style="fill:#593a9e;fill-opacity:1;fill-rule:nonzero;stroke:none" />
      <path
         inkscape:connector-curvature="0"
         id="path316"
         d="m 242.14844,318.74219 c 0.21875,0.55468 4.04297,5.20703 7.86328,6.36718 1.66015,0.50782 2.77734,0.57422 3.50781,0.48829 0.73438,-0.0899 1.1875,-0.84766 0.94141,-1.54297 -0.65625,-1.85157 -2.54297,-5.70703 -7.32813,-8.07813 -6.48047,-3.21094 -4.98437,2.76563 -4.98437,2.76563"
         style="fill:#233a78;fill-opacity:1;fill-rule:nonzero;stroke:none" />
      <path
         inkscape:connector-curvature="0"
         id="path318"
         d="m 240.875,320.53125 c 0,0 1.4375,3.375 1.88281,6.19922 0.26953,1.72265 -0.67578,3.96094 -1.45312,5.44531 -0.48438,0.92188 -1.70703,1.125 -2.48047,0.42969 -1.2461,-1.13281 -2.83594,-3.10156 -3.09766,-5.92969 -0.44531,-4.76172 0,-5.58984 0,-5.58984 l 5.14844,-0.55469"
         style="fill:#233a78;fill-opacity:1;fill-rule:nonzero;stroke:none" />
      <path
         inkscape:connector-curvature="0"
         id="path320"
         d="m 231.67187,262.97656 c 0,0 -0.5,6.00391 0,12.65235 0.4961,6.64062 2.28125,37.71484 2.61329,45.1914 0,0 -0.16797,2.26172 4.21484,1.76563 4.38281,-0.5 4.02734,-3.01172 4.02734,-3.01172 0,0 6.15235,-0.082 6.34766,-3.71094 0.19531,-3.625 6.30078,-43.30859 6.30078,-57.57422 l -23.50391,4.6875"
         style="fill:#f8d442;fill-opacity:1;fill-rule:nonzero;stroke:none" />
      <path
         inkscape:connector-curvature="0"
         id="path322"
         d="m 257.45312,231.91797 3.01563,4.66797 10.35937,12.51562 c 0,0 -0.35546,1.16406 -1.64453,1.46485 -1.00781,0.23828 -9.72265,-8.07422 -13.48828,-11.72266 -1,-0.97266 -1.16406,-2.51563 -0.39453,-3.67578 l 2.15234,-3.25"
         style="fill:#f8b5a8;fill-opacity:1;fill-rule:nonzero;stroke:none" />
      <path
         inkscape:connector-curvature="0"
         id="path324"
         d="m 251.57031,212.75391 c 0,0 4.78906,-0.125 6.45703,6.79687 1.66797,6.92188 2.97266,15.58594 1.52344,16.30469 -4.35547,2.16406 -7.10937,-0.36719 -7.10937,-0.36719 l -0.8711,-22.73437"
         style="fill:#6e3fa3;fill-opacity:1;fill-rule:nonzero;stroke:none" />
      <path
         inkscape:connector-curvature="0"
         id="path326"
         d="m 253.00391,213.04687 c -0.81641,-0.33984 -1.73438,-0.38671 -2.58204,-0.14062 -4.08203,1.16797 -19.42187,5.67187 -21.94921,7.83203 -2.92188,2.49609 4.38281,16.52734 4.27343,21.125 -0.10156,4.60156 -0.62109,10.02344 -1.02734,15.02344 -0.40625,5.0039 -0.95703,7.74219 3.13281,9.87109 4.08985,2.125 11.07422,2.22266 16.30078,-1.76172 5.22657,-3.98047 4.27735,-6.70703 4.0625,-9.60156 -0.21875,-2.89062 -2,-15.39453 -1.84375,-18.94531 0,0 1.83985,-1.35547 3.20313,-3.6836 1.36719,-2.32812 -1.04297,-6.60546 -2.04297,-9.38281 -1.00391,-2.78125 0.5625,-5.96094 0.25391,-8.23047 -0.16016,-1.16797 -0.90625,-1.74218 -1.78125,-2.10547"
         style="fill:#7842a6;fill-opacity:1;fill-rule:nonzero;stroke:none" />
      <path
         inkscape:connector-curvature="0"
         id="path328"
         d="m 248.10156,217.82812 c 0.32422,2.52735 -1.99609,4.90625 -5.17578,5.31641 -3.18359,0.40625 -6.02734,-1.3125 -6.35156,-3.83594 -0.32422,-2.53125 1.99609,-4.91015 5.17969,-5.3164 3.17968,-0.40625 6.02343,1.3125 6.34765,3.83593"
         style="fill:#ffffff;fill-opacity:1;fill-rule:nonzero;stroke:none" />
      <path
         inkscape:connector-curvature="0"
         id="path330"
         d="m 246.45703,218.03906 c 0.23047,1.8086 -1.42578,3.50781 -3.69922,3.80078 -2.27734,0.28907 -4.30859,-0.9375 -4.53906,-2.74218 -0.23047,-1.8086 1.42578,-3.50782 3.69922,-3.80079 2.27734,-0.28906 4.30859,0.9375 4.53906,2.74219"
         style="fill:#f8b5a8;fill-opacity:1;fill-rule:nonzero;stroke:none" />
      <path
         inkscape:connector-curvature="0"
         id="path332"
         d="m 244.19531,212.10937 c 0,0 -2.76562,-2.27343 -3.3125,-1.12109 -0.54297,1.15234 -0.99219,6.10156 -0.99219,6.10156 l 5.5,1.47657 -0.83593,-5.01172 c 0,0 1.10156,-0.9375 -0.35938,-1.44532"
         style="fill:#f8b5a8;fill-opacity:1;fill-rule:nonzero;stroke:none" />
      <path
         inkscape:connector-curvature="0"
         id="path334"
         d="m 252.78906,206.6875 c -0.26562,4.52734 -4.15234,7.97656 -8.67969,7.71094 -4.52734,-0.26563 -7.97656,-4.15235 -7.71093,-8.67969 0.26562,-4.52734 4.15234,-7.98047 8.67968,-7.71094 4.52735,0.26563 7.98047,4.15235 7.71094,8.67969"
         style="fill:#f8b5a8;fill-opacity:1;fill-rule:nonzero;stroke:none" />
      <path
         inkscape:connector-curvature="0"
         id="path336"
         d="m 240.5,212.42187 c -0.0508,0.25782 -0.0937,0.53516 -0.14063,0.82032 0.55469,2.85547 4.82813,4.10547 4.82813,4.10547 l -0.63281,-3.79297 c 0,0 0.51953,-0.44141 0.37109,-0.88282 -1.6875,-0.53125 -3.81641,-1.0039 -4.42578,-0.25"
         style="fill:#eb8a87;fill-opacity:1;fill-rule:nonzero;stroke:none" />
      <path
         inkscape:connector-curvature="0"
         id="path338"
         d="m 252.78906,206.6875 c -0.26562,4.52734 -4.15234,7.97656 -8.67969,7.71094 -4.52734,-0.26563 -7.97656,-4.15235 -7.71093,-8.67969 0.26562,-4.52734 4.15234,-7.98047 8.67968,-7.71094 4.52735,0.26563 7.98047,4.15235 7.71094,8.67969"
         style="fill:#f8b5a8;fill-opacity:1;fill-rule:nonzero;stroke:none" />
      <path
         inkscape:connector-curvature="0"
         id="path340"
         d="m 224.36328,240.95703 0.92188,21.97266 3.21093,0.33203 2.08985,-19.78125 -6.22266,-2.52344"
         style="fill:#f8b5a8;fill-opacity:1;fill-rule:nonzero;stroke:none" />
      <path
         inkscape:connector-curvature="0"
         id="path342"
         d="m 234.92187,239.12109 c -1.0664,-4.6914 -3.16406,-15.05859 -3.16406,-15.05859 l -0.89844,10.3125 c 1.03516,3.05859 1.92579,5.86328 1.88672,7.48828 -0.0586,2.69922 -0.26562,5.6875 -0.5039,8.69922 v 0.0117 c 0,0 3.74218,-6.76172 2.67968,-11.45313"
         style="fill:#6e3fa3;fill-opacity:1;fill-rule:nonzero;stroke:none" />
      <path
         inkscape:connector-curvature="0"
         id="path344"
         d="m 229.08594,220.28906 c 0,0 -2.56641,0.98047 -4.02344,8.8711 -1.45313,7.89062 -2.53906,15.79296 0.0508,16.8125 2.59375,1.01562 4.75781,1.78125 5.51953,-0.32813 0.76172,-2.10937 1.23438,-12.27734 1.33203,-15.93359 0.0937,-3.65625 0.23438,-8.69922 -2.8789,-9.42188"
         style="fill:#8c51ae;fill-opacity:1;fill-rule:nonzero;stroke:none" />
      <path
         inkscape:connector-curvature="0"
         id="path346"
         d="m 270.0625,248.1875 c 0,0 1.39062,0.51172 2.39453,1.60937 0.82422,0.89454 1.27734,1.65625 1.63672,2.19532 0.80078,1.19531 1.47656,3.77343 0.98828,4.09765 -0.48828,0.32032 -3.27734,-4.32031 -3.72656,-3.24218 -0.45313,1.07812 0.004,2.07812 -0.57422,2.09375 -0.57813,0.0156 -2.58203,-4.66407 -4.16016,-6.11719 -1.57422,-1.45313 3.44141,-0.63672 3.44141,-0.63672"
         style="fill:#f8b5a8;fill-opacity:1;fill-rule:nonzero;stroke:none" />
      <path
         inkscape:connector-curvature="0"
         id="path348"
         d="m 242.52734,319.57422 c 0,0 0.76172,-0.0117 1.75782,-0.1836 l 1.20703,-48.30078 -2.96485,48.48438"
         style="fill:#d77d19;fill-opacity:1;fill-rule:nonzero;stroke:none" />
      <path
         inkscape:connector-curvature="0"
         id="path350"
         d="m 225.30859,262.74609 c 0,0 -0.84765,5.12891 -0.71875,6.77344 0.125,1.64063 1.00391,4.34766 1.67188,4.29297 0.66797,-0.0586 0.0234,-6.60547 1.19531,-5.95313 1.17188,0.65235 1.29297,1.76954 1.82422,1.375 0.53125,-0.39453 -0.92578,-5.99218 -0.53516,-8.41796 0.38672,-2.42579 -3.4375,1.92968 -3.4375,1.92968"
         style="fill:#f8b5a8;fill-opacity:1;fill-rule:nonzero;stroke:none" />
      <path
         inkscape:connector-curvature="0"
         id="path352"
         d="m 247.74609,206.92187 c 4.1211,1.46094 4.92188,0.56641 4.96094,0.51954 0.0391,-0.25 0.0703,-0.5 0.082,-0.75391 0.0547,-0.91016 -0.0469,-1.79297 -0.27344,-2.625 L 241.832,202.62109 c 0,0 1.6875,2.79688 5.91406,4.30078"
         style="fill:#eb8a87;fill-opacity:1;fill-rule:nonzero;stroke:none" />
      <path
         inkscape:connector-curvature="0"
         id="path354"
         d="m 253.08594,198.50781 c -0.96875,-0.83203 -4.47266,-4.94531 -10.7461,-3.97656 -3.92187,0.60547 -7.23047,3.28125 -7.96093,9.38281 -0.4961,4.11328 1.01562,8.16406 3.79296,11.15625 0.15235,-0.0664 0.3086,-0.13281 0.44532,-0.22265 1.57422,-1.03516 1.74218,-1.60547 1.74218,-1.60938 l 0.34766,-3.11328 c -0.0117,-0.44141 -0.34375,-0.83594 -0.78125,-0.86328 -0.34375,-0.0234 -0.75781,-0.1875 -1.15234,-0.69922 -0.90235,-1.17969 -0.48438,-3.01953 1.3164,-3.08594 0.94141,-0.0391 1.3086,-0.54687 1.44141,-1.02734 0.11719,-0.41406 0.55469,-0.64453 0.96094,-0.5 2.05078,0.74219 7.10547,2.34375 10.35547,1.42187 4.16015,-1.17968 1.21093,-6.03125 0.23828,-6.86328"
         style="fill:#593a9e;fill-opacity:1;fill-rule:nonzero;stroke:none" />
      <path
         inkscape:connector-curvature="0"
         id="path356"
         d="m 248.40625,210.62891 2.51172,-0.69141 c 0,0 -1.19922,1.88672 -2.94922,2.36719 -1.75,0.48047 -2.02344,-1 -2.02344,-1 l 2.46094,-0.67578"
         style="fill:#ffffff;fill-opacity:1;fill-rule:nonzero;stroke:none" />
      <path
         inkscape:connector-curvature="0"
         id="path358"
         d="m 298.53906,365.73047 c -0.97265,0 -1.89844,-0.19531 -2.59375,-0.59375 l -24.9375,-14.40235 c -1.53125,-0.88281 -1.33984,-2.42578 0.42969,-3.44531 l 24.07812,-13.90234 c 0.96875,-0.5586 2.20704,-0.84375 3.37891,-0.84375 0.97266,0 1.90234,0.19531 2.59375,0.59765 l 24.94141,14.39454 c 1.53125,0.88671 1.33593,2.42968 -0.42969,3.44921 l -24.08203,13.90235 c -0.96875,0.55859 -2.20313,0.84375 -3.37891,0.84375"
         style="fill:#e3eef5;fill-opacity:1;fill-rule:nonzero;stroke:none" />
      <path
         inkscape:connector-curvature="0"
         id="path360"
         d="m 334.69922,336.57031 v -10.77734 l -24.16016,-0.0117 -8.35156,-4.82031 c -1.91797,-1.10938 -5.26563,-0.96875 -7.47656,0.30859 l -7.79297,4.5 -24.1836,-0.0156 v 11.08203 c -0.0547,0.75 0.36329,1.47265 1.28516,2.0039 l 31.22656,18.03125 c 1.91797,1.10547 5.26563,0.96875 7.48047,-0.30859 l 30.15235,-17.41406 c 1.27734,-0.73438 1.89453,-1.6875 1.82031,-2.57813"
         style="fill:#613d9e;fill-opacity:1;fill-rule:nonzero;stroke:none" />
      <path
         inkscape:connector-curvature="0"
         id="path362"
         d="m 298.71875,320.21875 c -1.40234,0.0352 -2.85938,0.38672 -4.00781,1.05078 l -7.79297,4.5 -24.1836,-0.0156 v 11.08203 c -0.0547,0.75 0.36329,1.47265 1.28516,2.0039 l 31.22656,18.03125 c 0.92188,0.53125 2.17578,0.77344 3.47266,0.73828 v -37.39062"
         style="fill:#7842a6;fill-opacity:1;fill-rule:nonzero;stroke:none" />
      <path
         inkscape:connector-curvature="0"
         id="path364"
         d="m 265.47266,325.75781 -2.73829,-0.004 v 11.08203 c -0.0547,0.75 0.36329,1.47265 1.28516,2.0039 l 1.45313,0.83985 v -13.92188"
         style="fill:#8c51ae;fill-opacity:1;fill-rule:nonzero;stroke:none" />
      <path
         inkscape:connector-curvature="0"
         id="path366"
         d="m 295.73047,357.10547 c 1.65234,0.70703 4.04297,0.66797 5.97656,-0.0664 v -12.58203 h -5.97656 v 12.64844"
         style="fill:#663da1;fill-opacity:1;fill-rule:nonzero;stroke:none" />
      <path
         inkscape:connector-curvature="0"
         id="path368"
         d="m 295.24609,345.82812 -31.22656,-18.03125 c -1.91797,-1.10546 -1.67969,-3.03906 0.53516,-4.3164 l 30.15625,-17.41016 c 2.21093,-1.27734 5.55859,-1.41797 7.47656,-0.30859 l 31.23047,18.02734 c 1.91797,1.10938 1.67578,3.04297 -0.53906,4.32031 l -30.15235,17.41016 c -2.21484,1.27734 -5.5625,1.41406 -7.48047,0.30859"
         style="fill:#6e3fa3;fill-opacity:1;fill-rule:nonzero;stroke:none" />
      <path
         inkscape:connector-curvature="0"
         id="path370"
         d="m 295.80859,342.58203 -26.16797,-15.10937 c -1.60937,-0.92579 -1.40625,-2.54688 0.44922,-3.61719 l 25.26953,-14.58985 c 1.85547,-1.07031 4.66016,-1.1875 6.26563,-0.25781 l 26.17187,15.10547 c 1.60547,0.92969 1.40235,2.55078 -0.44921,3.62109 l -25.27344,14.58985 c -1.85156,1.07031 -4.66016,1.1875 -6.26563,0.25781"
         style="fill:#593a9e;fill-opacity:1;fill-rule:nonzero;stroke:none" />
      <path
         inkscape:connector-curvature="0"
         id="path372"
         d="m 323.21484,339.41406 c 0,0.80469 -0.5664,1.78125 -1.26172,2.1836 -0.69531,0.40234 -1.26171,0.0781 -1.26171,-0.72657 0,-0.80468 0.5664,-1.78125 1.26171,-2.18359 0.69532,-0.40625 1.26172,-0.0781 1.26172,0.72656"
         style="fill:#ee1494;fill-opacity:1;fill-rule:nonzero;stroke:none" />
      <path
         inkscape:connector-curvature="0"
         id="path374"
         d="m 327.27344,337.07031 c 0,0.80469 -0.56641,1.78125 -1.26172,2.1836 -0.69922,0.40234 -1.26172,0.0781 -1.26172,-0.72657 0,-0.80468 0.5625,-1.78515 1.26172,-2.18359 0.69531,-0.40234 1.26172,-0.0781 1.26172,0.72656"
         style="fill:#ee1494;fill-opacity:1;fill-rule:nonzero;stroke:none" />
      <path
         inkscape:connector-curvature="0"
         id="path376"
         d="m 331.33203,334.72656 c 0,0.80469 -0.56641,1.78516 -1.26172,2.1836 -0.69922,0.40234 -1.26172,0.0781 -1.26172,-0.72657 0,-0.80468 0.5625,-1.78125 1.26172,-2.18359 0.69531,-0.40234 1.26172,-0.0781 1.26172,0.72656"
         style="fill:#ee1494;fill-opacity:1;fill-rule:nonzero;stroke:none" />
      <path
         inkscape:connector-curvature="0"
         id="path378"
         d="m 334.69922,319.09375 v -10.77734 l -24.16016,-0.0117 -8.35156,-4.82032 c -1.91797,-1.10546 -5.26563,-0.96875 -7.47656,0.3086 l -7.79297,4.5 -24.1836,-0.0156 v 11.08203 c -0.0547,0.75 0.36329,1.47266 1.28516,2.00391 l 31.22656,18.03125 c 1.91797,1.10547 5.26563,0.96875 7.48047,-0.30859 l 30.15235,-17.41016 c 1.27734,-0.73828 1.89453,-1.69141 1.82031,-2.58203"
         style="fill:#613d9e;fill-opacity:1;fill-rule:nonzero;stroke:none" />
      <path
         inkscape:connector-curvature="0"
         id="path380"
         d="m 298.71875,302.74219 c -1.40234,0.0351 -2.85938,0.38672 -4.00781,1.05078 l -7.79297,4.5 -24.1836,-0.0156 v 11.08203 c -0.0547,0.75 0.36329,1.47266 1.28516,2.00391 l 31.22656,18.03125 c 0.92188,0.53125 2.17578,0.77344 3.47266,0.74219 v -37.39453"
         style="fill:#7842a6;fill-opacity:1;fill-rule:nonzero;stroke:none" />
      <path
         inkscape:connector-curvature="0"
         id="path382"
         d="m 265.47266,308.28125 -2.73829,-0.004 v 11.08203 c -0.0547,0.75 0.36329,1.47266 1.28516,2.00391 l 1.45313,0.83984 v -13.92187"
         style="fill:#8c51ae;fill-opacity:1;fill-rule:nonzero;stroke:none" />
      <path
         inkscape:connector-curvature="0"
         id="path384"
         d="m 295.73047,339.62891 c 1.65234,0.71093 4.04297,0.66796 5.97656,-0.0664 v -12.58203 h -5.97656 v 12.64844"
         style="fill:#663da1;fill-opacity:1;fill-rule:nonzero;stroke:none" />
      <path
         inkscape:connector-curvature="0"
         id="path386"
         d="m 295.24609,328.35156 -31.22656,-18.03125 c -1.91797,-1.10547 -1.67969,-3.03906 0.53516,-4.3164 l 30.15625,-17.41016 c 2.21093,-1.27734 5.55859,-1.41406 7.47656,-0.30859 l 31.23047,18.03125 c 1.91797,1.10546 1.67578,3.03906 -0.53906,4.3164 l -30.15235,17.41016 c -2.21484,1.27734 -5.5625,1.41797 -7.48047,0.30859"
         style="fill:#6e3fa3;fill-opacity:1;fill-rule:nonzero;stroke:none" />
      <path
         inkscape:connector-curvature="0"
         id="path388"
         d="m 295.80859,325.10547 -26.16797,-15.10938 c -1.60937,-0.92578 -1.40625,-2.54687 0.44922,-3.61718 l 25.26953,-14.58985 c 1.85547,-1.07031 4.66016,-1.1875 6.26563,-0.25781 l 26.17187,15.10937 c 1.60547,0.92579 1.40235,2.54688 -0.44921,3.61719 l -25.27344,14.58985 c -1.85156,1.07031 -4.66016,1.1875 -6.26563,0.25781"
         style="fill:#593a9e;fill-opacity:1;fill-rule:nonzero;stroke:none" />
      <path
         inkscape:connector-curvature="0"
         id="path390"
         d="m 323.21484,321.9375 c 0,0.80469 -0.5664,1.78516 -1.26172,2.18359 -0.69531,0.40235 -1.26171,0.0781 -1.26171,-0.72656 0,-0.80469 0.5664,-1.78125 1.26171,-2.18359 0.69532,-0.40235 1.26172,-0.0781 1.26172,0.72656"
         style="fill:#ee1494;fill-opacity:1;fill-rule:nonzero;stroke:none" />
      <path
         inkscape:connector-curvature="0"
         id="path392"
         d="m 327.27344,319.59375 c 0,0.80469 -0.56641,1.78516 -1.26172,2.18359 -0.69922,0.40625 -1.26172,0.0781 -1.26172,-0.72656 0,-0.80469 0.5625,-1.78125 1.26172,-2.18359 0.69531,-0.40235 1.26172,-0.0781 1.26172,0.72656"
         style="fill:#ee1494;fill-opacity:1;fill-rule:nonzero;stroke:none" />
      <path
         inkscape:connector-curvature="0"
         id="path394"
         d="m 331.33203,317.25391 c 0,0.80468 -0.56641,1.78125 -1.26172,2.18359 -0.69922,0.40234 -1.26172,0.0742 -1.26172,-0.73047 0,-0.80469 0.5625,-1.78125 1.26172,-2.18359 0.69531,-0.40235 1.26172,-0.0781 1.26172,0.73047"
         style="fill:#ee1494;fill-opacity:1;fill-rule:nonzero;stroke:none" />
      <path
         inkscape:connector-curvature="0"
         id="path396"
         d="m 334.69922,301.61719 v -10.77344 l -24.16016,-0.0156 -8.35156,-4.82031 c -1.91797,-1.10547 -5.26563,-0.96875 -7.47656,0.3086 l -7.79297,4.5 -24.1836,-0.0117 v 11.08203 c -0.0547,0.74609 0.36329,1.46875 1.28516,2.0039 l 31.22656,18.02735 c 1.91797,1.10547 5.26563,0.96875 7.48047,-0.3086 l 30.15235,-17.41015 c 1.27734,-0.73828 1.89453,-1.69141 1.82031,-2.58203"
         style="fill:#613d9e;fill-opacity:1;fill-rule:nonzero;stroke:none" />
      <path
         inkscape:connector-curvature="0"
         id="path398"
         d="m 298.71875,285.26562 c -1.40234,0.0352 -2.85938,0.38672 -4.00781,1.05079 l -7.79297,4.5 -24.1836,-0.0117 v 11.08203 c -0.0547,0.74609 0.36329,1.46875 1.28516,2.0039 l 31.22656,18.02735 c 0.92188,0.53125 2.17578,0.77344 3.47266,0.74219 v -37.39454"
         style="fill:#7842a6;fill-opacity:1;fill-rule:nonzero;stroke:none" />
      <path
         inkscape:connector-curvature="0"
         id="path400"
         d="m 265.47266,290.80469 h -2.73829 v 11.08203 c -0.0547,0.74609 0.36329,1.46875 1.28516,2.0039 l 1.45313,0.83594 v -13.92187"
         style="fill:#8c51ae;fill-opacity:1;fill-rule:nonzero;stroke:none" />
      <path
         inkscape:connector-curvature="0"
         id="path402"
         d="m 295.73047,322.15625 c 1.65234,0.70703 4.04297,0.66797 5.97656,-0.0703 v -12.58203 h -5.97656 v 12.65234"
         style="fill:#663da1;fill-opacity:1;fill-rule:nonzero;stroke:none" />
      <path
         inkscape:connector-curvature="0"
         id="path404"
         d="m 295.24609,310.87891 -31.22656,-18.03125 c -1.91797,-1.10938 -1.67969,-3.03907 0.53516,-4.32032 l 30.15625,-17.41015 c 2.21093,-1.27344 5.55859,-1.41407 7.47656,-0.3086 l 31.23047,18.03125 c 1.91797,1.10547 1.67578,3.03907 -0.53906,4.31641 l -30.15235,17.41016 c -2.21484,1.27734 -5.5625,1.41796 -7.48047,0.3125"
         style="fill:#6e3fa3;fill-opacity:1;fill-rule:nonzero;stroke:none" />
      <path
         inkscape:connector-curvature="0"
         id="path406"
         d="m 332.87891,291.03516 -30.15235,17.41015 c -2.21484,1.28125 -5.5625,1.41797 -7.48047,0.3125 l -31.22656,-18.03125 c -0.42969,-0.24609 -0.74219,-0.53515 -0.95703,-0.84765 -0.66016,1.05859 -0.35938,2.20703 0.95703,2.96875 l 31.22656,18.03125 c 1.91797,1.10546 5.26563,0.96484 7.48047,-0.3125 l 30.15235,-17.41016 c 1.72265,-0.99219 2.24218,-2.37891 1.49609,-3.46875 -0.30078,0.48437 -0.80078,0.94922 -1.49609,1.34766"
         style="fill:#8c51ae;fill-opacity:1;fill-rule:nonzero;stroke:none" />
      <path
         inkscape:connector-curvature="0"
         id="path408"
         d="m 323.21484,304.46484 c 0,0.80078 -0.5664,1.78125 -1.26172,2.1836 -0.69531,0.40234 -1.26171,0.0742 -1.26171,-0.73047 0,-0.80469 0.5664,-1.78125 1.26171,-2.1836 0.69532,-0.40234 1.26172,-0.0781 1.26172,0.73047"
         style="fill:#ee1494;fill-opacity:1;fill-rule:nonzero;stroke:none" />
      <path
         inkscape:connector-curvature="0"
         id="path410"
         d="m 327.27344,302.11719 c 0,0.80468 -0.56641,1.78515 -1.26172,2.1875 -0.69922,0.40234 -1.26172,0.0742 -1.26172,-0.73047 0,-0.80469 0.5625,-1.78125 1.26172,-2.1836 0.69531,-0.40234 1.26172,-0.0781 1.26172,0.72657"
         style="fill:#ee1494;fill-opacity:1;fill-rule:nonzero;stroke:none" />
      <path
         inkscape:connector-curvature="0"
         id="path412"
         d="m 331.33203,299.77734 c 0,0.80469 -0.56641,1.78125 -1.26172,2.1836 -0.69922,0.40234 -1.26172,0.0742 -1.26172,-0.73047 0,-0.80078 0.5625,-1.78125 1.26172,-2.1836 0.69531,-0.40234 1.26172,-0.0742 1.26172,0.73047"
         style="fill:#ee1494;fill-opacity:1;fill-rule:nonzero;stroke:none" />
      <path
         inkscape:connector-curvature="0"
         id="path414"
         d="m 297.09375,300.17969 -14.61328,-8.44141 c -0.89844,-0.51562 -0.78516,-1.42187 0.25,-2.01562 l 14.11328,-8.14844 c 1.03516,-0.59766 2.60156,-0.66406 3.5,-0.14453 l 14.61328,8.43359 c 0.89453,0.51953 0.78125,1.42578 -0.25391,2.02344 l -14.10937,8.14453 c -1.03516,0.60156 -2.60156,0.66406 -3.5,0.14844"
         style="fill:#593a9e;fill-opacity:1;fill-rule:nonzero;stroke:none" />
      <path
         inkscape:connector-curvature="0"
         id="path416"
         d="m 298.49219,293.11328 -2.01953,-1.16797 c -0.125,-0.0703 -0.10938,-0.19531 0.0351,-0.27734 l 1.94922,-1.12891 c 0.14453,-0.082 0.35938,-0.0937 0.48438,-0.0195 l 2.02343,1.16797 c 0.125,0.0703 0.10938,0.19531 -0.0351,0.27734 l -1.95313,1.12891 c -0.14062,0.082 -0.35937,0.0898 -0.48437,0.0195"
         style="fill:#ee1494;fill-opacity:1;fill-rule:nonzero;stroke:none" />
      <path
         inkscape:connector-curvature="0"
         id="path418"
         d="m 282.48047,291.73828 0.0391,0.0273 0.21094,-0.14453 14.11328,-8.14843 c 1.03516,-0.59766 2.60156,-0.66016 3.5,-0.14454 l 14.57031,8.41407 c 0.82813,-0.59375 0.8711,-1.39844 0.043,-1.87891 l -14.61328,-8.43359 c -0.89844,-0.51953 -2.46484,-0.45313 -3.5,0.14453 l -14.11328,8.14844 c -1.03516,0.59375 -1.14844,1.5 -0.25,2.01562"
         style="fill:#8c51ae;fill-opacity:1;fill-rule:nonzero;stroke:none" />
      <path
         inkscape:connector-curvature="0"
         id="path420"
         d="m 285.91406,330.62891 -12.64453,-7.29688 c -0.77734,-0.44922 -1.41016,-1.66016 -1.41016,-2.69922 0,-1.03906 0.63282,-1.51562 1.41016,-1.0664 l 12.64453,7.30078 c 0.78125,0.44922 1.41016,1.65625 1.41016,2.69531 0,1.03906 -0.62891,1.51953 -1.41016,1.06641"
         style="fill:#593a9e;fill-opacity:1;fill-rule:nonzero;stroke:none" />
      <path
         inkscape:connector-curvature="0"
         id="path422"
         d="m 287.04687,329.93359 -12.64453,-7.30078 c -0.78125,-0.44922 -1.41015,-1.65625 -1.41015,-2.69531 0,-0.17578 0.0234,-0.32813 0.0547,-0.46875 -0.67187,-0.24609 -1.1875,0.22656 -1.1875,1.16406 0,1.03906 0.63282,2.25 1.41016,2.69922 l 12.64453,7.29688 c 0.64844,0.375 1.1875,0.10156 1.35547,-0.59766 l -0.22266,-0.0977"
         style="fill:#8c51ae;fill-opacity:1;fill-rule:nonzero;stroke:none" />
      <path
         inkscape:connector-curvature="0"
         id="path424"
         d="m 291.89062,230.49219 -3.25781,-1.85938 v 0.008 c -0.29297,-0.23828 -0.70312,-0.25781 -1.15625,0.004 l -22.32422,12.89063 c -0.89062,0.51171 -1.60937,1.89062 -1.60937,3.07421 v 37.35547 c 0,2.03907 1.08984,3.91797 2.85156,4.92969 l 0.5,0.28906 0.32422,-4.04687 21.86719,-12.625 v -39.42188 l 0.42578,2.32813 2.3789,-2.92578"
         style="fill:#7842a6;fill-opacity:1;fill-rule:nonzero;stroke:none" />
      <path
         inkscape:connector-curvature="0"
         id="path426"
         d="m 288.63281,228.63281 v 0.008 c -0.29297,-0.23828 -0.70312,-0.25781 -1.15625,0.004 l -22.32422,12.89063 c -0.52343,0.30078 -0.98047,0.90234 -1.27343,1.58203 l 25.20703,14.55468 v -26.58203 l 0.42578,2.32813 2.3789,-2.92578 -3.25781,-1.85938"
         style="fill:#6e3fa3;fill-opacity:1;fill-rule:nonzero;stroke:none" />
      <path
         inkscape:connector-curvature="0"
         id="path428"
         d="m 268.54297,247.25391 2.51953,-1.45313 -6.51172,-3.76172 c -0.53906,0.60156 -0.92969,1.4961 -0.99219,2.33594 l 4.98438,2.87891"
         style="fill:#8c51ae;fill-opacity:1;fill-rule:nonzero;stroke:none" />
      <path
         inkscape:connector-curvature="0"
         id="path430"
         d="m 292.4375,272.43359 -25.54297,14.75 v -40.64843 c 0,-1.1875 0.71875,-2.5625 1.60938,-3.07422 l 22.32031,-12.89063 c 0.89062,-0.51172 1.61328,0.0312 1.61328,1.21485 v 40.64843"
         style="fill:#613d9e;fill-opacity:1;fill-rule:nonzero;stroke:none" />
      <path
         inkscape:connector-curvature="0"
         id="path432"
         d="m 277.06641,282.42187 c 0,0.71875 -0.50391,1.00782 -1.1211,0.64844 -0.62109,-0.35547 -1.125,-1.22656 -1.125,-1.94531 0,-0.71484 0.50391,-1.00781 1.125,-0.64844 0.61719,0.35938 1.1211,1.23047 1.1211,1.94531"
         style="fill:#8c51ae;fill-opacity:1;fill-rule:nonzero;stroke:none" />
      <path
         inkscape:connector-curvature="0"
         id="path434"
         d="m 271.39062,282.57031 3.73047,-2.15625 1.66016,2.70703 -3.74219,2.16407 -1.64844,-2.71485"
         style="fill:#8c51ae;fill-opacity:1;fill-rule:nonzero;stroke:none" />
      <path
         inkscape:connector-curvature="0"
         id="path436"
         d="m 273.35937,284.5625 c 0,0.71875 -0.5039,1.00781 -1.125,0.65234 -0.62109,-0.35937 -1.12109,-1.23047 -1.12109,-1.94922 0,-0.71484 0.5,-1.0039 1.12109,-0.64843 0.6211,0.35937 1.125,1.23047 1.125,1.94531"
         style="fill:#7842a6;fill-opacity:1;fill-rule:nonzero;stroke:none" />
      <path
         inkscape:connector-curvature="0"
         id="path438"
         d="m 272.81641,284.25 c 0,0.36719 -0.26172,0.51953 -0.58204,0.33594 -0.32031,-0.1875 -0.57812,-0.63672 -0.57812,-1.00391 0,-0.37109 0.25781,-0.51953 0.57812,-0.33594 0.32032,0.1836 0.58204,0.63282 0.58204,1.00391"
         style="fill:#613d9e;fill-opacity:1;fill-rule:nonzero;stroke:none" />
      <path
         inkscape:connector-curvature="0"
         id="path440"
         d="m 290.13672,275.04687 c 0,0.71485 -0.50391,1.00391 -1.125,0.64454 -0.6211,-0.35547 -1.125,-1.22657 -1.125,-1.94532 0,-0.71484 0.5039,-1.00781 1.125,-0.64843 0.62109,0.35937 1.125,1.23046 1.125,1.94921"
         style="fill:#8c51ae;fill-opacity:1;fill-rule:nonzero;stroke:none" />
      <path
         inkscape:connector-curvature="0"
         id="path442"
         d="m 284.45703,275.19531 3.73438,-2.16015 1.65625,2.70703 -3.74219,2.16406 -1.64844,-2.71094"
         style="fill:#8c51ae;fill-opacity:1;fill-rule:nonzero;stroke:none" />
      <path
         inkscape:connector-curvature="0"
         id="path444"
         d="m 286.42578,277.1875 c 0,0.71484 -0.5,1.00391 -1.12109,0.64844 -0.6211,-0.35938 -1.125,-1.23047 -1.125,-1.94922 0,-0.71485 0.5039,-1.00391 1.125,-0.64844 0.62109,0.35938 1.12109,1.23047 1.12109,1.94922"
         style="fill:#7842a6;fill-opacity:1;fill-rule:nonzero;stroke:none" />
      <path
         inkscape:connector-curvature="0"
         id="path446"
         d="m 285.88281,276.87109 c 0,0.3711 -0.26172,0.51953 -0.57812,0.33594 -0.32032,-0.1875 -0.58203,-0.63672 -0.58203,-1.00391 0,-0.37109 0.26171,-0.51953 0.58203,-0.33593 0.3164,0.1875 0.57812,0.63672 0.57812,1.0039"
         style="fill:#613d9e;fill-opacity:1;fill-rule:nonzero;stroke:none" />
      <path
         inkscape:connector-curvature="0"
         id="path752"
         d="m 282.14062,259.55469 0.004,-2.33203 c 0,-0.14454 -0.11719,-0.19532 -0.26172,-0.11329 l -1.95312,1.125 c -0.14453,0.082 -0.26172,0.26563 -0.26172,0.41016 l -0.004,2.33203 c 0,0.14453 0.11719,0.19531 0.26172,0.11328 l 1.95313,-1.125 c 0.14453,-0.082 0.25781,-0.26562 0.26171,-0.41015"
         style="fill:#ee1494;fill-opacity:1;fill-rule:nonzero;stroke:none" />
    </g>
  </g>
</svg>
