<svg id="Layer_1" data-name="Layer 1" xmlns="http://www.w3.org/2000/svg" viewBox="0 0 64 64"><defs><style>.cls-1{fill:#ccd8e5;}.cls-2{fill:#0795ff;}.cls-3{fill:#156cdd;}.cls-4{fill:#fff;}</style></defs><title>map, pin, pointer, location, navigation, favourite, home</title><path class="cls-1" d="M42.25,51.54C42.25,54,37.66,56,32,56s-10.25-2-10.25-4.46S26.34,47.08,32,47.08,42.25,49.08,42.25,51.54Z"/><path class="cls-2" d="M49.43,25.43A17.44,17.44,0,0,0,31.14,8c-8.3.4-16,7.93-16.53,16.22A17.37,17.37,0,0,0,21.08,39,37.72,37.72,0,0,1,31.13,50.93l.5,1a.42.42,0,0,0,.74,0l.29-.57A38.33,38.33,0,0,1,42.87,39,17.36,17.36,0,0,0,49.43,25.43Z"/><path class="cls-3" d="M32,47.08a23.29,23.29,0,0,0-3.08.21,32.65,32.65,0,0,1,2.21,3.64l.5,1a.42.42,0,0,0,.74,0l.29-.57a37.42,37.42,0,0,1,2.45-4A23.63,23.63,0,0,0,32,47.08Z"/><path class="cls-1" d="M35.84,19.94h2a.53.53,0,0,1,.53.53v8.16a0,0,0,0,1,0,0H35.31a0,0,0,0,1,0,0V20.47A.53.53,0,0,1,35.84,19.94Z"/><rect class="cls-4" x="25.62" y="24.56" width="12.76" height="9.42"/><path class="cls-4" d="M31.57,18.53l-8.08,8.08a.61.61,0,0,0,.43,1.05H40.08a.61.61,0,0,0,.43-1.05l-8.08-8.08A.6.6,0,0,0,31.57,18.53Z"/><path class="cls-1" d="M34.86,26.46a2,2,0,0,0-2.69.15l-.17.16-.17-.16a2,2,0,0,0-2.69-.15,1.9,1.9,0,0,0-.08,2.76l2.67,2.67a.39.39,0,0,0,.54,0l2.67-2.67A1.9,1.9,0,0,0,34.86,26.46Z"/></svg>