<svg id="Layer_1" data-name="Layer 1" xmlns="http://www.w3.org/2000/svg" viewBox="0 0 64 64"><defs><style>.cls-1{fill:#ccd8e5;}.cls-2{fill:#dfe8f4;}.cls-3{fill:#fff;}.cls-4{fill:#0795ff;}</style></defs><title>education, educate, school, college, notebook</title><rect class="cls-1" x="11.91" y="11.07" width="40.18" height="44.93" rx="4.28"/><rect class="cls-2" x="19.39" y="26.21" width="25.22" height="21.93" rx="2.45"/><rect class="cls-3" x="24.21" y="31.6" width="15.58" height="2.01"/><rect class="cls-3" x="24.21" y="36.17" width="15.58" height="2.01"/><rect class="cls-3" x="24.21" y="40.74" width="7.09" height="2.01"/><path class="cls-4" d="M22.47,18.44h0A2.41,2.41,0,0,1,20.06,16V10.5a2.41,2.41,0,0,1,2.41-2.41h0a2.41,2.41,0,0,1,2.41,2.41V16A2.41,2.41,0,0,1,22.47,18.44Z"/><path class="cls-4" d="M32,18.44h0A2.41,2.41,0,0,1,29.59,16V10.5A2.41,2.41,0,0,1,32,8.09h0a2.41,2.41,0,0,1,2.41,2.41V16A2.41,2.41,0,0,1,32,18.44Z"/><path class="cls-4" d="M41.53,18.44h0A2.41,2.41,0,0,1,39.12,16V10.5a2.41,2.41,0,0,1,2.41-2.41h0a2.41,2.41,0,0,1,2.41,2.41V16A2.41,2.41,0,0,1,41.53,18.44Z"/></svg>