<svg xmlns="http://www.w3.org/2000/svg" width="512" height="512"><path d="M14.585 1.191C8.547 2.866 2.469 9.547.996 16.129-.579 23.164.782 28.304 5.908 34.688c2.126 2.646 16.853 17.687 32.728 33.423 31.979 31.698 33.433 32.752 43.529 31.556 9.623-1.14 16.366-7.913 17.512-17.591 1.194-10.079.264-11.337-33.565-45.403C49.275 19.718 33.664 4.757 31.419 3.427 26.583.56 20.008-.313 14.585 1.191M280.5.929c-1.65.398-3.9 1.221-5 1.829-1.1.608-16.698 15.874-34.662 33.924-34.326 34.489-34.858 35.159-34.81 43.818.02 3.668 2.939 10.173 5.997 13.364 3.052 3.185 9.694 6.088 13.975 6.108 9.176.043 9.626-.307 43.364-33.82C306.972 28.794 308.29 26.878 304.89 14.5c-1.513-5.507-8.259-11.852-14.189-13.345-5.042-1.27-5.808-1.287-10.201-.226M142.746 113.03c-11.254 2.82-21.832 11.708-27.053 22.729-2.96 6.249-3.193 7.507-3.193 17.241 0 9.69.24 11.002 3.11 17 4.538 9.482 10.146 15.276 19.045 19.674 6.56 3.242 8.652 3.773 16.327 4.139 7.104.34 10.031.012 15.161-1.7 11.96-3.992 21.978-14.01 25.97-25.97 1.712-5.13 2.04-8.057 1.7-15.161-.366-7.675-.897-9.767-4.139-16.327-4.407-8.917-10.226-14.541-19.657-18.998-5.406-2.555-7.896-3.105-15-3.316-4.684-.139-10.206.171-12.271.689m76.754 94.473c-7.599 2.688-13.519 11.474-13.472 19.997.039 7.237 3.273 11.197 35.274 43.198 32.001 32.001 35.961 35.235 43.198 35.274 11.75.065 21.473-9.673 21.494-21.526.013-7.117-4.035-12.063-35.719-43.639-32-31.892-35.608-34.789-43.275-34.741-1.925.012-5.3.659-7.5 1.437M345 320.028c-11.326 4.082-21.268 14.308-25.113 25.829-1.712 5.13-2.04 8.057-1.7 15.161.366 7.675.897 9.767 4.139 16.327 4.398 8.899 10.192 14.507 19.674 19.045 6.001 2.871 7.308 3.11 17.022 3.11 9.958 0 10.895-.183 17.467-3.42 8.887-4.375 15.744-11.24 19.818-19.839 2.96-6.249 3.193-7.507 3.193-17.241 0-9.69-.24-11.002-3.11-17-4.547-9.501-10.143-15.274-19.093-19.698-6.954-3.437-8.358-3.763-17.185-3.999-7.544-.202-10.795.17-15.112 1.725m-67 93.146c-5.198 1.475-66.264 62.297-69.604 69.326-4.087 8.599-2.679 16.6 4.064 23.095 6.518 6.278 15.886 7.807 23.54 3.843 1.375-.713 17.201-16.065 35.169-34.117 29.156-29.292 32.796-33.303 33.851-37.302 4.287-16.255-10.236-29.609-27.02-24.845m147.211-.045c-7.24 2.088-13.224 11.108-13.183 19.871.035 7.611 3.045 11.419 32.277 40.845 31.264 31.472 35.92 35.6 42.002 37.238 10.429 2.808 22.089-4.23 24.643-14.873 1.429-5.959.77-10.137-2.477-15.71-1.282-2.2-15.975-17.588-32.652-34.196-22.182-22.092-31.529-30.742-34.821-32.228-4.786-2.161-10.41-2.498-15.789-.947" fill="undefined" fill-rule="evenodd"/></svg>