<svg id="Layer_1" data-name="Layer 1" xmlns="http://www.w3.org/2000/svg" viewBox="0 0 64 64"><defs><style>.cls-1{fill:#156cdd;}.cls-2{fill:#dfe8f4;}.cls-3{fill:#ccd8e5;}.cls-4{fill:#0795ff;}</style></defs><title>interface, user, usability, agent, share, send, transfer</title><circle class="cls-1" cx="40.1" cy="15.74" r="7.74"/><circle class="cls-1" cx="40.1" cy="48.26" r="7.74"/><path class="cls-2" d="M34.81,48,18.61,31.8l16.2-16.2a3.74,3.74,0,0,1,5.29,0h0a3.74,3.74,0,0,1,0,5.29L29.19,31.8,40.1,42.71a3.74,3.74,0,0,1,0,5.29h0A3.74,3.74,0,0,1,34.81,48Z"/><path class="cls-3" d="M29.61,32.22a5.71,5.71,0,0,1-5.29,5.29l3.29,3.29a9.78,9.78,0,0,0,5.29-5.3Z"/><path class="cls-3" d="M29.61,31.38l3.29-3.29a9.79,9.79,0,0,0-5.29-5.29l-3.29,3.28A5.73,5.73,0,0,1,29.61,31.38Z"/><circle class="cls-4" cx="23.9" cy="31.8" r="7.74"/></svg>