<svg xmlns="http://www.w3.org/2000/svg" xmlns:xlink="http://www.w3.org/1999/xlink" viewBox="0 0 64 64"><defs><style>.cls-1{isolation:isolate;}.cls-2{fill:url(#linear-gradient);}.cls-3{fill:url(#linear-gradient-2);}.cls-4{fill:url(#linear-gradient-3);}.cls-5{fill:url(#linear-gradient-4);}.cls-6{fill:url(#linear-gradient-5);}.cls-7{fill:url(#linear-gradient-6);}.cls-8{opacity:0.68;mix-blend-mode:multiply;fill:url(#linear-gradient-7);}.cls-9{fill:url(#linear-gradient-8);}.cls-10{fill:url(#linear-gradient-9);}.cls-11{fill:url(#linear-gradient-10);}.cls-12{fill:url(#linear-gradient-11);}.cls-13{fill:url(#linear-gradient-12);}.cls-14{fill:url(#linear-gradient-13);}.cls-15{fill:url(#linear-gradient-14);}.cls-16{fill:url(#linear-gradient-15);}.cls-17{fill:url(#linear-gradient-16);}.cls-18{fill:url(#linear-gradient-17);}.cls-19{fill:url(#linear-gradient-18);}.cls-20{fill:url(#linear-gradient-19);}.cls-21{fill:url(#linear-gradient-20);}.cls-22{fill:url(#linear-gradient-21);}.cls-23{fill:url(#linear-gradient-22);}.cls-24{fill:url(#linear-gradient-23);}.cls-25{fill:url(#linear-gradient-24);}.cls-26{fill:url(#linear-gradient-25);}.cls-27{fill:url(#linear-gradient-26);}.cls-28{fill:url(#linear-gradient-27);}.cls-29{fill:#39ce9c;}.cls-30{fill:url(#linear-gradient-28);}.cls-31{opacity:0.24;}.cls-32{fill:url(#linear-gradient-29);}.cls-33{fill:url(#linear-gradient-30);}.cls-34{fill:url(#linear-gradient-31);}.cls-35{fill:url(#linear-gradient-32);}.cls-36{fill:url(#linear-gradient-33);}.cls-37{fill:url(#linear-gradient-34);}.cls-38{fill:url(#linear-gradient-35);}.cls-39{fill:url(#linear-gradient-36);}.cls-40{fill:url(#linear-gradient-37);}.cls-41{fill:url(#linear-gradient-38);}.cls-42{fill:url(#linear-gradient-39);}.cls-43{fill:url(#linear-gradient-40);}.cls-44{fill:url(#linear-gradient-41);}.cls-45{fill:url(#linear-gradient-42);}.cls-46{fill:url(#linear-gradient-43);}.cls-47{fill:url(#linear-gradient-44);}.cls-48{fill:#dae0e0;}.cls-49{fill:url(#linear-gradient-45);}.cls-50{fill:url(#linear-gradient-46);}.cls-51{fill:url(#linear-gradient-47);}.cls-52{fill:url(#linear-gradient-48);}.cls-53{fill:url(#linear-gradient-49);}.cls-54{fill:url(#linear-gradient-50);}.cls-55{fill:#e4efef;}.cls-56{fill:url(#linear-gradient-51);}.cls-57{fill:url(#linear-gradient-52);}.cls-58{fill:url(#linear-gradient-53);}.cls-59{fill:url(#linear-gradient-54);}.cls-60{fill:url(#linear-gradient-55);}.cls-61{fill:url(#linear-gradient-56);}.cls-62{fill:url(#linear-gradient-57);}.cls-63{fill:url(#linear-gradient-58);}.cls-64{fill:url(#linear-gradient-59);}.cls-65{fill:url(#linear-gradient-60);}.cls-66{fill:url(#linear-gradient-61);}.cls-67{fill:url(#linear-gradient-62);}.cls-68{fill:url(#linear-gradient-63);}.cls-69{fill:url(#linear-gradient-64);}.cls-70{fill:url(#linear-gradient-65);}.cls-71{fill:url(#linear-gradient-66);}.cls-72{fill:url(#linear-gradient-67);}.cls-73{fill:url(#linear-gradient-68);}.cls-74{fill:url(#linear-gradient-69);}.cls-75{fill:url(#linear-gradient-70);}</style><linearGradient id="linear-gradient" x1="32.67" y1="97.25" x2="32.67" y2="9.14" gradientUnits="userSpaceOnUse"><stop offset="0" stop-color="#d1efe7"/><stop offset="0.53" stop-color="#97efe7"/><stop offset="1" stop-color="#3ccbe3"/></linearGradient><linearGradient id="linear-gradient-2" x1="30.37" y1="26.95" x2="44.12" y2="-1.63" xlink:href="#linear-gradient"/><linearGradient id="linear-gradient-3" x1="31.76" y1="41.38" x2="31.76" y2="8.04" xlink:href="#linear-gradient"/><linearGradient id="linear-gradient-4" x1="43.55" y1="46.29" x2="43.55" y2="31.37" xlink:href="#linear-gradient"/><linearGradient id="linear-gradient-5" x1="44.5" y1="7.69" x2="40.17" y2="28.11" gradientUnits="userSpaceOnUse"><stop offset="0" stop-color="#f9d5c5"/><stop offset="1" stop-color="#f78e6b"/></linearGradient><linearGradient id="linear-gradient-6" x1="38.38" y1="6.39" x2="34.05" y2="26.81" xlink:href="#linear-gradient-5"/><linearGradient id="linear-gradient-7" x1="37.29" y1="17.3" x2="36.55" y2="17.19" gradientUnits="userSpaceOnUse"><stop offset="0" stop-color="#fff" stop-opacity="0"/><stop offset="1"/></linearGradient><linearGradient id="linear-gradient-8" x1="37.05" y1="9.64" x2="33.51" y2="18.31" gradientUnits="userSpaceOnUse"><stop offset="0" stop-color="#208ca3"/><stop offset="0.42" stop-color="#3c4178"/><stop offset="1" stop-color="#241b3c"/></linearGradient><linearGradient id="linear-gradient-9" x1="30.92" y1="22.59" x2="34.8" y2="15.57" xlink:href="#linear-gradient-8"/><linearGradient id="linear-gradient-10" x1="32.02" y1="64.18" x2="32.02" y2="23.34" gradientUnits="userSpaceOnUse"><stop offset="0" stop-color="#3db6d3"/><stop offset="0.5" stop-color="#3d6fd3"/><stop offset="1" stop-color="#252784"/></linearGradient><linearGradient id="linear-gradient-11" x1="15.74" y1="57.27" x2="16.68" y2="35.93" xlink:href="#linear-gradient-10"/><linearGradient id="linear-gradient-12" x1="24.71" y1="76.91" x2="37.05" y2="32.91" xlink:href="#linear-gradient-10"/><linearGradient id="linear-gradient-13" x1="30.07" y1="78.41" x2="42.4" y2="34.41" xlink:href="#linear-gradient-10"/><linearGradient id="linear-gradient-14" x1="35.88" y1="52.75" x2="28.22" y2="25" gradientUnits="userSpaceOnUse"><stop offset="0.04" stop-color="#b0462a"/><stop offset="0.51" stop-color="#70332a"/><stop offset="0.99" stop-color="#4d2c2a"/></linearGradient><linearGradient id="linear-gradient-15" x1="34.84" y1="57.57" x2="31.09" y2="31.74" xlink:href="#linear-gradient-14"/><linearGradient id="linear-gradient-16" x1="36.93" y1="61.35" x2="28.43" y2="46.6" gradientUnits="userSpaceOnUse"><stop offset="0" stop-color="#182ebd"/><stop offset="0.58" stop-color="#0d1226"/></linearGradient><linearGradient id="linear-gradient-17" x1="38.97" y1="51.9" x2="31.3" y2="24.15" xlink:href="#linear-gradient-14"/><linearGradient id="linear-gradient-18" x1="37.43" y1="57.2" x2="33.68" y2="31.36" xlink:href="#linear-gradient-14"/><linearGradient id="linear-gradient-19" x1="46.57" y1="29.01" x2="32.31" y2="25.88" xlink:href="#linear-gradient-8"/><linearGradient id="linear-gradient-20" x1="35.01" y1="24.75" x2="37.62" y2="23.68" xlink:href="#linear-gradient-8"/><linearGradient id="linear-gradient-21" x1="47.05" y1="14.61" x2="35.08" y2="26.59" xlink:href="#linear-gradient-8"/><linearGradient id="linear-gradient-22" x1="37.83" y1="17.81" x2="35.86" y2="22.07" gradientUnits="userSpaceOnUse"><stop offset="0" stop-color="#ffd600"/><stop offset="0.22" stop-color="#ff9c38"/><stop offset="1" stop-color="#ff5147"/></linearGradient><linearGradient id="linear-gradient-23" x1="36.35" y1="38.87" x2="33.22" y2="31.85" xlink:href="#linear-gradient-8"/><linearGradient id="linear-gradient-24" x1="42.39" y1="31.81" x2="32.67" y2="25.28" xlink:href="#linear-gradient-22"/><linearGradient id="linear-gradient-25" x1="40.88" y1="28.05" x2="38.35" y2="25.8" xlink:href="#linear-gradient-22"/><linearGradient id="linear-gradient-26" x1="39.28" y1="29.86" x2="36.74" y2="27.6" xlink:href="#linear-gradient-22"/><linearGradient id="linear-gradient-27" x1="38.24" y1="38" x2="35.13" y2="31.01" xlink:href="#linear-gradient-8"/><linearGradient id="linear-gradient-28" x1="32.47" y1="28.44" x2="32.47" y2="17.38" gradientUnits="userSpaceOnUse"><stop offset="0" stop-color="#7ff1a4"/><stop offset="0.52" stop-color="#2fbca4"/><stop offset="1" stop-color="#2f7da4"/></linearGradient><linearGradient id="linear-gradient-29" x1="-112.46" y1="9.45" x2="-112.46" y2="6.26" gradientTransform="translate(143.44 14.39) rotate(2.28)" xlink:href="#linear-gradient-28"/><linearGradient id="linear-gradient-30" x1="-110.25" y1="9.45" x2="-110.25" y2="6.26" gradientTransform="translate(143.44 14.39) rotate(2.28)" xlink:href="#linear-gradient-28"/><linearGradient id="linear-gradient-31" x1="35.07" y1="22.72" x2="35.07" y2="17.09" xlink:href="#linear-gradient-28"/><linearGradient id="linear-gradient-32" x1="35.11" y1="22.5" x2="35.11" y2="18.66" xlink:href="#linear-gradient-28"/><linearGradient id="linear-gradient-33" x1="-111.49" y1="10.93" x2="-111.49" y2="9.23" gradientTransform="translate(143.44 14.39) rotate(2.28)" gradientUnits="userSpaceOnUse"><stop offset="0" stop-color="#ffd600"/><stop offset="0.3" stop-color="#ff9c38"/><stop offset="1" stop-color="#ff5147"/></linearGradient><linearGradient id="linear-gradient-34" x1="31.72" y1="24.71" x2="31.72" y2="23" gradientTransform="matrix(1, 0, 0, 1, 0, 0)" xlink:href="#linear-gradient-33"/><linearGradient id="linear-gradient-35" x1="-110.11" y1="19.82" x2="-120.54" y2="15.76" gradientTransform="translate(143.44 14.39) rotate(2.28)" gradientUnits="userSpaceOnUse"><stop offset="0" stop-color="#abcf9c"/><stop offset="0.17" stop-color="#84cf9c"/><stop offset="0.46" stop-color="#39ce9c"/><stop offset="1" stop-color="#007a75"/></linearGradient><linearGradient id="linear-gradient-36" x1="-115.98" y1="25.61" x2="-115.98" y2="14.08" gradientTransform="translate(143.44 14.39) rotate(2.28)" xlink:href="#linear-gradient-22"/><linearGradient id="linear-gradient-37" x1="43.47" y1="32.82" x2="28.33" y2="22.45" xlink:href="#linear-gradient-22"/><linearGradient id="linear-gradient-38" x1="-108.33" y1="23.01" x2="-108.33" y2="19.8" gradientTransform="translate(143.44 14.39) rotate(2.28)" xlink:href="#linear-gradient-22"/><linearGradient id="linear-gradient-39" x1="-112.51" y1="30.17" x2="-112.51" y2="8.87" gradientTransform="translate(143.44 14.39) rotate(2.28)" xlink:href="#linear-gradient-22"/><linearGradient id="linear-gradient-40" x1="-113.67" y1="23.18" x2="-113.67" y2="19.89" gradientTransform="translate(143.44 14.39) rotate(2.28)" xlink:href="#linear-gradient-22"/><linearGradient id="linear-gradient-41" x1="30.11" y1="24.78" x2="30.11" y2="21.26" xlink:href="#linear-gradient-22"/><linearGradient id="linear-gradient-42" x1="-109.18" y1="13.36" x2="-112.74" y2="9.76" gradientTransform="translate(143.44 14.39) rotate(2.28)" xlink:href="#linear-gradient-22"/><linearGradient id="linear-gradient-43" x1="45.57" y1="33.19" x2="30.06" y2="25.36" gradientUnits="userSpaceOnUse"><stop offset="0" stop-color="#ffd600"/><stop offset="0.27" stop-color="#ff9c38"/><stop offset="1" stop-color="#ff5147"/></linearGradient><linearGradient id="linear-gradient-44" x1="44.09" y1="30.11" x2="31.02" y2="27.11" xlink:href="#linear-gradient-22"/><linearGradient id="linear-gradient-45" x1="-113.9" y1="26.3" x2="-113.9" y2="9.58" gradientTransform="translate(143.44 14.39) rotate(2.28)" xlink:href="#linear-gradient-22"/><linearGradient id="linear-gradient-46" x1="-107.58" y1="19.06" x2="-117.39" y2="15.47" gradientTransform="translate(143.44 14.39) rotate(2.28)" xlink:href="#linear-gradient-22"/><linearGradient id="linear-gradient-47" x1="-108.33" y1="14.16" x2="-108.33" y2="9.02" gradientTransform="translate(143.44 14.39) rotate(2.28)" xlink:href="#linear-gradient-22"/><linearGradient id="linear-gradient-48" x1="-108.75" y1="12.6" x2="-108.75" y2="9.5" gradientTransform="translate(143.44 14.39) rotate(2.28)" xlink:href="#linear-gradient-22"/><linearGradient id="linear-gradient-49" x1="-114.63" y1="12.67" x2="-114.63" y2="9.72" gradientTransform="translate(143.44 14.39) rotate(2.28)" xlink:href="#linear-gradient-8"/><linearGradient id="linear-gradient-50" x1="-112.13" y1="12.67" x2="-112.13" y2="9.72" gradientTransform="translate(143.44 14.39) rotate(2.28)" xlink:href="#linear-gradient-8"/><linearGradient id="linear-gradient-51" x1="-114.03" y1="18.71" x2="-114.03" y2="13.89" gradientTransform="translate(143.44 14.39) rotate(2.28)" xlink:href="#linear-gradient-22"/><linearGradient id="linear-gradient-52" x1="-111.1" y1="16.82" x2="-113.85" y2="14.04" gradientTransform="translate(143.44 14.39) rotate(2.28)" xlink:href="#linear-gradient-22"/><linearGradient id="linear-gradient-53" x1="44.43" y1="57.03" x2="35.93" y2="42.28" xlink:href="#linear-gradient-16"/><linearGradient id="linear-gradient-54" x1="33.36" y1="40.62" x2="34.65" y2="28.7" xlink:href="#linear-gradient-14"/><linearGradient id="linear-gradient-55" x1="39.81" y1="19.6" x2="38.19" y2="25.94" gradientTransform="translate(51.28 -21.98) rotate(77.15)" xlink:href="#linear-gradient-8"/><linearGradient id="linear-gradient-56" x1="37.38" y1="21.75" x2="41.67" y2="20.47" xlink:href="#linear-gradient-8"/><linearGradient id="linear-gradient-57" x1="43.31" y1="55.53" x2="37.93" y2="46.16" xlink:href="#linear-gradient-16"/><linearGradient id="linear-gradient-58" x1="4.9" y1="23.72" x2="12.14" y2="18.11" xlink:href="#linear-gradient-43"/><linearGradient id="linear-gradient-59" x1="35.96" y1="59.75" x2="30.58" y2="50.37" xlink:href="#linear-gradient-16"/><linearGradient id="linear-gradient-60" x1="48.1" y1="33.35" x2="48.53" y2="45.53" xlink:href="#linear-gradient-16"/><linearGradient id="linear-gradient-61" x1="54.22" y1="41.47" x2="45.97" y2="44.07" gradientTransform="translate(7.88 -7.34) rotate(9.56)" xlink:href="#linear-gradient-10"/><linearGradient id="linear-gradient-62" x1="46.99" y1="40.08" x2="46.79" y2="46.87" xlink:href="#linear-gradient-16"/><linearGradient id="linear-gradient-63" x1="42.77" y1="42.74" x2="44.62" y2="50.59" xlink:href="#linear-gradient-16"/><linearGradient id="linear-gradient-64" x1="45.01" y1="65.9" x2="45.01" y2="38.39" xlink:href="#linear-gradient-10"/><linearGradient id="linear-gradient-65" x1="23.2" y1="33.17" x2="23.2" y2="5.01" xlink:href="#linear-gradient-16"/><linearGradient id="linear-gradient-66" x1="27.28" y1="4.03" x2="22.94" y2="24.45" xlink:href="#linear-gradient-5"/><linearGradient id="linear-gradient-67" x1="27.66" y1="4.11" x2="23.33" y2="24.53" xlink:href="#linear-gradient-5"/><linearGradient id="linear-gradient-68" x1="23" y1="23.09" x2="28.13" y2="27.74" xlink:href="#linear-gradient-8"/><linearGradient id="linear-gradient-69" x1="16.26" y1="25.89" x2="13.76" y2="10.39" xlink:href="#linear-gradient-10"/><linearGradient id="linear-gradient-70" x1="10.73" y1="37.87" x2="8.48" y2="12.25" xlink:href="#linear-gradient-10"/></defs><title>mountain climbing</title><g class="cls-1"><g id="Layer_1" data-name="Layer 1"><circle class="cls-2" cx="32.67" cy="32" r="28"/><path class="cls-3" d="M56.84,17.87c-6-1.71-10.77-4-12.81-6C40.91,8.83,32.66,9.36,31.87,7.1c-.65-1.85-1.24-.95-3.69-2.74A27.86,27.86,0,0,0,15.36,10l.48.15a267.78,267.78,0,0,0,41.57,8.74C57.23,18.54,57,18.2,56.84,17.87Z"/><path class="cls-4" d="M22.31,22.56s3.69-1.93,6.46-.09c2.43,1.62,2.62.62,3.23,1.68s4.71,0,6.56,1.27S45.5,27.63,51,27.31a139.84,139.84,0,0,1-26.75-.13,67.59,67.59,0,0,1-10.82-2,1.17,1.17,0,0,1,.16-2.29,7,7,0,0,0,2.14-.62C18.3,21,22.31,22.56,22.31,22.56Z"/><path class="cls-5" d="M59,41.67l-9.21-6.25a1.83,1.83,0,0,0-2.18.09l-8.92,7.24a1.37,1.37,0,0,1-1.83-.09l-1.54-1.54a1.47,1.47,0,0,0-2.08,0L31.28,43,28.15,39.9l6.47,18.87h6.27A28.07,28.07,0,0,0,59,41.67Z"/><path class="cls-6" d="M42.85,16.32l-.78-.21s-.35,0-.24-.28.12-.07,0-.57-.11-1,.51-.83.95,0,1.41,1.78S42.85,16.32,42.85,16.32Z"/><path class="cls-7" d="M37.33,16a11.34,11.34,0,0,1-.48,2.25.87.87,0,0,1-.39.23L35.07,17l.38-1.25"/><path class="cls-8" d="M35.45,15.72,35.07,17l1.38,1.53a.81.81,0,0,0,.27-.13,2,2,0,0,1,.39-1c.12-.62.21-1.31.21-1.31Z"/><path class="cls-9" d="M31.44,17.59a3.29,3.29,0,0,1,0-2.58c.26-.84-.31-1.52.49-2.07.51-.35,3.55-.79,5,.23a2.14,2.14,0,0,1,.37,3.47c-.93,1.07-.46,2.3-.05,2.31s-3,2.3-3,2.3l-1.57.19"/><path class="cls-10" d="M37.21,19c-.41,0-.88-1.24.05-2.31a3.28,3.28,0,0,0,.46-.68s-.59.83-1.19.54.24-1.59-.65-1.91-1.17.64-2.51.78-1.95-1.56-1.95-1.56a3.6,3.6,0,0,1,0,1.2,3.29,3.29,0,0,0,0,2.58l1.18,3.86,1.57-.19S37.62,19,37.21,19Z"/><path class="cls-11" d="M54.8,49.14A17.36,17.36,0,0,0,52.48,49H44.86A14.56,14.56,0,0,1,34.8,44.92l-9.48-9.06a2.94,2.94,0,0,0-4.08,0l-12,11.47A28,28,0,0,0,54.8,49.14Z"/><path class="cls-12" d="M21.24,35.86l-12,11.47a28.12,28.12,0,0,0,10.41,9.46,1.76,1.76,0,0,0-.44-.79l-2-2a4.54,4.54,0,0,1,0-6.35L21.71,43a6.21,6.21,0,0,0,1.78-4.36V37.46A1.68,1.68,0,0,0,21.24,35.86Z"/><path class="cls-13" d="M31.38,53c-.37,1.62-2.1,4-4.29,6.48.7.14,1.41.25,2.13.34a49.37,49.37,0,0,1,4.48-6Z"/><path class="cls-14" d="M32.77,60a28.23,28.23,0,0,0,3.23-.2c1.34-4.33,3-8.1,3.63-8.9a5.44,5.44,0,0,0,1.28-2.48H37.68C37.44,52.37,35.13,56.78,32.77,60Z"/><polyline class="cls-15" points="29.62 31.92 31.07 50.9 32.26 50.9 34.11 30.8"/><path class="cls-16" d="M31.08,31.55l-1.46.37,1.46,19h0C30.93,49,32.6,44.3,33,43.32l0-.19a1.86,1.86,0,0,1-1.33-2.07c.1-1.8,2-4.91,2-4.91h0L34,32.29Z"/><path class="cls-17" d="M33,52.63c-.8-.29-.78-1.56-.77-1.73H31.07v2.66a.24.24,0,0,0,.23.24h2.4A1.1,1.1,0,0,0,33,52.63Z"/><path class="cls-18" d="M30.05,30.7s1.64-2.83,5.66.8c5.28,4.77,3.48,14.63,3.48,14.63H37.87c.57-7.73-3.31-9.87-5.58-10.46A3.5,3.5,0,0,1,30,30.89Z"/><path class="cls-19" d="M38.81,41a10.42,10.42,0,0,0-.63-2.24,10.47,10.47,0,0,1-.7-3.75V33.68h0l-7.79-1.74a3.51,3.51,0,0,0,2.6,3.72c2.27.59,6.15,2.73,5.58,10.46h1.32s.11-.62.2-1.61c0-.83.09-1.58.09-1.83h0C39.5,42,39,42.61,38.81,41Z"/><path class="cls-20" d="M35.12,19.32S38,18.44,39,21.14s-1.52,9.31-1.19,10.8.43,2.07-1.29,1.54S30.6,33.06,30,33c-1.57-.16-.79-2-.25-3.77S35.12,19.32,35.12,19.32Z"/><path class="cls-21" d="M38.91,24.28l-4-2.68v3.32s1.61,4,2.22,1.61S38.91,24.28,38.91,24.28Z"/><path class="cls-22" d="M36.21,19.18s-1.09-.85,5.85,1.82c2,.79,1.6-2.78.78-4.61A.37.37,0,0,1,43,16c.2-.15.53-.25.88.22.57.79,5.09,10-4.73,8.19,0,0-3.34-1.38-3.44-3.26S35.72,19.62,36.21,19.18Z"/><path class="cls-23" d="M36.82,22.6s0-3,1.68-2.92a1.7,1.7,0,0,0-1.83-.75c-1.27.25-2.09,2.68-2.09,2.68l1.31,2.44"/><path class="cls-24" d="M29.9,28.79c-.07.17-.13.32-.16.43C29.2,31,28.42,32.84,30,33a53.15,53.15,0,0,1,5.74.32c-.46-.19-.63-.64.15-.86,1-.28,1.09-1.93,1.09-1.93Z"/><path class="cls-25" d="M38.91,24.28s.13,6.83-4,7l-.32.8s4.72.56,5.08-7.62C39.64,24.45,39.6,24.52,38.91,24.28Z"/><path class="cls-26" d="M38.91,24.28a13,13,0,0,1-.62,4,1.5,1.5,0,0,1,.46-.65,2,2,0,0,0,.72-1.3v-.1c.08-.53.13-1.12.16-1.75C39.64,24.45,39.6,24.52,38.91,24.28Z"/><polygon class="cls-27" points="38.08 28.79 38.08 28.79 38.08 28.79 38.08 28.79"/><path class="cls-28" d="M36.18,33.4h0Z"/><path class="cls-29" d="M35.17,20l-5.5-.22a1,1,0,0,1-.94-1l0-.43a1,1,0,0,1,1-1l5.5.22a1,1,0,0,1,.94,1l0,.43A1,1,0,0,1,35.17,20Z"/><path class="cls-30" d="M35.17,20l-5.5-.22a1,1,0,0,1-.94-1l0-.43a1,1,0,0,1,1-1l5.5.22a1,1,0,0,1,.94,1l0,.43A1,1,0,0,1,35.17,20Z"/><g class="cls-31"><path class="cls-32" d="M30.48,18.86l0-.43a1,1,0,0,1,1-1l-.5,0a1,1,0,0,0-1,1l0,.43a1,1,0,0,0,.94,1l.5,0A1,1,0,0,1,30.48,18.86Z"/><path class="cls-33" d="M32.68,18.95l0-.43a1,1,0,0,1,1-1l-.5,0a1,1,0,0,0-1,1l0,.43a1,1,0,0,0,.94,1l.5,0A1,1,0,0,1,32.68,18.95Z"/></g><path class="cls-34" d="M36.19,19.09l0-.43a1,1,0,0,0-.94-1H35a1,1,0,0,0-1,1l0,.43a1,1,0,0,0,.94,1h.29A1,1,0,0,0,36.19,19.09Z"/><path class="cls-35" d="M35.66,19v-.21a.48.48,0,0,0-.46-.5h-.14a.48.48,0,0,0-.5.47v.21a.48.48,0,0,0,.46.5h.14A.48.48,0,0,0,35.66,19Z"/><path class="cls-36" d="M33.22,20.41,30,20.28a.28.28,0,0,1-.26-.29l.09-2.26a1,1,0,0,1,1-.94l1.79.07a1,1,0,0,1,.93,1l-.09,2.26A.28.28,0,0,1,33.22,20.41Zm-3-.54L33.1,20l.08-2.12a.56.56,0,0,0-.54-.59l-1.79-.07a.56.56,0,0,0-.58.54Z"/><path class="cls-37" d="M32.56,17.39l-1.63-.07a.32.32,0,0,1-.31-.34v-.05a.32.32,0,0,1,.33-.31l1.63.07a.23.23,0,0,1,.22.24v.23A.23.23,0,0,1,32.56,17.39Z"/><path class="cls-38" d="M27.26,24.39l1.45.06a1,1,0,0,1,1,1.06l-.18,4.71c0,.46-.68.81-1.13.79l-1.69-.07.49-5.53C27.18,24.84,27.81,24.41,27.26,24.39Z"/><path class="cls-39" d="M27,29.93v-.06l.17-4.41v-.06a1,1,0,0,1,1-1l-1.4-.06a1.07,1.07,0,0,0-1.1,1h0l-.17,4.41h0a1.07,1.07,0,0,0,1,1.12l1.12,0C27.11,31,27,30.5,27,29.93Z"/><path class="cls-40" d="M29.92,19.74l5.15.21a1.87,1.87,0,0,1,1.78,2l-.34,8.7c0,.85-1.25,1.49-2.09,1.46l-3.12-.13.91-10.22C32.25,20.68,30.94,19.78,29.92,19.74Z"/><path class="cls-41" d="M33,29.53l0,.95a2.17,2.17,0,0,1-.68,1.5h0l2.1.08a2.34,2.34,0,0,0,2-1Z"/><path class="cls-42" d="M31.87,30.08V30l.32-8.15v-.1a1.87,1.87,0,0,1,1.93-1.81L29,19.7a1.87,1.87,0,0,0-1.93,1.81v.1l-.32,8.15v.1a1.87,1.87,0,0,0,1.78,2l4.64.19C32.12,32,31.83,31.12,31.87,30.08Z"/><path class="cls-43" d="M31.37,31v-.18L26.76,29l0,.73v.1a1.87,1.87,0,0,0,1.78,2l2.16.09.53-.5A.55.55,0,0,0,31.37,31Z"/><path class="cls-44" d="M26.59,21.49v.1l0,1.14a.41.41,0,0,0,.39.43l4.33.17a.41.41,0,0,0,.43-.4l0-1.14v-.1a1.87,1.87,0,0,1,1.93-1.81l-5.15-.21A1.87,1.87,0,0,0,26.59,21.49Z"/><path class="cls-45" d="M33.11,19.87a1.87,1.87,0,0,0-1.93,1.81v.1l0,1.14a.41.41,0,0,1-.43.4l.56,0a.41.41,0,0,0,.43-.4l0-1.14v-.1a1.87,1.87,0,0,1,1.93-1.81Z"/><path class="cls-46" d="M34.75,24.69l1.45.06a1,1,0,0,1,1,1.06L37,30.52c0,.46-.68.81-1.13.79l-1.69-.07.49-5.53C34.68,25.15,35.31,24.71,34.75,24.69Z"/><path class="cls-47" d="M34.47,30.23v-.06l.17-4.41v-.06a1,1,0,0,1,1-1l-1.4-.06a1.07,1.07,0,0,0-1.1,1h0L33,30.12h0a1.07,1.07,0,0,0,1,1.12l1.12,0C34.61,31.26,34.45,30.8,34.47,30.23Z"/><path class="cls-48" d="M36.65,27.47l-1.54-.06a.07.07,0,0,1-.07-.08v0a.07.07,0,0,1,.08-.07l1.54.06a.07.07,0,0,1,.07.08v0A.07.07,0,0,1,36.65,27.47Z"/><path class="cls-48" d="M36.65,27.74h-.14a.06.06,0,0,1-.06-.06V27.4a.06.06,0,0,1,.06-.06h.14a.06.06,0,0,1,.06.06v.28A.06.06,0,0,1,36.65,27.74Z"/><path class="cls-49" d="M31.3,31.13l-4-.16a1.11,1.11,0,0,1-1.05-1.16l.19-4.91a1,1,0,0,1,1-1l4.08.16a.07.07,0,0,1,.07.08l-.27,6.88A.07.07,0,0,1,31.3,31.13Z"/><path class="cls-50" d="M30.65,25l-.2,5a1.11,1.11,0,0,0,.88,1.14.07.07,0,0,0,0-.06l.27-6.88a.07.07,0,0,0-.07-.08h0A.9.9,0,0,0,30.65,25Z"/><path class="cls-51" d="M35.4,23.2l-1.45-.06a.05.05,0,0,1,0-.05l0-.92a.05.05,0,0,1,.05,0l1.45.06a.05.05,0,0,1,0,.05l0,.92A.05.05,0,0,1,35.4,23.2Z"/><path class="cls-52" d="M34,22.11a.05.05,0,0,0-.05,0l0,.46.67,0a.05.05,0,0,0,.05,0l0-.46Z"/><path class="cls-53" d="M29.62,19.73a2.37,2.37,0,0,0-.8-.18h0a1.42,1.42,0,0,0-1,.39,2.22,2.22,0,0,0-.45,1.25l0,1.1a.14.14,0,0,0,.14.15h.37a.14.14,0,0,0,.15-.14l0-1.13a1.55,1.55,0,0,1,1.63-1.47Z"/><path class="cls-48" d="M28,22.07l-.68,0a.07.07,0,0,1-.07-.08l0-.49a.07.07,0,0,1,.08-.07l.68,0a.07.07,0,0,1,.07.08L28,22A.07.07,0,0,1,28,22.07Z"/><path class="cls-54" d="M32.13,19.83a3,3,0,0,0-.91-.18h0a1.19,1.19,0,0,0-.93.39,2.22,2.22,0,0,0-.45,1.25l0,1.1a.14.14,0,0,0,.14.15h.37a.14.14,0,0,0,.15-.14l0-1.13a1.55,1.55,0,0,1,1.63-1.47Z"/><path class="cls-48" d="M30.46,22.17l-.68,0a.07.07,0,0,1-.07-.08l0-.49a.07.07,0,0,1,.08-.07l.68,0a.07.07,0,0,1,.07.08l0,.49A.07.07,0,0,1,30.46,22.17Z"/><path class="cls-55" d="M28,21.44h-.13a.07.07,0,0,1,.07.08l0,.49a.07.07,0,0,1-.08.07H28A.07.07,0,0,0,28,22l0-.49A.07.07,0,0,0,28,21.44Z"/><path class="cls-55" d="M30.48,21.54h-.13a.07.07,0,0,1,.07.08l0,.49a.07.07,0,0,1-.08.07h.13a.07.07,0,0,0,.08-.07l0-.49A.07.07,0,0,0,30.48,21.54Z"/><path class="cls-56" d="M26.17,25.31v.08l0,.88a.32.32,0,0,0,.3.33l3.35.14a.32.32,0,0,0,.33-.31l0-.88v-.08a1.44,1.44,0,0,1,1.49-1.4l-4-.16A1.44,1.44,0,0,0,26.17,25.31Z"/><path class="cls-57" d="M31.21,24.05a1.44,1.44,0,0,0-1.49,1.4v.08l0,.88a.32.32,0,0,1-.33.31l.43,0a.32.32,0,0,0,.33-.31l0-.88v-.08a1.44,1.44,0,0,1,1.49-1.4Z"/><path class="cls-58" d="M40.42,47.5c-.5-.11-1.39-.14-1.23-1.37H37.87a18.23,18.23,0,0,0-.19,2,.31.31,0,0,0,.3.32h2.93S40.91,47.6,40.42,47.5Z"/><path class="cls-59" d="M33.28,33.87a6.78,6.78,0,0,0,.07,1,.4.4,0,0,0,.18.28l.45.28a.28.28,0,0,0,.31,0l.28-.19a.37.37,0,0,0,.16-.23,7,7,0,0,0,.15-1.05.2.2,0,0,0-.2-.21l-1.22,0A.18.18,0,0,0,33.28,33.87Z"/><ellipse class="cls-60" cx="39.42" cy="21.16" rx="0.57" ry="0.7" transform="translate(10.02 54.88) rotate(-77.15)"/><path class="cls-61" d="M39.32,21l-.49-.21a.47.47,0,0,0-.09.19.64.64,0,0,0,.52.7l.17-.41A.21.21,0,0,0,39.32,21Z"/><path class="cls-62" d="M39.71,47.5c-.58-.23-.58-1-.53-1.37H37.87v0h0v0h0v.73h0v.74h0v.41a.31.31,0,0,0,.3.31h2.48C40.51,48.17,40.51,47.82,39.71,47.5Z"/><path class="cls-63" d="M14.12,16.61l-.05,0Z"/><path class="cls-64" d="M31.07,53.56a.24.24,0,0,0,.23.24h1.92a1.35,1.35,0,0,0-.54-1.07c-.38-.32-.43-1.22-.43-1.63a1.91,1.91,0,0,1,0-.2H31.07Z"/><path class="cls-65" d="M47.07,42.87a2.58,2.58,0,0,1,.54-2.61.14.14,0,0,1,.21,0,.57.57,0,0,1,.15.46.8.8,0,0,1,1,0,2.38,2.38,0,0,1,.35-.43.12.12,0,0,1,.19.07,10.23,10.23,0,0,1,.33,2c-.09.26-.28.78-1.34,1.52"/><ellipse class="cls-66" cx="47.84" cy="43.48" rx="1.1" ry="0.96" transform="translate(-6.56 8.55) rotate(-9.56)"/><path class="cls-67" d="M45.36,49s-1.5.14-1.27-1.7c.28-2.19,1.94-4.53,3.6-4.4,1.89.15,1.23,5.73,1.23,5.73s.6-.1.49.37Z"/><path class="cls-68" d="M45.74,49s-3.3.32-3.56-2.46,2.62-1.9,2.38.24,1.06,1.86,1.06,1.86"/><path class="cls-69" d="M43.75,57.72q1.1-.47,2.14-1C47.52,54.46,49.42,49,49.42,49H43.69C38.15,54.9,41.28,57.62,43.75,57.72Z"/><path class="cls-70" d="M23.57,35.06V10.52h-.76V35.08A2.93,2.93,0,0,1,23.57,35.06Z"/><path class="cls-71" d="M22.82,24.51a.36.36,0,0,0-.33-.41c-.32,0-.51.35-.55,1.23s1.4,1.44,1.4,1.44l.15-1.31A1.16,1.16,0,0,1,22.82,24.51Z"/><path class="cls-72" d="M23.69,24.55c-.12-.15-.12,0-.12,0a.38.38,0,0,1-.35.38c-.35,0-.41-.41-.41-.41l-.23,1.22,1,.17a.35.35,0,0,1,0-.5A.91.91,0,0,0,23.69,24.55Z"/><path class="cls-73" d="M25.65,26.89l.06-1.48a1.07,1.07,0,0,1,1.1-1l1.24,0-1.1-1.25s-.8,2.61-3.36,2.28c-1.11-.14-1.72,1.86,2,1.44Z"/><path class="cls-74" d="M23.31,11a.92.92,0,0,0,.26-.65V5.22s-.05-1.93-2.17,0-5.28,7-7.93,4.15-8.34,8.18-9.39,6.1c0,0-.45,3.68,2.54,2.47,0,0-1.32.59-.73,2.46a3.21,3.21,0,0,0,.65,1.21,1,1,0,0,0,1.55-.17c1.19-2,4.53-7.1,5.7-5.2C15.39,18.86,21.92,12.41,23.31,11Z"/><path class="cls-75" d="M13.47,9.37c-2.27-2.49-7.62,5.42-9.73,6.33a.75.75,0,0,0-.32,1A2.27,2.27,0,0,0,6,18.13a.12.12,0,0,1,.13.19,2.07,2.07,0,0,0-.25,2.08,2.91,2.91,0,0,0,.85,1.4A.85.85,0,0,0,8,21.59c1.11-1.84,4.59-7.29,5.78-5.34l.05.08c-.61-1.09,0-4.92,0-6a1.51,1.51,0,0,0-.22-.85Z"/></g></g></svg>