<svg xmlns="http://www.w3.org/2000/svg" xmlns:xlink="http://www.w3.org/1999/xlink" viewBox="0 0 64 64"><defs><style>.cls-1{isolation:isolate;}.cls-2{fill:url(#linear-gradient);}.cls-3{opacity:0.41;mix-blend-mode:multiply;}.cls-4{fill:url(#linear-gradient-2);}.cls-5{fill:url(#linear-gradient-3);}.cls-6{fill:url(#linear-gradient-4);}.cls-7{fill:url(#linear-gradient-5);}.cls-8{fill:url(#linear-gradient-6);}.cls-9{fill:url(#linear-gradient-7);}.cls-10{fill:url(#linear-gradient-8);}.cls-11{fill:url(#linear-gradient-9);}.cls-12{fill:url(#linear-gradient-10);}.cls-13{fill:url(#linear-gradient-11);}.cls-14{fill:url(#linear-gradient-12);}.cls-15{fill:url(#linear-gradient-13);}.cls-16{fill:url(#linear-gradient-14);}.cls-17{fill:url(#linear-gradient-15);}.cls-18{fill:url(#linear-gradient-16);}.cls-19{fill:url(#linear-gradient-17);}.cls-20{fill:url(#linear-gradient-18);}.cls-21{fill:url(#linear-gradient-19);}.cls-22{fill:url(#linear-gradient-20);}.cls-23{fill:url(#linear-gradient-21);}.cls-24{fill:url(#linear-gradient-22);}.cls-25{fill:url(#linear-gradient-23);}.cls-26{fill:url(#linear-gradient-24);}.cls-27{fill:url(#linear-gradient-25);}.cls-28{fill:url(#linear-gradient-26);}.cls-29{fill:url(#linear-gradient-27);}</style><linearGradient id="linear-gradient" x1="16.93" y1="1.62" x2="49.26" y2="66.78" gradientUnits="userSpaceOnUse"><stop offset="0" stop-color="#fff8f2"/><stop offset="0.29" stop-color="#ffeee5"/><stop offset="0.67" stop-color="#ffdecc"/><stop offset="0.99" stop-color="#e8e6e6"/></linearGradient><linearGradient id="linear-gradient-2" x1="20.54" y1="2.33" x2="89.04" y2="81.17" gradientUnits="userSpaceOnUse"><stop offset="0" stop-color="#fff8f2"/><stop offset="0.36" stop-color="#ffeee5"/><stop offset="0.76" stop-color="#ffdecc"/></linearGradient><linearGradient id="linear-gradient-3" x1="4.22" y1="16.51" x2="72.72" y2="95.34" xlink:href="#linear-gradient-2"/><linearGradient id="linear-gradient-4" x1="16.12" y1="6.16" x2="84.62" y2="85" xlink:href="#linear-gradient-2"/><linearGradient id="linear-gradient-5" x1="8.63" y1="12.67" x2="77.13" y2="91.51" xlink:href="#linear-gradient-2"/><linearGradient id="linear-gradient-6" x1="7.3" y1="13.83" x2="75.8" y2="92.67" xlink:href="#linear-gradient-2"/><linearGradient id="linear-gradient-7" x1="17.46" y1="5" x2="85.96" y2="83.84" xlink:href="#linear-gradient-2"/><linearGradient id="linear-gradient-8" x1="3.38" y1="17.24" x2="71.88" y2="96.08" xlink:href="#linear-gradient-2"/><linearGradient id="linear-gradient-9" x1="21.38" y1="1.6" x2="89.88" y2="80.43" xlink:href="#linear-gradient-2"/><linearGradient id="linear-gradient-10" x1="1.86" y1="18.56" x2="70.36" y2="97.39" xlink:href="#linear-gradient-2"/><linearGradient id="linear-gradient-11" x1="22.89" y1="0.28" x2="91.39" y2="79.12" xlink:href="#linear-gradient-2"/><linearGradient id="linear-gradient-12" x1="2" y1="18.44" x2="70.5" y2="97.28" xlink:href="#linear-gradient-2"/><linearGradient id="linear-gradient-13" x1="22.76" y1="0.4" x2="91.26" y2="79.23" xlink:href="#linear-gradient-2"/><linearGradient id="linear-gradient-14" x1="19.27" y1="12.8" x2="42.9" y2="59.17" gradientUnits="userSpaceOnUse"><stop offset="0.1" stop-color="#ff9c74"/><stop offset="0.67" stop-color="#ea4a5e"/><stop offset="1" stop-color="#b2314e"/></linearGradient><linearGradient id="linear-gradient-15" x1="18.48" y1="21.92" x2="51.86" y2="55.55" xlink:href="#linear-gradient-14"/><linearGradient id="linear-gradient-16" x1="59.56" y1="46.14" x2="5.43" y2="14.39" xlink:href="#linear-gradient-14"/><linearGradient id="linear-gradient-17" x1="29.69" y1="22.86" x2="19.97" y2="25.51" xlink:href="#linear-gradient-14"/><linearGradient id="linear-gradient-18" x1="110.43" y1="57.53" x2="28.43" y2="38.87" xlink:href="#linear-gradient-14"/><linearGradient id="linear-gradient-19" x1="29.85" y1="24.96" x2="39.07" y2="66.73" xlink:href="#linear-gradient-14"/><linearGradient id="linear-gradient-20" x1="30.56" y1="30.04" x2="35.75" y2="47.11" xlink:href="#linear-gradient-14"/><linearGradient id="linear-gradient-21" x1="18.21" y1="7.22" x2="48.43" y2="36.4" gradientUnits="userSpaceOnUse"><stop offset="0.13" stop-color="#3c4178"/><stop offset="0.79" stop-color="#241b3c"/></linearGradient><linearGradient id="linear-gradient-22" x1="22.93" y1="11.36" x2="59.79" y2="48.97" xlink:href="#linear-gradient-21"/><linearGradient id="linear-gradient-23" x1="16.56" y1="48.54" x2="45.23" y2="27.87" gradientUnits="userSpaceOnUse"><stop offset="0" stop-color="#fff"/><stop offset="0.34" stop-color="#f2f4f3"/><stop offset="0.68" stop-color="#e6e6e6"/><stop offset="0.98" stop-color="#cad0d7"/></linearGradient><linearGradient id="linear-gradient-24" x1="16.13" y1="18.56" x2="16.46" y2="32.81" xlink:href="#linear-gradient"/><linearGradient id="linear-gradient-25" x1="18.92" y1="17.21" x2="18.84" y2="24.34" xlink:href="#linear-gradient"/><linearGradient id="linear-gradient-26" x1="48.48" y1="17.42" x2="48.64" y2="31.67" xlink:href="#linear-gradient"/><linearGradient id="linear-gradient-27" x1="46.12" y1="15.84" x2="44.7" y2="27.59" xlink:href="#linear-gradient"/></defs><title>unlock super powers</title><g class="cls-1"><g id="Layer_3" data-name="Layer 3"><circle class="cls-2" cx="32" cy="32" r="27.4"/><g class="cls-3"><path class="cls-4" d="M32,31.52,36.77,5a27.15,27.15,0,0,0-9.55,0Z"/><path class="cls-5" d="M32,59.4A27.54,27.54,0,0,0,36.77,59L32,32.48,27.23,59A27.54,27.54,0,0,0,32,59.4Z"/><path class="cls-6" d="M31.76,31.58,22.64,6.24A27.36,27.36,0,0,0,14.38,11Z"/><path class="cls-7" d="M32.24,32.42l9.12,25.34A27.36,27.36,0,0,0,49.62,53Z"/><path class="cls-8" d="M6.24,22.64l25.34,9.12L11,14.38A27.36,27.36,0,0,0,6.24,22.64Z"/><path class="cls-9" d="M53,49.62a27.36,27.36,0,0,0,4.78-8.26L32.42,32.24Z"/><path class="cls-10" d="M5,27.23a27.15,27.15,0,0,0,0,9.55L31.52,32Z"/><path class="cls-11" d="M59,36.77a27.15,27.15,0,0,0,0-9.55L32.48,32Z"/><path class="cls-12" d="M11,49.62,31.58,32.24,6.24,41.36A27.36,27.36,0,0,0,11,49.62Z"/><path class="cls-13" d="M32.42,31.76l25.34-9.12A27.36,27.36,0,0,0,53,14.38Z"/><path class="cls-14" d="M22.64,57.76l9.12-25.34L14.38,53A27.36,27.36,0,0,0,22.64,57.76Z"/><path class="cls-15" d="M41.36,6.24,32.24,31.58,49.62,11A27.36,27.36,0,0,0,41.36,6.24Z"/></g></g><g id="Layer_2" data-name="Layer 2"><path class="cls-16" d="M35,52.21l13.72-10a4.74,4.74,0,0,0,1.54-5.77L45.61,26.09a5.12,5.12,0,0,0-4.67-3H23.05a5.12,5.12,0,0,0-4.67,3L13.74,36.47a4.74,4.74,0,0,0,1.54,5.77L29,52.21A5.12,5.12,0,0,0,35,52.21Z"/><path class="cls-17" d="M14.79,38l4.65-10.38a5.12,5.12,0,0,1,4.67-3H42a5.1,5.1,0,0,1,3.59,1.49,5.11,5.11,0,0,0-4.65-3H23.05a5.12,5.12,0,0,0-4.67,3L13.74,36.47a4.73,4.73,0,0,0,1.05,5.35A4.73,4.73,0,0,1,14.79,38Z"/><polyline class="cls-18" points="23.18 24.13 33.63 34.58 35.6 32.6 25.56 22.56"/><path class="cls-19" d="M26.07,23.07H24.79l-1.61,1.06.47.47c.15,0,.3,0,.46,0h3.45Z"/><path class="cls-20" d="M48.72,42.24a4.71,4.71,0,0,0,1-1l-9.75-9.75L27.23,41.16,37,50.78Z"/><path class="cls-21" d="M39.43,31a5.07,5.07,0,0,0-6.89.35.79.79,0,0,1-1.12,0l-.12-.12a5,5,0,0,0-7.24.24,5.07,5.07,0,0,0,.34,6.89L31,45a1.34,1.34,0,0,0,1.9,0l6.74-6.74A5,5,0,0,0,39.43,31Z"/><path class="cls-22" d="M24.55,32.27A5,5,0,0,1,31.78,32l.12.12a.79.79,0,0,0,1.12,0,5.07,5.07,0,0,1,6.89-.35,5,5,0,0,1,.76.85A5,5,0,0,0,39.43,31a5.07,5.07,0,0,0-6.89.35.79.79,0,0,1-1.12,0l-.12-.12a5,5,0,0,0-7.24.24,5,5,0,0,0-.19,6.24A5,5,0,0,1,24.55,32.27Z"/><path class="cls-23" d="M31.4,11.85A9,9,0,0,0,23.18,21v2.91a.69.69,0,0,0,.69.69H25.8a.69.69,0,0,0,.69-.69v-3a5.67,5.67,0,0,1,5-5.73,5.51,5.51,0,0,1,6,4.75.85.85,0,0,0,.85.73H39.9a.87.87,0,0,0,.87-1A8.83,8.83,0,0,0,31.4,11.85Z"/><path class="cls-24" d="M33.14,12.77a8.76,8.76,0,0,1,5,1.54l0,0a8.93,8.93,0,0,0-.91-.76h0a8.87,8.87,0,0,0-1-.63L36,12.79l-.54-.25-.27-.1-.51-.18-.33-.09L33.85,12,33.48,12l-.16,0-.31,0-.4,0-.47,0h-.43l-.46,0-.43.05-.42.06-.53.12-.25.06A9.14,9.14,0,0,0,23.18,21v2.91a.69.69,0,0,0,.69.69h.44v-3A8.83,8.83,0,0,1,33.14,12.77Z"/><path class="cls-25" d="M33.56,37.76a1.35,1.35,0,0,0-.48,1v1.62a1.08,1.08,0,0,1-2.16,0V38.76a1.32,1.32,0,0,0-.47-1,2.34,2.34,0,0,1-.69-2.48,2.3,2.3,0,0,1,1.58-1.54,2.35,2.35,0,0,1,3,2.26A2.32,2.32,0,0,1,33.56,37.76Z"/><path class="cls-26" d="M18.32,20.54a2.5,2.5,0,0,0-.34,0,3.28,3.28,0,0,0-4.54.16,9.11,9.11,0,0,1-1.28,1,1.67,1.67,0,0,0-.24.19.69.69,0,0,0,.48,1.18H20a.68.68,0,0,0,.64-.91A2.53,2.53,0,0,0,18.32,20.54Z"/><path class="cls-27" d="M20.34,16.91l-.23,0A2.21,2.21,0,0,0,17,17a6.15,6.15,0,0,1-.86.64l-.16.13a.46.46,0,0,0,.32.8h5.16a.46.46,0,0,0,.43-.61A1.7,1.7,0,0,0,20.34,16.91Z"/><path class="cls-28" d="M46.43,20.54a2.5,2.5,0,0,1,.34,0,3.28,3.28,0,0,1,4.54.16,9.11,9.11,0,0,0,1.28,1,1.67,1.67,0,0,1,.24.19.69.69,0,0,1-.48,1.18H44.71a.68.68,0,0,1-.64-.91A2.53,2.53,0,0,1,46.43,20.54Z"/><path class="cls-29" d="M44.41,16.91l.23,0a2.21,2.21,0,0,1,3.06.11,6.15,6.15,0,0,0,.86.64l.16.13a.46.46,0,0,1-.32.8H43.26a.46.46,0,0,1-.43-.61A1.7,1.7,0,0,1,44.41,16.91Z"/></g></g></svg>