<svg xmlns="http://www.w3.org/2000/svg" xmlns:xlink="http://www.w3.org/1999/xlink" viewBox="0 0 64 64"><defs><style>.cls-1{isolation:isolate;}.cls-2{fill:url(#linear-gradient);}.cls-3{opacity:0.41;mix-blend-mode:multiply;}.cls-4{fill:url(#linear-gradient-2);}.cls-5{fill:url(#linear-gradient-3);}.cls-6{fill:url(#linear-gradient-4);}.cls-7{fill:url(#linear-gradient-5);}.cls-8{fill:url(#linear-gradient-6);}.cls-9{fill:url(#linear-gradient-7);}.cls-10{fill:url(#linear-gradient-8);}.cls-11{fill:url(#linear-gradient-9);}.cls-12{fill:url(#linear-gradient-10);}.cls-13{fill:url(#linear-gradient-11);}.cls-14{fill:url(#linear-gradient-12);}.cls-15{fill:url(#linear-gradient-13);}.cls-16{fill:url(#linear-gradient-14);}.cls-17{fill:url(#linear-gradient-15);}.cls-18{fill:url(#linear-gradient-16);}.cls-19{fill:url(#linear-gradient-17);}.cls-20{fill:url(#linear-gradient-18);}.cls-21{fill:url(#linear-gradient-19);}.cls-22{fill:url(#linear-gradient-20);}.cls-23{fill:url(#linear-gradient-21);}.cls-24{fill:url(#linear-gradient-22);}.cls-25{fill:url(#linear-gradient-23);}.cls-26{fill:url(#linear-gradient-24);}.cls-27{fill:url(#linear-gradient-25);}.cls-28{fill:url(#linear-gradient-26);}.cls-29{fill:url(#linear-gradient-27);}.cls-30{fill:url(#linear-gradient-28);}.cls-31{fill:url(#linear-gradient-29);}.cls-32{fill:url(#linear-gradient-30);}.cls-33{fill:url(#linear-gradient-31);}.cls-34{fill:url(#linear-gradient-32);}.cls-35{fill:url(#linear-gradient-33);}.cls-36{fill:url(#linear-gradient-34);}.cls-37{fill:url(#linear-gradient-35);}.cls-38{fill:url(#linear-gradient-36);}.cls-39{fill:url(#linear-gradient-37);}.cls-40{fill:url(#linear-gradient-38);}.cls-41{fill:url(#linear-gradient-39);}.cls-42{fill:url(#linear-gradient-40);}.cls-43{fill:url(#linear-gradient-41);}.cls-44{fill:url(#linear-gradient-42);}.cls-45{fill:url(#linear-gradient-43);}.cls-46{fill:url(#linear-gradient-44);}.cls-47{fill:url(#linear-gradient-45);}.cls-48{fill:url(#linear-gradient-46);}.cls-49{fill:url(#linear-gradient-47);}.cls-50{fill:url(#linear-gradient-48);}.cls-51{fill:url(#linear-gradient-49);}.cls-52{fill:url(#linear-gradient-50);}.cls-53{fill:url(#linear-gradient-51);}.cls-54{fill:url(#linear-gradient-52);}.cls-55{fill:url(#linear-gradient-53);}.cls-56{fill:url(#linear-gradient-54);}.cls-57{fill:url(#linear-gradient-55);}.cls-58{fill:url(#linear-gradient-56);}.cls-59{fill:url(#linear-gradient-57);}.cls-60{fill:url(#linear-gradient-58);}.cls-61{fill:url(#linear-gradient-59);}.cls-62{fill:url(#linear-gradient-60);}.cls-63{fill:url(#linear-gradient-61);}.cls-64{fill:url(#linear-gradient-62);}.cls-65{fill:url(#linear-gradient-63);}.cls-66{fill:url(#linear-gradient-64);}.cls-67{fill:url(#linear-gradient-65);}.cls-68{fill:url(#linear-gradient-66);}.cls-69{fill:url(#linear-gradient-67);}.cls-70{fill:url(#linear-gradient-68);}.cls-71{fill:url(#linear-gradient-69);}.cls-72{fill:url(#linear-gradient-70);}.cls-73{fill:url(#linear-gradient-71);}</style><linearGradient id="linear-gradient" x1="16.93" y1="1.62" x2="49.26" y2="66.78" gradientUnits="userSpaceOnUse"><stop offset="0" stop-color="#fff8f2"/><stop offset="0.29" stop-color="#ffeee5"/><stop offset="0.67" stop-color="#ffdecc"/><stop offset="0.99" stop-color="#e8e6e6"/></linearGradient><linearGradient id="linear-gradient-2" x1="20.54" y1="2.33" x2="89.04" y2="81.17" gradientUnits="userSpaceOnUse"><stop offset="0" stop-color="#fff8f2"/><stop offset="0.36" stop-color="#ffeee5"/><stop offset="0.76" stop-color="#ffdecc"/></linearGradient><linearGradient id="linear-gradient-3" x1="4.22" y1="16.51" x2="72.72" y2="95.34" xlink:href="#linear-gradient-2"/><linearGradient id="linear-gradient-4" x1="16.12" y1="6.16" x2="84.62" y2="85" xlink:href="#linear-gradient-2"/><linearGradient id="linear-gradient-5" x1="8.63" y1="12.67" x2="77.13" y2="91.51" xlink:href="#linear-gradient-2"/><linearGradient id="linear-gradient-6" x1="7.3" y1="13.83" x2="75.8" y2="92.67" xlink:href="#linear-gradient-2"/><linearGradient id="linear-gradient-7" x1="17.46" y1="5" x2="85.96" y2="83.84" xlink:href="#linear-gradient-2"/><linearGradient id="linear-gradient-8" x1="3.38" y1="17.24" x2="71.88" y2="96.08" xlink:href="#linear-gradient-2"/><linearGradient id="linear-gradient-9" x1="21.38" y1="1.6" x2="89.88" y2="80.43" xlink:href="#linear-gradient-2"/><linearGradient id="linear-gradient-10" x1="1.86" y1="18.56" x2="70.36" y2="97.39" xlink:href="#linear-gradient-2"/><linearGradient id="linear-gradient-11" x1="22.89" y1="0.28" x2="91.39" y2="79.12" xlink:href="#linear-gradient-2"/><linearGradient id="linear-gradient-12" x1="2" y1="18.44" x2="70.5" y2="97.28" xlink:href="#linear-gradient-2"/><linearGradient id="linear-gradient-13" x1="22.76" y1="0.4" x2="91.26" y2="79.23" xlink:href="#linear-gradient-2"/><linearGradient id="linear-gradient-14" x1="16.35" y1="45.52" x2="24.67" y2="32.88" gradientUnits="userSpaceOnUse"><stop offset="0.42" stop-color="#3c4178"/><stop offset="0.89" stop-color="#241b3c"/></linearGradient><linearGradient id="linear-gradient-15" x1="26.87" y1="45.52" x2="35.19" y2="32.88" gradientTransform="matrix(-1, 0, 0, 1, 74.52, 0)" xlink:href="#linear-gradient-14"/><linearGradient id="linear-gradient-16" x1="17.9" y1="36.74" x2="23.07" y2="67.41" gradientUnits="userSpaceOnUse"><stop offset="0" stop-color="#ffcba6"/><stop offset="0.89" stop-color="#ff9274"/></linearGradient><linearGradient id="linear-gradient-17" x1="40.54" y1="40.94" x2="46.96" y2="63.11" xlink:href="#linear-gradient-16"/><linearGradient id="linear-gradient-18" x1="23.24" y1="27.93" x2="37.9" y2="68.04" gradientUnits="userSpaceOnUse"><stop offset="0.1" stop-color="#ff9c74"/><stop offset="0.67" stop-color="#ea4a5e"/><stop offset="1" stop-color="#b2314e"/></linearGradient><linearGradient id="linear-gradient-19" x1="81.16" y1="62.49" x2="22.65" y2="47.39" xlink:href="#linear-gradient-18"/><linearGradient id="linear-gradient-20" x1="27.12" y1="34.77" x2="42.7" y2="66.77" xlink:href="#linear-gradient-18"/><linearGradient id="linear-gradient-21" x1="26.04" y1="35.29" x2="41.63" y2="67.29" xlink:href="#linear-gradient-18"/><linearGradient id="linear-gradient-22" x1="24.97" y1="35.81" x2="40.55" y2="67.81" xlink:href="#linear-gradient-18"/><linearGradient id="linear-gradient-23" x1="23.99" y1="36.3" x2="39.57" y2="68.3" xlink:href="#linear-gradient-18"/><linearGradient id="linear-gradient-24" x1="23.07" y1="36.74" x2="38.65" y2="68.74" xlink:href="#linear-gradient-18"/><linearGradient id="linear-gradient-25" x1="22.1" y1="37.21" x2="37.68" y2="69.21" xlink:href="#linear-gradient-18"/><linearGradient id="linear-gradient-26" x1="20.26" y1="51.9" x2="36.5" y2="35.02" xlink:href="#linear-gradient-16"/><linearGradient id="linear-gradient-27" x1="50.04" y1="47.33" x2="28.9" y2="37.41" xlink:href="#linear-gradient-16"/><linearGradient id="linear-gradient-28" x1="18.93" y1="24.89" x2="24.68" y2="31.5" xlink:href="#linear-gradient-16"/><linearGradient id="linear-gradient-29" x1="17.84" y1="34.22" x2="24.18" y2="21.41" gradientUnits="userSpaceOnUse"><stop offset="0" stop-color="#ffcba6"/><stop offset="0.83" stop-color="#ff9274"/></linearGradient><linearGradient id="linear-gradient-30" x1="22.77" y1="27.8" x2="19.39" y2="28.44" gradientUnits="userSpaceOnUse"><stop offset="0" stop-color="#ffcba6" stop-opacity="0"/><stop offset="0.76" stop-color="#ff9274"/></linearGradient><linearGradient id="linear-gradient-31" x1="39.38" y1="24.89" x2="45.13" y2="31.5" gradientTransform="matrix(-1, 0, 0, 1, 84.45, 0)" xlink:href="#linear-gradient-16"/><linearGradient id="linear-gradient-32" x1="38.29" y1="34.22" x2="44.62" y2="21.41" gradientTransform="matrix(-1, 0, 0, 1, 84.45, 0)" xlink:href="#linear-gradient-29"/><linearGradient id="linear-gradient-33" x1="43.22" y1="27.8" x2="39.84" y2="28.44" gradientTransform="matrix(-1, 0, 0, 1, 84.45, 0)" xlink:href="#linear-gradient-30"/><linearGradient id="linear-gradient-34" x1="27.57" y1="14.57" x2="42.8" y2="46.63" xlink:href="#linear-gradient-16"/><linearGradient id="linear-gradient-35" x1="31.5" y1="30.94" x2="32.89" y2="11.16" xlink:href="#linear-gradient-30"/><linearGradient id="linear-gradient-36" x1="59.03" y1="20.13" x2="9.85" y2="29.42" xlink:href="#linear-gradient-30"/><linearGradient id="linear-gradient-37" x1="26.31" y1="35.01" x2="29.66" y2="17.44" gradientUnits="userSpaceOnUse"><stop offset="0" stop-color="#ffcba6" stop-opacity="0"/><stop offset="0.89" stop-color="#ff9274"/></linearGradient><linearGradient id="linear-gradient-38" x1="25.72" y1="25.65" x2="26.77" y2="28.27" xlink:href="#linear-gradient-14"/><linearGradient id="linear-gradient-39" x1="25.98" y1="26.59" x2="26.39" y2="28.05" xlink:href="#linear-gradient-14"/><linearGradient id="linear-gradient-40" x1="26.55" y1="27.77" x2="26.55" y2="29.75" gradientUnits="userSpaceOnUse"><stop offset="0" stop-color="#ffcba6"/><stop offset="0.62" stop-color="#ffc9a4" stop-opacity="0"/></linearGradient><linearGradient id="linear-gradient-41" x1="37.55" y1="36.91" x2="35.2" y2="19.51" gradientUnits="userSpaceOnUse"><stop offset="0" stop-color="#ffcba6" stop-opacity="0"/><stop offset="0.73" stop-color="#ff9274"/></linearGradient><linearGradient id="linear-gradient-42" x1="35.91" y1="25.65" x2="36.96" y2="28.27" gradientTransform="translate(0.71)" xlink:href="#linear-gradient-14"/><linearGradient id="linear-gradient-43" x1="36.17" y1="26.59" x2="36.58" y2="28.05" gradientTransform="translate(0.71)" xlink:href="#linear-gradient-14"/><linearGradient id="linear-gradient-44" x1="33.22" y1="27.77" x2="33.22" y2="29.02" gradientTransform="matrix(-1, 0, 0, 1, 70.67, 0)" gradientUnits="userSpaceOnUse"><stop offset="0" stop-color="#ffcba6"/><stop offset="1" stop-color="#ffc9a4" stop-opacity="0"/></linearGradient><linearGradient id="linear-gradient-45" x1="32" y1="36.93" x2="32" y2="35.08" xlink:href="#linear-gradient-30"/><linearGradient id="linear-gradient-46" x1="31.74" y1="39.37" x2="32.12" y2="31.15" xlink:href="#linear-gradient-18"/><linearGradient id="linear-gradient-47" x1="31.81" y1="37.88" x2="32.09" y2="31.85" xlink:href="#linear-gradient-18"/><linearGradient id="linear-gradient-48" x1="31.77" y1="31.02" x2="32.31" y2="36.88" xlink:href="#linear-gradient-18"/><linearGradient id="linear-gradient-49" x1="31.9" y1="31.79" x2="32.21" y2="37.19" xlink:href="#linear-gradient-18"/><linearGradient id="linear-gradient-50" x1="32" y1="34.45" x2="32" y2="29.36" xlink:href="#linear-gradient-37"/><linearGradient id="linear-gradient-51" x1="31.18" y1="33.36" x2="31.18" y2="30.99" xlink:href="#linear-gradient-16"/><linearGradient id="linear-gradient-52" x1="32.82" y1="33.36" x2="32.82" y2="30.99" xlink:href="#linear-gradient-16"/><linearGradient id="linear-gradient-53" x1="32" y1="28.23" x2="32" y2="30.85" gradientUnits="userSpaceOnUse"><stop offset="0" stop-color="#ffcba6"/><stop offset="0.78" stop-color="#ffc9a4" stop-opacity="0"/></linearGradient><linearGradient id="linear-gradient-54" x1="25.74" y1="6.81" x2="30.99" y2="19.62" xlink:href="#linear-gradient-14"/><linearGradient id="linear-gradient-55" x1="32" y1="27.35" x2="32" y2="38.08" gradientUnits="userSpaceOnUse"><stop offset="0" stop-color="#ffcba6"/><stop offset="0.9" stop-color="#ffc9a4" stop-opacity="0"/></linearGradient><linearGradient id="linear-gradient-56" x1="33.36" y1="48.6" x2="30.65" y2="46.74" xlink:href="#linear-gradient-14"/><linearGradient id="linear-gradient-57" x1="30.58" y1="45.72" x2="32.36" y2="49.16" xlink:href="#linear-gradient-18"/><linearGradient id="linear-gradient-58" x1="33.36" y1="50.68" x2="30.65" y2="48.83" xlink:href="#linear-gradient-14"/><linearGradient id="linear-gradient-59" x1="30.58" y1="47.8" x2="32.36" y2="51.24" xlink:href="#linear-gradient-18"/><linearGradient id="linear-gradient-60" x1="33.36" y1="52.77" x2="30.65" y2="50.91" xlink:href="#linear-gradient-14"/><linearGradient id="linear-gradient-61" x1="30.58" y1="49.89" x2="32.36" y2="53.32" xlink:href="#linear-gradient-18"/><linearGradient id="linear-gradient-62" x1="27.64" y1="23.37" x2="27.04" y2="25.77" xlink:href="#linear-gradient-14"/><linearGradient id="linear-gradient-63" x1="37.89" y1="23.37" x2="37.3" y2="25.77" xlink:href="#linear-gradient-14"/><linearGradient id="linear-gradient-64" x1="21.12" y1="44.49" x2="41.37" y2="56.1" gradientUnits="userSpaceOnUse"><stop offset="0" stop-color="#95e7a0"/><stop offset="1" stop-color="#2cd8a0"/></linearGradient><linearGradient id="linear-gradient-65" x1="42.78" y1="48.6" x2="29.87" y2="51.19" xlink:href="#linear-gradient-64"/><linearGradient id="linear-gradient-66" x1="36.73" y1="58.26" x2="34.86" y2="53.45" xlink:href="#linear-gradient-64"/><linearGradient id="linear-gradient-67" x1="30.55" y1="47.84" x2="41.84" y2="60.81" gradientUnits="userSpaceOnUse"><stop offset="0" stop-color="#fff"/><stop offset="0.34" stop-color="#f2f4f3"/><stop offset="0.68" stop-color="#e6e6e6"/><stop offset="0.98" stop-color="#cad0d7"/></linearGradient><linearGradient id="linear-gradient-68" x1="14.19" y1="35.1" x2="16.4" y2="57.23" xlink:href="#linear-gradient"/><linearGradient id="linear-gradient-69" x1="14.04" y1="25.42" x2="22.07" y2="60.82" xlink:href="#linear-gradient"/><linearGradient id="linear-gradient-70" x1="51.39" y1="21.9" x2="51.89" y2="36.4" xlink:href="#linear-gradient"/><linearGradient id="linear-gradient-71" x1="50.07" y1="17.83" x2="49.45" y2="30.46" xlink:href="#linear-gradient"/></defs><title>verified woman</title><g class="cls-1"><g id="Layer_3" data-name="Layer 3"><circle class="cls-2" cx="32" cy="32" r="27.4"/><g class="cls-3"><path class="cls-4" d="M32,31.52,36.77,5a27.15,27.15,0,0,0-9.55,0Z"/><path class="cls-5" d="M32,59.4A27.54,27.54,0,0,0,36.77,59L32,32.48,27.23,59A27.54,27.54,0,0,0,32,59.4Z"/><path class="cls-6" d="M31.76,31.58,22.64,6.24A27.36,27.36,0,0,0,14.38,11Z"/><path class="cls-7" d="M32.24,32.42l9.12,25.34A27.36,27.36,0,0,0,49.62,53Z"/><path class="cls-8" d="M6.24,22.64l25.34,9.12L11,14.38A27.36,27.36,0,0,0,6.24,22.64Z"/><path class="cls-9" d="M53,49.62a27.36,27.36,0,0,0,4.78-8.26L32.42,32.24Z"/><path class="cls-10" d="M5,27.23a27.15,27.15,0,0,0,0,9.55L31.52,32Z"/><path class="cls-11" d="M59,36.77a27.15,27.15,0,0,0,0-9.55L32.48,32Z"/><path class="cls-12" d="M11,49.62,31.58,32.24,6.24,41.36A27.36,27.36,0,0,0,11,49.62Z"/><path class="cls-13" d="M32.42,31.76l25.34-9.12A27.36,27.36,0,0,0,53,14.38Z"/><path class="cls-14" d="M22.64,57.76l9.12-25.34L14.38,53A27.36,27.36,0,0,0,22.64,57.76Z"/><path class="cls-15" d="M41.36,6.24,32.24,31.58,49.62,11A27.36,27.36,0,0,0,41.36,6.24Z"/></g></g><g id="Layer_2" data-name="Layer 2"><path class="cls-16" d="M21.52,26l-.18.95a5.67,5.67,0,0,1-1.12,2.44h0a6.28,6.28,0,0,1-2.64,2l0,0a.73.73,0,0,0-.25,1.2h0a16.82,16.82,0,0,0,8.43,4.57L29.6,38,31,34.48"/><path class="cls-17" d="M42.48,26l.18.95a5.67,5.67,0,0,0,1.12,2.44h0a6.28,6.28,0,0,0,2.64,2l0,0a.73.73,0,0,1,.25,1.2h0a16.82,16.82,0,0,1-8.43,4.57L34.4,38,33,34.48"/><path class="cls-18" d="M22.2,43.1h-.1a5.25,5.25,0,0,0-5.23,5.23v6.51a27.29,27.29,0,0,0,6.34,3.11V44.1A1,1,0,0,0,22.2,43.1Z"/><path class="cls-19" d="M41.9,43.1h-.1a1,1,0,0,0-1,1V57.95a27.29,27.29,0,0,0,6.34-3.11V48.33A5.25,5.25,0,0,0,41.9,43.1Z"/><path class="cls-20" d="M42.75,43.7a1.3,1.3,0,0,0-1.27-1H37.73a5.19,5.19,0,0,0-1.1.12l-4.63,1-4.63-1a5.19,5.19,0,0,0-1.1-.12H22.52a1.3,1.3,0,0,0-1.27,1l-1.74,7.5a8.74,8.74,0,0,0,.38,5.18l.09.23a27.43,27.43,0,0,0,24,0l.09-.23a8.74,8.74,0,0,0,.38-5.19Z"/><path class="cls-21" d="M32,59.4a27.28,27.28,0,0,0,12-2.77l.09-.23a8.74,8.74,0,0,0,.38-5.18L42.75,43.7a1.3,1.3,0,0,0-1.27-1H37.73a5.19,5.19,0,0,0-1.1.12l-4.63,1-2.11-.46-1,.32a1.19,1.19,0,0,0-.48,2l3.6,3.6V59.4Z"/><polygon class="cls-22" points="20.92 45.11 43.08 45.11 42.8 43.9 21.2 43.9 20.92 45.11"/><polygon class="cls-23" points="20.29 47.84 43.71 47.84 43.43 46.63 20.57 46.63 20.29 47.84"/><polygon class="cls-24" points="19.66 50.57 44.34 50.57 44.06 49.36 19.94 49.36 19.66 50.57"/><path class="cls-25" d="M19.31,53.29H44.69a8.71,8.71,0,0,0-.07-1.21H19.38A8.71,8.71,0,0,0,19.31,53.29Z"/><path class="cls-26" d="M19.78,56H44.22a8.71,8.71,0,0,0,.32-1.21H19.46A8.71,8.71,0,0,0,19.78,56Z"/><path class="cls-27" d="M26.07,58.75H37.93a27.19,27.19,0,0,0,4-1.21H22.09A27.18,27.18,0,0,0,26.07,58.75Z"/><path class="cls-28" d="M35.84,41.25V34H28.16v7.21a1.46,1.46,0,0,1-1.46,1.46h0a2.78,2.78,0,0,0,2.78,2.78h5.06a2.78,2.78,0,0,0,2.78-2.78h0A1.46,1.46,0,0,1,35.84,41.25Z"/><path class="cls-29" d="M35.84,42.25V34H34.59l-6.43,2.84h0l1.56,1.56A7.75,7.75,0,0,1,32,43.92v1.57h2.54a2.77,2.77,0,0,0,2.59-1.8A1.46,1.46,0,0,1,35.84,42.25Z"/><path class="cls-30" d="M21.55,27V25.24l-.35-.07a1.36,1.36,0,0,0-1,.23h0a.92.92,0,0,0-.39.75V27.8a1.89,1.89,0,0,0,.68,1.46l1.36,1.12Z"/><path class="cls-31" d="M21.49,27.11V25.94l-.23,0a.89.89,0,0,0-.68.15h0a.6.6,0,0,0-.25.49V27.6a1.23,1.23,0,0,0,.44.95l.88.73Z"/><path class="cls-32" d="M21.49,27.11V27A1.13,1.13,0,0,0,20.78,28a1.12,1.12,0,0,0,.86,1.08Z"/><path class="cls-33" d="M42.45,27V25.24l.35-.07a1.36,1.36,0,0,1,1,.23h0a.92.92,0,0,1,.39.75V27.8a1.89,1.89,0,0,1-.68,1.46L42.2,30.37Z"/><path class="cls-34" d="M42.51,27.11V25.94l.23,0a.89.89,0,0,1,.68.15h0a.6.6,0,0,1,.25.49V27.6a1.23,1.23,0,0,1-.44.95l-.88.73Z"/><path class="cls-35" d="M42.51,27.11V27A1.13,1.13,0,0,1,43.22,28a1.12,1.12,0,0,1-.86,1.08Z"/><path class="cls-36" d="M42.84,27.83V19.3a5.71,5.71,0,0,0-3.75-5.37L35.6,12.65a10.48,10.48,0,0,0-7.19,0l-3.49,1.28a5.71,5.71,0,0,0-3.75,5.37v8.53a8.68,8.68,0,0,0,4.34,7.52l4.15,2.4a4.71,4.71,0,0,0,4.71,0l4.15-2.4A8.68,8.68,0,0,0,42.84,27.83Z"/><path class="cls-37" d="M32,12.75a12.45,12.45,0,0,0-9.61,4.1,8.39,8.39,0,0,0-1.23,4.34v5.55l.14-1.92H27a9.74,9.74,0,0,0,8.32-4.67l.56.9a8.07,8.07,0,0,0,6.83,3.78l.14,1.92V21.2a8.39,8.39,0,0,0-1.23-4.34A12.45,12.45,0,0,0,32,12.75Z"/><path class="cls-38" d="M37.31,13.28h0c-.38-.14-.76-.26-1.15-.36s-.76-.19-1.14-.27l-.27-.06h-.06l-.63-.08-.68-.09h0c-.27,0-.54,0-.81,0h-.07l-.47,0h0v1.48a5.12,5.12,0,0,0,1.5,3.62l2,2,0,0a3,3,0,0,1,0,4.26l-.23.23-.47.46a4.35,4.35,0,0,0-1.3,3.09v3.08l-.2.09c0,.07,0,.15-.07.26a1.66,1.66,0,0,1-1.29.58,1.83,1.83,0,0,1-.32,0l1.66,1.66L32,34.6a6.31,6.31,0,0,1,1.72,3.2h0a7.12,7.12,0,0,0,.88-.29h0a6.79,6.79,0,0,0,.86-.42l3.14-1.81A8.46,8.46,0,0,0,42.84,28v-6.5A8.81,8.81,0,0,0,37.31,13.28Z"/><path class="cls-39" d="M29.68,25.35h0a.93.93,0,0,0-1.21.07,1.5,1.5,0,0,1-.37.28,1.87,1.87,0,0,1-1.26.17,2.37,2.37,0,0,0-.95,0,2.9,2.9,0,0,0-1,.43v1.31a1.19,1.19,0,0,0,1.22,1.19l1.48,0a1.9,1.9,0,0,1,.52.06l2.3.59V26.87A1.89,1.89,0,0,0,29.68,25.35Z"/><circle class="cls-40" cx="26.55" cy="27.71" r="0.88"/><circle class="cls-41" cx="26.2" cy="27.36" r="0.35"/><ellipse class="cls-42" cx="26.55" cy="29.58" rx="2.71" ry="0.99"/><path class="cls-43" d="M34.38,25.31l.1-.07a.76.76,0,0,1,1,.14,1.5,1.5,0,0,0,.41.32,1.87,1.87,0,0,0,1.26.17,2.37,2.37,0,0,1,.95,0,2.9,2.9,0,0,1,1,.43v1.31a1.19,1.19,0,0,1-1.22,1.19l-1.48,0-.52.06-2.3.59V26.94A2,2,0,0,1,34.38,25.31Z"/><circle class="cls-44" cx="37.45" cy="27.71" r="0.88"/><circle class="cls-45" cx="37.1" cy="27.36" r="0.35"/><ellipse class="cls-46" cx="37.45" cy="29.58" rx="2.71" ry="0.99"/><path class="cls-47" d="M33.63,33.59H30.37l-.78.21.46.84a3.25,3.25,0,0,0,.38.56,1.2,1.2,0,0,0,.89.48h1.35a1.2,1.2,0,0,0,.89-.48,3.25,3.25,0,0,0,.38-.56l.46-.84Z"/><path class="cls-48" d="M33.63,33.59H30.37l-.78.18.46.71a2.76,2.76,0,0,0,.38.47,1.29,1.29,0,0,0,.89.4h1.35a1.29,1.29,0,0,0,.89-.4,2.76,2.76,0,0,0,.38-.47l.46-.71Z"/><path class="cls-49" d="M33.63,33.66H30.37l-.78.13.46.51a2.3,2.3,0,0,0,.38.34,1.56,1.56,0,0,0,.89.29h1.35a1.56,1.56,0,0,0,.89-.29,2.3,2.3,0,0,0,.38-.34l.46-.51Z"/><path class="cls-50" d="M34.29,33.47a1.4,1.4,0,0,1-.66-.27l-.17-.13a1.1,1.1,0,0,0-1.09-.14l-.12.05a.63.63,0,0,1-.49,0l-.12-.05a1.1,1.1,0,0,0-1.09.14l-.17.13a1.4,1.4,0,0,1-.66.27l-.41,0h0a1.3,1.3,0,0,0,1.27.49l.39-.08a1,1,0,0,1,.34,0l.45.06a1.72,1.72,0,0,0,.48,0l.45-.06a1,1,0,0,1,.34,0l.39.08a1.3,1.3,0,0,0,1.27-.49h0Z"/><path class="cls-51" d="M34.29,33.47a1.4,1.4,0,0,1-.66-.27l-.17-.13a1.1,1.1,0,0,0-1.09-.14l-.12.05a.63.63,0,0,1-.49,0l-.12-.05a1.1,1.1,0,0,0-1.09.14l-.17.13a1.4,1.4,0,0,1-.66.27l-.41,0h0a1.53,1.53,0,0,0,.19.18l.29,0a1.36,1.36,0,0,0,.64-.26l.17-.12a1.07,1.07,0,0,1,1.06-.14l.12,0a.61.61,0,0,0,.47,0l.12,0a1.07,1.07,0,0,1,1.06.14l.17.12a1.36,1.36,0,0,0,.64.26l.29,0a1.53,1.53,0,0,0,.19-.18h0Z"/><path class="cls-52" d="M32,31.87a1.66,1.66,0,0,0,1.29-.58c.26-.32,0-.44-.47-.44H31.18c-.45,0-.73.12-.47.44A1.66,1.66,0,0,0,32,31.87Z"/><path class="cls-53" d="M30.76,31.21h-.1l0,.07a1.6,1.6,0,0,0,1,.54s0,0,0-.07C31.7,31.45,31.28,31.21,30.76,31.21Z"/><path class="cls-54" d="M33.34,31.22h-.1c-.52,0-.94.25-.94.55,0,0,0,0,0,.07a1.6,1.6,0,0,0,1-.54Z"/><path class="cls-55" d="M32,29.85c-.6,0-1.08.3-1.08.68h2.16C33.08,30.15,32.6,29.85,32,29.85Z"/><path class="cls-56" d="M44.29,22.08c-.75-6.56-6-10.42-12.29-10.42S20.46,15.52,19.71,22.08A4.12,4.12,0,0,0,20.51,25l.64.88.15-2.09H42.71l.15,2.09.64-.88A4.12,4.12,0,0,0,44.29,22.08Z"/><ellipse class="cls-57" cx="32" cy="36.71" rx="2.71" ry="1.03"/><circle class="cls-58" cx="31.47" cy="47.31" r="0.32"/><circle class="cls-59" cx="31.32" cy="47.16" r="0.32"/><circle class="cls-60" cx="31.47" cy="49.39" r="0.32"/><circle class="cls-61" cx="31.32" cy="49.24" r="0.32"/><circle class="cls-62" cx="31.47" cy="51.47" r="0.32"/><circle class="cls-63" cx="31.32" cy="51.32" r="0.32"/><path class="cls-64" d="M24.74,26.47a2.44,2.44,0,0,1,4.27,0A5.12,5.12,0,0,0,26.87,26,5.07,5.07,0,0,0,24.74,26.47Z"/><path class="cls-65" d="M35,26.47a2.44,2.44,0,0,1,4.27,0A5.12,5.12,0,0,0,37.13,26,5.07,5.07,0,0,0,35,26.47Z"/><path class="cls-66" d="M37.39,51V48.09a1.57,1.57,0,0,0-.78-1.36L32.74,44.5a1.48,1.48,0,0,0-1.48,0L27.4,46.73a1.57,1.57,0,0,0-.78,1.36V51a5.7,5.7,0,0,0,2.85,4.94l2,1.16a1.07,1.07,0,0,0,1.07,0l2-1.16A5.7,5.7,0,0,0,37.39,51Z"/><path class="cls-67" d="M32.46,57.11l2.47-1.43a4.91,4.91,0,0,0,2.45-4.25V48a1.35,1.35,0,0,0-.68-1.17l-4.07-2.35a1.28,1.28,0,0,0-.64-.17v13A.92.92,0,0,0,32.46,57.11Z"/><path class="cls-68" d="M37.39,51.43v-.26l-2-2-1.5,2-2.75,1.53L34.43,56l.5-.29A4.91,4.91,0,0,0,37.39,51.43Z"/><path class="cls-69" d="M35.38,49.11a.73.73,0,0,0-1,0L32,51.47l-.66-.66a.73.73,0,0,0-1,1L31.48,53a.73.73,0,0,0,1,0l2.87-2.87A.73.73,0,0,0,35.38,49.11Z"/><path class="cls-70" d="M12.66,39.79a2.59,2.59,0,0,1,.36,0,3.4,3.4,0,0,1,4.7.17A9.44,9.44,0,0,0,19,41a1.73,1.73,0,0,1,.25.2.71.71,0,0,1-.49,1.23H10.88a.7.7,0,0,1-.66-.94A2.62,2.62,0,0,1,12.66,39.79Z"/><path class="cls-71" d="M18.2,35.29l-.26,0a2.49,2.49,0,0,0-3.45.12,6.93,6.93,0,0,1-1,.72l-.18.15a.52.52,0,0,0,.36.9H19.5a.51.51,0,0,0,.48-.69A1.92,1.92,0,0,0,18.2,35.29Z"/><path class="cls-72" d="M54,27.37a2.78,2.78,0,0,0-.38,0,3.65,3.65,0,0,0-5,.18,10.14,10.14,0,0,1-1.42,1.06,1.86,1.86,0,0,0-.27.22.77.77,0,0,0,.53,1.32h8.5a.75.75,0,0,0,.71-1A2.81,2.81,0,0,0,54,27.37Z"/><path class="cls-73" d="M48,22.54l.28,0a2.67,2.67,0,0,1,3.7.13,7.44,7.44,0,0,0,1,.78,1.36,1.36,0,0,1,.2.16.56.56,0,0,1-.39,1H46.65a.55.55,0,0,1-.52-.74A2.06,2.06,0,0,1,48,22.54Z"/></g></g></svg>