<svg id="Layer_1" data-name="Layer 1" xmlns="http://www.w3.org/2000/svg" viewBox="0 0 64 64"><defs><style>.cls-1{fill:#dfe8f4;}.cls-2{fill:#0795ff;}.cls-3{fill:#fff;}</style></defs><title>user, interface, agent, usability, image, gallery, photo</title><rect class="cls-1" x="8" y="8" width="48" height="48" rx="5.04"/><path class="cls-2" d="M56,51V39.53L51.48,35a5.15,5.15,0,0,0-7.28,0h0a5.16,5.16,0,0,1-7.29,0l-8.85-8.85a5.15,5.15,0,0,0-7.28,0L8,38.94V51a5,5,0,0,0,5,5H51A5,5,0,0,0,56,51Z"/><path class="cls-3" d="M46.48,21.76a4.67,4.67,0,1,1-4.67-4.67A4.67,4.67,0,0,1,46.48,21.76Z"/></svg>