<svg xmlns="http://www.w3.org/2000/svg" xmlns:xlink="http://www.w3.org/1999/xlink" viewBox="0 0 500 500"><defs><style>.cls-1{isolation:isolate;}.cls-2{fill:#ccdef2;}.cls-3{stroke:#000;stroke-miterlimit:10;opacity:0.49;mix-blend-mode:color-burn;fill:url(#linear-gradient);}.cls-4{fill:#b4caef;}.cls-5{fill:#00a887;}.cls-6{fill:#f9aa8f;}.cls-7{fill:#213330;}.cls-8{fill:url(#linear-gradient-2);}.cls-9{fill:url(#linear-gradient-3);}.cls-10{fill:url(#linear-gradient-4);}.cls-11{fill:url(#linear-gradient-5);}.cls-12{fill:#3d6fd3;}.cls-13{fill:url(#linear-gradient-6);}.cls-14{fill:url(#linear-gradient-7);}.cls-15{fill:#4a567c;}.cls-16{fill:#314341;}.cls-17{fill:url(#linear-gradient-8);}.cls-18{fill:url(#linear-gradient-9);}.cls-19{fill:url(#linear-gradient-10);}.cls-20{fill:url(#linear-gradient-11);}.cls-21{fill:url(#linear-gradient-12);}.cls-22{fill:#91a6c4;}.cls-23{fill:url(#linear-gradient-13);}.cls-24{fill:url(#linear-gradient-14);}.cls-25{fill:#dfecf4;}.cls-26{fill:url(#linear-gradient-15);}.cls-27{fill:url(#linear-gradient-16);}.cls-28{fill:url(#linear-gradient-17);}.cls-29{fill:url(#linear-gradient-18);}.cls-30{fill:#dfeaf4;}.cls-31{fill:#24d1af;}.cls-32{fill:#f27c1c;}.cls-33{fill:url(#linear-gradient-19);}</style><linearGradient id="linear-gradient" x1="346.46" y1="228.57" x2="346.46" y2="180.03" gradientUnits="userSpaceOnUse"><stop offset="0" stop-color="#fff" stop-opacity="0"/><stop offset="1"/></linearGradient><linearGradient id="linear-gradient-2" x1="489.93" y1="164.62" x2="353.41" y2="32.46" gradientUnits="userSpaceOnUse"><stop offset="0" stop-color="#00a887"/><stop offset="1" stop-color="#256351"/></linearGradient><linearGradient id="linear-gradient-3" x1="338.8" y1="175.16" x2="348.65" y2="175.16" gradientUnits="userSpaceOnUse"><stop offset="0" stop-color="#5c6cb1"/><stop offset="1" stop-color="#6c7bbb"/></linearGradient><linearGradient id="linear-gradient-4" x1="200.69" y1="528.66" x2="200.69" y2="109.52" gradientUnits="userSpaceOnUse"><stop offset="0" stop-color="#fff"/><stop offset="0.84" stop-color="#cddfec"/></linearGradient><linearGradient id="linear-gradient-5" x1="363.25" y1="528.66" x2="363.25" y2="109.52" xlink:href="#linear-gradient-4"/><linearGradient id="linear-gradient-6" x1="264.89" y1="288.75" x2="262.38" y2="167.84" xlink:href="#linear-gradient-2"/><linearGradient id="linear-gradient-7" x1="210.95" y1="257.31" x2="219.95" y2="199.06" xlink:href="#linear-gradient-2"/><linearGradient id="linear-gradient-8" x1="176.13" y1="130.4" x2="99.63" y2="65.15" gradientUnits="userSpaceOnUse"><stop offset="0" stop-color="#f78e6b"/><stop offset="1" stop-color="#f9aa8f"/></linearGradient><linearGradient id="linear-gradient-9" x1="278.18" y1="207.4" x2="236.07" y2="232.63" xlink:href="#linear-gradient-8"/><linearGradient id="linear-gradient-10" x1="67.31" y1="352.24" x2="286.01" y2="352.24" xlink:href="#linear-gradient-3"/><linearGradient id="linear-gradient-11" x1="260.74" y1="409.24" x2="257.74" y2="253.92" xlink:href="#linear-gradient-3"/><linearGradient id="linear-gradient-12" x1="191.56" y1="410.47" x2="76.01" y2="144.09" xlink:href="#linear-gradient-3"/><linearGradient id="linear-gradient-13" x1="110.99" y1="249.15" x2="164.91" y2="75.96" gradientUnits="userSpaceOnUse"><stop offset="0" stop-color="#273d3c"/><stop offset="1" stop-color="#314341"/></linearGradient><linearGradient id="linear-gradient-14" x1="163.22" y1="242.19" x2="200.25" y2="97.87" xlink:href="#linear-gradient-13"/><linearGradient id="linear-gradient-15" x1="36.4" y1="459.66" x2="52" y2="459.66" xlink:href="#linear-gradient-3"/><linearGradient id="linear-gradient-16" x1="167.29" y1="459.66" x2="182.89" y2="459.66" xlink:href="#linear-gradient-3"/><linearGradient id="linear-gradient-17" x1="175.13" y1="368.14" x2="175.13" y2="328.32" xlink:href="#linear-gradient-2"/><linearGradient id="linear-gradient-18" x1="115.65" y1="347.22" x2="115.65" y2="-112.5" xlink:href="#linear-gradient-2"/><linearGradient id="linear-gradient-19" x1="109.4" y1="86.09" x2="161.02" y2="86.09" gradientUnits="userSpaceOnUse"><stop offset="0" stop-color="#da4f11"/><stop offset="0.58" stop-color="#ea6c18"/><stop offset="1" stop-color="#f27c1c"/></linearGradient></defs><title>man working on computer</title><g class="cls-1"><g id="Layer_2" data-name="Layer 2"><path class="cls-2" d="M375.76,173.94H328.62a.92.92,0,0,1,.92.92v36.67a13.33,13.33,0,0,1-13.29,13.29h47.15a13.33,13.33,0,0,0,13.29-13.29V174.86A.92.92,0,0,0,375.76,173.94Z"/><path class="cls-3" d="M375.76,173.94H328.62a.92.92,0,0,1,.92.92v36.67a13.33,13.33,0,0,1-13.29,13.29h47.15a13.33,13.33,0,0,0,13.29-13.29V174.86A.92.92,0,0,0,375.76,173.94Z"/><path class="cls-4" d="M368.89,172.11H321.74a.92.92,0,0,1,.92.92V209.7A13.33,13.33,0,0,1,309.36,223h47.15A13.33,13.33,0,0,0,369.8,209.7V173A.92.92,0,0,0,368.89,172.11Z"/><path class="cls-4" d="M368.89,172.11H321.74a.92.92,0,0,1,.92.92v13.89l12.47,12.47A25,25,0,0,1,342.44,217v6h14.07A13.33,13.33,0,0,0,369.8,209.7V173A.92.92,0,0,0,368.89,172.11Z"/><rect class="cls-2" x="226.73" y="32.54" width="248.26" height="154.37" rx="13.09" ry="13.09"/><path class="cls-4" d="M461.9,32.54H447.64a13.09,13.09,0,0,1,13.09,13.09v128.2a13.09,13.09,0,0,1-13.09,13.09H461.9A13.09,13.09,0,0,0,475,173.83V45.63A13.09,13.09,0,0,0,461.9,32.54Z"/><path class="cls-5" d="M461.9,32.54H239.81a13.09,13.09,0,0,0-13.09,13.09V162.35H475V45.63A13.09,13.09,0,0,0,461.9,32.54Z"/><path class="cls-6" d="M220.92,147.81s8.56-15.32,18.48-18.52,9.76,1.28,4.8,3.52-5.12,5.18-5.12,5.18,8,6.66-9.85,14.66"/><path class="cls-7" d="M227.69,145a4.67,4.67,0,0,0-6,.21c-10.24,9.37-25.57,26.94-30.06,28.37-1.11.35-2.3-.09-3.53-1l14.34,25.06c6.34-1,24.37-29.64,28.68-46.9a4,4,0,0,0-1.3-4Q228.76,145.78,227.69,145Z"/><path class="cls-8" d="M461.9,32.54H447.64a13.09,13.09,0,0,1,13.09,13.09V162.35H475V45.63A13.09,13.09,0,0,0,461.9,32.54Z"/><rect class="cls-4" x="226.73" y="162.35" width="248.26" height="7.88"/><circle class="cls-9" cx="343.73" cy="175.16" r="4.92"/><path class="cls-10" d="M232.59,459.57H176.5a22.35,22.35,0,0,1-19.95-32.43l75.69-149.88a18.58,18.58,0,0,0-16.59-27H167.28a6.5,6.5,0,0,1,0-13h48.37a31.57,31.57,0,0,1,28.18,45.8L168.14,433a9.36,9.36,0,0,0,8.35,13.58h56.09a6.5,6.5,0,0,1,0,13Z"/><path class="cls-11" d="M395.15,459.57H339.05a22.35,22.35,0,0,1-19.95-32.43L394.8,277.27a18.58,18.58,0,0,0-16.59-27H329.84a6.5,6.5,0,1,1,0-13h48.37a31.57,31.57,0,0,1,28.18,45.8L330.7,433a9.36,9.36,0,0,0,8.35,13.58h56.09a6.5,6.5,0,1,1,0,13Z"/><path class="cls-12" d="M160.84,222.57H470.43a4.56,4.56,0,0,1,4.56,4.56v5.64a4.56,4.56,0,0,1-4.56,4.56H160.84a.85.85,0,0,1-.85-.85v-13A.85.85,0,0,1,160.84,222.57Z"/><path class="cls-5" d="M160.84,222.57H468.95a6,6,0,0,1,6,6v2.68a6,6,0,0,1-6,6H160.84a.85.85,0,0,1-.85-.85v-13a.85.85,0,0,1,.85-.85Z"/><rect class="cls-13" x="159.99" y="222.57" width="207.36" height="14.75" rx="0.85" ry="0.85"/><path class="cls-2" d="M215.47,216.77H297a3.28,3.28,0,0,1,3.28,3.28v2.53a0,0,0,0,1,0,0H215.47a0,0,0,0,1,0,0v-5.81A0,0,0,0,1,215.47,216.77Z"/><path class="cls-14" d="M160,223.43v10.92l.86,3H264.13l8.39-14.75H160.84A.85.85,0,0,0,160,223.43Z"/><path class="cls-15" d="M37.56,289S23.83,332.32,62.9,346.57s100,4.87,100,4.87l34.78,82.05h16.5s-12.93-98.1-41.47-109.7S67.09,275.48,67.09,275.48"/><path class="cls-16" d="M197,431.24s2.11,21.31,1.45,23.65l0,.07a3.71,3.71,0,0,0,3.64,4.61h34.18s1.67-11.61-5-14.17-14.71-6.38-17.72-14.17"/><path class="cls-6" d="M168,80.17l-.16.91c-1.45-9.24-10.47-22.54-35.56-18.17-26.25,4.58-11.6,43.35-11,55S117,134.66,117,134.66l34.14,1.74s-1.79-3.62,1.05-8.82,6.7.52,12.9-11a32.3,32.3,0,0,0,3.1-10.49,9.57,9.57,0,0,1,1.14-3.2h0C171.24,99.37,168,80.17,168,80.17Z"/><path class="cls-17" d="M117.5,95.5l0,.28c1.26,9.06,3.59,17.6,3.83,22.09a29.93,29.93,0,0,1-1.47,11.6l20.36,3.37s7.5-10.83,13-11.83,9.5-24,12.33-24.5c2-.35,3.33-3.39,4-5.24-.58-5.62-1.5-11.08-1.5-11.08l-.16.91a21.29,21.29,0,0,0-2.4-6.92L144,72.67Z"/><path class="cls-6" d="M253.18,219.67s5.63-4,6.52-9.59,8-12.27,11.48-10.26c1.41.81,1.19,2.61.89,3.72a1.82,1.82,0,0,0,.45,1.74c1.78,1.87,5.87,6.76,4.46,10.82-1.78,5.13-7.28,10.18-15.85,12.23"/><path class="cls-18" d="M267.9,221.91c.94-2.91-2.53-6.85-5.79-9.29s-.09-7.73,0-7.87a13,13,0,0,0-2.41,5.32c-.89,5.57-6.52,9.59-6.52,9.59l8,8.65a26.83,26.83,0,0,0,9.49-4.21S267,224.8,267.9,221.91Z"/><path class="cls-19" d="M69.65,285.07S55.92,328.4,95,342.66s139.73,6.53,139.73,6.53l34.78,82.05H286s-13.49-94.76-41.47-109.7C217.36,307,138.87,273.23,138.87,273.23"/><path class="cls-20" d="M286,431.24s-.19-1.31-.56-3.61c-2.4-1.34-4.66-2.88-5.55-4.33-2.25-3.66-17.45-60.22-21.95-68.81s-23.23-5.3-23.23-5.3l34.78,82.05Z"/><path class="cls-21" d="M234.73,349.19c-3.57-8.41-20.95-10.31-37.7-14s-35.55-11.64-37-28.08c-1.27-14,11.67-15.72,15.57-15.93l-76.15-3L82.09,318.91l16.08,24.82C139.25,356.51,234.73,349.19,234.73,349.19Z"/><path class="cls-22" d="M175.56,291.21l1.1,0S176.25,291.17,175.56,291.21Z"/><path class="cls-16" d="M106.41,145.86s3-10,3.46-15.16c.34-3.88,31.55-8.69,51.9,3a4,4,0,0,1,1.68,5.07c-1.45,3.33-2.87,9.67-.07,19.6"/><path class="cls-16" d="M83.4,165.53c2.25-15.37,12.15-26.64,34.88-27.85,28.58-1.52,52.86,1.62,60.78,23.23,12.53,34.2,1,91.17,5.18,110.07s.87,22.12-29.33,20.7c-72.61-3.41-76.73-1.54-84.18-3.61-10.81-3-6-5.62.77-27.92C76.07,245.17,79,195.28,83.4,165.53Z"/><path class="cls-23" d="M179.06,160.91c-7.92-21.61-32.2-24.75-60.78-23.23-22.73,1.21-32.63,12.49-34.88,27.85-4.35,29.74-7.33,79.63-11.91,94.62-5.82,19.07-10.14,23.74-4.52,26.57,5.46,0,11.7-.06,18.75-.13a108.9,108.9,0,0,1,13.09-.13c57.17-.63,73.8-19,47.29-23.6s-37.53-23.08-2.91-35.2S176,211,176,211l3.26-8.38C182.35,187.71,183.46,172.95,179.06,160.91Z"/><path class="cls-16" d="M156.83,140.75s31.68,5.34,47.79,51.93c16.5,47.71,45.93,20.74,54,24.08s4,11.37,0,14-42.14,32-80.27-16.78S145.47,136.94,156.83,140.75Z"/><path class="cls-16" d="M286,431.24c3,7.79,11,11.61,17.72,14.17s5,14.17,5,14.17H274.57a3.71,3.71,0,0,1-3.64-4.61l0-.07c.67-2.34-1.45-23.65-1.45-23.65"/><path class="cls-24" d="M203.73,220.44c-5.69-26.76,1.19-23,6.12-15.73h0a77.32,77.32,0,0,1-5.23-12c-16.11-46.59-47.79-51.93-47.79-51.93-11.36-3.81-16.65,24.51,21.48,73.28a100.19,100.19,0,0,0,10.17,11.25l3.19,2.85a67.57,67.57,0,0,0,9,6.47C204,235.42,206.37,232.86,203.73,220.44Z"/><path class="cls-25" d="M116,434.5v-56H103.29v56a14.31,14.31,0,0,1-12.07,14.14l-42.39,6.74a5.5,5.5,0,0,0-4.64,5.43v2H175.09v-2a5.5,5.5,0,0,0-4.64-5.43l-42.39-6.74A14.31,14.31,0,0,1,116,434.5Z"/><circle class="cls-26" cx="44.2" cy="459.66" r="7.8"/><circle class="cls-27" cx="175.09" cy="459.66" r="7.8"/><path class="cls-25" d="M115.65,378.45H103.29v56a14.32,14.32,0,0,1-.5,3.74l12.85-39Z"/><path class="cls-5" d="M183.06,378.45H83.41s-44.65.47-54.78-24.76C16.78,324.13,35.8,155.22,60.36,142.48s71.15-6.7,74.86-.17S102.2,349.86,156,348.07l51.56,2.81s9.4-.56,10.15,13.7-19.51,13.32-19.51,13.32Z"/><path class="cls-28" d="M205.13,350.74,156,348.07a18,18,0,0,1-10.87-3h0c27.14,25.67,60,5.69,60,5.69Z"/><path class="cls-29" d="M206.26,372c-.75-14.26-10.15-13.7-10.15-13.7l-51.56-2.81c-53.81,1.79-17.07-199.22-20.78-205.75-3.41-6-42.85-11.56-68.32-2.62-22.08,30.38-37.86,179-26.8,206.53,10.12,25.23,54.78,24.76,54.78,24.76h99.64l15.16-.56a33.92,33.92,0,0,0,7.18-.6A11.46,11.46,0,0,0,206.26,372Z"/><path class="cls-30" d="M317.84,214.88c-13,1.88-10.22,7.7-10.22,7.7h29.83C338.39,221.64,330.89,213,317.84,214.88Z"/><path class="cls-2" d="M320.12,214.66c-.74,0-1.5.11-2.28.22-13,1.88-10.22,7.7-10.22,7.7h27.2C335.64,221.77,330.1,215.18,320.12,214.66Z"/><circle class="cls-31" cx="258.68" cy="52.52" r="3.94"/><circle class="cls-31" cx="256.21" cy="82.6" r="1.47"/><rect class="cls-31" x="260.21" y="81.86" width="16.04" height="1.47" rx="0.74" ry="0.74"/><circle class="cls-31" cx="256.21" cy="88.93" r="1.47"/><rect class="cls-31" x="260.21" y="88.19" width="16.04" height="1.47" rx="0.74" ry="0.74"/><circle class="cls-31" cx="256.21" cy="95.26" r="1.47"/><rect class="cls-31" x="260.21" y="94.52" width="16.04" height="1.47" rx="0.74" ry="0.74"/><circle class="cls-31" cx="256.21" cy="101.59" r="1.47"/><rect class="cls-31" x="260.21" y="100.85" width="16.04" height="1.47" rx="0.74" ry="0.74"/><circle class="cls-31" cx="256.21" cy="107.92" r="1.47"/><rect class="cls-31" x="260.21" y="107.18" width="16.04" height="1.47" rx="0.74" ry="0.74"/><path class="cls-25" d="M89.6,457.53l9.82-13.25a14.27,14.27,0,0,1-8.19,4.36l-42.39,6.74a5.5,5.5,0,0,0-4.64,5.43v2H89.6Z"/><path class="cls-32" d="M121.28,117.87s11.5-1.46,18.85,0,14.71-7.39,12.25-14.81,2.45-15.48,4.63-9.27.54,6.48,2.18,6.21,2.14-9.06,4.59-9.6,12.83-7,6.16-29.89-27.09-16-30.9-8-21.19,7.37-26,15.82S106,90.27,121.28,117.87Z"/><path class="cls-33" d="M150.75,66.25c-16-2.11-14.44-8.95-12.77-12.1-5.25,6.32-20.49,6.37-25,14.19-4.85,8.44-7,21.93,8.28,49.54,0,0,11.5-1.46,18.85,0s14.71-7.39,12.25-14.81c-1.55-4.68-.16-9.62,1.61-11.06h0S171.79,69,150.75,66.25Z"/></g></g></svg>