<svg xmlns="http://www.w3.org/2000/svg" xmlns:xlink="http://www.w3.org/1999/xlink" viewBox="0 0 64 64"><defs><style>.cls-1{isolation:isolate;}.cls-2{fill:url(#linear-gradient);}.cls-3{fill:url(#linear-gradient-2);}.cls-4{fill:none;}.cls-5{fill:url(#linear-gradient-3);}.cls-6{fill:url(#linear-gradient-4);}.cls-7{fill:url(#linear-gradient-5);}.cls-8{fill:url(#linear-gradient-6);}.cls-9{fill:url(#linear-gradient-7);}.cls-10{fill:url(#linear-gradient-8);}.cls-11{fill:url(#linear-gradient-9);}.cls-12{fill:url(#linear-gradient-10);}.cls-13{fill:url(#linear-gradient-11);}.cls-14{fill:url(#linear-gradient-12);}.cls-15{fill:url(#linear-gradient-13);}.cls-16{fill:url(#linear-gradient-14);}.cls-17{fill:url(#linear-gradient-15);}.cls-18{fill:url(#linear-gradient-16);}.cls-19{fill:url(#linear-gradient-17);}.cls-20{fill:url(#linear-gradient-18);}.cls-21{fill:url(#linear-gradient-19);}.cls-22{fill:url(#linear-gradient-20);}.cls-23{fill:url(#linear-gradient-21);}.cls-24{fill:url(#linear-gradient-22);}.cls-25{fill:url(#linear-gradient-23);}.cls-26{fill:url(#linear-gradient-24);}.cls-27{fill:url(#linear-gradient-25);}.cls-28{fill:url(#linear-gradient-26);}.cls-29{fill:url(#linear-gradient-27);}.cls-30{fill:url(#linear-gradient-28);}.cls-31{fill:url(#linear-gradient-29);}.cls-32{fill:url(#linear-gradient-30);}.cls-33{fill:url(#linear-gradient-31);}.cls-34{fill:url(#linear-gradient-32);}.cls-35{fill:url(#linear-gradient-33);}.cls-36{fill:url(#linear-gradient-34);}.cls-37{fill:url(#linear-gradient-35);}.cls-38{fill:url(#linear-gradient-36);}.cls-39{fill:url(#linear-gradient-37);}.cls-40{fill:url(#linear-gradient-38);}.cls-41{fill:url(#linear-gradient-39);}.cls-42{fill:url(#linear-gradient-40);}.cls-43{fill:url(#linear-gradient-41);}.cls-44{fill:url(#linear-gradient-42);}.cls-45{fill:url(#linear-gradient-43);}.cls-46{fill:url(#linear-gradient-44);}.cls-47{fill:url(#linear-gradient-45);}.cls-48{fill:url(#linear-gradient-46);}.cls-49{fill:url(#linear-gradient-47);}.cls-50{fill:url(#linear-gradient-48);}.cls-51{fill:url(#linear-gradient-49);}.cls-52{fill:url(#linear-gradient-50);}.cls-53{fill:url(#linear-gradient-51);}.cls-54{fill:url(#linear-gradient-52);}.cls-55{fill:url(#linear-gradient-53);}.cls-56{fill:url(#linear-gradient-54);}.cls-57{fill:url(#linear-gradient-55);}.cls-58{fill:url(#linear-gradient-56);}.cls-59{fill:url(#linear-gradient-57);}.cls-60{fill:url(#linear-gradient-58);}.cls-61{fill:url(#linear-gradient-59);}.cls-62{fill:url(#linear-gradient-60);}.cls-63{fill:url(#linear-gradient-61);}.cls-64{fill:url(#linear-gradient-62);}.cls-65{fill:url(#linear-gradient-63);}.cls-66{fill:url(#linear-gradient-64);}.cls-67{fill:url(#linear-gradient-65);}.cls-68{fill:url(#linear-gradient-66);}.cls-69{fill:url(#linear-gradient-67);}.cls-70{fill:url(#linear-gradient-68);}.cls-71{fill:url(#linear-gradient-69);}.cls-72{fill:url(#linear-gradient-70);}.cls-73,.cls-78{opacity:0.16;mix-blend-mode:color-burn;}.cls-73{fill:url(#linear-gradient-71);}.cls-74{fill:url(#linear-gradient-72);}.cls-75{fill:url(#linear-gradient-73);}.cls-76{fill:url(#linear-gradient-74);}.cls-77{fill:url(#linear-gradient-75);}.cls-78{fill:url(#linear-gradient-76);}.cls-79{fill:url(#linear-gradient-77);}.cls-80{fill:url(#linear-gradient-78);}.cls-81{fill:url(#linear-gradient-79);}.cls-82{fill:url(#linear-gradient-80);}.cls-83{fill:url(#linear-gradient-81);}.cls-84{fill:url(#linear-gradient-82);}.cls-85{fill:url(#linear-gradient-83);}.cls-86{fill:url(#linear-gradient-84);}.cls-87{fill:url(#linear-gradient-85);}.cls-88{fill:url(#linear-gradient-86);}.cls-89{fill:url(#linear-gradient-87);}.cls-90{fill:url(#linear-gradient-88);}.cls-91{fill:url(#linear-gradient-89);}.cls-92{fill:url(#linear-gradient-90);}.cls-93{fill:url(#linear-gradient-91);}.cls-94{fill:url(#linear-gradient-92);}.cls-95{fill:url(#linear-gradient-93);}.cls-96{fill:url(#linear-gradient-94);}.cls-97{fill:url(#linear-gradient-95);}.cls-98{fill:url(#linear-gradient-96);}.cls-99{fill:url(#linear-gradient-97);}.cls-100{fill:url(#linear-gradient-98);}.cls-101{fill:url(#linear-gradient-99);}.cls-102{fill:url(#linear-gradient-100);}.cls-103{fill:url(#linear-gradient-101);}.cls-104{fill:url(#linear-gradient-102);}.cls-105{fill:url(#linear-gradient-103);}.cls-106{fill:url(#linear-gradient-104);}.cls-107{fill:url(#linear-gradient-105);}.cls-108{fill:url(#linear-gradient-106);}.cls-109{fill:url(#linear-gradient-107);}.cls-110{fill:url(#linear-gradient-108);}.cls-111{fill:url(#linear-gradient-109);}.cls-112{fill:url(#linear-gradient-110);}.cls-113{fill:url(#linear-gradient-111);}.cls-114{fill:url(#linear-gradient-112);}.cls-115{fill:url(#linear-gradient-113);}.cls-116{fill:url(#linear-gradient-114);}.cls-117{fill:url(#linear-gradient-115);}.cls-118{fill:url(#linear-gradient-116);}.cls-119{fill:url(#linear-gradient-117);}.cls-120{fill:url(#linear-gradient-118);}.cls-121{fill:url(#linear-gradient-119);}.cls-122{fill:url(#linear-gradient-120);}.cls-123{fill:url(#linear-gradient-121);}.cls-124{fill:url(#linear-gradient-122);}.cls-125{fill:url(#linear-gradient-123);}.cls-126{fill:url(#linear-gradient-124);}.cls-127{fill:url(#linear-gradient-125);}.cls-128{fill:url(#linear-gradient-126);}.cls-129{fill:url(#linear-gradient-127);}.cls-130{fill:url(#linear-gradient-128);}.cls-131{fill:url(#linear-gradient-129);}.cls-132{fill:url(#linear-gradient-130);}.cls-133{fill:url(#linear-gradient-131);}.cls-134{fill:#2a384c;}.cls-135{fill:url(#linear-gradient-132);}.cls-136{fill:url(#linear-gradient-133);}.cls-137{fill:url(#linear-gradient-134);}.cls-138{fill:#cdd8e8;}.cls-139{fill:#fff;}.cls-140{fill:url(#linear-gradient-135);}.cls-141{fill:url(#linear-gradient-136);}.cls-142{fill:url(#linear-gradient-137);}.cls-143{fill:url(#linear-gradient-138);}.cls-144{fill:url(#linear-gradient-139);}.cls-145{fill:url(#linear-gradient-140);}.cls-146{fill:url(#linear-gradient-141);}.cls-147{fill:url(#linear-gradient-142);}.cls-148{fill:url(#linear-gradient-143);}.cls-149{fill:url(#linear-gradient-144);}.cls-150{fill:url(#linear-gradient-145);}.cls-151{fill:url(#linear-gradient-146);}.cls-152{fill:url(#linear-gradient-147);}.cls-153{fill:url(#linear-gradient-148);}.cls-154{fill:url(#linear-gradient-149);}.cls-155{fill:url(#linear-gradient-150);}.cls-156{fill:url(#linear-gradient-151);}.cls-157{fill:url(#linear-gradient-152);}.cls-158{fill:url(#linear-gradient-153);}.cls-159{fill:url(#linear-gradient-154);}.cls-160{fill:#f49c84;}.cls-161{fill:url(#linear-gradient-155);}.cls-162{fill:url(#linear-gradient-156);}.cls-163{fill:url(#linear-gradient-157);}.cls-164{fill:url(#linear-gradient-158);}.cls-165{fill:url(#linear-gradient-159);}.cls-166{fill:url(#linear-gradient-160);}.cls-167{fill:url(#linear-gradient-161);}.cls-168{fill:url(#linear-gradient-162);}.cls-169{fill:url(#linear-gradient-163);}.cls-170{fill:url(#linear-gradient-164);}.cls-171{fill:url(#linear-gradient-165);}.cls-172{fill:url(#linear-gradient-166);}.cls-173{fill:url(#linear-gradient-167);}.cls-174{fill:url(#linear-gradient-168);}.cls-175{fill:url(#linear-gradient-169);}.cls-176{fill:url(#linear-gradient-170);}.cls-177{fill:url(#linear-gradient-171);}.cls-178{fill:url(#linear-gradient-172);}.cls-179{fill:url(#linear-gradient-173);}.cls-180{fill:url(#linear-gradient-174);}</style><linearGradient id="linear-gradient" x1="32" y1="66.67" x2="32" y2="22.46" gradientUnits="userSpaceOnUse"><stop offset="0.02" stop-color="#97efe7"/><stop offset="0.52" stop-color="#3db6d3"/><stop offset="1" stop-color="#3d6fd3"/></linearGradient><linearGradient id="linear-gradient-2" x1="32" y1="71.33" x2="32" y2="42.66" gradientUnits="userSpaceOnUse"><stop offset="0" stop-color="#d1efe7"/><stop offset="0.53" stop-color="#97efe7"/><stop offset="1" stop-color="#3ccbe3"/></linearGradient><linearGradient id="linear-gradient-3" x1="7407.27" y1="34.88" x2="7407.27" y2="2.37" gradientTransform="translate(-7366.47)" xlink:href="#linear-gradient-2"/><linearGradient id="linear-gradient-4" x1="7408.69" y1="34.87" x2="7408.69" y2="2.37" gradientTransform="translate(-7366.47)" xlink:href="#linear-gradient-2"/><linearGradient id="linear-gradient-5" x1="7411.92" y1="30.83" x2="7377.56" y2="-19.8" gradientTransform="translate(-7366.47)" xlink:href="#linear-gradient-2"/><linearGradient id="linear-gradient-6" x1="7405.97" y1="55.93" x2="7371.38" y2="6.75" gradientTransform="translate(-7366.47)" xlink:href="#linear-gradient-2"/><linearGradient id="linear-gradient-7" x1="7392.17" y1="34.87" x2="7392.17" y2="2.37" gradientTransform="translate(-7366.47)" xlink:href="#linear-gradient-2"/><linearGradient id="linear-gradient-8" x1="7406.05" y1="55.88" x2="7371.45" y2="6.7" gradientTransform="translate(-7366.47)" xlink:href="#linear-gradient-2"/><linearGradient id="linear-gradient-9" x1="7403.31" y1="34.87" x2="7403.31" y2="2.37" gradientTransform="translate(-7366.47)" xlink:href="#linear-gradient-2"/><linearGradient id="linear-gradient-10" x1="7403.57" y1="36.5" x2="7369.21" y2="-14.13" gradientTransform="translate(-7366.47)" xlink:href="#linear-gradient-2"/><linearGradient id="linear-gradient-11" x1="7413.51" y1="50.63" x2="7378.92" y2="1.45" gradientTransform="translate(-7366.47)" xlink:href="#linear-gradient-2"/><linearGradient id="linear-gradient-12" x1="7425.63" y1="34.87" x2="7425.63" y2="2.37" gradientTransform="translate(-7366.47)" xlink:href="#linear-gradient-2"/><linearGradient id="linear-gradient-13" x1="59.16" y1="48.58" x2="59.16" y2="22.08" xlink:href="#linear-gradient-2"/><linearGradient id="linear-gradient-14" x1="7419.62" y1="34.87" x2="7419.62" y2="2.37" gradientTransform="translate(-7366.47)" xlink:href="#linear-gradient-2"/><linearGradient id="linear-gradient-15" x1="7417" y1="27.38" x2="7382.65" y2="-23.25" gradientTransform="translate(-7366.47)" xlink:href="#linear-gradient-2"/><linearGradient id="linear-gradient-16" x1="53.15" y1="48.58" x2="53.15" y2="22.08" xlink:href="#linear-gradient-2"/><linearGradient id="linear-gradient-17" x1="7424.76" y1="34.87" x2="7424.76" y2="2.37" gradientTransform="translate(-7366.47)" xlink:href="#linear-gradient-2"/><linearGradient id="linear-gradient-18" x1="7428.17" y1="40.32" x2="7393.58" y2="-8.86" gradientTransform="translate(-7366.47)" xlink:href="#linear-gradient-2"/><linearGradient id="linear-gradient-19" x1="58.3" y1="48.58" x2="58.3" y2="22.08" xlink:href="#linear-gradient-2"/><linearGradient id="linear-gradient-20" x1="7418.79" y1="34.87" x2="7418.79" y2="2.37" gradientTransform="translate(-7366.47)" xlink:href="#linear-gradient-2"/><linearGradient id="linear-gradient-21" x1="7414.89" y1="28.81" x2="7380.54" y2="-21.82" gradientTransform="translate(-7366.47)" xlink:href="#linear-gradient-2"/><linearGradient id="linear-gradient-22" x1="7424.6" y1="42.83" x2="7390.01" y2="-6.35" gradientTransform="translate(-7366.47)" xlink:href="#linear-gradient-2"/><linearGradient id="linear-gradient-23" x1="52.32" y1="48.58" x2="52.32" y2="22.08" xlink:href="#linear-gradient-2"/><linearGradient id="linear-gradient-24" x1="7417.85" y1="34.88" x2="7417.85" y2="2.37" gradientTransform="translate(-7366.47)" xlink:href="#linear-gradient-2"/><linearGradient id="linear-gradient-25" x1="7416.64" y1="27.63" x2="7382.34" y2="-22.91" gradientTransform="translate(-7366.47)" xlink:href="#linear-gradient-2"/><linearGradient id="linear-gradient-26" x1="51.38" y1="34.46" x2="51.38" y2="22.58" xlink:href="#linear-gradient-2"/><linearGradient id="linear-gradient-27" x1="7416.81" y1="34.87" x2="7416.81" y2="2.37" gradientTransform="translate(-7366.47)" xlink:href="#linear-gradient-2"/><linearGradient id="linear-gradient-28" x1="7415.63" y1="28.31" x2="7381.27" y2="-22.33" gradientTransform="translate(-7366.47)" xlink:href="#linear-gradient-2"/><linearGradient id="linear-gradient-29" x1="50.34" y1="34.46" x2="50.34" y2="22.58" xlink:href="#linear-gradient-2"/><linearGradient id="linear-gradient-30" x1="7418.5" y1="34.88" x2="7418.5" y2="2.37" gradientTransform="translate(-7366.47)" xlink:href="#linear-gradient-2"/><linearGradient id="linear-gradient-31" x1="7416.83" y1="27.49" x2="7382.48" y2="-23.13" gradientTransform="translate(-7366.47)" xlink:href="#linear-gradient-2"/><linearGradient id="linear-gradient-32" x1="52.04" y1="48.58" x2="52.04" y2="22.08" xlink:href="#linear-gradient-2"/><linearGradient id="linear-gradient-33" x1="52.04" y1="34.46" x2="52.04" y2="22.58" xlink:href="#linear-gradient-2"/><linearGradient id="linear-gradient-34" x1="7379.39" y1="34.88" x2="7379.39" y2="2.37" gradientTransform="translate(-7366.47)" xlink:href="#linear-gradient-2"/><linearGradient id="linear-gradient-35" x1="7386.69" y1="30.58" x2="7386.69" y2="-0.04" gradientTransform="translate(-7366.47)" xlink:href="#linear-gradient-2"/><linearGradient id="linear-gradient-36" x1="7375.46" y1="34.87" x2="7375.46" y2="2.37" gradientTransform="translate(-7366.47)" xlink:href="#linear-gradient-2"/><linearGradient id="linear-gradient-37" x1="7375.46" y1="30.58" x2="7375.46" y2="-0.04" gradientTransform="translate(-7366.47)" xlink:href="#linear-gradient-2"/><linearGradient id="linear-gradient-38" x1="7384.74" y1="34.87" x2="7384.74" y2="2.37" gradientTransform="translate(-7366.47)" xlink:href="#linear-gradient-2"/><linearGradient id="linear-gradient-39" x1="7384.74" y1="30.58" x2="7384.74" y2="-0.04" gradientTransform="translate(-7366.47)" xlink:href="#linear-gradient-2"/><linearGradient id="linear-gradient-40" x1="7378.29" y1="34.87" x2="7378.29" y2="2.24" gradientTransform="translate(-7366.47)" xlink:href="#linear-gradient-2"/><linearGradient id="linear-gradient-41" x1="7378.29" y1="30.56" x2="7378.29" y2="-0.18" gradientTransform="translate(-7366.47)" xlink:href="#linear-gradient-2"/><linearGradient id="linear-gradient-42" x1="7381.15" y1="34.87" x2="7381.15" y2="2.37" gradientTransform="translate(-7366.47)" xlink:href="#linear-gradient-2"/><linearGradient id="linear-gradient-43" x1="14.68" y1="40.75" x2="14.68" y2="18.5" xlink:href="#linear-gradient-2"/><linearGradient id="linear-gradient-44" x1="7375.11" y1="34.87" x2="7375.11" y2="2.37" gradientTransform="translate(-7366.47)" xlink:href="#linear-gradient-2"/><linearGradient id="linear-gradient-45" x1="7375.11" y1="30.58" x2="7375.11" y2="-0.04" gradientTransform="translate(-7366.47)" xlink:href="#linear-gradient-2"/><linearGradient id="linear-gradient-46" x1="7375.11" y1="34.05" x2="7375.11" y2="21.11" gradientTransform="translate(-7366.47)" xlink:href="#linear-gradient-2"/><linearGradient id="linear-gradient-47" x1="7373.03" y1="34.87" x2="7373.03" y2="2.37" gradientTransform="translate(-7366.47)" xlink:href="#linear-gradient-2"/><linearGradient id="linear-gradient-48" x1="6.56" y1="8.75" x2="6.56" y2="-14.05" xlink:href="#linear-gradient-2"/><linearGradient id="linear-gradient-49" x1="7374.42" y1="34.87" x2="7374.42" y2="2.37" gradientTransform="translate(-7366.47)" xlink:href="#linear-gradient-2"/><linearGradient id="linear-gradient-50" x1="7.95" y1="8.75" x2="7.95" y2="-14.05" xlink:href="#linear-gradient-2"/><linearGradient id="linear-gradient-51" x1="7398.18" y1="34.87" x2="7398.18" y2="2.37" gradientTransform="translate(-7366.47)" xlink:href="#linear-gradient-2"/><linearGradient id="linear-gradient-52" x1="31.71" y1="8.75" x2="31.71" y2="-14.05" xlink:href="#linear-gradient-2"/><linearGradient id="linear-gradient-53" x1="7403.97" y1="34.88" x2="7403.97" y2="2.37" gradientTransform="translate(-7366.47)" xlink:href="#linear-gradient-2"/><linearGradient id="linear-gradient-54" x1="37.5" y1="8.75" x2="37.5" y2="-14.05" xlink:href="#linear-gradient-2"/><linearGradient id="linear-gradient-55" x1="7381.27" y1="34.88" x2="7381.27" y2="2.37" gradientTransform="translate(-7366.47)" xlink:href="#linear-gradient-2"/><linearGradient id="linear-gradient-56" x1="14.8" y1="42.5" x2="14.8" y2="21.8" xlink:href="#linear-gradient-2"/><linearGradient id="linear-gradient-57" x1="7386.72" y1="30.58" x2="7386.72" y2="-0.04" gradientTransform="translate(-7366.47)" xlink:href="#linear-gradient-2"/><linearGradient id="linear-gradient-58" x1="20.25" y1="42.5" x2="20.25" y2="21.8" xlink:href="#linear-gradient-2"/><linearGradient id="linear-gradient-59" x1="7380.96" y1="34.88" x2="7380.96" y2="2.37" gradientTransform="translate(-7366.47)" xlink:href="#linear-gradient-2"/><linearGradient id="linear-gradient-60" x1="7380.96" y1="30.58" x2="7380.96" y2="-0.04" gradientTransform="translate(-7366.47)" xlink:href="#linear-gradient-2"/><linearGradient id="linear-gradient-61" x1="14.49" y1="42.5" x2="14.49" y2="21.8" xlink:href="#linear-gradient-2"/><linearGradient id="linear-gradient-62" x1="7384.95" y1="34.87" x2="7384.95" y2="2.37" gradientTransform="translate(-7366.47)" xlink:href="#linear-gradient-2"/><linearGradient id="linear-gradient-63" x1="7384.95" y1="30.58" x2="7384.95" y2="-0.04" gradientTransform="translate(-7366.47)" xlink:href="#linear-gradient-2"/><linearGradient id="linear-gradient-64" x1="18.49" y1="42.5" x2="18.49" y2="21.8" xlink:href="#linear-gradient-2"/><linearGradient id="linear-gradient-65" x1="7377.37" y1="34.87" x2="7377.37" y2="2.37" gradientTransform="translate(-7366.47)" xlink:href="#linear-gradient-2"/><linearGradient id="linear-gradient-66" x1="7377.37" y1="30.58" x2="7377.37" y2="-0.04" gradientTransform="translate(-7366.47)" xlink:href="#linear-gradient-2"/><linearGradient id="linear-gradient-67" x1="7377.37" y1="34.05" x2="7377.37" y2="21.11" gradientTransform="translate(-7366.47)" xlink:href="#linear-gradient-2"/><linearGradient id="linear-gradient-68" x1="10.9" y1="42.5" x2="10.9" y2="21.8" xlink:href="#linear-gradient-2"/><linearGradient id="linear-gradient-69" x1="7382.5" y1="34.87" x2="7382.5" y2="2.37" gradientTransform="translate(-7366.47)" xlink:href="#linear-gradient-2"/><linearGradient id="linear-gradient-70" x1="7382.5" y1="30.58" x2="7382.5" y2="-0.04" gradientTransform="translate(-7366.47)" xlink:href="#linear-gradient-2"/><linearGradient id="linear-gradient-71" x1="7384.51" y1="31.59" x2="7381.77" y2="31.05" gradientTransform="translate(-7366.47)" xlink:href="#linear-gradient-2"/><linearGradient id="linear-gradient-72" x1="16.04" y1="42.5" x2="16.04" y2="21.8" xlink:href="#linear-gradient-2"/><linearGradient id="linear-gradient-73" x1="7381.97" y1="34.87" x2="7381.97" y2="2.38" gradientTransform="translate(-7366.47)" xlink:href="#linear-gradient-2"/><linearGradient id="linear-gradient-74" x1="7381.97" y1="30.58" x2="7381.97" y2="-0.03" gradientTransform="translate(-7366.47)" xlink:href="#linear-gradient-2"/><linearGradient id="linear-gradient-75" x1="7381.97" y1="34.05" x2="7381.97" y2="21.11" gradientTransform="translate(-7366.47)" xlink:href="#linear-gradient-2"/><linearGradient id="linear-gradient-76" x1="7384.22" y1="33.06" x2="7381.48" y2="32.52" gradientTransform="translate(-7366.47)" xlink:href="#linear-gradient-2"/><linearGradient id="linear-gradient-77" x1="15.5" y1="42.5" x2="15.5" y2="21.81" xlink:href="#linear-gradient-2"/><linearGradient id="linear-gradient-78" x1="7380.59" y1="34.87" x2="7380.59" y2="2.37" gradientTransform="translate(-7366.47)" xlink:href="#linear-gradient-2"/><linearGradient id="linear-gradient-79" x1="14.12" y1="42.5" x2="14.12" y2="21.8" xlink:href="#linear-gradient-2"/><linearGradient id="linear-gradient-80" x1="7380.59" y1="25.43" x2="7380.59" y2="19.03" gradientTransform="translate(-7366.47)" xlink:href="#linear-gradient-2"/><linearGradient id="linear-gradient-81" x1="7381.58" y1="34.87" x2="7381.58" y2="2.37" gradientTransform="translate(-7366.47)" xlink:href="#linear-gradient-2"/><linearGradient id="linear-gradient-82" x1="15.11" y1="42.5" x2="15.11" y2="21.8" xlink:href="#linear-gradient-2"/><linearGradient id="linear-gradient-83" x1="7381.58" y1="25.43" x2="7381.58" y2="19.03" gradientTransform="translate(-7366.47)" xlink:href="#linear-gradient-2"/><linearGradient id="linear-gradient-84" x1="7379.3" y1="34.87" x2="7379.3" y2="2.37" gradientTransform="translate(-7366.47)" xlink:href="#linear-gradient-2"/><linearGradient id="linear-gradient-85" x1="7379.3" y1="25.43" x2="7379.3" y2="19.03" gradientTransform="translate(-7366.47)" xlink:href="#linear-gradient-2"/><linearGradient id="linear-gradient-86" x1="7379.69" y1="34.87" x2="7379.69" y2="2.37" gradientTransform="translate(-7366.47)" xlink:href="#linear-gradient-2"/><linearGradient id="linear-gradient-87" x1="13.22" y1="42.5" x2="13.22" y2="21.8" xlink:href="#linear-gradient-2"/><linearGradient id="linear-gradient-88" x1="7379.69" y1="25.43" x2="7379.69" y2="19.03" gradientTransform="translate(-7366.47)" xlink:href="#linear-gradient-2"/><linearGradient id="linear-gradient-89" x1="7382.48" y1="34.87" x2="7382.48" y2="2.37" gradientTransform="translate(-7366.47)" xlink:href="#linear-gradient-2"/><linearGradient id="linear-gradient-90" x1="16.01" y1="42.5" x2="16.01" y2="21.8" xlink:href="#linear-gradient-2"/><linearGradient id="linear-gradient-91" x1="7382.48" y1="25.43" x2="7382.48" y2="19.03" gradientTransform="translate(-7366.47)" xlink:href="#linear-gradient-2"/><linearGradient id="linear-gradient-92" x1="7380.08" y1="34.87" x2="7380.08" y2="2.37" gradientTransform="translate(-7366.47)" xlink:href="#linear-gradient-2"/><linearGradient id="linear-gradient-93" x1="7380.08" y1="24.96" x2="7380.08" y2="20.79" gradientTransform="translate(-7366.47)" xlink:href="#linear-gradient-2"/><linearGradient id="linear-gradient-94" x1="7382.15" y1="34.87" x2="7382.15" y2="2.37" gradientTransform="translate(-7366.47)" xlink:href="#linear-gradient-2"/><linearGradient id="linear-gradient-95" x1="7382.15" y1="24.96" x2="7382.15" y2="20.79" gradientTransform="translate(-7366.47)" xlink:href="#linear-gradient-2"/><linearGradient id="linear-gradient-96" x1="7381.15" y1="34.87" x2="7381.15" y2="2.37" gradientTransform="translate(-7366.47)" xlink:href="#linear-gradient-2"/><linearGradient id="linear-gradient-97" x1="14.68" y1="40.75" x2="14.68" y2="18.5" xlink:href="#linear-gradient-2"/><linearGradient id="linear-gradient-98" x1="7381.15" y1="24.96" x2="7381.15" y2="20.79" gradientTransform="translate(-7366.47)" xlink:href="#linear-gradient-2"/><linearGradient id="linear-gradient-99" x1="7418.82" y1="34.88" x2="7418.82" y2="2.36" gradientTransform="translate(-7366.47)" xlink:href="#linear-gradient-2"/><linearGradient id="linear-gradient-100" x1="-162.36" y1="29.19" x2="-162.36" y2="16.05" gradientTransform="matrix(-1, 0, 0, 1, -110.01, 0)" xlink:href="#linear-gradient-2"/><linearGradient id="linear-gradient-101" x1="7420.72" y1="34.87" x2="7420.72" y2="2.37" gradientTransform="translate(-7366.47)" xlink:href="#linear-gradient-2"/><linearGradient id="linear-gradient-102" x1="7420.79" y1="24.81" x2="7386.44" y2="-25.81" gradientTransform="translate(-7366.47)" xlink:href="#linear-gradient-2"/><linearGradient id="linear-gradient-103" x1="-164.26" y1="29.19" x2="-164.26" y2="16.05" gradientTransform="matrix(-1, 0, 0, 1, -110.01, 0)" xlink:href="#linear-gradient-2"/><linearGradient id="linear-gradient-104" x1="7419" y1="34.88" x2="7419" y2="2.37" gradientTransform="translate(-7366.47)" xlink:href="#linear-gradient-2"/><linearGradient id="linear-gradient-105" x1="7419.88" y1="25.42" x2="7385.53" y2="-25.2" gradientTransform="translate(-7366.47)" xlink:href="#linear-gradient-2"/><linearGradient id="linear-gradient-106" x1="-162.54" y1="29.19" x2="-162.54" y2="16.05" gradientTransform="matrix(-1, 0, 0, 1, -110.01, 0)" xlink:href="#linear-gradient-2"/><linearGradient id="linear-gradient-107" x1="7419.26" y1="25.37" x2="7419.26" y2="23.77" gradientTransform="translate(-7366.47)" xlink:href="#linear-gradient-2"/><linearGradient id="linear-gradient-108" x1="7419.89" y1="25.5" x2="7417.86" y2="22.51" gradientTransform="translate(-7366.47)" xlink:href="#linear-gradient-2"/><linearGradient id="linear-gradient-109" x1="-162.76" y1="24.58" x2="-165.91" y2="23.5" gradientTransform="matrix(-1, 0, 0, 1, -110.01, 0)" xlink:href="#linear-gradient-2"/><linearGradient id="linear-gradient-110" x1="7420.82" y1="34.88" x2="7420.82" y2="2.37" gradientTransform="translate(-7366.47)" xlink:href="#linear-gradient-2"/><linearGradient id="linear-gradient-111" x1="7421.2" y1="24.53" x2="7386.84" y2="-26.1" gradientTransform="translate(-7366.47)" xlink:href="#linear-gradient-2"/><linearGradient id="linear-gradient-112" x1="-162.8" y1="24.69" x2="-167.59" y2="23.06" gradientTransform="matrix(-1, 0, 0, 1, -110.01, 0)" xlink:href="#linear-gradient-2"/><linearGradient id="linear-gradient-113" x1="7419.98" y1="34.87" x2="7419.98" y2="2.37" gradientTransform="translate(-7366.47)" xlink:href="#linear-gradient-2"/><linearGradient id="linear-gradient-114" x1="7420.36" y1="25.1" x2="7386.01" y2="-25.52" gradientTransform="translate(-7366.47)" xlink:href="#linear-gradient-2"/><linearGradient id="linear-gradient-115" x1="-163.52" y1="29.19" x2="-163.52" y2="16.05" gradientTransform="matrix(-1, 0, 0, 1, -110.01, 0)" xlink:href="#linear-gradient-2"/><linearGradient id="linear-gradient-116" x1="-162.85" y1="24.84" x2="-167.65" y2="23.2" gradientTransform="matrix(-1, 0, 0, 1, -110.01, 0)" xlink:href="#linear-gradient-2"/><linearGradient id="linear-gradient-117" x1="7413.42" y1="34.87" x2="7413.42" y2="2.37" gradientTransform="translate(-7366.47)" xlink:href="#linear-gradient-2"/><linearGradient id="linear-gradient-118" x1="-156.96" y1="24.51" x2="-156.96" y2="11.38" gradientTransform="matrix(-1, 0, 0, 1, -110.01, 0)" xlink:href="#linear-gradient-2"/><linearGradient id="linear-gradient-119" x1="7411.29" y1="34.87" x2="7411.29" y2="2.37" gradientTransform="translate(-7366.47)" xlink:href="#linear-gradient-2"/><linearGradient id="linear-gradient-120" x1="-154.83" y1="24.51" x2="-154.83" y2="11.38" gradientTransform="matrix(-1, 0, 0, 1, -110.01, 0)" xlink:href="#linear-gradient-2"/><linearGradient id="linear-gradient-121" x1="7412.44" y1="34.95" x2="7412.44" y2="2.27" gradientTransform="translate(-7366.47)" xlink:href="#linear-gradient-2"/><linearGradient id="linear-gradient-122" x1="-155.18" y1="20.48" x2="-159.96" y2="18.85" gradientTransform="matrix(-1, 0, 0, 1, -110.01, 0)" xlink:href="#linear-gradient-2"/><linearGradient id="linear-gradient-123" x1="7413.04" y1="34.88" x2="7413.04" y2="2.37" gradientTransform="translate(-7366.47)" xlink:href="#linear-gradient-2"/><linearGradient id="linear-gradient-124" x1="-155.02" y1="20.01" x2="-159.82" y2="18.38" gradientTransform="matrix(-1, 0, 0, 1, -110.01, 0)" xlink:href="#linear-gradient-2"/><linearGradient id="linear-gradient-125" x1="7412.2" y1="34.88" x2="7412.2" y2="2.37" gradientTransform="translate(-7366.47)" xlink:href="#linear-gradient-2"/><linearGradient id="linear-gradient-126" x1="-155.74" y1="24.51" x2="-155.74" y2="11.37" gradientTransform="matrix(-1, 0, 0, 1, -110.01, 0)" xlink:href="#linear-gradient-2"/><linearGradient id="linear-gradient-127" x1="-155.07" y1="20.16" x2="-159.87" y2="18.53" gradientTransform="matrix(-1, 0, 0, 1, -110.01, 0)" xlink:href="#linear-gradient-2"/><linearGradient id="linear-gradient-128" x1="15.41" y1="53.6" x2="15.41" y2="45.4" xlink:href="#linear-gradient-2"/><linearGradient id="linear-gradient-129" x1="39.73" y1="65.74" x2="38.98" y2="52.65" gradientUnits="userSpaceOnUse"><stop offset="0" stop-color="#3d6fd3"/><stop offset="0.49" stop-color="#153272"/><stop offset="0.97" stop-color="#1b1c37"/></linearGradient><linearGradient id="linear-gradient-130" x1="38.79" y1="57.27" x2="38.88" y2="29.36" gradientUnits="userSpaceOnUse"><stop offset="0" stop-color="#3d6fd3"/><stop offset="0.54" stop-color="#2d3a78"/><stop offset="1" stop-color="#27195d"/></linearGradient><linearGradient id="linear-gradient-131" x1="45.88" y1="58.05" x2="39.13" y2="35.55" xlink:href="#linear-gradient-130"/><linearGradient id="linear-gradient-132" x1="55.24" y1="18.38" x2="49.78" y2="23.96" gradientUnits="userSpaceOnUse"><stop offset="0" stop-color="#f9d5c5"/><stop offset="1" stop-color="#f78e6b"/></linearGradient><linearGradient id="linear-gradient-133" x1="57.33" y1="30.16" x2="37.83" y2="16.72" gradientUnits="userSpaceOnUse"><stop offset="0.01" stop-color="#58717c"/><stop offset="0.53" stop-color="#435162"/><stop offset="1" stop-color="#2a384c"/></linearGradient><linearGradient id="linear-gradient-134" x1="32.11" y1="56.7" x2="35.98" y2="25.82" xlink:href="#linear-gradient-130"/><linearGradient id="linear-gradient-135" x1="44.93" y1="63.08" x2="44.93" y2="55.4" xlink:href="#linear-gradient-2"/><linearGradient id="linear-gradient-136" x1="44.65" y1="60.34" x2="44.65" y2="53.65" xlink:href="#linear-gradient-2"/><linearGradient id="linear-gradient-137" x1="51.4" y1="63.08" x2="51.4" y2="55.4" xlink:href="#linear-gradient-2"/><linearGradient id="linear-gradient-138" x1="51.11" y1="60.34" x2="51.11" y2="53.65" xlink:href="#linear-gradient-2"/><linearGradient id="linear-gradient-139" x1="40.78" y1="62.67" x2="40.78" y2="49.06" xlink:href="#linear-gradient-2"/><linearGradient id="linear-gradient-140" x1="40.49" y1="54.72" x2="40.49" y2="50.68" xlink:href="#linear-gradient-2"/><linearGradient id="linear-gradient-141" x1="47.25" y1="62.67" x2="47.25" y2="49.06" xlink:href="#linear-gradient-2"/><linearGradient id="linear-gradient-142" x1="46.96" y1="54.72" x2="46.96" y2="50.68" xlink:href="#linear-gradient-2"/><linearGradient id="linear-gradient-143" x1="49.19" y1="63.58" x2="49.19" y2="35.74" gradientUnits="userSpaceOnUse"><stop offset="0.02" stop-color="#edd7ad"/><stop offset="0.52" stop-color="#ff9661"/><stop offset="1" stop-color="#e74a69"/></linearGradient><linearGradient id="linear-gradient-144" x1="43.89" y1="71.25" x2="43.89" y2="20.44" xlink:href="#linear-gradient-143"/><linearGradient id="linear-gradient-145" x1="48.21" y1="35.69" x2="48.21" y2="31.5" xlink:href="#linear-gradient-143"/><linearGradient id="linear-gradient-146" x1="43.89" y1="42.09" x2="43.89" y2="36.55" xlink:href="#linear-gradient-2"/><linearGradient id="linear-gradient-147" x1="47.09" y1="42.09" x2="47.09" y2="36.55" xlink:href="#linear-gradient-2"/><linearGradient id="linear-gradient-148" x1="42.17" y1="61.87" x2="42.17" y2="22.23" xlink:href="#linear-gradient-143"/><linearGradient id="linear-gradient-149" x1="46.6" y1="63.58" x2="46.6" y2="35.74" xlink:href="#linear-gradient-143"/><linearGradient id="linear-gradient-150" x1="44.1" y1="55.19" x2="30.6" y2="40.52" gradientUnits="userSpaceOnUse"><stop offset="0.02" stop-color="#fff" stop-opacity="0"/><stop offset="0.69"/></linearGradient><linearGradient id="linear-gradient-151" x1="42.23" y1="52.58" x2="33.89" y2="32.83" xlink:href="#linear-gradient-130"/><linearGradient id="linear-gradient-152" x1="52.2" y1="35.89" x2="29.58" y2="18.89" xlink:href="#linear-gradient-133"/><linearGradient id="linear-gradient-153" x1="32.31" y1="25.15" x2="36.24" y2="15.21" xlink:href="#linear-gradient-133"/><linearGradient id="linear-gradient-154" x1="19.12" y1="48.17" x2="37.7" y2="18.25" xlink:href="#linear-gradient-133"/><linearGradient id="linear-gradient-155" x1="34.01" y1="16.66" x2="35.3" y2="15.12" xlink:href="#linear-gradient-132"/><linearGradient id="linear-gradient-156" x1="58.5" y1="16.48" x2="28.5" y2="6.73" xlink:href="#linear-gradient-132"/><linearGradient id="linear-gradient-157" x1="36.91" y1="21.22" x2="37.95" y2="9.72" xlink:href="#linear-gradient-132"/><linearGradient id="linear-gradient-158" x1="29.79" y1="-0.63" x2="37.16" y2="13.87" xlink:href="#linear-gradient-129"/><linearGradient id="linear-gradient-159" x1="39.55" y1="3.39" x2="37.92" y2="8.34" xlink:href="#linear-gradient-129"/><linearGradient id="linear-gradient-160" x1="32.27" y1="10.54" x2="36.65" y2="10" xlink:href="#linear-gradient-132"/><linearGradient id="linear-gradient-161" x1="32.21" y1="10.26" x2="37" y2="9.94" xlink:href="#linear-gradient-132"/><linearGradient id="linear-gradient-162" x1="45.64" y1="19.5" x2="38.17" y2="12.84" xlink:href="#linear-gradient-129"/><linearGradient id="linear-gradient-163" x1="33.07" y1="66.12" x2="32.32" y2="53.03" xlink:href="#linear-gradient-129"/><linearGradient id="linear-gradient-164" x1="48.37" y1="36.4" x2="45.8" y2="24.77" xlink:href="#linear-gradient-132"/><linearGradient id="linear-gradient-165" x1="54.83" y1="33.8" x2="35.33" y2="20.36" xlink:href="#linear-gradient-133"/><linearGradient id="linear-gradient-166" x1="19.04" y1="-17.62" x2="27.03" y2="11.07" gradientTransform="translate(-7.31 39.81) rotate(24.43)" gradientUnits="userSpaceOnUse"><stop offset="0" stop-color="#7ff1a4"/><stop offset="0.52" stop-color="#2fbca4"/><stop offset="1" stop-color="#2f7da4"/></linearGradient><linearGradient id="linear-gradient-167" x1="18.43" y1="-17.12" x2="28.56" y2="2.83" xlink:href="#linear-gradient-166"/><linearGradient id="linear-gradient-168" x1="-177.48" y1="-16.33" x2="-188.9" y2="-1.67" gradientTransform="matrix(-0.91, -0.41, -0.41, 0.91, -154.84, -27.21)" xlink:href="#linear-gradient-166"/><linearGradient id="linear-gradient-169" x1="-180.72" y1="41.16" x2="-176.14" y2="57.59" gradientTransform="matrix(-1, 0, 0, 1, -162.04, 0)" xlink:href="#linear-gradient-166"/><linearGradient id="linear-gradient-170" x1="-181.07" y1="41.45" x2="-175.26" y2="52.87" gradientTransform="matrix(-1, 0, 0, 1, -162.04, 0)" xlink:href="#linear-gradient-166"/><linearGradient id="linear-gradient-171" x1="20.74" y1="41.9" x2="14.2" y2="50.29" gradientTransform="matrix(1, 0, 0, 1, 0, 0)" xlink:href="#linear-gradient-166"/><linearGradient id="linear-gradient-172" x1="51.09" y1="26.24" x2="56.72" y2="46.44" gradientTransform="matrix(0.99, 0.1, -0.1, 0.99, -35.88, 7.44)" xlink:href="#linear-gradient-166"/><linearGradient id="linear-gradient-173" x1="50.66" y1="26.58" x2="57.8" y2="40.64" gradientTransform="matrix(0.99, 0.1, -0.1, 0.99, -35.88, 7.44)" xlink:href="#linear-gradient-166"/><linearGradient id="linear-gradient-174" x1="-210.6" y1="27.12" x2="-218.65" y2="37.45" gradientTransform="matrix(-0.99, -0.1, -0.1, 0.99, -197.03, -9.47)" xlink:href="#linear-gradient-166"/></defs><title>travel</title><g class="cls-1"><g id="Layer_1" data-name="Layer 1"><circle class="cls-2" cx="32" cy="32" r="28"/><path class="cls-3" d="M12,51.61a28,28,0,0,0,40,0Z"/><path class="cls-4" d="M56.68,36.78H26.29a1.54,1.54,0,0,1-1.54-1.54v-18a2,2,0,0,1,2-2H54.41a28,28,0,0,0-44.82,0h9.58a2.13,2.13,0,0,1,2.13,2.13V36.79H4.42a27.91,27.91,0,0,0,6.84,14,.77.77,0,0,1,.47-.16h7a.77.77,0,0,1,.76.66A11.34,11.34,0,0,1,19.57,53a9,9,0,0,1-.8,3.23.77.77,0,0,1-.26.33A28,28,0,0,0,59.59,36.78Z"/><path class="cls-5" d="M24.75,17.21v8.33a7.62,7.62,0,0,1,2.86,1.06,7.67,7.67,0,0,1,13.2.46,7.7,7.7,0,0,1,4,.09,7.66,7.66,0,0,1,6.38-3.41c.15,0,.29,0,.43,0h.68a.9.9,0,0,1,.38.08l.35.15c.19,0,.38.08.56.14a7.66,7.66,0,0,1,3.23-5,28,28,0,0,0-2.43-3.88H26.75A2,2,0,0,0,24.75,17.21ZM43.88,19.1h.67a.9.9,0,0,1,.38.08l.88.39L47,19a.35.35,0,0,1,.25,0,.08.08,0,0,1,0,.13l-.85.69.82.36a.22.22,0,0,0,.19,0l.19-.1a.19.19,0,0,1,.17,0l.06,0a.08.08,0,0,1,0,.13l-.4.39a.21.21,0,0,1-.22,0l-.84-.3L46,20.21h0l-.89-.3-1.25-.45a.18.18,0,0,1,.06-.36ZM35.48,19h0a.3.3,0,0,0,.25-.13,1.86,1.86,0,0,1,2.62-.5.65.65,0,0,0,.45.11H39a1.42,1.42,0,0,1,1.42,1.42H34.59A.89.89,0,0,1,35.48,19Zm-5.79,1.87h0a.3.3,0,0,0,.25-.13,1.86,1.86,0,0,1,2.62-.5.65.65,0,0,0,.45.11h.17a1.42,1.42,0,0,1,1.42,1.42H28.8A.89.89,0,0,1,29.69,20.85Z"/><path class="cls-6" d="M53.62,24.13c-.18-.06-.37-.09-.56-.14l.53.23,1.23-.53a.35.35,0,0,1,.25,0,.08.08,0,0,1,0,.13l-.85.69.82.36a.22.22,0,0,0,.19,0l.19-.1a.19.19,0,0,1,.17,0l.06,0a.08.08,0,0,1,0,.13l-.4.39a.21.21,0,0,1-.22,0l-.84-.3-1.39-.47-.05,0h0l-1.19-.43a.18.18,0,0,1,.05-.35c-.15,0-.29,0-.43,0a7.66,7.66,0,0,0-6.38,3.41,7.7,7.7,0,0,0-4-.09,7.67,7.67,0,0,0-13.2-.46,7.62,7.62,0,0,0-2.86-1.06V28.1h1.72V31.4h1.21v.66h6.65v1.25H37V29.63a.91.91,0,0,1,.91-.91,3.57,3.57,0,0,1,3.57,3.57v1.87H46.3a2.64,2.64,0,0,1,.23-1.09A4.62,4.62,0,0,1,49,30.68l.55-.23.31-.14a7.72,7.72,0,0,0,1-.53l1.1-.72h0l.61-.4a5,5,0,0,1,2.75-.82h4.4a27.79,27.79,0,0,0-2.85-8.76A7.66,7.66,0,0,0,53.62,24.13Z"/><path class="cls-7" d="M53.62,24.13c-.18-.06-.37-.09-.56-.14l.53.23,1.23-.53a.35.35,0,0,1,.25,0,.08.08,0,0,1,0,.13l-.85.69.82.36a.22.22,0,0,0,.19,0l.19-.1a.19.19,0,0,1,.17,0l.06,0a.08.08,0,0,1,0,.13l-.4.39a.21.21,0,0,1-.22,0l-.84-.3-1.39-.47-.05,0h0l-1.19-.43a.18.18,0,0,1,.05-.35c-.15,0-.29,0-.43,0a7.66,7.66,0,0,0-6.38,3.41,7.7,7.7,0,0,0-4-.09,7.67,7.67,0,0,0-13.2-.46,7.62,7.62,0,0,0-2.86-1.06V28.1h1.72V31.4h1.21v.66h6.65v1.25H37V29.63a.91.91,0,0,1,.91-.91,3.57,3.57,0,0,1,3.57,3.57v1.87H46.3a2.64,2.64,0,0,1,.23-1.09A4.62,4.62,0,0,1,49,30.68l.55-.23.31-.14a7.72,7.72,0,0,0,1-.53l1.1-.72h0l.61-.4a5,5,0,0,1,2.75-.82h4.4a27.79,27.79,0,0,0-2.85-8.76A7.66,7.66,0,0,0,53.62,24.13Z"/><path class="cls-8" d="M24.75,35v.28a1.54,1.54,0,0,0,1.54,1.54h.28A1.82,1.82,0,0,1,24.75,35Z"/><path class="cls-9" d="M24.75,34.87V35a1.82,1.82,0,0,0,1.82,1.82h.09A1.91,1.91,0,0,1,24.75,34.87Z"/><path class="cls-10" d="M24.75,34.87V35a1.82,1.82,0,0,0,1.82,1.82h.09A1.91,1.91,0,0,1,24.75,34.87Z"/><path class="cls-11" d="M46.54,35.25a2.64,2.64,0,0,1-.24-1.09H41.44V32.29a3.57,3.57,0,0,0-3.57-3.57.91.91,0,0,0-.91.91v3.69H34.34V32.06H27.68V31.4H26.48V28.1H24.75v6.77a1.91,1.91,0,0,0,1.91,1.91H48.93A2.64,2.64,0,0,1,46.54,35.25Z"/><path class="cls-12" d="M46.54,35.25a2.64,2.64,0,0,1-.24-1.09H41.44V32.29a3.57,3.57,0,0,0-3.57-3.57.91.91,0,0,0-.91.91v3.69H34.34V32.06H27.68V31.4H26.48V28.1H24.75v6.77a1.91,1.91,0,0,0,1.91,1.91H48.93A2.64,2.64,0,0,1,46.54,35.25Z"/><path class="cls-13" d="M46.54,35.25a2.64,2.64,0,0,1-.24-1.09H41.44V32.29a3.57,3.57,0,0,0-3.57-3.57.91.91,0,0,0-.91.91v3.69H34.34V32.06H27.68V31.4H26.48V28.1H24.75v6.77a1.91,1.91,0,0,0,1.91,1.91H48.93A2.64,2.64,0,0,1,46.54,35.25Z"/><path class="cls-14" d="M58.35,34.16h1.56q0-.58.07-1.18a7.62,7.62,0,0,1-1.2-.29A7.56,7.56,0,0,1,58.35,34.16Z"/><path class="cls-15" d="M58.35,34.16h1.56q0-.58.07-1.18a7.62,7.62,0,0,1-1.2-.29A7.56,7.56,0,0,1,58.35,34.16Z"/><path class="cls-16" d="M52.54,28.66l-.61.4h1.68a.71.71,0,0,1,0,1.41h-3.5a.7.7,0,0,1-.37-.1l.1-.05-.31.14-.55.23a4.62,4.62,0,0,0-2.46,2.38,2.64,2.64,0,0,0-.23,1.09H58.35a7.56,7.56,0,0,0,.42-1.46A7.62,7.62,0,0,0,60,33c0-.33,0-.65,0-1a28.21,28.21,0,0,0-.31-4.15h-4.4A5,5,0,0,0,52.54,28.66Z"/><path class="cls-17" d="M52.54,28.66l-.61.4h1.68a.71.71,0,0,1,0,1.41h-3.5a.7.7,0,0,1-.37-.1l.1-.05-.31.14-.55.23a4.62,4.62,0,0,0-2.46,2.38,2.64,2.64,0,0,0-.23,1.09H58.35a7.56,7.56,0,0,0,.42-1.46A7.62,7.62,0,0,0,60,33c0-.33,0-.65,0-1a28.21,28.21,0,0,0-.31-4.15h-4.4A5,5,0,0,0,52.54,28.66Z"/><path class="cls-18" d="M52.54,28.66l-.61.4h1.68a.71.71,0,0,1,0,1.41h-3.5a.7.7,0,0,1-.37-.1l.1-.05-.31.14-.55.23a4.62,4.62,0,0,0-2.46,2.38,2.64,2.64,0,0,0-.23,1.09H58.35a7.56,7.56,0,0,0,.42-1.46A7.62,7.62,0,0,0,60,33c0-.33,0-.65,0-1a28.21,28.21,0,0,0-.31-4.15h-4.4A5,5,0,0,0,52.54,28.66Z"/><path class="cls-19" d="M56.68,36.78h2.9q.22-1.29.32-2.62H58.35A7.67,7.67,0,0,1,56.68,36.78Z"/><path class="cls-20" d="M56.68,36.78h2.9q.22-1.29.32-2.62H58.35A7.67,7.67,0,0,1,56.68,36.78Z"/><path class="cls-21" d="M56.68,36.78h2.9q.22-1.29.32-2.62H58.35A7.67,7.67,0,0,1,56.68,36.78Z"/><path class="cls-22" d="M46.3,34.16a2.64,2.64,0,0,0,2.64,2.62h7.75a7.67,7.67,0,0,0,1.67-2.62Z"/><path class="cls-23" d="M46.3,34.16a2.64,2.64,0,0,0,2.64,2.62h7.75a7.67,7.67,0,0,0,1.67-2.62Z"/><path class="cls-24" d="M46.3,34.16a2.64,2.64,0,0,0,2.64,2.62h7.75a7.67,7.67,0,0,0,1.67-2.62Z"/><path class="cls-25" d="M46.3,34.16a2.64,2.64,0,0,0,2.64,2.62h7.75a7.67,7.67,0,0,0,1.67-2.62Z"/><polygon class="cls-26" points="51.93 29.06 50.83 29.78 51.93 29.06 51.93 29.06"/><polygon class="cls-27" points="51.93 29.06 50.83 29.78 51.93 29.06 51.93 29.06"/><polygon class="cls-28" points="51.93 29.06 50.83 29.78 51.93 29.06 51.93 29.06"/><path class="cls-29" d="M49.85,30.31a7.7,7.7,0,0,0,1-.53A7.72,7.72,0,0,1,49.85,30.31Z"/><path class="cls-30" d="M49.85,30.31a7.7,7.7,0,0,0,1-.53A7.72,7.72,0,0,1,49.85,30.31Z"/><path class="cls-31" d="M49.85,30.31a7.7,7.7,0,0,0,1-.53A7.72,7.72,0,0,1,49.85,30.31Z"/><path class="cls-32" d="M50.12,30.47h3.5a.71.71,0,0,0,0-1.41H51.93l-1.1.72a7.7,7.7,0,0,1-1,.53l-.1.05A.7.7,0,0,0,50.12,30.47Z"/><path class="cls-33" d="M50.12,30.47h3.5a.71.71,0,0,0,0-1.41H51.93l-1.1.72a7.7,7.7,0,0,1-1,.53l-.1.05A.7.7,0,0,0,50.12,30.47Z"/><path class="cls-34" d="M50.12,30.47h3.5a.71.71,0,0,0,0-1.41H51.93l-1.1.72a7.7,7.7,0,0,1-1,.53l-.1.05A.7.7,0,0,0,50.12,30.47Z"/><path class="cls-35" d="M50.12,30.47h3.5a.71.71,0,0,0,0-1.41H51.93l-1.1.72a7.7,7.7,0,0,1-1,.53l-.1.05A.7.7,0,0,0,50.12,30.47Z"/><path class="cls-36" d="M6.21,28.48h.38a7.66,7.66,0,0,1,6.62-4.41.64.64,0,0,1-.06-.12L13,23.46h0l-.37-1.29h0a.08.08,0,0,1-.08-.08v-.16a.33.33,0,0,1,.33-.33h1.41l.34-3.94a0,0,0,0,1,.09,0l.34,3.94h1.29a.33.33,0,0,1,.33.33v.16a.08.08,0,0,1-.08.08h0L16.07,24a.64.64,0,0,1-.37.41,7.64,7.64,0,0,1,2.71,1.43,7.66,7.66,0,0,1,2.3-.35l.57,0V17.35a2.13,2.13,0,0,0-2.13-2.13H9.58a28,28,0,0,0-3.06,5.17.48.48,0,0,1,.26.42H6.33a27.78,27.78,0,0,0-1.78,5.66A7.69,7.69,0,0,1,6.21,28.48Zm1-7h.08a.31.31,0,0,0,.22-.05.89.89,0,0,1,1.26.24.14.14,0,0,0,.12.06h0a.43.43,0,0,1,.43.43H6.55A.68.68,0,0,1,7.24,21.49Z"/><path class="cls-37" d="M21.27,36.78h0V34.66c0,.07,0,.13,0,.2Z"/><path class="cls-38" d="M5.35,32.17h0A1.49,1.49,0,0,1,7,31.94l1.71.85a1.13,1.13,0,0,0,1.16-.1l1.67-1.21a1.15,1.15,0,0,1,1.13-.12l.59.26.69-7a.2.2,0,0,0-.2-.22.63.63,0,0,1-.56-.34,7.66,7.66,0,0,0-6.62,4.41H6.21a7.69,7.69,0,0,0-1.67-2A28.12,28.12,0,0,0,4,32c0,.07,0,.13,0,.2l.16.09A1,1,0,0,0,5.35,32.17Z"/><path class="cls-39" d="M5.35,32.17h0A1.49,1.49,0,0,1,7,31.94l1.71.85a1.13,1.13,0,0,0,1.16-.1l1.67-1.21a1.15,1.15,0,0,1,1.13-.12l.59.26.69-7a.2.2,0,0,0-.2-.22.63.63,0,0,1-.56-.34,7.66,7.66,0,0,0-6.62,4.41H6.21a7.69,7.69,0,0,0-1.67-2A28.12,28.12,0,0,0,4,32c0,.07,0,.13,0,.2l.16.09A1,1,0,0,0,5.35,32.17Z"/><path class="cls-40" d="M18.42,25.81a7.64,7.64,0,0,0-2.71-1.43.63.63,0,0,1-.25.05.2.2,0,0,0-.2.22l.51,5.14h1.91V32H19v.68H20V28.1h1.29v6.76c0-.07,0-.13,0-.2V25.48l-.57,0A7.66,7.66,0,0,0,18.42,25.81Z"/><path class="cls-41" d="M18.42,25.81a7.64,7.64,0,0,0-2.71-1.43.63.63,0,0,1-.25.05.2.2,0,0,0-.2.22l.51,5.14h1.91V32H19v.68H20V28.1h1.29v6.76c0-.07,0-.13,0-.2V25.48l-.57,0A7.66,7.66,0,0,0,18.42,25.81Z"/><path class="cls-42" d="M19.23,36.78h0Z"/><path class="cls-43" d="M19.23,36.78h0Z"/><path class="cls-44" d="M14.72,17.67a0,0,0,0,0-.09,0l-.34,3.94h.78Z"/><path class="cls-45" d="M14.72,17.67a0,0,0,0,0-.09,0l-.34,3.94h.78Z"/><path class="cls-46" d="M10.41,33.6a2.69,2.69,0,0,1,1.9-.79h.86l.12-1.19-.59-.26a1.15,1.15,0,0,0-1.13.12L9.9,32.7a1.13,1.13,0,0,1-1.16.1L7,31.94a1.49,1.49,0,0,0-1.66.23h0a1,1,0,0,1-1.19.12L4,32.2c0,.67,0,1.34.09,2H9.8Z"/><path class="cls-47" d="M10.41,33.6a2.69,2.69,0,0,1,1.9-.79h.86l.12-1.19-.59-.26a1.15,1.15,0,0,0-1.13.12L9.9,32.7a1.13,1.13,0,0,1-1.16.1L7,31.94a1.49,1.49,0,0,0-1.66.23h0a1,1,0,0,1-1.19.12L4,32.2c0,.67,0,1.34.09,2H9.8Z"/><path class="cls-48" d="M10.41,33.6a2.69,2.69,0,0,1,1.9-.79h.86l.12-1.19-.59-.26a1.15,1.15,0,0,0-1.13.12L9.9,32.7a1.13,1.13,0,0,1-1.16.1L7,31.94a1.49,1.49,0,0,0-1.66.23h0a1,1,0,0,1-1.19.12L4,32.2c0,.67,0,1.34.09,2H9.8Z"/><path class="cls-49" d="M6.78,20.81a.48.48,0,0,0-.26-.42l-.19.42h.45Z"/><path class="cls-50" d="M6.78,20.81a.48.48,0,0,0-.26-.42l-.19.42h.45Z"/><path class="cls-51" d="M7.92,22.17H9.34a.43.43,0,0,0-.43-.43h0a.14.14,0,0,1-.12-.06.89.89,0,0,0-1.26-.24.31.31,0,0,1-.22.05H7.24a.68.68,0,0,0-.68.68H7.92Z"/><path class="cls-52" d="M7.92,22.17H9.34a.43.43,0,0,0-.43-.43h0a.14.14,0,0,1-.12-.06.89.89,0,0,0-1.26-.24.31.31,0,0,1-.22.05H7.24a.68.68,0,0,0-.68.68H7.92Z"/><path class="cls-53" d="M30.58,21.74h4a1.42,1.42,0,0,0-1.42-1.42H33a.65.65,0,0,1-.45-.11,1.86,1.86,0,0,0-2.62.5.3.3,0,0,1-.25.13h0a.89.89,0,0,0-.89.89h1.78Z"/><path class="cls-54" d="M30.58,21.74h4a1.42,1.42,0,0,0-1.42-1.42H33a.65.65,0,0,1-.45-.11,1.86,1.86,0,0,0-2.62.5.3.3,0,0,1-.25.13h0a.89.89,0,0,0-.89.89h1.78Z"/><path class="cls-55" d="M36.37,19.87h4A1.42,1.42,0,0,0,39,18.44h-.17a.65.65,0,0,1-.45-.11,1.86,1.86,0,0,0-2.62.5.3.3,0,0,1-.25.13h0a.89.89,0,0,0-.89.89h1.78Z"/><path class="cls-56" d="M36.37,19.87h4A1.42,1.42,0,0,0,39,18.44h-.17a.65.65,0,0,1-.45-.11,1.86,1.86,0,0,0-2.62.5.3.3,0,0,1-.25.13h0a.89.89,0,0,0-.89.89h1.78Z"/><path class="cls-57" d="M15.7,24.37a.64.64,0,0,0,.37-.41l.51-1.8-.37,1.29h-.79l.24-1.29h-.12l-.24,1.29h-.63V22.17h-.12v1.29h-.63l-.24-1.29h-.12l.24,1.29H13l.15.51a.64.64,0,0,0,.06.12l.33,0A7.65,7.65,0,0,1,15.7,24.37Z"/><path class="cls-58" d="M15.7,24.37a.64.64,0,0,0,.37-.41l.51-1.8-.37,1.29h-.79l.24-1.29h-.12l-.24,1.29h-.63V22.17h-.12v1.29h-.63l-.24-1.29h-.12l.24,1.29H13l.15.51a.64.64,0,0,0,.06.12l.33,0A7.65,7.65,0,0,1,15.7,24.37Z"/><path class="cls-59" d="M21.27,34.86a2.12,2.12,0,0,1-2,1.92h2Z"/><path class="cls-60" d="M21.27,34.86a2.12,2.12,0,0,1-2,1.92h2Z"/><path class="cls-61" d="M15.76,29.8l-.51-5.14a.2.2,0,0,1,.2-.22.63.63,0,0,0,.25-.05,7.65,7.65,0,0,0-2.16-.31l-.33,0a.63.63,0,0,0,.56.34.2.2,0,0,1,.2.22l-.69,7,2,.87V29.8Z"/><path class="cls-62" d="M15.76,29.8l-.51-5.14a.2.2,0,0,1,.2-.22.63.63,0,0,0,.25-.05,7.65,7.65,0,0,0-2.16-.31l-.33,0a.63.63,0,0,0,.56.34.2.2,0,0,1,.2.22l-.69,7,2,.87V29.8Z"/><path class="cls-63" d="M15.76,29.8l-.51-5.14a.2.2,0,0,1,.2-.22.63.63,0,0,0,.25-.05,7.65,7.65,0,0,0-2.16-.31l-.33,0a.63.63,0,0,0,.56.34.2.2,0,0,1,.2.22l-.69,7,2,.87V29.8Z"/><path class="cls-64" d="M21.27,34.86V28.1H20v4.58H19V32H17.68V29.8h-.91l-.68,2.87H15.7l2,.87-.43,3.25h1.94A2.12,2.12,0,0,0,21.27,34.86Z"/><path class="cls-65" d="M21.27,34.86V28.1H20v4.58H19V32H17.68V29.8h-.91l-.68,2.87H15.7l2,.87-.43,3.25h1.94A2.12,2.12,0,0,0,21.27,34.86Z"/><path class="cls-66" d="M21.27,34.86V28.1H20v4.58H19V32H17.68V29.8h-.91l-.68,2.87H15.7l2,.87-.43,3.25h1.94A2.12,2.12,0,0,0,21.27,34.86Z"/><path class="cls-67" d="M17.71,33.53l-2-.87h-.4V32.5l-2-.87-.12,1.19h-.86a2.69,2.69,0,0,0-1.9.79l-.6.6H4.09q.1,1.31.32,2.58H17.28Z"/><path class="cls-68" d="M17.71,33.53l-2-.87h-.4V32.5l-2-.87-.12,1.19h-.86a2.69,2.69,0,0,0-1.9.79l-.6.6H4.09q.1,1.31.32,2.58H17.28Z"/><path class="cls-69" d="M17.71,33.53l-2-.87h-.4V32.5l-2-.87-.12,1.19h-.86a2.69,2.69,0,0,0-1.9.79l-.6.6H4.09q.1,1.31.32,2.58H17.28Z"/><path class="cls-70" d="M17.71,33.53l-2-.87h-.4V32.5l-2-.87-.12,1.19h-.86a2.69,2.69,0,0,0-1.9.79l-.6.6H4.09q.1,1.31.32,2.58H17.28Z"/><polygon class="cls-71" points="16.77 29.8 15.76 29.8 15.3 29.8 15.3 32.5 15.7 32.67 16.08 32.67 16.77 29.8"/><polygon class="cls-72" points="16.77 29.8 15.76 29.8 15.3 29.8 15.3 32.5 15.7 32.67 16.08 32.67 16.77 29.8"/><polygon class="cls-73" points="16.77 29.8 15.76 29.8 15.3 29.8 15.3 32.5 15.7 32.67 16.08 32.67 16.77 29.8"/><polygon class="cls-74" points="16.77 29.8 15.76 29.8 15.3 29.8 15.3 32.5 15.7 32.67 16.08 32.67 16.77 29.8"/><polygon class="cls-75" points="15.3 32.67 15.7 32.67 15.3 32.5 15.3 32.67"/><polygon class="cls-76" points="15.3 32.67 15.7 32.67 15.3 32.5 15.3 32.67"/><polygon class="cls-77" points="15.3 32.67 15.7 32.67 15.3 32.5 15.3 32.67"/><polygon class="cls-78" points="15.3 32.67 15.7 32.67 15.3 32.5 15.3 32.67"/><polygon class="cls-79" points="15.3 32.67 15.7 32.67 15.3 32.5 15.3 32.67"/><polygon class="cls-80" points="13.93 23.46 14.55 23.46 14.55 22.17 13.69 22.17 13.93 23.46"/><polygon class="cls-81" points="13.93 23.46 14.55 23.46 14.55 22.17 13.69 22.17 13.93 23.46"/><polygon class="cls-82" points="13.93 23.46 14.55 23.46 14.55 22.17 13.69 22.17 13.93 23.46"/><polygon class="cls-83" points="14.68 23.46 15.3 23.46 15.54 22.17 14.68 22.17 14.68 23.46"/><polygon class="cls-84" points="14.68 23.46 15.3 23.46 15.54 22.17 14.68 22.17 14.68 23.46"/><polygon class="cls-85" points="14.68 23.46 15.3 23.46 15.54 22.17 14.68 22.17 14.68 23.46"/><polygon class="cls-86" points="13.01 23.46 13.01 23.46 12.64 22.17 13.01 23.46"/><polygon class="cls-87" points="13.01 23.46 13.01 23.46 12.64 22.17 13.01 23.46"/><polygon class="cls-88" points="13.56 22.17 12.64 22.17 13.01 23.46 13.8 23.46 13.56 22.17"/><polygon class="cls-89" points="13.56 22.17 12.64 22.17 13.01 23.46 13.8 23.46 13.56 22.17"/><polygon class="cls-90" points="13.56 22.17 12.64 22.17 13.01 23.46 13.8 23.46 13.56 22.17"/><polygon class="cls-91" points="15.43 23.46 16.22 23.46 16.59 22.17 15.67 22.17 15.43 23.46"/><polygon class="cls-92" points="15.43 23.46 16.22 23.46 16.59 22.17 15.67 22.17 15.43 23.46"/><polygon class="cls-93" points="15.43 23.46 16.22 23.46 16.59 22.17 15.67 22.17 15.43 23.46"/><path class="cls-94" d="M13.69,22.17h1l-.4-.4V21.6H12.87a.33.33,0,0,0-.33.33v.16a.08.08,0,0,0,.08.08h1.07Z"/><path class="cls-95" d="M13.69,22.17h1l-.4-.4V21.6H12.87a.33.33,0,0,0-.33.33v.16a.08.08,0,0,0,.08.08h1.07Z"/><path class="cls-96" d="M14.68,22.17h1.93a.08.08,0,0,0,.08-.08v-.16a.33.33,0,0,0-.33-.33H15.07v.16Z"/><path class="cls-97" d="M14.68,22.17h1.93a.08.08,0,0,0,.08-.08v-.16a.33.33,0,0,0-.33-.33H15.07v.16Z"/><polygon class="cls-98" points="14.68 22.17 15.08 21.77 15.06 21.6 14.29 21.6 14.28 21.77 14.68 22.17"/><polygon class="cls-99" points="14.68 22.17 15.08 21.77 15.06 21.6 14.29 21.6 14.28 21.77 14.68 22.17"/><polygon class="cls-100" points="14.68 22.17 15.08 21.77 15.06 21.6 14.29 21.6 14.28 21.77 14.68 22.17"/><path class="cls-101" d="M52.71,23.84a.9.9,0,0,0-.38-.08h-.68a7.63,7.63,0,0,1,1.41.21Z"/><path class="cls-102" d="M52.71,23.84a.9.9,0,0,0-.38-.08h-.68a7.63,7.63,0,0,1,1.41.21Z"/><path class="cls-103" d="M52.79,24.57l.05,0,1.39.47.84.3a.21.21,0,0,0,.22,0l.4-.39a.08.08,0,0,0,0-.13l-.06,0a.19.19,0,0,0-.17,0l-.19.1a.22.22,0,0,1-.19,0l-.82-.36-.48.38Z"/><path class="cls-104" d="M52.79,24.57l.05,0,1.39.47.84.3a.21.21,0,0,0,.22,0l.4-.39a.08.08,0,0,0,0-.13l-.06,0a.19.19,0,0,0-.17,0l-.19.1a.22.22,0,0,1-.19,0l-.82-.36-.48.38Z"/><path class="cls-105" d="M52.79,24.57l.05,0,1.39.47.84.3a.21.21,0,0,0,.22,0l.4-.39a.08.08,0,0,0,0-.13l-.06,0a.19.19,0,0,0-.17,0l-.19.1a.22.22,0,0,1-.19,0l-.82-.36-.48.38Z"/><path class="cls-106" d="M51.49,23.9a.18.18,0,0,0,.11.24l1.19.43.79-.34L53.06,24a7.63,7.63,0,0,0-1.41-.21A.18.18,0,0,0,51.49,23.9Z"/><path class="cls-107" d="M51.49,23.9a.18.18,0,0,0,.11.24l1.19.43.79-.34L53.06,24a7.63,7.63,0,0,0-1.41-.21A.18.18,0,0,0,51.49,23.9Z"/><path class="cls-108" d="M51.49,23.9a.18.18,0,0,0,.11.24l1.19.43.79-.34L53.06,24a7.63,7.63,0,0,0-1.41-.21A.18.18,0,0,0,51.49,23.9Z"/><polygon class="cls-109" points="52.79 24.57 52.79 24.57 52.79 24.57 52.79 24.57"/><polygon class="cls-110" points="52.79 24.57 52.79 24.57 52.79 24.57 52.79 24.57"/><polygon class="cls-111" points="52.79 24.57 52.79 24.57 52.79 24.57 52.79 24.57"/><path class="cls-112" d="M55.09,23.82a.08.08,0,0,0,0-.13.35.35,0,0,0-.25,0l-1.23.53.65.29Z"/><path class="cls-113" d="M55.09,23.82a.08.08,0,0,0,0-.13.35.35,0,0,0-.25,0l-1.23.53.65.29Z"/><path class="cls-114" d="M55.09,23.82a.08.08,0,0,0,0-.13.35.35,0,0,0-.25,0l-1.23.53.65.29Z"/><polygon class="cls-115" points="52.79 24.57 53.76 24.89 54.23 24.51 53.58 24.22 52.79 24.57 52.79 24.57"/><polygon class="cls-116" points="52.79 24.57 53.76 24.89 54.23 24.51 53.58 24.22 52.79 24.57 52.79 24.57"/><polygon class="cls-117" points="52.79 24.57 53.76 24.89 54.23 24.51 53.58 24.22 52.79 24.57 52.79 24.57"/><polygon class="cls-118" points="52.79 24.57 53.76 24.89 54.23 24.51 53.58 24.22 52.79 24.57 52.79 24.57"/><path class="cls-119" d="M46.45,20.37l.84.3a.21.21,0,0,0,.22,0l.4-.39a.08.08,0,0,0,0-.13l-.06,0a.19.19,0,0,0-.17,0l-.19.1a.22.22,0,0,1-.19,0l-.82-.36-.48.38Z"/><path class="cls-120" d="M46.45,20.37l.84.3a.21.21,0,0,0,.22,0l.4-.39a.08.08,0,0,0,0-.13l-.06,0a.19.19,0,0,0-.17,0l-.19.1a.22.22,0,0,1-.19,0l-.82-.36-.48.38Z"/><path class="cls-121" d="M43.82,19.45l1.25.45.89.3L45,19.89l.79-.34-.88-.39a.9.9,0,0,0-.38-.08h-.67a.18.18,0,0,0-.06.36Z"/><path class="cls-122" d="M43.82,19.45l1.25.45.89.3L45,19.89l.79-.34-.88-.39a.9.9,0,0,0-.38-.08h-.67a.18.18,0,0,0-.06.36Z"/><polygon class="cls-123" points="45.98 20.21 45.98 20.21 45.95 20.21 45.98 20.21"/><polygon class="cls-124" points="45.98 20.21 45.98 20.21 45.95 20.21 45.98 20.21"/><path class="cls-125" d="M47.31,19.14a.08.08,0,0,0,0-.13A.35.35,0,0,0,47,19l-1.23.53.65.29Z"/><path class="cls-126" d="M47.31,19.14a.08.08,0,0,0,0-.13A.35.35,0,0,0,47,19l-1.23.53.65.29Z"/><polygon class="cls-127" points="45.95 20.21 45.98 20.21 46.45 19.83 45.8 19.54 45.01 19.89 45.95 20.21"/><polygon class="cls-128" points="45.95 20.21 45.98 20.21 46.45 19.83 45.8 19.54 45.01 19.89 45.95 20.21"/><polygon class="cls-129" points="45.95 20.21 45.98 20.21 46.45 19.83 45.8 19.54 45.01 19.89 45.95 20.21"/><path class="cls-130" d="M18.77,56.21a9,9,0,0,0,.8-3.23,11.34,11.34,0,0,0-.12-1.67.77.77,0,0,0-.76-.66h-7a.77.77,0,0,0-.47.16,28.11,28.11,0,0,0,7.25,5.73A.77.77,0,0,0,18.77,56.21Z"/><path class="cls-131" d="M37.57,55.66l-.27,3.11a1,1,0,0,0,1,1h2.16a.94.94,0,0,0,.88-1.3,1.49,1.49,0,0,0-1.37-.78c-1.51-.13-1-2.08-1-2.08"/><path class="cls-132" d="M41.7,30.92l-5.59-.33c-1.78,5.58,2.25,12.94,2.25,12.94l-.79,12.14h1.37A56.31,56.31,0,0,0,41.7,30.92Z"/><path class="cls-133" d="M39.48,38.61c-.57-2.21,2-5.43,2.42-5.89v-.08L36,30.86c-1.57,5.54,2.33,12.66,2.33,12.66l0,.3C38.45,42.21,40.1,41,39.48,38.61Z"/><path class="cls-134" d="M40.34,15s2,1,3.7,5.19,5.92,3.08,6.68,2,2,.32,2,.32-6,7-12.26.28"/><path class="cls-135" d="M51.31,22.19s-.09-1.69.87-2.06,2.94-.12,2.28.47a2.42,2.42,0,0,1-1.22.66s-.34,1.47-1.12,1.63a5.27,5.27,0,0,1-1.22.13"/><path class="cls-136" d="M40.34,15s2,1,3.7,5.19,5.92,3.08,6.68,2,2,.32,2,.32-6,7-12.26.28"/><path class="cls-137" d="M38.93,32.13l-7.7-1s-1.13,4.49,1.54,10.49a6.78,6.78,0,0,1,.4,4.24L31,55.66h1.65S39.27,43.76,38.93,32.13Z"/><rect class="cls-138" x="47.46" y="31.36" width="1.5" height="7.07" rx="0.15" ry="0.15"/><rect class="cls-139" x="47.46" y="31.36" width="1.5" height="7.07" rx="0.15" ry="0.15"/><circle class="cls-140" cx="44.93" cy="58.43" r="1.39"/><ellipse class="cls-141" cx="44.65" cy="58.43" rx="0.29" ry="0.37"/><circle class="cls-142" cx="51.4" cy="58.43" r="1.39"/><ellipse class="cls-143" cx="51.11" cy="58.43" rx="0.29" ry="0.37"/><circle class="cls-144" cx="40.78" cy="58.43" r="1.39"/><ellipse class="cls-145" cx="40.49" cy="58.43" rx="0.29" ry="0.37"/><circle class="cls-146" cx="47.25" cy="58.43" r="1.39"/><ellipse class="cls-147" cx="46.96" cy="58.43" rx="0.29" ry="0.37"/><path class="cls-148" d="M44.6,37.71h9.19a1.46,1.46,0,0,1,1.46,1.46V56.27a1.45,1.45,0,0,1-1.45,1.45H44.6a1.46,1.46,0,0,1-1.46-1.46V39.16a1.45,1.45,0,0,1,1.45-1.45Z"/><rect class="cls-149" x="37.84" y="37.71" width="12.1" height="20.02" rx="1.45" ry="1.45"/><path class="cls-150" d="M46.36,30.55h3.82a.48.48,0,0,1,.48.48v.32a.35.35,0,0,1-.35.35H46.1a.35.35,0,0,1-.35-.35v-.19A.6.6,0,0,1,46.36,30.55Z"/><rect class="cls-151" x="40.25" y="40.76" width="7.28" height="0.56" rx="0.13" ry="0.13"/><rect class="cls-152" x="46.65" y="41.04" width="0.88" height="1.43" rx="0.13" ry="0.13"/><rect class="cls-153" x="36.76" y="43.34" width="10.81" height="14.39" rx="0.98" ry="0.98"/><path class="cls-154" d="M46.6,43.34a1,1,0,0,0-1,1V56.75a1,1,0,1,0,1.95,0V44.32A1,1,0,0,0,46.6,43.34Z"/><path class="cls-155" d="M33.58,44.06s0-.14.1-.47l-.1.47Z"/><path class="cls-156" d="M35.29,31.68l-4.07-.51s-1.38,5.45,2.47,12.35a34.67,34.67,0,0,0,.45-4.65c.17-3.84,4.75-5.57,4.79-5.58h0Z"/><path class="cls-157" d="M36.15,12.64a1.38,1.38,0,0,0-1.57.82c-.43,1.07-1.71.69-2.26,2.55-.35,1.17-2.86,12.31-1.84,15.17s9,2.5,11.46,1.49c.58-.24-.73-10.08-.45-13,.38-3.92-.92-4.54-1.58-5"/><path class="cls-158" d="M36.9,17.48c.45-1.05,2.23-1.31,2.23-1.31l-1.87-2.94-1.11-.6a1.38,1.38,0,0,0-1.57.82c-.27.66-.85.77-1.38,1.18C34.17,16.21,36.58,18.24,36.9,17.48Z"/><path class="cls-159" d="M38.1,27.66,32.94,15l-.4.45a3.39,3.39,0,0,0-.22.56c-.35,1.17-2.86,12.31-1.84,15.17.41,1.14,1.94,1.77,3.78,2h0c1.63,0,1.78-.88,1.39-3.21S38.1,27.66,38.1,27.66Z"/><path class="cls-160" d="M36,10.88a8.31,8.31,0,0,1-.29,2.62c-.22.77,3,2.43,3.33,2s.09-2.17.31-2.65"/><path class="cls-161" d="M35.72,13.5c-.14.49,1.11,1.18,2.12,1.5l.45-.07s-.2,0-.59-.46,1.35-1,1.35-1l-2.67-2.33L36,10.88A8.31,8.31,0,0,1,35.72,13.5Z"/><path class="cls-162" d="M40.46,9s-.11,1.85,0,3.65c0,1-2.57,1.12-3.44.25-1.1-1.09-1.82-4.52-.71-5.81A2.48,2.48,0,0,1,40.46,9Z"/><path class="cls-163" d="M39.5,9.45a1.59,1.59,0,0,0,.85-1.24,2.83,2.83,0,0,0-.12-.34l-3.84-.09-.45.77-.19.81A6,6,0,0,0,37,12.86a2.21,2.21,0,0,0,.94.55c-1.55-.66.35-1.37.85-1.6s.62-.33.54-.41-.5.2-.53-.52S38.68,9.74,39.5,9.45Z"/><path class="cls-164" d="M35.41,9.84a7.83,7.83,0,0,1,.21,1.88c-.08.6.31,1.09.37.28a13.21,13.21,0,0,0,0-1.74"/><path class="cls-165" d="M40.33,8.2a1.82,1.82,0,0,1-2.09.93c-1.57-.28-1.82-.1-1.87.68l-.95.28s-.72-2.29.41-3.57,4.67-1,5.13.91a.75.75,0,0,1,0,.45c-.08.19-.22.56-.49,1.2Z"/><path class="cls-166" d="M35.77,9.3c.48,0,.3.93.3.93l0,.66C35.26,10.69,35.29,9.32,35.77,9.3Z"/><path class="cls-167" d="M35.77,9.58c.23,0,.14.55.14.55l0,.26a.07.07,0,0,1-.11,0C35.51,10.24,35.56,9.6,35.77,9.58Z"/><path class="cls-168" d="M40.4,11.05a5,5,0,0,1-.15,1c-.19.42-.24.1-.37-.33s-.68-.37-1.46-.3-.48.82-1.32.74-.71-2.46-.71-2.46l0-1-.25,1.07c-.07,3.37,0,7,3,6.36C41.43,15.71,40.4,11.05,40.4,11.05Z"/><path class="cls-169" d="M31,55.66l-.7,3.39a.64.64,0,0,0,.62.76h3.39a.78.78,0,0,0,.78-.86c0-.53-.36-1.14-1.49-1.22-2.08-.16-.95-2.08-.95-2.08"/><path class="cls-170" d="M45.76,29s1.48.32,2.34.44S49.65,31,49.19,31s-3.63.51-4.3-.72,1.42-1.12,1.42-1.12"/><path class="cls-171" d="M32.64,15.54c-1.14,6.55,1,11.22,12.13,15.19,0,0,1,.41,1-.34-.06-1.23,1.36-1,1-1.32s-9.42-3.23-9.87-11.27a3.08,3.08,0,0,0-2.6-3.18A1.4,1.4,0,0,0,32.64,15.54Z"/><path class="cls-172" d="M14.37,35.68,14,36.4a1,1,0,0,0,0,.83l.2.39a.72.72,0,0,1-.14.84l-.4.4A2.5,2.5,0,0,0,13,41h0a1.13,1.13,0,0,0,.65.88h0a1.06,1.06,0,0,1,.53,1.4l-.2.44a4.08,4.08,0,0,0-.36,1.47h0a3.73,3.73,0,0,0,.52,2.1l.76,1.28,1.35.62,1.41-2.55A4.62,4.62,0,0,0,17.58,42h0a1.72,1.72,0,0,1,.21-2l.2-.22a2.44,2.44,0,0,0,.64-1.52l0-.37a1,1,0,0,0-.8-1l-.63-.14A.55.55,0,0,1,16.8,36l.17-.82A2.16,2.16,0,0,0,16,33h0a1.15,1.15,0,0,0-1.68.49h0a1.78,1.78,0,0,0-.1,1.2l.16.6A.63.63,0,0,1,14.37,35.68Z"/><path class="cls-173" d="M17.58,42a1.72,1.72,0,0,1,.21-2l.2-.22a2.44,2.44,0,0,0,.64-1.52l0-.37a1,1,0,0,0-.8-1l-.63-.14A.55.55,0,0,1,16.8,36l.17-.82A2.16,2.16,0,0,0,16,33h0a.46.46,0,0,0-.71.45l.3,2.08a2.73,2.73,0,0,1,0,.64l-.11,1.14a1.09,1.09,0,0,0,.31.87h0A1.3,1.3,0,0,1,16,39.73h0a3.84,3.84,0,0,0-.4,3.15h0a2.39,2.39,0,0,1,.08,1.05l-.34,2.35.11,2.52.79.36,1.41-2.55A4.62,4.62,0,0,0,17.58,42Z"/><path class="cls-174" d="M15.63,35.44a5.52,5.52,0,0,1,.08.9,8.77,8.77,0,0,1-.1.9,7.63,7.63,0,0,0-.1.88,4.19,4.19,0,0,0,.13.87l.18.88.16.76.23-.42c.12-.2.22-.41.35-.61A4.81,4.81,0,0,1,17,39l.46-.53-.43.56a4.75,4.75,0,0,0-.39.58c-.12.2-.21.42-.32.63l-.29.59a4.74,4.74,0,0,1,.12.8,3.56,3.56,0,0,1-.09.92l-.21.88-.06.24c.08-.15.16-.29.25-.44a3.56,3.56,0,0,1,.32-.42l.34-.39-.32.41a3.49,3.49,0,0,0-.29.43c-.09.15-.16.31-.23.46l-.15.31-.06.27a8.35,8.35,0,0,0-.17.87,6.31,6.31,0,0,0-.06.89c0,.3,0,.6,0,.9,0,.6,0,1.2,0,1.8-.05-.6-.09-1.2-.14-1.8,0-.3,0-.6-.06-.9a6.47,6.47,0,0,1,0-.91c0-.08,0-.16,0-.23l-.08-.41c0-.17-.06-.34-.11-.51a3.5,3.5,0,0,0-.17-.49l-.2-.48.23.47a3.54,3.54,0,0,1,.2.49c.05.17.09.34.13.51l0,.16c0-.13.05-.26.08-.39l.2-.88.2-.88a3.32,3.32,0,0,0,.06-.39l-.47-.47c-.17-.17-.33-.34-.5-.49a4.77,4.77,0,0,0-.56-.43l-.59-.39.61.36a4.81,4.81,0,0,1,.59.4c.19.15.36.31.53.47l.4.36c0-.1,0-.19,0-.29a5.31,5.31,0,0,0-.13-.87l-.17-.88L15.46,39c0-.15-.06-.29-.08-.45a2.62,2.62,0,0,1,0-.46,7.69,7.69,0,0,1,.13-.9c0-.3.11-.59.13-.88a5.45,5.45,0,0,0,0-.89l-.07-.9Z"/><path class="cls-175" d="M19.26,44v.46a.55.55,0,0,1-.21.43l-.2.16a.41.41,0,0,0-.13.47l.12.3A1.43,1.43,0,0,1,18.72,47h0a.65.65,0,0,1-.55.3h0a.61.61,0,0,0-.61.61v.28a2.34,2.34,0,0,1-.16.85h0a2.14,2.14,0,0,1-.77,1l-.7.49h-.85L15,48.88a2.64,2.64,0,0,1,1.12-2.38h0a1,1,0,0,0,.37-1.11l-.05-.16a1.4,1.4,0,0,1,0-.94l.08-.2a.58.58,0,0,1,.66-.36l.36.07a.32.32,0,0,0,.37-.24L18,43.1a1.24,1.24,0,0,1,1-.95h0a.66.66,0,0,1,.76.65h0a1,1,0,0,1-.23.65l-.23.28A.36.36,0,0,0,19.26,44Z"/><path class="cls-176" d="M16.08,46.5a1,1,0,0,0,.37-1.11l-.05-.16a1.4,1.4,0,0,1,0-.94l.08-.2a.58.58,0,0,1,.66-.36l.36.07a.32.32,0,0,0,.37-.24L18,43.1a1.24,1.24,0,0,1,1-.95h0a.27.27,0,0,1,.26.41l-.65,1a1.56,1.56,0,0,0-.16.33l-.21.62a.62.62,0,0,1-.37.38h0a.74.74,0,0,0-.47.79h0a2.2,2.2,0,0,1-.54,1.74h0a1.37,1.37,0,0,0-.29.53l-.38,1.31-.65,1.29h-.49L15,48.88A2.65,2.65,0,0,1,16.08,46.5Z"/><path class="cls-177" d="M18.66,43.53a3.16,3.16,0,0,0-.26.45,5,5,0,0,0-.16.49,4.35,4.35,0,0,1-.16.48,2.4,2.4,0,0,1-.27.42l-.3.42-.26.36,0-.27c0-.13,0-.27,0-.4a2.75,2.75,0,0,0-.09-.4L17,44.7l.09.39a2.72,2.72,0,0,1,.07.4c0,.13,0,.27,0,.4v.37a2.72,2.72,0,0,0-.25.39,2,2,0,0,0-.17.5l-.1.51,0,.14c0-.1,0-.19,0-.29a2,2,0,0,0-.07-.29l-.09-.29.07.29a2,2,0,0,1,0,.29c0,.1,0,.2,0,.3V48l0,.16a4.79,4.79,0,0,1-.12.5,3.63,3.63,0,0,1-.18.48l-.23.46-.45.93.5-.9.24-.46a3.7,3.7,0,0,0,.2-.48l0-.13.14-.2.18-.24a2,2,0,0,1,.2-.22l.22-.2-.23.19a2,2,0,0,0-.22.21l-.19.23-.06.07,0-.22.1-.51.1-.5a1.92,1.92,0,0,1,.06-.22l.35-.13.38-.14a2.72,2.72,0,0,1,.39-.09l.4-.06-.4,0a2.75,2.75,0,0,0-.4.07l-.39.12-.29.09.07-.15a3,3,0,0,1,.27-.43l.3-.42.3-.42.15-.21a1.5,1.5,0,0,0,.12-.24,4.41,4.41,0,0,0,.15-.5c0-.17.08-.34.14-.49a3.12,3.12,0,0,1,.23-.46l.25-.45Z"/><path class="cls-178" d="M12.68,47.32l0,.34a2.87,2.87,0,0,0,.09,1.06A2.63,2.63,0,0,0,13.55,50l.65.56h1.23l.33-1.79a3.25,3.25,0,0,0-1.07-3.05,1.21,1.21,0,0,1-.31-1.4l.08-.19A1.72,1.72,0,0,0,14.54,43l-.07-.25a.72.72,0,0,0-.77-.52l-.45,0a.39.39,0,0,1-.43-.34l-.07-.59A1.52,1.52,0,0,0,11.63,40h0a.81.81,0,0,0-1,.7,1.25,1.25,0,0,0,.2.82l.24.37a.44.44,0,0,1,.07.29l-.06.56a.68.68,0,0,0,.2.55l.22.22a.51.51,0,0,1,.1.59l-.18.36a1.76,1.76,0,0,0,0,1.57.79.79,0,0,0,.63.44A.75.75,0,0,1,12.68,47.32Z"/><path class="cls-179" d="M12.64,43.54a.91.91,0,0,1,.48,1,2.71,2.71,0,0,0,.44,2.19,1.69,1.69,0,0,1,.29.69l.3,1.65.57,1.49h.71l.33-1.79a3.25,3.25,0,0,0-1.07-3.05,1.21,1.21,0,0,1-.31-1.41l.08-.19A1.72,1.72,0,0,0,14.54,43l-.07-.25a.72.72,0,0,0-.77-.52l-.45,0a.39.39,0,0,1-.43-.34l-.07-.59A1.52,1.52,0,0,0,11.63,40h0a.33.33,0,0,0-.37.46l.66,1.33a1.92,1.92,0,0,1,.15.42l.18.78A.77.77,0,0,0,12.64,43.54Z"/><path class="cls-180" d="M12.76,45.73a3.39,3.39,0,0,0-.48-.14l-.49-.1.48.13a3.36,3.36,0,0,1,.47.16l.45.22.41.21a2.34,2.34,0,0,1,0,.27l.06.63.06.63c0,.09,0,.19,0,.28l-.06-.1c-.07-.1-.13-.21-.2-.31a2.49,2.49,0,0,0-.24-.28L13,47.07l.24.28a2.46,2.46,0,0,1,.22.29c.07.1.12.21.18.32l.15.26c0,.05,0,.11,0,.16a4.57,4.57,0,0,0,.18.62l.24.59.42,1h0l-.37-1L14.14,49a4.45,4.45,0,0,1-.16-.61,5.91,5.91,0,0,1-.08-.62l0-.19,0-.24c0-.12,0-.24.05-.36a2.46,2.46,0,0,1,.1-.35l.12-.35-.14.34a2.49,2.49,0,0,0-.12.35c0,.12,0,.23-.07.35l0-.17-.06-.63a2.5,2.5,0,0,0-.15-.64,3.34,3.34,0,0,0-.26-.51l.06-.46c0-.16,0-.33.07-.49a3.35,3.35,0,0,1,.13-.48l.17-.47-.19.46a3.38,3.38,0,0,0-.16.47c0,.16-.07.33-.1.49l-.06.33L13,44.7l-.32-.55a3,3,0,0,1-.28-.55A5.38,5.38,0,0,1,12.3,43a6.19,6.19,0,0,0-.13-.62,3.9,3.9,0,0,0-.26-.59l-.28-.57.25.59a3.83,3.83,0,0,1,.22.59c.05.2.07.41.11.62a5.42,5.42,0,0,0,.11.63,1.84,1.84,0,0,0,.12.3l.16.28.31.55.31.55a3.73,3.73,0,0,1,.28.56l.06.19-.35-.15Z"/></g></g></svg>